<?xml version="1.0" standalone="no"?>
<!DOCTYPE svg PUBLIC "-//W3C//DTD SVG 1.1//EN" "http://www.w3.org/Graphics/SVG/1.1/DTD/svg11.dtd" >
<svg xmlns="http://www.w3.org/2000/svg" xmlns:xlink="http://www.w3.org/1999/xlink" version="1.1">
<metadata>
Created by FontForge 20190801 at Sat Jun 25 17:43:17 2016
 By www-data
Copyright (c) 2016 Miguel Reyes under exclusive license to Schwartzco Inc. / Commercial Type. All rights reserved.
</metadata>
<defs>
<font id="CanelaThin" horiz-adv-x="478" >
  <font-face 
    font-family="CanelaThin"
    font-weight="250"
    font-stretch="normal"
    units-per-em="1000"
    panose-1="0 0 0 0 0 0 0 0 0 0"
    ascent="775"
    descent="-225"
    x-height="475"
    cap-height="732"
    bbox="-130 -260 1112 1159"
    underline-thickness="20"
    underline-position="-80"
    unicode-range="U+000D-FB04"
  />
<missing-glyph horiz-adv-x="161" 
 />
    <glyph glyph-name="f_b" unicode="fb" horiz-adv-x="808" 
d="M525 -15q-98 0 -151 59l-24 -44h-10v629q0 59 -26.5 94.5t-67.5 35.5q-96 0 -96 -141v-143h118v-18h-118v-318q0 -96 23 -137v-2h-97v2q24 38 24 137v318h-63v18h63v99q0 98 40.5 151.5t117.5 53.5q47 0 86 -21l46 21v-374h3q52 85 164 85q93 0 152 -65.5t59 -173.5
q0 -110 -63.5 -188t-179.5 -78zM537 3q75 0 124 65t49 173q0 101 -50.5 158t-129.5 57q-43 -1 -82 -22t-58 -50v-215q0 -82 42 -124t105 -42z" />
    <glyph glyph-name="f_f_b" unicode="ffb" horiz-adv-x="1048" 
d="M765 -15q-98 0 -151 59l-24 -44h-10v629q0 59 -26.5 94.5t-67.5 35.5q-96 0 -96 -141v-143h118v-18h-118v-318q0 -96 23 -137v-2h-97v2q24 38 24 137v318h-190v-318q0 -96 23 -137v-2h-97v2q24 38 24 137v318h-63v18h63v79q0 97 38 151t107 54q41 0 59 -14l12 -80l-6 -2
q-31 44 -48 60t-40 16q-32 0 -52 -36.5t-20 -104.5v-123h190v99q0 98 40.5 151.5t117.5 53.5q47 0 86 -21l46 21v-374h3q52 85 164 85q93 0 152 -65.5t59 -173.5q0 -110 -63.5 -188t-179.5 -78zM777 3q75 0 124 65t49 173q0 101 -50.5 158t-129.5 57q-43 -1 -82 -22t-58 -50
v-215q0 -82 42 -124t105 -42z" />
    <glyph glyph-name="f_f_h" unicode="ffh" horiz-adv-x="1021" 
d="M76 2q24 38 24 137v318h-63v18h63v79q0 97 38 151t107 54q41 0 59 -14l12 -80l-6 -2q-31 44 -48 60t-40 16q-32 0 -52 -36.5t-20 -104.5v-123h190v99q0 98 40.5 151.5t117.5 53.5q47 0 86 -21l46 21v-376q74 87 180 87q69 0 104.5 -38.5t35.5 -107.5v-224q0 -47 3.5 -71
t18.5 -47v-2h-94v2q22 41 22 117v214q0 118 -112 118q-93 0 -158 -66v-266q0 -45 3.5 -69t18.5 -48v-2h-94v2q22 41 22 117v510q0 59 -26.5 94.5t-67.5 35.5q-96 0 -96 -141v-143h118v-18h-118v-318q0 -96 23 -137v-2h-97v2q24 38 24 137v318h-190v-318q0 -96 23 -137v-2
h-97v2z" />
    <glyph glyph-name="f_f_j" unicode="ffj" horiz-adv-x="693" 
d="M628 -56q0 -79 -26.5 -115.5t-84.5 -43.5l-2 5q35 19 50 48t15 92v453q0 53 -36 74h-154v-318q0 -96 23 -137v-2h-97v2q24 38 24 137v318h-190v-318q0 -96 23 -137v-2h-97v2q24 38 24 137v318h-63v18h63v79q0 97 38 151t107 54q41 0 59 -14l12 -80l-6 -2q-31 44 -48 60
t-40 16q-32 0 -52 -36.5t-20 -104.5v-123h190v99q0 97 37.5 151t106.5 54q58 0 80 -27l22 -107l-6 -2q-40 66 -62.5 91t-50.5 25q-36 0 -56.5 -36t-20.5 -105v-143h154q51 0 86 20z" />
    <glyph glyph-name="f_f_k" unicode="ffk" horiz-adv-x="941" 
d="M841 0l-186 249l142 161q33 40 -9 63v2h116v-2q-34 -15 -49 -27.5t-41 -43.5l-113 -128l136 -182q30 -38 49.5 -57t44.5 -33v-2h-90zM76 2q24 38 24 137v318h-63v18h63v79q0 97 38 151t107 54q41 0 59 -14l12 -80l-6 -2q-31 44 -48 60t-40 16q-32 0 -52 -36.5t-20 -104.5
v-123h190v99q0 205 155 205q50 0 89 -21l46 21v-660q0 -45 3.5 -69t18.5 -48v-2h-94v2q22 41 22 117v510q0 59 -27.5 94.5t-70.5 35.5q-92 0 -92 -141v-143h118v-18h-118v-318q0 -96 23 -137v-2h-97v2q24 38 24 137v318h-190v-318q0 -96 23 -137v-2h-97v2z" />
    <glyph glyph-name="f_h" unicode="fh" horiz-adv-x="781" 
d="M76 0v2q24 38 24 137v318h-63v18h63v99q0 98 40.5 151.5t117.5 53.5q46 0 85 -21l47 21v-376q74 87 180 87q69 0 104.5 -38.5t35.5 -107.5v-224q0 -47 3.5 -71t18.5 -47v-2h-94v2q22 41 22 117v214q0 118 -112 118q-93 0 -158 -66v-266q0 -45 3.5 -69t18.5 -48v-2h-94v2
q22 41 22 117v510q0 59 -26.5 94.5t-67.5 35.5q-96 0 -96 -141v-143h118v-18h-118v-318q0 -96 23 -137v-2h-97z" />
    <glyph glyph-name="f_j" unicode="fj" horiz-adv-x="454" 
d="M388 -56q0 -79 -26.5 -115.5t-84.5 -43.5l-2 5q35 19 50 48t15 92v453q0 53 -36 74h-154v-318q0 -96 23 -137v-2h-97v2q24 38 24 137v318h-63v18h63v99q0 97 37.5 151t106.5 54q58 0 80 -27l22 -107l-6 -2q-40 66 -62.5 91t-50.5 25q-36 0 -56.5 -36t-20.5 -105v-143h154
q51 0 86 20z" />
    <glyph glyph-name="f_k" unicode="fk" horiz-adv-x="701" 
d="M76 0v2q24 38 24 137v318h-63v18h63v99q0 205 155 205q49 0 88 -21l47 21v-660q0 -45 3.5 -69t18.5 -48v-2h-94v2q22 41 22 117v510q0 59 -27.5 94.5t-70.5 35.5q-92 0 -92 -141v-143h118v-18h-118v-318q0 -96 23 -137v-2h-97zM601 0l-186 249l142 161q33 40 -9 63v2h116
v-2q-34 -15 -49 -27.5t-41 -43.5l-113 -128l136 -182q30 -38 49.5 -57t44.5 -33v-2h-90z" />
    <glyph glyph-name="f_t" unicode="ft" horiz-adv-x="569" 
d="M544 33q-48 -48 -109 -48q-42 0 -71 25.5t-29 84.5v362h-185v-318q0 -96 23 -137v-2h-97v2q24 38 24 137v318h-63v18h63v99q0 97 38 151t107 54q41 0 59 -14l12 -80l-6 -2q-31 44 -48 60t-40 16q-32 0 -52 -36.5t-20 -104.5v-143h149l84 73h2v-73h148v-18h-148v-364
q0 -77 73 -77q45 0 84 21z" />
    <glyph glyph-name="f_f_t" unicode="fft" horiz-adv-x="809" 
d="M784 33q-48 -48 -109 -48q-42 0 -71 25.5t-29 84.5v362h-185v-318q0 -96 23 -137v-2h-97v2q24 38 24 137v318h-190v-318q0 -96 23 -137v-2h-97v2q24 38 24 137v318h-63v18h63v79q0 97 38 151t107 54q41 0 59 -14l12 -80l-6 -2q-31 44 -48 60t-40 16q-32 0 -52 -36.5
t-20 -104.5v-123h190v99q0 97 38 151t107 54q41 0 59 -14l12 -80l-6 -2q-31 44 -48 60t-40 16q-32 0 -52 -36.5t-20 -104.5v-143h149l84 73h2v-73h148v-18h-148v-364q0 -77 73 -77q45 0 84 21z" />
    <glyph glyph-name="f_f" unicode="ff" horiz-adv-x="531" 
d="M76 2q24 38 24 137v318h-63v18h63v79q0 97 38 151t107 54q41 0 59 -14l12 -80l-6 -2q-31 44 -48 60t-40 16q-32 0 -52 -36.5t-20 -104.5v-123h190v99q0 97 38 151t107 54q41 0 59 -14l12 -80l-6 -2q-31 44 -48 60t-40 16q-32 0 -52 -36.5t-20 -104.5v-143h118v-18h-118
v-318q0 -96 23 -137v-2h-97v2q24 38 24 137v318h-190v-318q0 -96 23 -137v-2h-97v2z" />
    <glyph glyph-name="f_i" unicode="fi" horiz-adv-x="461" 
d="M76 0v2q24 38 24 137v318h-63v18h63v99q0 97 37.5 151t106.5 54q58 0 80 -27l22 -107l-6 -2q-40 66 -62.5 91t-50.5 25q-36 0 -56.5 -36t-20.5 -105v-143h154q51 0 86 20v-375q0 -46 3.5 -70t18.5 -48v-2h-94v2q22 41 22 117v264q0 53 -44 74h-146v-318q0 -96 23 -137v-2
h-97z" />
    <glyph glyph-name="f_l" unicode="fl" horiz-adv-x="461" 
d="M173 0h-97v2q24 38 24 137v318h-63v18h63v99q0 205 155 205q49 0 88 -21l47 21v-660q0 -45 3.5 -69t18.5 -48v-2h-94v2q22 41 22 117v510q0 59 -27.5 94.5t-70.5 35.5q-92 0 -92 -141v-143h118v-18h-118v-318q0 -96 23 -137v-2z" />
    <glyph glyph-name="f_f_i" unicode="ffi" horiz-adv-x="701" 
d="M76 0v2q24 38 24 137v318h-63v18h63v79q0 97 38 151t107 54q41 0 59 -14l12 -80l-6 -2q-31 44 -48 60t-40 16q-32 0 -52 -36.5t-20 -104.5v-123h190v99q0 97 37.5 151t106.5 54q58 0 80 -27l22 -107l-6 -2q-40 66 -62.5 91t-50.5 25q-36 0 -56.5 -36t-20.5 -105v-143h154
q51 0 86 20v-375q0 -46 3.5 -70t18.5 -48v-2h-94v2q22 41 22 117v264q0 53 -44 74h-146v-318q0 -96 23 -137v-2h-97v2q24 38 24 137v318h-190v-318q0 -96 23 -137v-2h-97z" />
    <glyph glyph-name="f_f_l" unicode="ffl" horiz-adv-x="701" 
d="M76 2q24 38 24 137v318h-63v18h63v79q0 97 38 151t107 54q41 0 59 -14l12 -80l-6 -2q-31 44 -48 60t-40 16q-32 0 -52 -36.5t-20 -104.5v-123h190v99q0 98 40.5 151.5t117.5 53.5q46 0 85 -21l47 21v-660q0 -45 3.5 -69t18.5 -48v-2h-94v2q22 41 22 117v510
q0 59 -26.5 94.5t-67.5 35.5q-96 0 -96 -141v-143h118v-18h-118v-318q0 -96 23 -137v-2h-97v2q24 38 24 137v318h-190v-318q0 -96 23 -137v-2h-97v2z" />
    <glyph glyph-name=".notdef" horiz-adv-x="161" 
 />
    <glyph glyph-name=".null" horiz-adv-x="0" 
 />
    <glyph glyph-name=".null" horiz-adv-x="0" 
 />
    <glyph glyph-name="nonmarkingreturn" horiz-adv-x="333" 
 />
    <glyph glyph-name="CR" unicode="&#xd;" horiz-adv-x="150" 
 />
    <glyph glyph-name="space" unicode=" " horiz-adv-x="150" 
 />
    <glyph glyph-name="exclam" unicode="!" horiz-adv-x="214" 
d="M136 730l-22 -536h-14l-21 536v2h57v-2zM107 -3q-19 0 -33 13.5t-14 33.5t14 33.5t33 13.5q20 0 33.5 -13.5t13.5 -33.5t-13.5 -33.5t-33.5 -13.5z" />
    <glyph glyph-name="quotedbl" unicode="&#x22;" horiz-adv-x="300" 
d="M52 732h66l-28 -190h-10zM182 732h66l-28 -190h-10z" />
    <glyph glyph-name="numbersign" unicode="#" horiz-adv-x="576" 
d="M406 483h-192l-44 -234h192zM359 231h-192l-43 -231h-23l43 231h-129v18h132l44 234h-129v18h132l43 231h23l-43 -231h192l43 231h23l-43 -231h129v-18h-132l-44 -234h129v-18h-132l-43 -231h-23z" />
    <glyph glyph-name="dollar" unicode="$" horiz-adv-x="523" 
d="M448 578l-8 -3q-40 122 -132 145q-21 4 -42 6v-306q3 -1 11.5 -4.5t13.5 -5.5q40 -17 62.5 -28t54 -32t48.5 -42.5t29.5 -53.5t12.5 -71q0 -76 -42.5 -123.5t-114.5 -63.5q-38 -10 -75 -11v-99h-23v99q-57 2 -98 11q-49 10 -90 27l-20 142l8 3q35 -86 86 -124
q43 -34 114 -39v363q-22 9 -64 29q-128 63 -128 178q0 84 59 128q52 38 133 43v76h23v-75q86 0 162 -30zM267 5q88 0 133 42t45 116q0 114 -120 168l-59 27v-353h1zM178 715q-42 -16 -63.5 -49t-21.5 -73q0 -54 33 -90t91 -62q5 -2 26 -11v297q-38 -2 -65 -12z" />
    <glyph glyph-name="percent" unicode="%" horiz-adv-x="770" 
d="M185 346q-65 0 -110 58t-45 143q0 84 45 142t110 58q66 0 111.5 -58t45.5 -142q0 -85 -45.5 -143t-111.5 -58zM185 361q100 0 100 186q0 185 -100 185q-98 0 -98 -185q0 -186 98 -186zM583 -8q-65 0 -110 58t-45 143q0 84 45 142t110 58q66 0 111.5 -58t45.5 -142
q0 -85 -45.5 -143t-111.5 -58zM583 7q100 0 100 186q0 185 -100 185q-98 0 -98 -185q0 -186 98 -186zM124 14l521 729l17 -11l-522 -731z" />
    <glyph glyph-name="ampersand" unicode="&#x26;" horiz-adv-x="747" 
d="M599 -15q-81 0 -153 85q-80 -85 -194 -85q-102 0 -157 56.5t-55 142.5q0 78 44.5 134t122.5 87q-71 103 -71 179q0 72 43.5 117.5t109.5 45.5q62 0 99.5 -40t37.5 -101q0 -64 -43 -114.5t-121 -78.5q10 -14 69 -90q29 -38 75 -105t67 -94q46 64 71.5 142t25.5 122
q0 25 -12.5 37t-48.5 17v4h182v-4q-43 -10 -65 -35q-20 -25 -39 -75q-1 -3 -9.5 -27t-11.5 -31.5t-11.5 -29t-15 -33.5t-15.5 -31t-19.5 -35t-22.5 -32q36 -42 67.5 -63t70.5 -21q84 0 118 87l4 -2q-34 -129 -143 -129zM176 606q0 -43 18.5 -84t61.5 -100q64 25 99.5 71
t35.5 108q0 54 -26.5 91t-78.5 37q-48 0 -79 -32.5t-31 -90.5zM272 11q94 0 164 70q-22 29 -70.5 104t-77.5 112q-69 91 -73 97q-125 -58 -125 -194q0 -84 47 -136.5t135 -52.5z" />
    <glyph glyph-name="quotesingle" unicode="'" horiz-adv-x="170" 
d="M52 732h66l-28 -190h-10z" />
    <glyph glyph-name="parenleft" unicode="(" horiz-adv-x="272" 
d="M249 -130q-86 76 -132.5 188.5t-46.5 253.5t46.5 254t132.5 189l8 -10q-139 -165 -139 -433q0 -267 139 -432z" />
    <glyph glyph-name="parenright" unicode=")" horiz-adv-x="272" 
d="M15 -120q139 165 139 432q0 268 -139 433l8 10q86 -76 132.5 -189t46.5 -254t-46.5 -253.5t-132.5 -188.5z" />
    <glyph glyph-name="asterisk" unicode="*" horiz-adv-x="362" 
d="M181 583l-57 -109l-44 31l86 88l-121 21l17 51l110 -55l-18 122h54l-18 -122l110 55l17 -51l-122 -21l86 -88l-43 -31z" />
    <glyph glyph-name="plus" unicode="+" horiz-adv-x="532" 
d="M277 298v-210h-22v210h-210v20h210v210h22v-210h210v-20h-210z" />
    <glyph glyph-name="comma" unicode="," horiz-adv-x="204" 
d="M40 -138q26 24 43 56t17 59q0 34 -37 71v2l56 42q36 -27 36 -68q0 -91 -107 -172z" />
    <glyph glyph-name="hyphen" unicode="-" horiz-adv-x="281" 
d="M30 263v40h221v-40h-221z" />
    <glyph glyph-name="period" unicode="." horiz-adv-x="198" 
d="M99 -3q-19 0 -33 13.5t-14 33.5t14 33.5t33 13.5q20 0 33.5 -13.5t13.5 -33.5t-13.5 -33.5t-33.5 -13.5z" />
    <glyph glyph-name="slash" unicode="/" horiz-adv-x="403" 
d="M365 781h23l-385 -911h-23z" />
    <glyph glyph-name="zero" unicode="0" horiz-adv-x="640" 
d="M319 -15q-116 0 -197.5 111t-81.5 270q0 160 81.5 270.5t197.5 110.5q117 0 199 -111t82 -270t-82.5 -270t-198.5 -111zM319 4q105 0 159.5 101.5t54.5 260.5t-54.5 260.5t-159.5 101.5t-158.5 -101t-53.5 -261t53.5 -261t158.5 -101z" />
    <glyph glyph-name="one" unicode="1" horiz-adv-x="307" 
d="M88 0v2q30 33 40 57t10 66v500h-88v2q77 46 139 120h4v-622q0 -42 10 -66t40 -57v-2h-155z" />
    <glyph glyph-name="two" unicode="2" horiz-adv-x="511" 
d="M10 0v10q221 178 307.5 298t86.5 232q0 90 -43.5 139t-122.5 49q-71 0 -111 -37.5t-77 -113.5l-6 2l26 136q77 32 171 32q115 0 170 -54.5t55 -144.5q0 -115 -91 -229t-288 -267h261q47 0 71 17.5t54 66.5l8 -3l-41 -133h-430z" />
    <glyph glyph-name="three" unicode="3" horiz-adv-x="529" 
d="M242 -15q-48 0 -99 12.5t-82 31.5l-21 126l6 2q38 -61 59 -87.5t56 -46t82 -19.5q94 0 138.5 61t44.5 160q0 211 -184 211q-70 0 -128 -44l-9 10l299 278h-323l22 52h374v-10l-301 -280q39 14 84 14q99 0 164 -59.5t65 -167.5q0 -110 -68 -177t-179 -67z" />
    <glyph glyph-name="four" unicode="4" horiz-adv-x="547" 
d="M328 2q24 33 32 57t8 66v65h-358v10l348 532h69l-392 -520h333v278h54v-278h90l-8 -22h-82v-65q0 -42 8 -66t32 -57v-2h-134v2z" />
    <glyph glyph-name="five" unicode="5" horiz-adv-x="526" 
d="M235 -15q-106 0 -177 44l-23 136l6 2q47 -85 90 -124t112 -39q89 0 134.5 62.5t45.5 162.5q0 101 -48 159.5t-144 58.5q-82 0 -141 -47l-10 8l53 324h339l-10 -52h-317l-42 -254q54 42 140 42q109 0 176 -62.5t67 -170.5q0 -112 -67.5 -181t-183.5 -69z" />
    <glyph glyph-name="six" unicode="6" horiz-adv-x="566" 
d="M285 -15q-104 0 -172 82.5t-68 200.5q0 62 20.5 127.5t62.5 133t118 126t176 92.5l4 -12q-117 -48 -190 -139t-105 -200q59 90 177 90q95 0 156.5 -66t61.5 -171q0 -112 -70.5 -188t-170.5 -76zM286 4q78 0 127.5 65t49.5 169q0 100 -46 157t-130 57q-54 0 -99 -24.5
t-66 -70.5q-11 -48 -11 -101q0 -64 16.5 -119t57.5 -94t101 -39z" />
    <glyph glyph-name="seven" unicode="7" horiz-adv-x="467" 
d="M76 0q91 335 352 680h-393l12 52h425v-10q-257 -366 -325 -722h-71z" />
    <glyph glyph-name="eight" unicode="8" horiz-adv-x="530" 
d="M264 -15q-102 0 -165.5 51.5t-63.5 139.5q0 70 43 125.5t130 74.5q-137 68 -137 191q0 79 54 129.5t140 50.5q82 0 135.5 -46t53.5 -121q0 -56 -34.5 -103.5t-115.5 -71.5q191 -79 191 -219q0 -98 -65.5 -149.5t-165.5 -51.5zM264 4q88 0 139 43t51 118q0 63 -47.5 103.5
t-176.5 97.5l-6 3q-146 -53 -146 -192q0 -82 48.5 -127.5t137.5 -45.5zM111 587q0 -61 43 -100t135 -76q122 57 122 170q0 69 -37.5 108t-107.5 39q-71 0 -113 -40t-42 -101z" />
    <glyph glyph-name="nine" unicode="9" horiz-adv-x="566" 
d="M140 -3q117 49 191 139.5t104 199.5q-59 -90 -177 -90q-95 0 -156.5 66t-61.5 171q0 112 70.5 188t170.5 76q104 0 172 -82.5t68 -200.5q0 -62 -20.5 -127.5t-62.5 -133t-118 -126t-176 -92.5zM278 280q54 0 99.5 24.5t66.5 70.5q11 48 11 101q0 64 -16.5 119t-57.5 94
t-101 39q-78 0 -127.5 -65t-49.5 -169q0 -100 46 -157t129 -57z" />
    <glyph glyph-name="colon" unicode=":" horiz-adv-x="198" 
d="M99 319q-19 0 -33 13.5t-14 33.5t14 33.5t33 13.5q20 0 33.5 -13.5t13.5 -33.5t-13.5 -33.5t-33.5 -13.5zM99 -3q-19 0 -33 13.5t-14 33.5t14 33.5t33 13.5q20 0 33.5 -13.5t13.5 -33.5t-13.5 -33.5t-33.5 -13.5z" />
    <glyph glyph-name="semicolon" unicode=";" horiz-adv-x="198" 
d="M29 -138q26 24 43 56t17 59q0 34 -37 71v2l56 42q36 -27 36 -68q0 -91 -107 -172zM99 319q-19 0 -33 13.5t-14 33.5t14 33.5t33 13.5q20 0 33.5 -13.5t13.5 -33.5t-13.5 -33.5t-33.5 -13.5z" />
    <glyph glyph-name="less" unicode="&#x3c;" horiz-adv-x="530" 
d="M45 293v26l430 208v-25l-409 -196l409 -196v-25z" />
    <glyph glyph-name="equal" unicode="=" horiz-adv-x="532" 
d="M45 379v20h442v-20h-442zM45 237v20h442v-20h-442z" />
    <glyph glyph-name="greater" unicode="&#x3e;" horiz-adv-x="530" 
d="M55 85v25l409 196l-409 196v25l430 -208v-26z" />
    <glyph glyph-name="question" unicode="?" horiz-adv-x="433" 
d="M136 194q7 48 29.5 88.5t50.5 69.5t54.5 59.5t44.5 73.5t18 96q0 148 -123 148q-58 0 -94 -33t-64 -107l-7 2l19 124q84 32 151 32q85 0 131.5 -42.5t46.5 -122.5q0 -51 -21 -93t-52.5 -73t-65 -61t-62.5 -71.5t-40 -89.5h-16zM150 -3q-19 0 -33 13.5t-14 33.5t14 33.5
t33 13.5q20 0 33.5 -13.5t13.5 -33.5t-13.5 -33.5t-33.5 -13.5z" />
    <glyph glyph-name="at" unicode="@" horiz-adv-x="849" 
d="M413 -161q-164 0 -268.5 98t-104.5 262q0 181 124 309t317 128q151 0 239.5 -81.5t88.5 -226.5q0 -122 -61 -209t-158 -87q-73 0 -95 51t-2 122l7 26q-36 -89 -86 -148.5t-100 -59.5q-36 0 -56.5 27t-20.5 80q0 121 81 221.5t183 100.5q45 0 71 -17l28 17h4l-65 -244
q-22 -66 -10.5 -111.5t67.5 -45.5q80 0 129 79.5t49 193.5q0 139 -80.5 215.5t-215.5 76.5q-175 0 -284 -121.5t-109 -295.5q0 -157 91 -248.5t241 -91.5q128 0 214 60l8 -16q-89 -64 -226 -64zM336 62q25 0 50 20.5t48.5 59t39.5 70t35 75.5l29 113q-21 33 -61 33
q-75 0 -132.5 -95t-57.5 -195q0 -81 49 -81z" />
    <glyph glyph-name="A" unicode="A" horiz-adv-x="625" 
d="M298 674l-135 -378h269zM117 0h-112v2q19 17 30 34t17 31t21 54l226 620h27l229 -629q20 -56 30.5 -74t34.5 -36v-2h-125v2q28 37 2 112l-58 162h-284l-57 -160q-27 -74 19 -114v-2z" />
    <glyph glyph-name="B" unicode="B" horiz-adv-x="577" 
d="M52 0v2q24 33 32 56.5t8 65.5v484q0 42 -8 65.5t-32 56.5v2q95 0 153 2t78 2q238 0 238 -169q0 -66 -34 -114.5t-98 -66.5q84 -9 124.5 -60t40.5 -123q0 -94 -67 -148.5t-201 -54.5h-234zM316 391q78 0 114 49.5t36 119.5q0 156 -186 156q-69 0 -134 -5v-320h170zM283 20
q107 0 159 47.5t52 131.5q0 79 -43 125.5t-125 46.5h-180v-344q70 -7 137 -7z" />
    <glyph glyph-name="C" unicode="C" horiz-adv-x="742" 
d="M672 63q-35 -27 -110.5 -52.5t-159.5 -25.5q-166 0 -264 108.5t-98 273.5q0 164 106 272t282 108q129 0 240 -50l20 -141l-8 -2q-50 92 -110.5 132.5t-145.5 40.5q-156 0 -237 -99.5t-81 -260.5q0 -162 76.5 -262t223.5 -100q108 0 172 53t106 160l8 -2z" />
    <glyph glyph-name="D" unicode="D" horiz-adv-x="717" 
d="M52 2q24 39 32 66.5t8 77.5v440q0 50 -8 77.5t-32 66.5v2q66 0 139.5 2t141.5 2q162 0 253 -95.5t91 -271.5q0 -179 -94 -274t-270 -95h-261v2zM146 717v-698l157 1q162 0 235 83.5t73 251.5q0 184 -71.5 272t-216.5 89z" />
    <glyph glyph-name="E" unicode="E" horiz-adv-x="585" 
d="M525 0h-473v2q39 59 39 113v502q0 54 -39 113v2h423l39 -145l-8 -3q-65 93 -88 112q-15 12 -26 13l-246 6v-337h161q12 0 23.5 12t28 40.5t19.5 32.5h8v-185h-8q-4 6 -12 19t-14 21.5t-14 19t-16 15.5t-15 5h-161v-341l253 7q44 2 80 36t83 105l8 -3z" />
    <glyph glyph-name="F" unicode="F" horiz-adv-x="530" 
d="M187 0h-135v2q24 30 32 53.5t8 62.5v496q0 39 -8 62.5t-32 53.5v2h432l31 -145l-8 -3q-9 12 -26 36t-26 35.5t-21.5 26.5t-22 21t-18.5 6l-246 6v-327h161q12 0 23.5 12t28 40.5t19.5 32.5h8v-185h-8q-4 6 -12 19t-14 21.5t-14 19t-16 15.5t-15 5h-161v-250
q0 -41 7.5 -63t32.5 -53v-2z" />
    <glyph glyph-name="G" unicode="G" horiz-adv-x="802" 
d="M728 91q-1 0 -17.5 -12t-22.5 -15t-24.5 -14.5t-30 -16.5t-32 -14.5t-38.5 -14t-41 -10t-48 -7.5t-51 -2q-174 0 -278.5 108.5t-104.5 272.5t109.5 272.5t291.5 108.5q135 0 256 -48l21 -143l-8 -3q-40 91 -105 132.5t-173 41.5q-160 0 -243 -101t-83 -261
q0 -163 77.5 -261.5t239.5 -98.5q115 0 185 41t70 118q0 76 -9.5 109.5t-36.5 56.5v2h136v-2q-24 -24 -32 -52t-8 -87v-100z" />
    <glyph glyph-name="H" unicode="H" horiz-adv-x="712" 
d="M52 2q24 33 32 56.5t8 65.5v484q0 42 -8 65.5t-32 56.5v2h134v-2q-24 -33 -32 -56.5t-8 -65.5v-220h420v220q0 42 -8 65.5t-32 56.5v2h134v-2q-24 -33 -32 -56.5t-8 -65.5v-484q0 -42 8 -65.5t32 -56.5v-2h-134v2q24 33 32 56.5t8 65.5v244h-420v-244q0 -42 8 -65.5
t32 -56.5v-2h-134v2z" />
    <glyph glyph-name="I" unicode="I" horiz-adv-x="238" 
d="M53 2q24 32 31.5 55t7.5 67v484q0 42 -8 65.5t-32 56.5v2h134v-2q-24 -33 -32 -56.5t-8 -65.5v-484q0 -42 8 -65.5t33 -56.5l-1 -2h-134z" />
    <glyph glyph-name="J" unicode="J" horiz-adv-x="355" 
d="M273 118q0 -64 -33 -98.5t-95 -34.5q-51 0 -98 22l-18 125l8 3q63 -130 125 -130q57 0 57 97v506q0 42 -8 65.5t-32 56.5v2h134v-2q-24 -33 -32 -56.5t-8 -65.5v-490z" />
    <glyph glyph-name="K" unicode="K" horiz-adv-x="604" 
d="M53 2q24 32 31.5 55t7.5 67v484q0 42 -8 65.5t-32 56.5v2h134v-2q-24 -33 -32 -56.5t-8 -65.5v-484q0 -42 8 -65.5t33 -56.5l-1 -2h-134zM494 0l-312 381l227 240q55 58 2 109v2h165v-2q-34 -16 -61.5 -36t-38 -31t-37.5 -40l-207 -219l234 -286q48 -58 71 -79t56 -37
l1 -2h-100z" />
    <glyph glyph-name="L" unicode="L" horiz-adv-x="541" 
d="M52 0v2q24 33 32 56.5t8 65.5v484q0 42 -8 65.5t-32 56.5v2h134v-2q-24 -33 -32 -56.5t-8 -65.5v-591l208 7q48 2 85 35t79 106l8 -3l-46 -162h-428z" />
    <glyph glyph-name="M" unicode="M" horiz-adv-x="843" 
d="M39 0v2q32 37 42.5 63.5t10.5 74.5v494q-3 33 -15.5 52.5t-45.5 43.5v2h110l284 -635l286 635h101v-2q-37 -27 -49 -50t-12 -73v-480q0 -44 7.5 -68t32.5 -57v-2h-133v2q24 33 32.5 58t8.5 67v527l-285 -632h-15l-287 635l3 -517q0 -48 14 -75t58 -63v-2h-148z" />
    <glyph glyph-name="N" unicode="N" horiz-adv-x="716" 
d="M111 632l4 -494q0 -47 13.5 -74t56.5 -62v-2h-143v2q31 34 40.5 61.5t9.5 74.5v516q-38 54 -80 76v2h89l505 -634l-3 496q0 47 -11.5 74.5t-48.5 61.5v2h133v-2q-31 -35 -40.5 -61.5t-9.5 -74.5v-594l-9 -3z" />
    <glyph glyph-name="O" unicode="O" horiz-adv-x="811" 
d="M405 -15q-156 0 -260.5 109t-104.5 271t104.5 272t260.5 110t261 -110t105 -272t-105 -271t-261 -109zM405 5q136 0 218 101t82 259q0 157 -82 259.5t-218 102.5t-217.5 -102t-81.5 -260q0 -157 81.5 -258.5t217.5 -101.5z" />
    <glyph glyph-name="P" unicode="P" horiz-adv-x="547" 
d="M52 2q24 33 32 56.5t8 65.5v484q0 42 -8 65.5t-32 56.5v2h243q125 0 178.5 -55t53.5 -143q0 -102 -64.5 -163t-181.5 -61h-135v-186q0 -42 8 -65.5t32 -56.5v-2h-134v2zM281 712q-66 0 -135 -3v-379h134q97 0 144 54.5t47 149.5q0 53 -15 89.5t-43 55t-59 26t-73 7.5z
" />
    <glyph glyph-name="Q" unicode="Q" horiz-adv-x="811" 
d="M520 -89q159 -69 292 -5l-25 -53q-35 -23 -108 -23q-62 0 -115.5 18t-89.5 46.5t-55.5 49.5t-33.5 42q-68 3 -125 28q-100 43 -160 137t-60 214q0 162 104.5 272t260.5 110t261 -110t105 -272q0 -120 -60 -214t-161 -137q-64 -27 -142 -29q55 -48 112 -74zM405 5
q136 0 218 101t82 259q0 157 -82 259.5t-218 102.5t-217.5 -102t-81.5 -260q0 -157 81.5 -258.5t217.5 -101.5z" />
    <glyph glyph-name="R" unicode="R" horiz-adv-x="618" 
d="M52 0v2q24 33 32 56.5t8 65.5v484q0 42 -8 65.5t-32 56.5v2h257q105 0 155 -45.5t50 -126.5q0 -75 -34.5 -131t-103.5 -75l123 -231q27 -53 51 -80t58 -41v-2h-105l-183 345h-174v-221q0 -42 8 -65.5t32 -56.5v-2h-134zM299 712h-58q-58 0 -95 -1v-346h154q81 0 119 54.5
t38 139.5q0 74 -35.5 113.5t-122.5 39.5z" />
    <glyph glyph-name="S" unicode="S" horiz-adv-x="533" 
d="M448 578l-8 -3q-51 152 -190 152q-79 0 -118 -39t-39 -95q0 -36 12.5 -63t46 -49.5t53 -32.5t70.5 -31q11 -5 16 -7q40 -17 62.5 -28t54 -32t48.5 -42.5t29.5 -53.5t12.5 -71q0 -101 -71 -149.5t-180 -48.5q-101 0 -192 38l-20 142l8 3q34 -86 86.5 -124.5t137.5 -38.5
q88 0 133 42t45 116q0 35 -11.5 63.5t-25.5 46t-45.5 37t-49.5 28t-59 26.5q-35 15 -51 22.5t-45.5 23t-44 29.5t-31.5 34.5t-24 45.5t-7 56q0 83 58 127.5t157 44.5q86 0 162 -30z" />
    <glyph glyph-name="T" unicode="T" horiz-adv-x="634" 
d="M384 0h-134v2q25 31 32.5 55t7.5 67v590l-153 -4q-29 0 -114 -152l-8 3l39 171h526l39 -171l-8 -3q-7 12 -22.5 38t-25.5 42t-22.5 35t-23.5 28t-20 9l-153 4v-590q0 -42 8 -65.5t32 -56.5v-2z" />
    <glyph glyph-name="U" unicode="U" horiz-adv-x="684" 
d="M353 -15q-120 0 -196.5 62.5t-76.5 190.5v367q0 44 -7.5 68t-32.5 57v2h134v-2q-40 -53 -40 -125v-364q0 -121 63 -177.5t165 -56.5q119 0 170 67.5t51 175.5v342q0 48 -14 75t-58 63v2h155v-2q-38 -36 -50 -63t-12 -75v-341q0 -56 -13 -102t-41 -84t-78.5 -59
t-118.5 -21z" />
    <glyph glyph-name="V" unicode="V" horiz-adv-x="624" 
d="M298 -8l-226 626q-18 48 -32.5 71t-39.5 41v2h147v-2q-17 -17 -22.5 -45.5t6.5 -69.5l196 -552l185 517q33 88 -21 150v2h133v-2q-32 -25 -47 -52t-39 -93l-213 -593h-27z" />
    <glyph glyph-name="W" unicode="W" horiz-adv-x="949" 
d="M257 -9l-188 629q-17 56 -26.5 74t-32.5 36v2h139v-2q-1 -1 -7 -9.5t-9 -12.5t-7.5 -15t-5.5 -20.5t0.5 -24t6.5 -30.5l160 -538l170 476l-22 64q-19 53 -30.5 72.5t-35.5 37.5v2h147v-2l-15 -15q-31 -31 -9 -97l186 -543l151 510q23 86 -23 145v2h133v-2
q-34 -25 -50.5 -53.5t-35.5 -91.5l-177 -594h-27l-180 530l-185 -530h-27z" />
    <glyph glyph-name="X" unicode="X" horiz-adv-x="612" 
d="M141 0h-136v2q38 24 62.5 51.5t61.5 83.5l152 243l-159 254q-26 41 -44 61.5t-43 34.5v2h151v-2q-48 -23 -5 -91l138 -220l117 176q44 65 44.5 90t-39.5 45v2h136v-2q-15 -9 -27 -18.5t-23.5 -24t-17.5 -23t-21.5 -32.5t-24.5 -37l-132 -196l189 -301q26 -41 44 -61.5
t43 -34.5v-2h-151v2q48 23 5 91l-167 266l-138 -222q-25 -39 -34.5 -55.5t-13.5 -34t4.5 -26.5t28.5 -19v-2z" />
    <glyph glyph-name="Y" unicode="Y" horiz-adv-x="570" 
d="M215 2q24 25 32 47t8 57v236l-169 291q-43 73 -86 97v2h155v-2q-48 -22 -9 -91l156 -270l135 226q22 36 26.5 63t-3.5 42t-26 30v2h136v-2q-11 -7 -20 -13t-18 -16t-13.5 -14.5t-14.5 -19.5t-12.5 -19t-15.5 -25.5t-16 -27.5l-151 -251v-238q0 -36 7.5 -56.5t32.5 -47.5
v-2h-134v2z" />
    <glyph glyph-name="Z" unicode="Z" horiz-adv-x="608" 
d="M30 0v11l465 705l-263 -8q-51 -2 -90.5 -39t-80.5 -112l-8 3l47 172h464v-11l-464 -706l299 9q94 4 171 157l8 -3l-49 -178h-499z" />
    <glyph glyph-name="bracketleft" unicode="[" horiz-adv-x="299" 
d="M100 755h184v-18h-136v-849h136v-18h-184v885z" />
    <glyph glyph-name="backslash" unicode="\" horiz-adv-x="403" 
d="M400 -130l-385 911h23l385 -911h-23z" />
    <glyph glyph-name="bracketright" unicode="]" horiz-adv-x="299" 
d="M199 -130h-184v18h136v849h-136v18h184v-885z" />
    <glyph glyph-name="asciicircum" unicode="^" horiz-adv-x="412" 
d="M206 661l-167 -177l-9 8l173 253h6l173 -253l-9 -8z" />
    <glyph glyph-name="underscore" unicode="_" horiz-adv-x="490" 
d="M30 -100v18h430v-18h-430z" />
    <glyph glyph-name="grave" unicode="`" horiz-adv-x="314" 
d="M230 533l-172 178l49 38l130 -210z" />
    <glyph glyph-name="a" unicode="a" horiz-adv-x="464" 
d="M180 21q82 0 134 52v177q-59 -7 -107 -23.5t-82.5 -49.5t-34.5 -76q0 -37 22.5 -58.5t67.5 -21.5zM378 -12q-31 0 -47 18.5t-17 49.5q-67 -71 -158 -71q-54 0 -85.5 27t-31.5 75q0 42 26.5 75.5t69 54t87.5 33t92 16.5v92q0 102 -113 102q-76 0 -140 -44l-5 7
q67 67 174 67q76 0 105 -33t29 -89v-302q0 -43 39 -43q24 0 48 24l3 -2q-22 -57 -76 -57z" />
    <glyph glyph-name="b" unicode="b" horiz-adv-x="530" 
d="M247 -15q-98 0 -151 59l-24 -44h-10v673q0 39 -44 62v2l94 42v-374h3q52 85 164 85q93 0 152 -65.5t59 -173.5q0 -110 -63.5 -188t-179.5 -78zM259 3q75 0 124 65t49 173q0 101 -50.5 158t-129.5 57q-43 -1 -82 -22t-58 -50v-215q0 -82 42 -124t105 -42z" />
    <glyph glyph-name="c" unicode="c" 
d="M443 111q-19 -58 -69 -92t-118 -34q-96 0 -156 65.5t-60 173.5q0 121 73.5 193.5t177.5 72.5q62 0 134 -33l7 -94l-6 -2q-35 60 -68 85.5t-84 25.5q-82 0 -130.5 -58.5t-48.5 -162.5q0 -99 46 -159.5t132 -60.5q49 0 94.5 21t70.5 61z" />
    <glyph glyph-name="d" unicode="d" horiz-adv-x="543" 
d="M270 19q93 0 148 87v226q0 76 -38 108t-92 32q-83 0 -136.5 -66t-53.5 -168q0 -100 48 -159.5t124 -59.5zM419 86q-56 -101 -178 -101q-91 0 -146 63.5t-55 171.5q0 110 73.5 190t188.5 80q67 0 116 -27v210q0 39 -44 62v2l94 42v-672q0 -45 8.5 -60.5t35.5 -26.5v-2
l-89 -30v98h-4z" />
    <glyph glyph-name="e" unicode="e" 
d="M260 472q-63 0 -105 -41.5t-55 -117.5l277 6v6q0 147 -117 147zM443 111q-19 -58 -69 -92t-119 -34q-97 0 -156 67.5t-59 177.5q0 115 65 187.5t158 72.5q83 0 133 -57.5t44 -134.5h-342q-3 -21 -3 -46q0 -100 46 -160.5t132 -60.5q50 0 95 20.5t70 61.5z" />
    <glyph glyph-name="f" unicode="f" horiz-adv-x="291" 
d="M76 2q24 38 24 137v318h-63v18h63v99q0 97 38 151t107 54q41 0 59 -14l12 -80l-6 -2q-31 44 -48 60t-40 16q-32 0 -52 -36.5t-20 -104.5v-143h118v-18h-118v-318q0 -96 23 -137v-2h-97v2z" />
    <glyph glyph-name="g" unicode="g" horiz-adv-x="477" 
d="M224 175q57 0 88.5 43t31.5 105q0 63 -31 106t-90 43t-89 -43.5t-30 -105.5q0 -61 31.5 -104.5t88.5 -43.5zM460 -78q0 -66 -64 -106.5t-171 -40.5q-96 0 -153 32.5t-57 87.5q0 40 27.5 70.5t66.5 40.5q-72 16 -72 71q0 40 32 64t78 34q-45 20 -72 60t-27 88
q0 67 51.5 117t123.5 50q69 0 118 -43l119 54l2 -1v-64h-4l-107 2q49 -49 49 -115q0 -68 -52 -117t-124 -49q-34 0 -64 12q-76 -24 -76 -73q0 -44 87 -48l115 -4q89 -4 131.5 -37t42.5 -85zM242 -207q82 0 128.5 29t46.5 82q0 90 -147 95l-111 2q-20 0 -35 3
q-24 -6 -41.5 -33t-17.5 -63q0 -56 47.5 -85.5t129.5 -29.5z" />
    <glyph glyph-name="h" unicode="h" horiz-adv-x="517" 
d="M54 0v2q22 41 22 117v541q0 46 -44 75v2l94 42v-376q74 87 180 87q69 0 104.5 -38.5t35.5 -107.5v-224q0 -47 3.5 -71t18.5 -47v-2h-94v2q22 41 22 117v214q0 118 -112 118q-93 0 -158 -66v-266q0 -45 3.5 -69t18.5 -48v-2h-94z" />
    <glyph glyph-name="i" unicode="i" horiz-adv-x="197" 
d="M139 659q0 -17 -12 -29t-29 -12t-29 12t-12 29t12 29t29 12t29 -12t12 -29zM54 2q22 41 22 117v248q0 45 -44 74v2l94 52v-375q0 -46 3.5 -70t18.5 -48v-2h-94v2z" />
    <glyph glyph-name="j" unicode="j" horiz-adv-x="190" 
d="M139 659q0 -17 -12 -29t-29 -12t-29 12t-12 29t12 29t29 12t29 -12t12 -29zM11 -210q35 19 50 48t15 92v437q0 45 -44 74v2l94 52l-2 -551q0 -79 -26.5 -115.5t-84.5 -43.5z" />
    <glyph glyph-name="k" unicode="k" horiz-adv-x="437" 
d="M54 2q22 41 22 117v554q0 39 -44 62v2l94 42v-659q0 -45 4 -69.5t18 -48.5v-2h-94v2zM337 0l-186 249l142 161q33 40 -9 63v2h116v-2q-34 -15 -49 -27.5t-41 -43.5l-113 -128l136 -182q30 -38 49.5 -57t44.5 -33v-2h-90z" />
    <glyph glyph-name="l" unicode="l" horiz-adv-x="197" 
d="M54 2q22 41 22 117v554q0 39 -44 62v2l94 42v-659q0 -45 4 -69.5t18 -48.5v-2h-94v2z" />
    <glyph glyph-name="m" unicode="m" horiz-adv-x="748" 
d="M149 0h-95v2q23 40 23 115v247q0 48 -45 78v2l91 53v-93l4 -1q60 87 161 87q92 0 111 -88l3 -1q63 89 162 89q61 0 87 -34.5t26 -101.5v-236q0 -45 4 -69t18 -47v-2h-94v2q22 38 22 115v227q0 51 -19 79t-70 28q-74 0 -136 -68v-265q0 -45 4 -69t19 -47v-2h-95v2
q22 38 22 115v227q0 51 -19 79t-71 28q-75 0 -135 -66v-267q0 -80 22 -116v-2z" />
    <glyph glyph-name="n" unicode="n" horiz-adv-x="517" 
d="M148 0h-94v2q22 41 22 117v247q0 46 -44 75v2l90 52v-91l4 -1q74 87 180 87q69 0 104.5 -38.5t35.5 -107.5v-224q0 -47 3.5 -71t18.5 -47v-2h-94v2q22 41 22 117v214q0 118 -112 118q-98 0 -158 -66v-265q0 -46 3.5 -70t18.5 -48v-2z" />
    <glyph glyph-name="o" unicode="o" horiz-adv-x="562" 
d="M281 -15q-101 0 -173.5 73.5t-72.5 178.5t72.5 179t173.5 74t173.5 -74t72.5 -179t-72.5 -178.5t-173.5 -73.5zM281 3q89 0 136.5 66t47.5 168t-48.5 168.5t-135.5 66.5t-135.5 -66.5t-48.5 -168.5t47.5 -168t136.5 -66z" />
    <glyph glyph-name="p" unicode="p" horiz-adv-x="544" 
d="M261 3q83 0 134 64.5t51 172.5q0 101 -50 158.5t-125 57.5q-46 0 -85.5 -21.5t-59.5 -50.5v-315q49 -66 135 -66zM54 -225v2q22 41 22 117v472q0 46 -44 75v2l90 52v-89l7 -1q52 85 164 85q93 0 152 -65.5t59 -173.5q0 -70 -26 -129t-83.5 -98t-138.5 -39q-77 0 -130 39
v-129q0 -46 3.5 -70t18.5 -48v-2h-94z" />
    <glyph glyph-name="q" unicode="q" horiz-adv-x="533" 
d="M395 -223q23 42 23 117v190q-55 -99 -177 -99q-91 0 -146 63.5t-55 171.5q0 110 73.5 190t188.5 80q77 0 127 -34l37 31h2v-592q0 -46 3.5 -70t18.5 -48v-2h-95v2zM270 19q93 0 148 87v226q0 76 -37.5 108t-92.5 32q-83 0 -136.5 -66t-53.5 -168q0 -100 48 -159.5
t124 -59.5z" />
    <glyph glyph-name="r" unicode="r" horiz-adv-x="309" 
d="M54 2q22 41 22 117v247q0 46 -44 75v2l90 52v-121l5 -1q9 9 34 37t39 41t39 26t50 13v-80h-2q-25 15 -73 15q-23 0 -88 -75v-230q0 -46 3.5 -70t18.5 -48v-2h-94v2z" />
    <glyph glyph-name="s" unicode="s" horiz-adv-x="375" 
d="M323 383l-8 -2q-26 51 -56.5 71t-70.5 20q-48 0 -77.5 -24t-29.5 -64q0 -23 8.5 -39.5t30.5 -30t36.5 -20t51.5 -20.5q32 -13 52 -23t43.5 -28t35 -43t11.5 -58q0 -64 -45 -100.5t-131 -36.5q-72 0 -132 29l-10 102l8 2q25 -60 60 -87.5t88 -27.5q58 0 89.5 29t31.5 73
q0 45 -32.5 70t-93.5 47q-31 11 -51.5 21t-44 26.5t-35.5 40.5t-12 55q0 65 48 95t117 30q64 0 108 -18z" />
    <glyph glyph-name="t" unicode="t" horiz-adv-x="319" 
d="M185 -15q-42 0 -71 25.5t-29 84.5v362h-54v2l102 89h2v-73h148v-18h-148v-364q0 -77 73 -77q45 0 84 21l2 -4q-48 -48 -109 -48z" />
    <glyph glyph-name="u" unicode="u" horiz-adv-x="490" 
d="M362 74q-70 -89 -167 -89q-64 0 -98.5 37t-34.5 103v284q0 42 -42 64v2h92v-334q0 -117 104 -117q80 0 141 63v322q0 44 -44 64v2h94v-364q0 -45 9.5 -61.5t35.5 -27.5v-2l-90 -32v86z" />
    <glyph glyph-name="v" unicode="v" horiz-adv-x="412" 
d="M59 371q-29 79 -59 102v2h117v-2q-34 -31 -5 -104l111 -293l107 285q32 85 -12 112v2h99v-2q-23 -18 -36 -38t-28 -66l-143 -374h-6z" />
    <glyph glyph-name="w" unicode="w" horiz-adv-x="636" 
d="M184 -6l-119 378q-25 77 -55 101v2h112v-2q-9 -10 -11 -34t7 -62l85 -294l106 288v1q-29 85 -54 101v2h107v-2q-22 -27 4 -108l92 -281l88 276q28 87 -14 113v2h99v-2q-23 -17 -35 -37t-26 -67l-123 -375h-6l-122 350l-129 -350h-6z" />
    <glyph glyph-name="x" unicode="x" horiz-adv-x="423" 
d="M111 0h-106v2q25 17 34.5 24t22.5 21.5t28 36.5l96 152l-85 137q-47 74 -86 100v2h117v-2q-7 -9 -9 -18t2.5 -21t10.5 -23.5t20 -32.5l65 -106l72 115q35 55 4 86v2h106v-2q-25 -17 -34.5 -24t-22.5 -21.5t-28 -36.5l-86 -136l95 -153q47 -74 86 -100v-2h-117v2q7 9 9 18
t-2.5 21t-10.5 23.5t-20 32.5l-75 121l-82 -130q-36 -54 -4 -86v-2z" />
    <glyph glyph-name="y" unicode="y" horiz-adv-x="412" 
d="M20 -170q21 0 47 9.5t57.5 37.5t47.5 70l25 65l-138 359q-29 79 -59 102v2h117v-2q-32 -29 -5 -104l110 -292l108 284q32 85 -12 112v2h99v-2q-23 -17 -34 -35.5t-30 -68.5l-173 -450q-28 -72 -66 -105t-92 -39z" />
    <glyph glyph-name="z" unicode="z" horiz-adv-x="412" 
d="M20 0v7l298 451l-152 -4q-43 0 -85 -49l-27 -33l-5 2l33 101h299v-8l-297 -450l168 3q41 0 64.5 20t60.5 72l5 -2l-35 -110h-327z" />
    <glyph glyph-name="braceleft" unicode="{" horiz-adv-x="283" 
d="M233 -130q-69 0 -106 31.5t-37 88.5q0 35 27.5 110t27.5 119q0 84 -103 84h-12v19h12q103 0 103 84q0 44 -27.5 119t-27.5 110q0 57 37 88.5t106 31.5h35v-18h-35q-42 0 -66.5 -21t-24.5 -80q0 -25 18 -103.5t18 -120.5q0 -88 -96 -98v-3q96 -10 96 -98q0 -42 -18 -120.5
t-18 -103.5q0 -59 24.5 -80t66.5 -21h35v-18h-35z" />
    <glyph glyph-name="bar" unicode="|" horiz-adv-x="205" 
d="M91 -130v911h23v-911h-23z" />
    <glyph glyph-name="braceright" unicode="}" horiz-adv-x="283" 
d="M15 -130v18h35q42 0 66.5 21t24.5 80q0 25 -18 103.5t-18 120.5q0 88 96 98v3q-96 10 -96 98q0 42 18 120.5t18 103.5q0 59 -24.5 80t-66.5 21h-35v18h35q69 0 106 -31.5t37 -88.5q0 -35 -27.5 -110t-27.5 -119q0 -84 103 -84h12v-19h-12q-103 0 -103 -84
q0 -44 27.5 -119t27.5 -110q0 -57 -37 -88.5t-106 -31.5h-35z" />
    <glyph glyph-name="asciitilde" unicode="~" horiz-adv-x="452" 
d="M134 328q24 0 96 -29t109 -29q29 0 44 14.5t24 46.5l8 -2q-1 -17 -5.5 -32.5t-14 -33.5t-29 -28.5t-45.5 -10.5q-31 0 -106 29t-100 29q-55 0 -69 -63l-9 2q3 39 26 73t71 34z" />
    <glyph glyph-name="uni00A0" unicode="&#xa0;" horiz-adv-x="150" 
 />
    <glyph glyph-name="exclamdown" unicode="&#xa1;" horiz-adv-x="214" 
d="M136 -245h-57v2l21 536h14l22 -536v-2zM107 490q20 0 33.5 -13.5t13.5 -33.5t-13.5 -33.5t-33.5 -13.5q-19 0 -33 13.5t-14 33.5t14 33.5t33 13.5z" />
    <glyph glyph-name="cent" unicode="&#xa2;" 
d="M443 111q-20 -58 -69 -92q-46 -31 -109 -34v-99h-23v99q-37 3 -73 17q-60 25 -94.5 83t-34.5 139q0 91 43 156t112 92q20 8 47 13v72h23v-68q9 1 26 1q62 0 134 -33l7 -94l-6 -2q-35 60 -68 85.5t-84 25.5h-9v-441h8q49 0 94.5 21t70.5 61zM144 414q-49 -56 -49 -163
q0 -153 100 -204q18 -9 47 -14v436q-60 -9 -98 -55z" />
    <glyph glyph-name="sterling" unicode="&#xa3;" horiz-adv-x="533" 
d="M467 0h-452v8q37 28 54 43.5t35.5 43.5t26.5 66.5t13 99.5l8 97h-83l4 18h81l8 96q12 139 61.5 207t125.5 68q58 0 104 -30l20 -139l-8 -3q-53 152 -139 152q-38 0 -61 -48.5t-42 -188.5l-15 -114h142l-4 -18h-141l-10 -74q-14 -110 -48 -166.5t-70 -72.5h269
q65 0 98 23.5t76 96.5l8 -3z" />
    <glyph glyph-name="yen" unicode="&#xa5;" horiz-adv-x="540" 
d="M200 2q24 25 32 47t8 57v85h-180v18h180v114h-180v18h174l-148 292q-19 39 -38.5 60t-47.5 37v2h155v-2q-43 -20 -9 -91l140 -280l121 236q28 62 25.5 87.5t-28.5 47.5v2h136v-2q-38 -22 -59.5 -49.5t-50.5 -85.5l-131 -254h175v-18h-180v-114h180v-18h-180v-85
q0 -36 7.5 -56.5t32.5 -47.5v-2h-134v2z" />
    <glyph glyph-name="brokenbar" unicode="&#xa6;" horiz-adv-x="205" 
d="M91 365v416h23v-416h-23zM91 -130v415h23v-415h-23z" />
    <glyph glyph-name="section" unicode="&#xa7;" horiz-adv-x="485" 
d="M201 -164q-76 0 -118 25l-8 99l7 2q24 -58 57 -82.5t80 -24.5q52 0 85.5 32.5t33.5 85.5q0 29 -10.5 52t-29 39.5t-40 30t-47.5 27.5q-9 4 -14 7q-67 34 -104.5 74t-37.5 106q0 61 36.5 103t93.5 50q-70 54 -70 131q0 78 52 116t125 38q48 0 95 -14l8 -88l-7 -2
q-27 48 -51.5 66.5t-65.5 18.5q-51 0 -82.5 -32t-31.5 -83q0 -28 9 -50t30.5 -41.5t37 -29.5t48.5 -29q8 -5 12 -7q34 -20 51 -32t40.5 -34t34 -49.5t10.5 -61.5q0 -60 -35 -101.5t-90 -50.5q75 -54 75 -136t-52 -118.5t-127 -36.5zM238 166q7 -4 25.5 -14t28.5 -16
q42 7 69.5 41t27.5 84q0 30 -10.5 54.5t-33.5 44t-41 31t-52 29.5l-28 16q-9 5 -27 17q-43 -5 -72 -39.5t-29 -86.5q0 -32 10.5 -56.5t35.5 -45t41.5 -30.5t54.5 -29z" />
    <glyph glyph-name="dieresis" unicode="&#xa8;" horiz-adv-x="450" 
d="M366 659q0 -17 -12 -29t-29 -12t-29 12t-12 29t12 29t29 12t29 -12t12 -29zM166 659q0 -17 -12 -29t-29 -12t-29 12t-12 29t12 29t29 12t29 -12t12 -29z" />
    <glyph glyph-name="copyright" unicode="&#xa9;" horiz-adv-x="843" 
d="M40 367q0 159 111 269.5t270 110.5t270.5 -110.5t111.5 -269.5t-111.5 -270t-270.5 -111t-270 111t-111 270zM65 367q0 -150 104 -255.5t252 -105.5t252 105.5t104 255.5t-104 255t-252 105t-252 -105t-104 -255zM564 199q-59 -42 -143 -42q-90 0 -143 60t-53 151
q0 89 56.5 148.5t149.5 59.5q65 0 131 -27l11 -91l-5 -2q-56 103 -144 103q-72 0 -110.5 -53t-38.5 -138q0 -88 37 -141t109 -53q100 0 148 125l6 -2z" />
    <glyph glyph-name="ordfeminine" unicode="&#xaa;" horiz-adv-x="366" 
d="M151 384q60 0 92 39v131q-158 -26 -158 -110q0 -60 66 -60zM294 354q-47 0 -49 53q-52 -56 -121 -56q-42 0 -65.5 21t-23.5 58q0 42 35 73.5t79 46.5t94 21v66q0 39 -18 58.5t-64 19.5q-68 0 -109 -34l-6 8q51 58 141 58q107 0 107 -99v-232q0 -34 24 -34q14 0 31 19
l3 -2q-19 -45 -58 -45z" />
    <glyph glyph-name="guillemotleft" unicode="&#xab;" horiz-adv-x="401" 
d="M338 52l-138 175v20l138 175l8 -6l-91 -179l91 -179zM188 52l-138 175v20l138 175l8 -6l-91 -179l91 -179z" />
    <glyph glyph-name="registered" unicode="&#xae;" horiz-adv-x="470" 
d="M25 541q0 86 62 146t150 60q87 0 147.5 -59.5t60.5 -146.5q0 -86 -62 -145.5t-149 -59.5q-88 0 -148.5 59t-60.5 146zM48 541q0 -78 54.5 -132t132.5 -54t132.5 54t54.5 132q0 79 -54.5 133t-132.5 54q-79 0 -133 -54t-54 -133zM161 434q12 13 12 35v146q0 22 -12 36v2
h81q71 0 71 -57q0 -42 -44 -56l39 -71q10 -18 16 -25t16 -10v-2h-44l-54 99h-39v-62q0 -22 12 -35v-2h-54v2zM203 635v-84h33q46 0 46 45q0 19 -10.5 29t-37.5 10h-31z" />
    <glyph glyph-name="macron" unicode="&#xaf;" horiz-adv-x="450" 
d="M82 645h285v-35h-285v35z" />
    <glyph glyph-name="degree" unicode="&#xb0;" horiz-adv-x="295" 
d="M15 615q0 54 39.5 93t95.5 39t93 -38.5t37 -93.5t-39.5 -94t-94.5 -39q-56 0 -93.5 38.5t-37.5 94.5zM39 615q0 -48 30.5 -80.5t78.5 -32.5q47 0 77.5 32.5t30.5 80.5t-30 80t-78 32t-78.5 -32t-30.5 -80z" />
    <glyph glyph-name="acute" unicode="&#xb4;" horiz-adv-x="449" 
d="M279 749l49 -38l-172 -178l-7 6z" />
    <glyph glyph-name="paragraph" unicode="&#xb6;" horiz-adv-x="458" 
d="M320 0v1q15 40 15 92v546q0 55 -15 92v1h58v-1q-15 -40 -15 -92v-546q0 -55 15 -92v-1h-58zM230 0v1q15 40 15 92v302h-56q-70 0 -119.5 50t-49.5 120q0 69 49.5 118t119.5 49h99v-1q-15 -40 -15 -92v-546q0 -55 15 -92v-1h-58z" />
    <glyph glyph-name="periodcentered" unicode="&#xb7;" horiz-adv-x="184" 
d="M92 227q-19 0 -33 13.5t-14 33.5t14 33.5t33 13.5q20 0 33.5 -13.5t13.5 -33.5t-13.5 -33.5t-33.5 -13.5z" />
    <glyph glyph-name="cedilla" unicode="&#xb8;" horiz-adv-x="449" 
d="M150 -247q54 20 79.5 39.5t25.5 51.5q0 55 -86 65l-1 2q4 8 12 21t10 16q18 30 34 54h28l-37 -59q83 -19 83 -86q0 -84 -146 -112z" />
    <glyph glyph-name="ordmasculine" unicode="&#xba;" horiz-adv-x="440" 
d="M220 351q-80 0 -137.5 58t-57.5 140t57.5 140t137.5 58t137.5 -58t57.5 -140t-57.5 -140t-137.5 -58zM220 367q65 0 101 52t36 130t-36 130t-101 52q-66 0 -102 -52t-36 -130t36 -130t102 -52z" />
    <glyph glyph-name="guillemotright" unicode="&#xbb;" horiz-adv-x="401" 
d="M205 58l91 179l-91 179l8 6l138 -175v-20l-138 -175zM55 58l91 179l-91 179l8 6l138 -175v-20l-138 -175z" />
    <glyph glyph-name="onequarter" unicode="&#xbc;" horiz-adv-x="595" 
d="M47 354v1q17 20 22.5 35.5t5.5 42.5v229h-48v4q50 29 92 78h5v-311q0 -28 5.5 -43t23.5 -35v-1h-106zM43 14l521 729l17 -11l-522 -731zM467 1q23 33 23 78v21h-173v7l180 278h57l-214 -269h150v126h48v-126h49l-4 -16h-45v-21q0 -27 4.5 -42t19.5 -36v-1h-95v1z" />
    <glyph glyph-name="onehalf" unicode="&#xbd;" horiz-adv-x="655" 
d="M33 14l521 729l17 -11l-522 -731zM382 0v7q112 94 155 156.5t43 123.5q0 43 -20 67t-57 24q-32 0 -52.5 -22t-44.5 -70l-5 2l12 88q46 17 91 17q64 0 94.5 -28t30.5 -76q0 -56 -45 -113t-142 -134h105q33 0 53.5 17t41.5 54l5 -2l-32 -111h-233zM47 354v1
q17 20 22.5 35.5t5.5 42.5v229h-48v4q50 29 92 78h5v-311q0 -28 5.5 -43t23.5 -35v-1h-106z" />
    <glyph glyph-name="threequarters" unicode="&#xbe;" horiz-adv-x="646" 
d="M139 346q-62 0 -99 23l-13 83l5 1q29 -48 52.5 -70t59.5 -22q43 0 64.5 32t21.5 81q0 103 -91 103q-37 0 -69 -22l-7 9l147 131h-162l14 43h213v-5l-162 -144q20 5 38 5q54 0 91 -31.5t37 -88.5q0 -58 -38.5 -93t-101.5 -35zM94 14l521 729l17 -11l-522 -731zM518 1
q23 33 23 78v21h-173v7l180 278h57l-214 -269h150v126h48v-126h49l-4 -16h-45v-21q0 -27 4.5 -42t19.5 -36v-1h-95v1z" />
    <glyph glyph-name="questiondown" unicode="&#xbf;" horiz-adv-x="433" 
d="M297 293q-7 -48 -29.5 -88.5t-50.5 -69.5t-54.5 -59.5t-44.5 -73.5t-18 -96q0 -148 123 -148q58 0 94 33t64 107l7 -2l-19 -124q-84 -32 -151 -32q-85 0 -131.5 42.5t-46.5 122.5q0 51 21 93t52.5 73t65 61t62.5 71.5t40 89.5h16zM283 490q19 0 33 -13.5t14 -33.5
t-14 -33.5t-33 -13.5q-20 0 -33.5 13.5t-13.5 33.5t13.5 33.5t33.5 13.5z" />
    <glyph glyph-name="Agrave" unicode="&#xc0;" horiz-adv-x="625" 
d="M298 674l-135 -378h269zM117 0h-112v2q19 17 30 34t17 31t21 54l226 620h27l229 -629q20 -56 30.5 -74t34.5 -36v-2h-125v2q28 37 2 112l-58 162h-284l-57 -160q-27 -74 19 -114v-2zM391 782l-231 123l37 54l198 -170z" />
    <glyph glyph-name="Aacute" unicode="&#xc1;" horiz-adv-x="625" 
d="M298 674l-135 -378h269zM117 0h-112v2q19 17 30 34t17 31t21 54l226 620h27l229 -629q20 -56 30.5 -74t34.5 -36v-2h-125v2q28 37 2 112l-58 162h-284l-57 -160q-27 -74 19 -114v-2zM414 959l33 -54l-227 -123l-4 7z" />
    <glyph glyph-name="Acircumflex" unicode="&#xc2;" horiz-adv-x="625" 
d="M298 674l-135 -378h269zM117 0h-112v2q19 17 30 34t17 31t21 54l226 620h27l229 -629q20 -56 30.5 -74t34.5 -36v-2h-125v2q28 37 2 112l-58 162h-284l-57 -160q-27 -74 19 -114v-2zM312 881l-147 -99l-6 7l151 156h4l151 -156l-6 -7z" />
    <glyph glyph-name="Atilde" unicode="&#xc3;" horiz-adv-x="625" 
d="M298 674l-135 -378h269zM117 0h-112v2q19 17 30 34t17 31t21 54l226 620h27l229 -629q20 -56 30.5 -74t34.5 -36v-2h-125v2q28 37 2 112l-58 162h-284l-57 -160q-27 -74 19 -114v-2zM236 902q33 0 89 -27.5t84 -27.5q27 0 40.5 15t22.5 50l8 -1q-9 -115 -86 -115
q-33 0 -89 27.5t-84 27.5q-27 0 -40.5 -15t-22.5 -50l-8 1q9 115 86 115z" />
    <glyph glyph-name="Adieresis" unicode="&#xc4;" horiz-adv-x="625" 
d="M298 674l-135 -378h269zM117 0h-112v2q19 17 30 34t17 31t21 54l226 620h27l229 -629q20 -56 30.5 -74t34.5 -36v-2h-125v2q28 37 2 112l-58 162h-284l-57 -160q-27 -74 19 -114v-2zM478 868q0 -17 -12 -29t-29 -12t-29 12t-12 29t12 29t29 12t29 -12t12 -29zM218 868
q0 -17 -12 -29t-29 -12t-29 12t-12 29t12 29t29 12t29 -12t12 -29z" />
    <glyph glyph-name="Aring" unicode="&#xc5;" horiz-adv-x="625" 
d="M298 674l-135 -378h269zM117 0h-112v2q19 17 30 34t17 31t21 54l226 620h27l229 -629q20 -56 30.5 -74t34.5 -36v-2h-125v2q28 37 2 112l-58 162h-284l-57 -160q-27 -74 19 -114v-2zM223 865q0 37 23.5 61t60.5 24t60.5 -24t23.5 -61t-23.5 -60t-60.5 -23t-60.5 23
t-23.5 60zM251 865q0 -31 14.5 -48.5t41.5 -17.5t41.5 17.5t14.5 48.5q0 68 -56 68t-56 -68z" />
    <glyph glyph-name="AE" unicode="&#xc6;" horiz-adv-x="948" 
d="M454 617q0 36 -12 63l-215 -384h227v321zM123 0h-118v2q34 28 52 49.5t47 72.5l326 576q-14 18 -35 30v2h443l39 -145l-8 -3q-65 93 -88 112q-15 12 -26 13l-246 6v-337h161q12 0 23.5 12t28 40.5t19.5 32.5h8v-185h-8q-4 6 -12 19t-14 21.5t-14 19t-16 15.5t-15 5h-161
v-341l253 7q44 2 80 36t83 105l8 -3l-45 -162h-473v2q39 59 39 113v161h-238l-89 -159q-43 -77 -4 -115v-2z" />
    <glyph glyph-name="Ccedilla" unicode="&#xc7;" horiz-adv-x="742" 
d="M304 -247q54 20 79.5 39.5t25.5 51.5q0 55 -86 65l-1 2q4 8 12 21t10 16l18 30l5 8q-63 4 -118 28q-99 45 -154 138.5t-55 214.5q0 164 106 272t282 108q129 0 240 -50l20 -141l-8 -2q-50 92 -110.5 132.5t-145.5 40.5q-156 0 -237 -99.5t-81 -260.5q0 -162 76.5 -262
t223.5 -100q108 0 172 53t106 160l8 -2l-20 -153q-35 -27 -110.5 -52.5t-159.5 -25.5h-7l-26 -42q83 -19 83 -86q0 -84 -146 -112z" />
    <glyph glyph-name="Egrave" unicode="&#xc8;" horiz-adv-x="585" 
d="M525 0h-473v2q39 59 39 113v502q0 54 -39 113v2h423l39 -145l-8 -3q-65 93 -88 112q-15 12 -26 13l-246 6v-337h161q12 0 23.5 12t28 40.5t19.5 32.5h8v-185h-8q-4 6 -12 19t-14 21.5t-14 19t-16 15.5t-15 5h-161v-341l253 7q44 2 80 36t83 105l8 -3zM360 782l-231 123
l37 54l198 -170z" />
    <glyph glyph-name="Eacute" unicode="&#xc9;" horiz-adv-x="585" 
d="M525 0h-473v2q39 59 39 113v502q0 54 -39 113v2h423l39 -145l-8 -3q-65 93 -88 112q-15 12 -26 13l-246 6v-337h161q12 0 23.5 12t28 40.5t19.5 32.5h8v-185h-8q-4 6 -12 19t-14 21.5t-14 19t-16 15.5t-15 5h-161v-341l253 7q44 2 80 36t83 105l8 -3zM383 959l33 -54
l-227 -123l-4 7z" />
    <glyph glyph-name="Ecircumflex" unicode="&#xca;" horiz-adv-x="585" 
d="M525 0h-473v2q39 59 39 113v502q0 54 -39 113v2h423l39 -145l-8 -3q-65 93 -88 112q-15 12 -26 13l-246 6v-337h161q12 0 23.5 12t28 40.5t19.5 32.5h8v-185h-8q-4 6 -12 19t-14 21.5t-14 19t-16 15.5t-15 5h-161v-341l253 7q44 2 80 36t83 105l8 -3zM296 881l-147 -99
l-6 7l151 156h4l151 -156l-6 -7z" />
    <glyph glyph-name="Edieresis" unicode="&#xcb;" horiz-adv-x="585" 
d="M525 0h-473v2q39 59 39 113v502q0 54 -39 113v2h423l39 -145l-8 -3q-65 93 -88 112q-15 12 -26 13l-246 6v-337h161q12 0 23.5 12t28 40.5t19.5 32.5h8v-185h-8q-4 6 -12 19t-14 21.5t-14 19t-16 15.5t-15 5h-161v-341l253 7q44 2 80 36t83 105l8 -3zM447 868
q0 -17 -12 -29t-29 -12t-29 12t-12 29t12 29t29 12t29 -12t12 -29zM187 868q0 -17 -12 -29t-29 -12t-29 12t-12 29t12 29t29 12t29 -12t12 -29z" />
    <glyph glyph-name="Igrave" unicode="&#xcc;" horiz-adv-x="238" 
d="M53 2q24 32 31.5 55t7.5 67v484q0 42 -8 65.5t-32 56.5v2h134v-2q-24 -33 -32 -56.5t-8 -65.5v-484q0 -42 8 -65.5t33 -56.5l-1 -2h-134zM203 782l-231 123l37 54l198 -170z" />
    <glyph glyph-name="Iacute" unicode="&#xcd;" horiz-adv-x="238" 
d="M53 2q24 32 31.5 55t7.5 67v484q0 42 -8 65.5t-32 56.5v2h134v-2q-24 -33 -32 -56.5t-8 -65.5v-484q0 -42 8 -65.5t33 -56.5l-1 -2h-134zM226 959l33 -54l-227 -123l-4 7z" />
    <glyph glyph-name="Icircumflex" unicode="&#xce;" horiz-adv-x="238" 
d="M53 2q24 32 31.5 55t7.5 67v484q0 42 -8 65.5t-32 56.5v2h134v-2q-24 -33 -32 -56.5t-8 -65.5v-484q0 -42 8 -65.5t33 -56.5l-1 -2h-134zM119 881l-147 -99l-6 7l151 156h4l151 -156l-6 -7z" />
    <glyph glyph-name="Idieresis" unicode="&#xcf;" horiz-adv-x="238" 
d="M260 868q0 -17 -12 -29t-29 -12t-29 12t-12 29t12 29t29 12t29 -12t12 -29zM60 868q0 -17 -12 -29t-29 -12t-29 12t-12 29t12 29t29 12t29 -12t12 -29zM53 2q24 32 31.5 55t7.5 67v484q0 42 -8 65.5t-32 56.5v2h134v-2q-24 -33 -32 -56.5t-8 -65.5v-484q0 -42 8 -65.5
t33 -56.5l-1 -2h-134z" />
    <glyph glyph-name="Eth" unicode="&#xd0;" horiz-adv-x="727" 
d="M2 376h100v210q0 50 -8 77.5t-32 66.5v2q66 0 139.5 2t141.5 2q162 0 253 -95.5t91 -271.5q0 -179 -94 -274t-270 -95h-261v2q24 39 32 66.5t8 77.5v212h-100v18zM156 717v-341h224v-18h-224v-339l157 1q162 0 235 83.5t73 251.5q0 184 -71.5 272t-216.5 89z" />
    <glyph glyph-name="Ntilde" unicode="&#xd1;" horiz-adv-x="716" 
d="M111 632l4 -494q0 -47 13.5 -74t56.5 -62v-2h-143v2q31 34 40.5 61.5t9.5 74.5v516q-38 54 -80 76v2h89l505 -634l-3 496q0 47 -11.5 74.5t-48.5 61.5v2h133v-2q-31 -35 -40.5 -61.5t-9.5 -74.5v-594l-9 -3zM286 902q33 0 89 -27.5t84 -27.5q27 0 40.5 15t22.5 50l8 -1
q-9 -115 -86 -115q-33 0 -89 27.5t-84 27.5q-27 0 -40.5 -15t-22.5 -50l-8 1q9 115 86 115z" />
    <glyph glyph-name="Ograve" unicode="&#xd2;" horiz-adv-x="811" 
d="M405 -15q-156 0 -260.5 109t-104.5 271t104.5 272t260.5 110t261 -110t105 -272t-105 -271t-261 -109zM405 5q136 0 218 101t82 259q0 157 -82 259.5t-218 102.5t-217.5 -102t-81.5 -260q0 -157 81.5 -258.5t217.5 -101.5zM489 782l-231 123l37 54l198 -170z" />
    <glyph glyph-name="Oacute" unicode="&#xd3;" horiz-adv-x="811" 
d="M405 -15q-156 0 -260.5 109t-104.5 271t104.5 272t260.5 110t261 -110t105 -272t-105 -271t-261 -109zM405 5q136 0 218 101t82 259q0 157 -82 259.5t-218 102.5t-217.5 -102t-81.5 -260q0 -157 81.5 -258.5t217.5 -101.5zM512 959l33 -54l-227 -123l-4 7z" />
    <glyph glyph-name="Ocircumflex" unicode="&#xd4;" horiz-adv-x="811" 
d="M405 -15q-156 0 -260.5 109t-104.5 271t104.5 272t260.5 110t261 -110t105 -272t-105 -271t-261 -109zM405 5q136 0 218 101t82 259q0 157 -82 259.5t-218 102.5t-217.5 -102t-81.5 -260q0 -157 81.5 -258.5t217.5 -101.5zM405 881l-147 -99l-6 7l151 156h4l151 -156
l-6 -7z" />
    <glyph glyph-name="Otilde" unicode="&#xd5;" horiz-adv-x="811" 
d="M405 -15q-156 0 -260.5 109t-104.5 271t104.5 272t260.5 110t261 -110t105 -272t-105 -271t-261 -109zM405 5q136 0 218 101t82 259q0 157 -82 259.5t-218 102.5t-217.5 -102t-81.5 -260q0 -157 81.5 -258.5t217.5 -101.5zM326 902q33 0 89 -27.5t84 -27.5q27 0 40.5 15
t22.5 50l8 -1q-9 -115 -86 -115q-33 0 -89 27.5t-84 27.5q-27 0 -40.5 -15t-22.5 -50l-8 1q9 115 86 115z" />
    <glyph glyph-name="Odieresis" unicode="&#xd6;" horiz-adv-x="811" 
d="M405 -15q-156 0 -260.5 109t-104.5 271t104.5 272t260.5 110t261 -110t105 -272t-105 -271t-261 -109zM405 5q136 0 218 101t82 259q0 157 -82 259.5t-218 102.5t-217.5 -102t-81.5 -260q0 -157 81.5 -258.5t217.5 -101.5zM576 868q0 -17 -12 -29t-29 -12t-29 12t-12 29
t12 29t29 12t29 -12t12 -29zM316 868q0 -17 -12 -29t-29 -12t-29 12t-12 29t12 29t29 12t29 -12t12 -29z" />
    <glyph glyph-name="multiply" unicode="&#xd7;" horiz-adv-x="472" 
d="M236 292l-170 -170l-15 15l170 170l-170 170l15 15l170 -170l170 170l15 -15l-170 -170l170 -170l-15 -15z" />
    <glyph glyph-name="Oslash" unicode="&#xd8;" horiz-adv-x="811" 
d="M106 365q0 -178 100 -280l381 577q-76 65 -182 65q-136 0 -217.5 -102t-81.5 -260zM405 5q136 0 218 101t82 259q0 180 -102 282l-381 -577q78 -65 183 -65zM405 -15q-114 0 -200 59l-48 -73h-26l56 85q-69 52 -108 132t-39 177q0 162 104.5 272t260.5 110q114 0 199 -59
l49 74h26l-57 -86q70 -53 109.5 -133.5t39.5 -177.5q0 -162 -105 -271t-261 -109z" />
    <glyph glyph-name="Ugrave" unicode="&#xd9;" horiz-adv-x="684" 
d="M353 -15q-120 0 -196.5 62.5t-76.5 190.5v367q0 44 -7.5 68t-32.5 57v2h134v-2q-40 -53 -40 -125v-364q0 -121 63 -177.5t165 -56.5q119 0 170 67.5t51 175.5v342q0 48 -14 75t-58 63v2h155v-2q-38 -36 -50 -63t-12 -75v-341q0 -56 -13 -102t-41 -84t-78.5 -59
t-118.5 -21zM444 782l-231 123l37 54l198 -170z" />
    <glyph glyph-name="Uacute" unicode="&#xda;" horiz-adv-x="684" 
d="M353 -15q-120 0 -196.5 62.5t-76.5 190.5v367q0 44 -7.5 68t-32.5 57v2h134v-2q-40 -53 -40 -125v-364q0 -121 63 -177.5t165 -56.5q119 0 170 67.5t51 175.5v342q0 48 -14 75t-58 63v2h155v-2q-38 -36 -50 -63t-12 -75v-341q0 -56 -13 -102t-41 -84t-78.5 -59
t-118.5 -21zM467 959l33 -54l-227 -123l-4 7z" />
    <glyph glyph-name="Ucircumflex" unicode="&#xdb;" horiz-adv-x="684" 
d="M353 -15q-120 0 -196.5 62.5t-76.5 190.5v367q0 44 -7.5 68t-32.5 57v2h134v-2q-40 -53 -40 -125v-364q0 -121 63 -177.5t165 -56.5q119 0 170 67.5t51 175.5v342q0 48 -14 75t-58 63v2h155v-2q-38 -36 -50 -63t-12 -75v-341q0 -56 -13 -102t-41 -84t-78.5 -59
t-118.5 -21zM360 881l-147 -99l-6 7l151 156h4l151 -156l-6 -7z" />
    <glyph glyph-name="Udieresis" unicode="&#xdc;" horiz-adv-x="684" 
d="M353 -15q-120 0 -196.5 62.5t-76.5 190.5v367q0 44 -7.5 68t-32.5 57v2h134v-2q-40 -53 -40 -125v-364q0 -121 63 -177.5t165 -56.5q119 0 170 67.5t51 175.5v342q0 48 -14 75t-58 63v2h155v-2q-38 -36 -50 -63t-12 -75v-341q0 -56 -13 -102t-41 -84t-78.5 -59
t-118.5 -21zM531 868q0 -17 -12 -29t-29 -12t-29 12t-12 29t12 29t29 12t29 -12t12 -29zM271 868q0 -17 -12 -29t-29 -12t-29 12t-12 29t12 29t29 12t29 -12t12 -29z" />
    <glyph glyph-name="Yacute" unicode="&#xdd;" horiz-adv-x="570" 
d="M215 2q24 25 32 47t8 57v236l-169 291q-43 73 -86 97v2h155v-2q-48 -22 -9 -91l156 -270l135 226q22 36 26.5 63t-3.5 42t-26 30v2h136v-2q-11 -7 -20 -13t-18 -16t-13.5 -14.5t-14.5 -19.5t-12.5 -19t-15.5 -25.5t-16 -27.5l-151 -251v-238q0 -36 7.5 -56.5t32.5 -47.5
v-2h-134v2zM404 959l33 -54l-227 -123l-4 7z" />
    <glyph glyph-name="Thorn" unicode="&#xde;" horiz-adv-x="537" 
d="M272 542q-59 0 -126 -3v-329h134q92 0 136.5 47t44.5 126q0 159 -189 159zM186 0h-134l1 2q24 32 31.5 55t7.5 67v484q0 42 -8 65.5t-32 56.5v2h134v-2q-24 -33 -32 -56.5t-8 -65.5v-46h140q121 0 176 -49t55 -130q0 -90 -61.5 -141.5t-174.5 -51.5h-135v-66
q0 -42 8 -65.5t33 -56.5z" />
    <glyph glyph-name="germandbls" unicode="&#xdf;" horiz-adv-x="549" 
d="M371 -15q-67 0 -125 33l-10 102l8 2q22 -62 53.5 -90.5t82.5 -28.5q53 0 83 28.5t30 74.5q0 38 -23.5 63.5t-57.5 39.5t-67.5 29t-57 42.5t-23.5 69.5q0 40 23 74t50 56t50 60t23 86q0 56 -30.5 94.5t-90.5 38.5q-66 0 -102.5 -45t-36.5 -126v-588h-74v2q24 38 24 137
v318h-63v18h63v71q0 106 51 169.5t138 63.5q68 0 117 -39.5t49 -109.5q0 -38 -16.5 -70t-40 -54t-47 -42t-40 -43.5t-16.5 -49.5q0 -32 24.5 -53t59.5 -34.5t70.5 -29t60 -48.5t24.5 -82q0 -67 -42.5 -103t-120.5 -36z" />
    <glyph glyph-name="agrave" unicode="&#xe0;" horiz-adv-x="464" 
d="M180 21q82 0 134 52v177q-59 -7 -107 -23.5t-82.5 -49.5t-34.5 -76q0 -37 22.5 -58.5t67.5 -21.5zM378 -12q-31 0 -47 18.5t-17 49.5q-67 -71 -158 -71q-54 0 -85.5 27t-31.5 75q0 42 26.5 75.5t69 54t87.5 33t92 16.5v92q0 102 -113 102q-76 0 -140 -44l-5 7
q67 67 174 67q76 0 105 -33t29 -89v-302q0 -43 39 -43q24 0 48 24l3 -2q-22 -57 -76 -57zM284 533l-172 178l49 38l130 -210z" />
    <glyph glyph-name="aacute" unicode="&#xe1;" horiz-adv-x="464" 
d="M180 21q82 0 134 52v177q-59 -7 -107 -23.5t-82.5 -49.5t-34.5 -76q0 -37 22.5 -58.5t67.5 -21.5zM378 -12q-31 0 -47 18.5t-17 49.5q-67 -71 -158 -71q-54 0 -85.5 27t-31.5 75q0 42 26.5 75.5t69 54t87.5 33t92 16.5v92q0 102 -113 102q-76 0 -140 -44l-5 7
q67 67 174 67q76 0 105 -33t29 -89v-302q0 -43 39 -43q24 0 48 24l3 -2q-22 -57 -76 -57zM296 749l49 -38l-172 -178l-7 6z" />
    <glyph glyph-name="acircumflex" unicode="&#xe2;" horiz-adv-x="464" 
d="M180 21q82 0 134 52v177q-59 -7 -107 -23.5t-82.5 -49.5t-34.5 -76q0 -37 22.5 -58.5t67.5 -21.5zM378 -12q-31 0 -47 18.5t-17 49.5q-67 -71 -158 -71q-54 0 -85.5 27t-31.5 75q0 42 26.5 75.5t69 54t87.5 33t92 16.5v92q0 102 -113 102q-76 0 -140 -44l-5 7
q67 67 174 67q76 0 105 -33t29 -89v-302q0 -43 39 -43q24 0 48 24l3 -2q-22 -57 -76 -57zM225 651l-129 -111l-7 6l134 173h4l138 -173l-7 -6z" />
    <glyph glyph-name="atilde" unicode="&#xe3;" horiz-adv-x="464" 
d="M180 21q82 0 134 52v177q-59 -7 -107 -23.5t-82.5 -49.5t-34.5 -76q0 -37 22.5 -58.5t67.5 -21.5zM378 -12q-31 0 -47 18.5t-17 49.5q-67 -71 -158 -71q-54 0 -85.5 27t-31.5 75q0 42 26.5 75.5t69 54t87.5 33t92 16.5v92q0 102 -113 102q-76 0 -140 -44l-5 7
q67 67 174 67q76 0 105 -33t29 -89v-302q0 -43 39 -43q24 0 48 24l3 -2q-22 -57 -76 -57zM152 682q26 0 69 -22t72 -22q47 0 61 54l8 -1q-8 -99 -80 -99q-26 0 -69 22t-72 22q-47 0 -61 -54l-8 1q8 99 80 99z" />
    <glyph glyph-name="adieresis" unicode="&#xe4;" horiz-adv-x="464" 
d="M180 21q82 0 134 52v177q-59 -7 -107 -23.5t-82.5 -49.5t-34.5 -76q0 -37 22.5 -58.5t67.5 -21.5zM378 -12q-31 0 -47 18.5t-17 49.5q-67 -71 -158 -71q-54 0 -85.5 27t-31.5 75q0 42 26.5 75.5t69 54t87.5 33t92 16.5v92q0 102 -113 102q-76 0 -140 -44l-5 7
q67 67 174 67q76 0 105 -33t29 -89v-302q0 -43 39 -43q24 0 48 24l3 -2q-22 -57 -76 -57zM358 659q0 -17 -12 -29t-29 -12t-29 12t-12 29t12 29t29 12t29 -12t12 -29zM158 659q0 -17 -12 -29t-29 -12t-29 12t-12 29t12 29t29 12t29 -12t12 -29z" />
    <glyph glyph-name="aring" unicode="&#xe5;" horiz-adv-x="464" 
d="M180 21q82 0 134 52v177q-59 -7 -107 -23.5t-82.5 -49.5t-34.5 -76q0 -37 22.5 -58.5t67.5 -21.5zM378 -12q-31 0 -47 18.5t-17 49.5q-67 -71 -158 -71q-54 0 -85.5 27t-31.5 75q0 42 26.5 75.5t69 54t87.5 33t92 16.5v92q0 102 -113 102q-76 0 -140 -44l-5 7
q67 67 174 67q76 0 105 -33t29 -89v-302q0 -43 39 -43q24 0 48 24l3 -2q-22 -57 -76 -57zM143 654q0 37 23.5 61t60.5 24t60.5 -24t23.5 -61t-23.5 -60t-60.5 -23t-60.5 23t-23.5 60zM171 654q0 -31 14.5 -48.5t41.5 -17.5t41.5 17.5t14.5 48.5q0 68 -56 68t-56 -68z" />
    <glyph glyph-name="ae" unicode="&#xe6;" horiz-adv-x="734" 
d="M514 -15q-127 0 -183 116q-66 -116 -182 -116q-54 0 -86 27t-32 75q0 42 26.5 75.5t69 54t87.5 33t92 16.5v92q0 102 -113 102q-76 0 -140 -44l-5 7q67 67 174 67q65 0 94 -26t36 -70q56 96 167 96q82 0 130.5 -56t42.5 -136h-328q-3 -21 -3 -46q0 -100 43.5 -160.5
t127.5 -60.5q48 0 93.5 21t68.5 61l5 -2q-18 -58 -67.5 -92t-117.5 -34zM518 472q-60 0 -100 -41.5t-52 -117.5l263 6v6q0 147 -111 147zM173 23q95 0 151 97q-18 46 -18 108v22q-92 -11 -155.5 -48t-63.5 -101q0 -36 21.5 -57t64.5 -21z" />
    <glyph glyph-name="ccedilla" unicode="&#xe7;" 
d="M152 -247q54 20 79.5 39.5t25.5 51.5q0 55 -86 65l-1 2q4 8 12 21t10 16l18 30q5 6 6 10q-23 4 -47 14q-60 25 -94.5 83t-34.5 139q0 121 73.5 193.5t177.5 72.5q62 0 134 -33l7 -94l-6 -2q-35 60 -68 85.5t-84 25.5q-82 0 -130.5 -58.5t-48.5 -162.5q0 -99 46 -159.5
t132 -60.5q49 0 94.5 21t70.5 61l5 -2q-19 -58 -69 -92t-118 -34h-13l-26 -42q83 -19 83 -86q0 -84 -146 -112z" />
    <glyph glyph-name="egrave" unicode="&#xe8;" 
d="M260 472q-63 0 -105 -41.5t-55 -117.5l277 6v6q0 147 -117 147zM443 111q-19 -58 -69 -92t-119 -34q-97 0 -156 67.5t-59 177.5q0 115 65 187.5t158 72.5q83 0 133 -57.5t44 -134.5h-342q-3 -21 -3 -46q0 -100 46 -160.5t132 -60.5q50 0 95 20.5t70 61.5zM301 533
l-172 178l49 38l130 -210z" />
    <glyph glyph-name="eacute" unicode="&#xe9;" 
d="M260 472q-63 0 -105 -41.5t-55 -117.5l277 6v6q0 147 -117 147zM443 111q-19 -58 -69 -92t-119 -34q-97 0 -156 67.5t-59 177.5q0 115 65 187.5t158 72.5q83 0 133 -57.5t44 -134.5h-342q-3 -21 -3 -46q0 -100 46 -160.5t132 -60.5q50 0 95 20.5t70 61.5zM313 749l49 -38
l-172 -178l-7 6z" />
    <glyph glyph-name="ecircumflex" unicode="&#xea;" 
d="M260 472q-63 0 -105 -41.5t-55 -117.5l277 6v6q0 147 -117 147zM443 111q-19 -58 -69 -92t-119 -34q-97 0 -156 67.5t-59 177.5q0 115 65 187.5t158 72.5q83 0 133 -57.5t44 -134.5h-342q-3 -21 -3 -46q0 -100 46 -160.5t132 -60.5q50 0 95 20.5t70 61.5zM242 651
l-129 -111l-7 6l134 173h4l138 -173l-7 -6z" />
    <glyph glyph-name="edieresis" unicode="&#xeb;" 
d="M260 472q-63 0 -105 -41.5t-55 -117.5l277 6v6q0 147 -117 147zM443 111q-19 -58 -69 -92t-119 -34q-97 0 -156 67.5t-59 177.5q0 115 65 187.5t158 72.5q83 0 133 -57.5t44 -134.5h-342q-3 -21 -3 -46q0 -100 46 -160.5t132 -60.5q50 0 95 20.5t70 61.5zM385 659
q0 -17 -12 -29t-29 -12t-29 12t-12 29t12 29t29 12t29 -12t12 -29zM185 659q0 -17 -12 -29t-29 -12t-29 12t-12 29t12 29t29 12t29 -12t12 -29z" />
    <glyph glyph-name="igrave" unicode="&#xec;" horiz-adv-x="197" 
d="M54 2q22 41 22 117v248q0 45 -44 74v2l94 52v-375q0 -46 3.5 -70t18.5 -48v-2h-94v2zM148 533l-172 178l49 38l130 -210z" />
    <glyph glyph-name="iacute" unicode="&#xed;" horiz-adv-x="197" 
d="M54 2q22 41 22 117v248q0 45 -44 74v2l94 52v-375q0 -46 3.5 -70t18.5 -48v-2h-94v2zM181 749l49 -38l-172 -178l-7 6z" />
    <glyph glyph-name="icircumflex" unicode="&#xee;" horiz-adv-x="197" 
d="M54 2q22 41 22 117v248q0 45 -44 74v2l94 52v-375q0 -46 3.5 -70t18.5 -48v-2h-94v2zM100 651l-129 -111l-7 6l134 173h4l138 -173l-7 -6z" />
    <glyph glyph-name="idieresis" unicode="&#xef;" horiz-adv-x="197" 
d="M213 659q0 -17 -12 -29t-29 -12t-29 12t-12 29t12 29t29 12t29 -12t12 -29zM63 659q0 -17 -12 -29t-29 -12t-29 12t-12 29t12 29t29 12t29 -12t12 -29zM54 2q22 41 22 117v248q0 45 -44 74v2l94 52v-375q0 -46 3.5 -70t18.5 -48v-2h-94v2z" />
    <glyph glyph-name="eth" unicode="&#xf0;" horiz-adv-x="562" 
d="M281 -15q-101 0 -173.5 73.5t-72.5 178.5q0 106 66.5 175.5t170.5 69.5q123 0 181 -99q-36 158 -139 264l-117 -80l-11 16l114 78q-71 70 -164 107l4 10q104 -38 186 -100l114 77l11 -16l-109 -74q95 -80 140 -183t45 -205q0 -133 -71 -212.5t-175 -79.5zM281 3
q90 0 138 67t48 184q0 33 -5 78q-31 65 -80 96.5t-107 31.5q-85 0 -132.5 -61.5t-47.5 -161.5q0 -102 49 -168t137 -66z" />
    <glyph glyph-name="ntilde" unicode="&#xf1;" horiz-adv-x="517" 
d="M148 0h-94v2q22 41 22 117v247q0 46 -44 75v2l90 52v-91l4 -1q74 87 180 87q69 0 104.5 -38.5t35.5 -107.5v-224q0 -47 3.5 -71t18.5 -47v-2h-94v2q22 41 22 117v214q0 118 -112 118q-98 0 -158 -66v-265q0 -46 3.5 -70t18.5 -48v-2zM201 682q26 0 69 -22t72 -22
q48 0 61 54l8 -1q-8 -99 -80 -99q-26 0 -69 22t-72 22q-48 0 -61 -54l-8 1q8 99 80 99z" />
    <glyph glyph-name="ograve" unicode="&#xf2;" horiz-adv-x="562" 
d="M281 -15q-101 0 -173.5 73.5t-72.5 178.5t72.5 179t173.5 74t173.5 -74t72.5 -179t-72.5 -178.5t-173.5 -73.5zM281 3q89 0 136.5 66t47.5 168t-48.5 168.5t-135.5 66.5t-135.5 -66.5t-48.5 -168.5t47.5 -168t136.5 -66zM318 533l-172 178l49 38l130 -210z" />
    <glyph glyph-name="oacute" unicode="&#xf3;" horiz-adv-x="562" 
d="M281 -15q-101 0 -173.5 73.5t-72.5 178.5t72.5 179t173.5 74t173.5 -74t72.5 -179t-72.5 -178.5t-173.5 -73.5zM281 3q89 0 136.5 66t47.5 168t-48.5 168.5t-135.5 66.5t-135.5 -66.5t-48.5 -168.5t47.5 -168t136.5 -66zM370 749l49 -38l-172 -178l-7 6z" />
    <glyph glyph-name="ocircumflex" unicode="&#xf4;" horiz-adv-x="562" 
d="M281 -15q-101 0 -173.5 73.5t-72.5 178.5t72.5 179t173.5 74t173.5 -74t72.5 -179t-72.5 -178.5t-173.5 -73.5zM281 3q89 0 136.5 66t47.5 168t-48.5 168.5t-135.5 66.5t-135.5 -66.5t-48.5 -168.5t47.5 -168t136.5 -66zM279 651l-129 -111l-7 6l134 173h4l138 -173
l-7 -6z" />
    <glyph glyph-name="otilde" unicode="&#xf5;" horiz-adv-x="562" 
d="M281 -15q-101 0 -173.5 73.5t-72.5 178.5t72.5 179t173.5 74t173.5 -74t72.5 -179t-72.5 -178.5t-173.5 -73.5zM281 3q89 0 136.5 66t47.5 168t-48.5 168.5t-135.5 66.5t-135.5 -66.5t-48.5 -168.5t47.5 -168t136.5 -66zM216 682q26 0 69 -22t72 -22q47 0 61 54l8 -1
q-8 -99 -80 -99q-26 0 -69 22t-72 22q-47 0 -61 -54l-8 1q8 99 80 99z" />
    <glyph glyph-name="odieresis" unicode="&#xf6;" horiz-adv-x="562" 
d="M281 -15q-101 0 -173.5 73.5t-72.5 178.5t72.5 179t173.5 74t173.5 -74t72.5 -179t-72.5 -178.5t-173.5 -73.5zM281 3q89 0 136.5 66t47.5 168t-48.5 168.5t-135.5 66.5t-135.5 -66.5t-48.5 -168.5t47.5 -168t136.5 -66zM422 659q0 -17 -12 -29t-29 -12t-29 12t-12 29
t12 29t29 12t29 -12t12 -29zM222 659q0 -17 -12 -29t-29 -12t-29 12t-12 29t12 29t29 12t29 -12t12 -29z" />
    <glyph glyph-name="divide" unicode="&#xf7;" horiz-adv-x="546" 
d="M52 298v20h442v-20h-442zM273 94q-19 0 -33 13.5t-14 33.5t14 33.5t33 13.5q20 0 33.5 -13.5t13.5 -33.5t-13.5 -33.5t-33.5 -13.5zM273 428q-19 0 -33 13.5t-14 33.5t14 33.5t33 13.5q20 0 33.5 -13.5t13.5 -33.5t-13.5 -33.5t-33.5 -13.5z" />
    <glyph glyph-name="oslash" unicode="&#xf8;" horiz-adv-x="562" 
d="M281 -15q-76 0 -135 41l-64 -93h-25l73 105q-95 76 -95 199q0 105 72.5 179t173.5 74q74 0 133 -41l66 95h25l-74 -107q96 -76 96 -200q0 -105 -72.5 -178.5t-173.5 -73.5zM281 3q89 0 136.5 66t47.5 168q0 108 -53 173l-250 -361q49 -46 119 -46zM97 237q0 -109 51 -172
l250 361q-46 46 -117 46q-87 0 -135.5 -66.5t-48.5 -168.5z" />
    <glyph glyph-name="ugrave" unicode="&#xf9;" horiz-adv-x="490" 
d="M362 74q-70 -89 -167 -89q-64 0 -98.5 37t-34.5 103v284q0 42 -42 64v2h92v-334q0 -117 104 -117q80 0 141 63v322q0 44 -44 64v2h94v-364q0 -45 9.5 -61.5t35.5 -27.5v-2l-90 -32v86zM275 533l-172 178l49 38l130 -210z" />
    <glyph glyph-name="uacute" unicode="&#xfa;" horiz-adv-x="490" 
d="M362 74q-70 -89 -167 -89q-64 0 -98.5 37t-34.5 103v284q0 42 -42 64v2h92v-334q0 -117 104 -117q80 0 141 63v322q0 44 -44 64v2h94v-364q0 -45 9.5 -61.5t35.5 -27.5v-2l-90 -32v86zM327 749l49 -38l-172 -178l-7 6z" />
    <glyph glyph-name="ucircumflex" unicode="&#xfb;" horiz-adv-x="490" 
d="M362 74q-70 -89 -167 -89q-64 0 -98.5 37t-34.5 103v284q0 42 -42 64v2h92v-334q0 -117 104 -117q80 0 141 63v322q0 44 -44 64v2h94v-364q0 -45 9.5 -61.5t35.5 -27.5v-2l-90 -32v86zM230 651l-129 -111l-7 6l134 173h4l138 -173l-7 -6z" />
    <glyph glyph-name="udieresis" unicode="&#xfc;" horiz-adv-x="490" 
d="M362 74q-70 -89 -167 -89q-64 0 -98.5 37t-34.5 103v284q0 42 -42 64v2h92v-334q0 -117 104 -117q80 0 141 63v322q0 44 -44 64v2h94v-364q0 -45 9.5 -61.5t35.5 -27.5v-2l-90 -32v86zM369 659q0 -17 -12 -29t-29 -12t-29 12t-12 29t12 29t29 12t29 -12t12 -29zM169 659
q0 -17 -12 -29t-29 -12t-29 12t-12 29t12 29t29 12t29 -12t12 -29z" />
    <glyph glyph-name="yacute" unicode="&#xfd;" horiz-adv-x="412" 
d="M20 -170q21 0 47 9.5t57.5 37.5t47.5 70l25 65l-138 359q-29 79 -59 102v2h117v-2q-32 -29 -5 -104l110 -292l108 284q32 85 -12 112v2h99v-2q-23 -17 -34 -35.5t-30 -68.5l-173 -450q-28 -72 -66 -105t-92 -39zM314 749l49 -38l-172 -178l-7 6z" />
    <glyph glyph-name="thorn" unicode="&#xfe;" horiz-adv-x="539" 
d="M256 3q83 0 134 64.5t51 172.5q0 101 -50 158.5t-125 57.5q-46 0 -85.5 -21.5t-59.5 -50.5v-315q49 -66 135 -66zM143 -225h-94v2q22 41 22 117v779q0 39 -44 62v2l94 42v-374h3q52 85 164 85q93 0 152 -65.5t59 -173.5q0 -70 -26 -129t-83.5 -98t-138.5 -39
q-77 0 -130 39v-129q0 -46 3.5 -70t18.5 -48v-2z" />
    <glyph glyph-name="ydieresis" unicode="&#xff;" horiz-adv-x="412" 
d="M20 -170q21 0 47 9.5t57.5 37.5t47.5 70l25 65l-138 359q-29 79 -59 102v2h117v-2q-32 -29 -5 -104l110 -292l108 284q32 85 -12 112v2h99v-2q-23 -17 -34 -35.5t-30 -68.5l-173 -450q-28 -72 -66 -105t-92 -39zM364 659q0 -17 -12 -29t-29 -12t-29 12t-12 29t12 29
t29 12t29 -12t12 -29zM164 659q0 -17 -12 -29t-29 -12t-29 12t-12 29t12 29t29 12t29 -12t12 -29z" />
    <glyph glyph-name="Amacron" unicode="&#x100;" horiz-adv-x="625" 
d="M298 674l-135 -378h269zM117 0h-112v2q19 17 30 34t17 31t21 54l226 620h27l229 -629q20 -56 30.5 -74t34.5 -36v-2h-125v2q28 37 2 112l-58 162h-284l-57 -160q-27 -74 19 -114v-2zM158 873h299v-35h-299v35z" />
    <glyph glyph-name="amacron" unicode="&#x101;" horiz-adv-x="464" 
d="M180 21q82 0 134 52v177q-59 -7 -107 -23.5t-82.5 -49.5t-34.5 -76q0 -37 22.5 -58.5t67.5 -21.5zM378 -12q-31 0 -47 18.5t-17 49.5q-67 -71 -158 -71q-54 0 -85.5 27t-31.5 75q0 42 26.5 75.5t69 54t87.5 33t92 16.5v92q0 102 -113 102q-76 0 -140 -44l-5 7
q67 67 174 67q76 0 105 -33t29 -89v-302q0 -43 39 -43q24 0 48 24l3 -2q-22 -57 -76 -57zM85 645h285v-35h-285v35z" />
    <glyph glyph-name="Abreve" unicode="&#x102;" horiz-adv-x="625" 
d="M298 674l-135 -378h269zM117 0h-112v2q19 17 30 34t17 31t21 54l226 620h27l229 -629q20 -56 30.5 -74t34.5 -36v-2h-125v2q28 37 2 112l-58 162h-284l-57 -160q-27 -74 19 -114v-2zM306 840q99 0 132 88h8q-21 -131 -141 -131q-116 0 -137 131h8q38 -88 130 -88z" />
    <glyph glyph-name="abreve" unicode="&#x103;" horiz-adv-x="464" 
d="M180 21q82 0 134 52v177q-59 -7 -107 -23.5t-82.5 -49.5t-34.5 -76q0 -37 22.5 -58.5t67.5 -21.5zM378 -12q-31 0 -47 18.5t-17 49.5q-67 -71 -158 -71q-54 0 -85.5 27t-31.5 75q0 42 26.5 75.5t69 54t87.5 33t92 16.5v92q0 102 -113 102q-76 0 -140 -44l-5 7
q67 67 174 67q76 0 105 -33t29 -89v-302q0 -43 39 -43q24 0 48 24l3 -2q-22 -57 -76 -57zM217 614q90 0 115 79h8q-3 -47 -31.5 -84.5t-92.5 -37.5q-61 0 -89.5 38t-31.5 84h8q26 -79 114 -79z" />
    <glyph glyph-name="Aogonek" unicode="&#x104;" horiz-adv-x="625" 
d="M455 -248q-41 0 -63.5 21.5t-22.5 58.5q0 41 28 76.5t83 81.5q30 26 30 62q0 27 -13 62l-58 162h-284l-57 -160q-27 -74 19 -114v-2h-112v2q19 17 30 34t17 31t21 54l226 620h27l229 -629q20 -56 30.5 -74t34.5 -36v-2h-105q-100 -75 -100 -154q0 -62 64 -62q53 0 100 55
l8 -6q-52 -81 -132 -81zM298 674l-135 -378h269z" />
    <glyph glyph-name="aogonek" unicode="&#x105;" horiz-adv-x="464" 
d="M333 -248q-43 0 -66 21t-23 59q0 43 35.5 88t87.5 69q-50 7 -52 68q-70 -72 -159 -72q-54 0 -85.5 27t-31.5 75q0 42 26.5 75.5t69 54t87.5 33t92 16.5v92q0 102 -113 102q-76 0 -140 -44l-5 7q67 67 174 67q76 0 105 -33t29 -89v-302q0 -43 39 -43q24 0 48 24l3 -2
q-8 -24 -26 -39q-7 -5 -14.5 -9.5t-17 -8.5t-14.5 -7q-36 -18 -64 -55t-28 -80q0 -62 64 -62q53 0 100 55l8 -6q-52 -81 -129 -81zM184 23q37 0 72.5 14.5t57.5 35.5v177q-92 -11 -155.5 -48t-63.5 -100q0 -79 89 -79z" />
    <glyph glyph-name="Cacute" unicode="&#x106;" horiz-adv-x="742" 
d="M672 63q-35 -27 -110.5 -52.5t-159.5 -25.5q-166 0 -264 108.5t-98 273.5q0 164 106 272t282 108q129 0 240 -50l20 -141l-8 -2q-50 92 -110.5 132.5t-145.5 40.5q-156 0 -237 -99.5t-81 -260.5q0 -162 76.5 -262t223.5 -100q108 0 172 53t106 160l8 -2zM514 959l33 -54
l-227 -123l-4 7z" />
    <glyph glyph-name="cacute" unicode="&#x107;" 
d="M443 111q-19 -58 -69 -92t-118 -34q-96 0 -156 65.5t-60 173.5q0 121 73.5 193.5t177.5 72.5q62 0 134 -33l7 -94l-6 -2q-35 60 -68 85.5t-84 25.5q-82 0 -130.5 -58.5t-48.5 -162.5q0 -99 46 -159.5t132 -60.5q49 0 94.5 21t70.5 61zM326 749l49 -38l-172 -178l-7 6z
" />
    <glyph glyph-name="Ccircumflex" unicode="&#x108;" horiz-adv-x="742" 
d="M672 63q-35 -27 -110.5 -52.5t-159.5 -25.5q-166 0 -264 108.5t-98 273.5q0 164 106 272t282 108q129 0 240 -50l20 -141l-8 -2q-50 92 -110.5 132.5t-145.5 40.5q-156 0 -237 -99.5t-81 -260.5q0 -162 76.5 -262t223.5 -100q108 0 172 53t106 160l8 -2zM407 881
l-147 -99l-6 7l151 156h4l151 -156l-6 -7z" />
    <glyph glyph-name="ccircumflex" unicode="&#x109;" 
d="M443 111q-19 -58 -69 -92t-118 -34q-96 0 -156 65.5t-60 173.5q0 121 73.5 193.5t177.5 72.5q62 0 134 -33l7 -94l-6 -2q-35 60 -68 85.5t-84 25.5q-82 0 -130.5 -58.5t-48.5 -162.5q0 -99 46 -159.5t132 -60.5q49 0 94.5 21t70.5 61zM255 651l-129 -111l-7 6l134 173h4
l138 -173l-7 -6z" />
    <glyph glyph-name="Cdotaccent" unicode="&#x10a;" horiz-adv-x="742" 
d="M672 63q-35 -27 -110.5 -52.5t-159.5 -25.5q-166 0 -264 108.5t-98 273.5q0 164 106 272t282 108q129 0 240 -50l20 -141l-8 -2q-50 92 -110.5 132.5t-145.5 40.5q-156 0 -237 -99.5t-81 -260.5q0 -162 76.5 -262t223.5 -100q108 0 172 53t106 160l8 -2zM448 868
q0 -17 -12 -29t-29 -12t-29 12t-12 29t12 29t29 12t29 -12t12 -29z" />
    <glyph glyph-name="cdotaccent" unicode="&#x10b;" 
d="M443 111q-19 -58 -69 -92t-118 -34q-96 0 -156 65.5t-60 173.5q0 121 73.5 193.5t177.5 72.5q62 0 134 -33l7 -94l-6 -2q-35 60 -68 85.5t-84 25.5q-82 0 -130.5 -58.5t-48.5 -162.5q0 -99 46 -159.5t132 -60.5q49 0 94.5 21t70.5 61zM298 659q0 -17 -12 -29t-29 -12
t-29 12t-12 29t12 29t29 12t29 -12t12 -29z" />
    <glyph glyph-name="Ccaron" unicode="&#x10c;" horiz-adv-x="742" 
d="M672 63q-35 -27 -110.5 -52.5t-159.5 -25.5q-166 0 -264 108.5t-98 273.5q0 164 106 272t282 108q129 0 240 -50l20 -141l-8 -2q-50 92 -110.5 132.5t-145.5 40.5q-156 0 -237 -99.5t-81 -260.5q0 -162 76.5 -262t223.5 -100q108 0 172 53t106 160l8 -2zM405 782
l-151 156l6 7l147 -99l147 99l6 -7l-151 -156h-4z" />
    <glyph glyph-name="ccaron" unicode="&#x10d;" 
d="M443 111q-19 -58 -69 -92t-118 -34q-96 0 -156 65.5t-60 173.5q0 121 73.5 193.5t177.5 72.5q62 0 134 -33l7 -94l-6 -2q-35 60 -68 85.5t-84 25.5q-82 0 -130.5 -58.5t-48.5 -162.5q0 -99 46 -159.5t132 -60.5q49 0 94.5 21t70.5 61zM119 713l7 6l129 -111l133 111l7 -6
l-138 -173h-4z" />
    <glyph glyph-name="Dcaron" unicode="&#x10e;" horiz-adv-x="717" 
d="M52 2q24 39 32 66.5t8 77.5v440q0 50 -8 77.5t-32 66.5v2q66 0 139.5 2t141.5 2q162 0 253 -95.5t91 -271.5q0 -179 -94 -274t-270 -95h-261v2zM146 717v-698l157 1q162 0 235 83.5t73 251.5q0 184 -71.5 272t-216.5 89zM322 782l-151 156l6 7l147 -99l147 99l6 -7
l-151 -156h-4z" />
    <glyph glyph-name="dcaron" unicode="&#x10f;" horiz-adv-x="543" 
d="M270 19q93 0 148 87v226q0 76 -38 108t-92 32q-83 0 -136.5 -66t-53.5 -168q0 -100 48 -159.5t124 -59.5zM419 86q-56 -101 -178 -101q-91 0 -146 63.5t-55 171.5q0 110 73.5 190t188.5 80q67 0 116 -27v210q0 39 -44 62v2l94 42v-672q0 -45 8.5 -60.5t35.5 -26.5v-2
l-89 -30v98h-4zM539 775h63l-88 -203l-7 2z" />
    <glyph glyph-name="Dcroat" unicode="&#x110;" horiz-adv-x="727" 
d="M2 376h100v210q0 50 -8 77.5t-32 66.5v2q66 0 139.5 2t141.5 2q162 0 253 -95.5t91 -271.5q0 -179 -94 -274t-270 -95h-261v2q24 39 32 66.5t8 77.5v212h-100v18zM156 717v-341h224v-18h-224v-339l157 1q162 0 235 83.5t73 251.5q0 184 -71.5 272t-216.5 89z" />
    <glyph glyph-name="dcroat" unicode="&#x111;" horiz-adv-x="543" 
d="M419 86q-56 -101 -178 -101q-91 0 -146 63.5t-55 171.5q0 110 73.5 190t188.5 80q67 0 116 -27v116h-195v18h195v76q0 39 -44 62v2l94 42v-182h75v-18h-75v-472q0 -45 8.5 -60.5t35.5 -26.5v-2l-89 -30v98h-4zM270 19q93 0 148 87v226q0 76 -38 108t-92 32
q-83 0 -136.5 -66t-53.5 -168q0 -100 48 -159.5t124 -59.5z" />
    <glyph glyph-name="Emacron" unicode="&#x112;" horiz-adv-x="585" 
d="M525 0h-473v2q39 59 39 113v502q0 54 -39 113v2h423l39 -145l-8 -3q-65 93 -88 112q-15 12 -26 13l-246 6v-337h161q12 0 23.5 12t28 40.5t19.5 32.5h8v-185h-8q-4 6 -12 19t-14 21.5t-14 19t-16 15.5t-15 5h-161v-341l253 7q44 2 80 36t83 105l8 -3zM127 873h299v-35
h-299v35z" />
    <glyph glyph-name="emacron" unicode="&#x113;" 
d="M260 472q-63 0 -105 -41.5t-55 -117.5l277 6v6q0 147 -117 147zM443 111q-19 -58 -69 -92t-119 -34q-97 0 -156 67.5t-59 177.5q0 115 65 187.5t158 72.5q83 0 133 -57.5t44 -134.5h-342q-3 -21 -3 -46q0 -100 46 -160.5t132 -60.5q50 0 95 20.5t70 61.5zM102 645h285
v-35h-285v35z" />
    <glyph glyph-name="Ebreve" unicode="&#x114;" horiz-adv-x="585" 
d="M525 0h-473v2q39 59 39 113v502q0 54 -39 113v2h423l39 -145l-8 -3q-65 93 -88 112q-15 12 -26 13l-246 6v-337h161q12 0 23.5 12t28 40.5t19.5 32.5h8v-185h-8q-4 6 -12 19t-14 21.5t-14 19t-16 15.5t-15 5h-161v-341l253 7q44 2 80 36t83 105l8 -3zM275 840
q99 0 132 88h8q-21 -131 -141 -131q-116 0 -137 131h8q38 -88 130 -88z" />
    <glyph glyph-name="ebreve" unicode="&#x115;" 
d="M260 472q-63 0 -105 -41.5t-55 -117.5l277 6v6q0 147 -117 147zM443 111q-19 -58 -69 -92t-119 -34q-97 0 -156 67.5t-59 177.5q0 115 65 187.5t158 72.5q83 0 133 -57.5t44 -134.5h-342q-3 -21 -3 -46q0 -100 46 -160.5t132 -60.5q50 0 95 20.5t70 61.5zM234 614
q90 0 115 79h8q-3 -47 -31.5 -84.5t-92.5 -37.5q-61 0 -89.5 38t-31.5 84h8q26 -79 114 -79z" />
    <glyph glyph-name="Edotaccent" unicode="&#x116;" horiz-adv-x="585" 
d="M525 0h-473v2q39 59 39 113v502q0 54 -39 113v2h423l39 -145l-8 -3q-65 93 -88 112q-15 12 -26 13l-246 6v-337h161q12 0 23.5 12t28 40.5t19.5 32.5h8v-185h-8q-4 6 -12 19t-14 21.5t-14 19t-16 15.5t-15 5h-161v-341l253 7q44 2 80 36t83 105l8 -3zM317 868
q0 -17 -12 -29t-29 -12t-29 12t-12 29t12 29t29 12t29 -12t12 -29z" />
    <glyph glyph-name="edotaccent" unicode="&#x117;" 
d="M260 472q-63 0 -105 -41.5t-55 -117.5l277 6v6q0 147 -117 147zM443 111q-19 -58 -69 -92t-119 -34q-97 0 -156 67.5t-59 177.5q0 115 65 187.5t158 72.5q83 0 133 -57.5t44 -134.5h-342q-3 -21 -3 -46q0 -100 46 -160.5t132 -60.5q50 0 95 20.5t70 61.5zM285 659
q0 -17 -12 -29t-29 -12t-29 12t-12 29t12 29t29 12t29 -12t12 -29z" />
    <glyph glyph-name="Eogonek" unicode="&#x118;" horiz-adv-x="585" 
d="M525 0h-79q-48 -36 -73 -75q-26 -41 -26 -79q0 -62 64 -62q53 0 100 55l8 -6q-52 -81 -129 -81q-43 0 -66 21t-23 59q0 48 34 86q40 44 89 82h-372v2q39 59 39 113v502q0 54 -39 113v2h423l39 -145l-8 -3q-65 93 -88 112q-15 12 -26 13l-246 6v-337h161q12 0 23.5 12
t28 40.5t19.5 32.5h8v-185h-8q-4 6 -12 19t-14 21.5t-14 19t-16 15.5t-15 5h-161v-341l253 7q44 2 80 36t83 105l8 -3z" />
    <glyph glyph-name="eogonek" unicode="&#x119;" 
d="M260 472q-63 0 -105 -41.5t-55 -117.5l273 6v6q0 147 -113 147zM398 -167q-52 -81 -129 -81q-89 0 -89 81q0 84 116 154q-24 -2 -42 -2q-97 0 -155.5 66t-58.5 176q0 119 65 191t159 72q82 0 130 -56t42 -136h-338q-3 -21 -3 -46q0 -101 44.5 -161t133.5 -60
q49 0 94.5 21t70.5 61l5 -2q-18 -54 -69 -92q-17 -12 -60 -39q-88 -56 -88 -132q0 -64 64 -64q53 0 100 55z" />
    <glyph glyph-name="Ecaron" unicode="&#x11a;" horiz-adv-x="585" 
d="M525 0h-473v2q39 59 39 113v502q0 54 -39 113v2h423l39 -145l-8 -3q-65 93 -88 112q-15 12 -26 13l-246 6v-337h161q12 0 23.5 12t28 40.5t19.5 32.5h8v-185h-8q-4 6 -12 19t-14 21.5t-14 19t-16 15.5t-15 5h-161v-341l253 7q44 2 80 36t83 105l8 -3zM294 782l-151 156
l6 7l147 -99l147 99l6 -7l-151 -156h-4z" />
    <glyph glyph-name="ecaron" unicode="&#x11b;" 
d="M260 472q-63 0 -105 -41.5t-55 -117.5l277 6v6q0 147 -117 147zM443 111q-19 -58 -69 -92t-119 -34q-97 0 -156 67.5t-59 177.5q0 115 65 187.5t158 72.5q83 0 133 -57.5t44 -134.5h-342q-3 -21 -3 -46q0 -100 46 -160.5t132 -60.5q50 0 95 20.5t70 61.5zM106 713l7 6
l129 -111l133 111l7 -6l-138 -173h-4z" />
    <glyph glyph-name="Gcircumflex" unicode="&#x11c;" horiz-adv-x="802" 
d="M728 91q-1 0 -17.5 -12t-22.5 -15t-24.5 -14.5t-30 -16.5t-32 -14.5t-38.5 -14t-41 -10t-48 -7.5t-51 -2q-174 0 -278.5 108.5t-104.5 272.5t109.5 272.5t291.5 108.5q135 0 256 -48l21 -143l-8 -3q-40 91 -105 132.5t-173 41.5q-160 0 -243 -101t-83 -261
q0 -163 77.5 -261.5t239.5 -98.5q115 0 185 41t70 118q0 76 -9.5 109.5t-36.5 56.5v2h136v-2q-24 -24 -32 -52t-8 -87v-100zM407 881l-147 -99l-6 7l151 156h4l151 -156l-6 -7z" />
    <glyph glyph-name="gcircumflex" unicode="&#x11d;" horiz-adv-x="477" 
d="M224 175q57 0 88.5 43t31.5 105q0 63 -31 106t-90 43t-89 -43.5t-30 -105.5q0 -61 31.5 -104.5t88.5 -43.5zM460 -78q0 -66 -64 -106.5t-171 -40.5q-96 0 -153 32.5t-57 87.5q0 40 27.5 70.5t66.5 40.5q-72 16 -72 71q0 40 32 64t78 34q-45 20 -72 60t-27 88
q0 67 51.5 117t123.5 50q69 0 118 -43l119 54l2 -1v-64h-4l-107 2q49 -49 49 -115q0 -68 -52 -117t-124 -49q-34 0 -64 12q-76 -24 -76 -73q0 -44 87 -48l115 -4q89 -4 131.5 -37t42.5 -85zM242 -207q82 0 128.5 29t46.5 82q0 90 -147 95l-111 2q-20 0 -35 3
q-24 -6 -41.5 -33t-17.5 -63q0 -56 47.5 -85.5t129.5 -29.5zM222 651l-129 -111l-7 6l134 173h4l138 -173l-7 -6z" />
    <glyph glyph-name="Gbreve" unicode="&#x11e;" horiz-adv-x="802" 
d="M728 91q-1 0 -17.5 -12t-22.5 -15t-24.5 -14.5t-30 -16.5t-32 -14.5t-38.5 -14t-41 -10t-48 -7.5t-51 -2q-174 0 -278.5 108.5t-104.5 272.5t109.5 272.5t291.5 108.5q135 0 256 -48l21 -143l-8 -3q-40 91 -105 132.5t-173 41.5q-160 0 -243 -101t-83 -261
q0 -163 77.5 -261.5t239.5 -98.5q115 0 185 41t70 118q0 76 -9.5 109.5t-36.5 56.5v2h136v-2q-24 -24 -32 -52t-8 -87v-100zM406 840q99 0 132 88h8q-21 -131 -141 -131q-116 0 -137 131h8q38 -88 130 -88z" />
    <glyph glyph-name="gbreve" unicode="&#x11f;" horiz-adv-x="477" 
d="M224 175q57 0 88.5 43t31.5 105q0 63 -31 106t-90 43t-89 -43.5t-30 -105.5q0 -61 31.5 -104.5t88.5 -43.5zM460 -78q0 -66 -64 -106.5t-171 -40.5q-96 0 -153 32.5t-57 87.5q0 40 27.5 70.5t66.5 40.5q-72 16 -72 71q0 40 32 64t78 34q-45 20 -72 60t-27 88
q0 67 51.5 117t123.5 50q69 0 118 -43l119 54l2 -1v-64h-4l-107 2q49 -49 49 -115q0 -68 -52 -117t-124 -49q-34 0 -64 12q-76 -24 -76 -73q0 -44 87 -48l115 -4q89 -4 131.5 -37t42.5 -85zM242 -207q82 0 128.5 29t46.5 82q0 90 -147 95l-111 2q-20 0 -35 3
q-24 -6 -41.5 -33t-17.5 -63q0 -56 47.5 -85.5t129.5 -29.5zM228 614q90 0 115 79h8q-3 -47 -31.5 -84.5t-92.5 -37.5q-61 0 -89.5 38t-31.5 84h8q26 -79 114 -79z" />
    <glyph glyph-name="Gdotaccent" unicode="&#x120;" horiz-adv-x="802" 
d="M728 91q-1 0 -17.5 -12t-22.5 -15t-24.5 -14.5t-30 -16.5t-32 -14.5t-38.5 -14t-41 -10t-48 -7.5t-51 -2q-174 0 -278.5 108.5t-104.5 272.5t109.5 272.5t291.5 108.5q135 0 256 -48l21 -143l-8 -3q-40 91 -105 132.5t-173 41.5q-160 0 -243 -101t-83 -261
q0 -163 77.5 -261.5t239.5 -98.5q115 0 185 41t70 118q0 76 -9.5 109.5t-36.5 56.5v2h136v-2q-24 -24 -32 -52t-8 -87v-100zM448 868q0 -17 -12 -29t-29 -12t-29 12t-12 29t12 29t29 12t29 -12t12 -29z" />
    <glyph glyph-name="gdotaccent" unicode="&#x121;" horiz-adv-x="477" 
d="M224 175q57 0 88.5 43t31.5 105q0 63 -31 106t-90 43t-89 -43.5t-30 -105.5q0 -61 31.5 -104.5t88.5 -43.5zM460 -78q0 -66 -64 -106.5t-171 -40.5q-96 0 -153 32.5t-57 87.5q0 40 27.5 70.5t66.5 40.5q-72 16 -72 71q0 40 32 64t78 34q-45 20 -72 60t-27 88
q0 67 51.5 117t123.5 50q69 0 118 -43l119 54l2 -1v-64h-4l-107 2q49 -49 49 -115q0 -68 -52 -117t-124 -49q-34 0 -64 12q-76 -24 -76 -73q0 -44 87 -48l115 -4q89 -4 131.5 -37t42.5 -85zM242 -207q82 0 128.5 29t46.5 82q0 90 -147 95l-111 2q-20 0 -35 3
q-24 -6 -41.5 -33t-17.5 -63q0 -56 47.5 -85.5t129.5 -29.5zM265 659q0 -17 -12 -29t-29 -12t-29 12t-12 29t12 29t29 12t29 -12t12 -29z" />
    <glyph glyph-name="uni0122" unicode="&#x122;" horiz-adv-x="802" 
d="M728 91q-1 0 -17.5 -12t-22.5 -15t-24.5 -14.5t-30 -16.5t-32 -14.5t-38.5 -14t-41 -10t-48 -7.5t-51 -2q-174 0 -278.5 108.5t-104.5 272.5t109.5 272.5t291.5 108.5q135 0 256 -48l21 -143l-8 -3q-40 91 -105 132.5t-173 41.5q-160 0 -243 -101t-83 -261
q0 -163 77.5 -261.5t239.5 -98.5q115 0 185 41t70 118q0 76 -9.5 109.5t-36.5 56.5v2h136v-2q-24 -24 -32 -52t-8 -87v-100zM366 -218q21 15 35 35.5t14 37.5q0 30 -33 59v2l48 36q32 -22 32 -61q0 -56 -92 -115z" />
    <glyph glyph-name="uni0123" unicode="&#x123;" horiz-adv-x="477" 
d="M224 175q57 0 88.5 43t31.5 105q0 63 -31 106t-90 43t-89 -43.5t-30 -105.5q0 -61 31.5 -104.5t88.5 -43.5zM460 -78q0 -66 -64 -106.5t-171 -40.5q-96 0 -153 32.5t-57 87.5q0 40 27.5 70.5t66.5 40.5q-72 16 -72 71q0 40 32 64t78 34q-45 20 -72 60t-27 88
q0 67 51.5 117t123.5 50q69 0 118 -43l119 54l2 -1v-64h-4l-107 2q49 -49 49 -115q0 -68 -52 -117t-124 -49q-34 0 -64 12q-76 -24 -76 -73q0 -44 87 -48l115 -4q89 -4 131.5 -37t42.5 -85zM242 -207q82 0 128.5 29t46.5 82q0 90 -147 95l-111 2q-20 0 -35 3
q-24 -6 -41.5 -33t-17.5 -63q0 -56 47.5 -85.5t129.5 -29.5zM279 748q-21 -15 -35 -35.5t-14 -37.5q0 -30 33 -59v-2l-48 -36q-32 22 -32 61q0 56 92 115z" />
    <glyph glyph-name="Hcircumflex" unicode="&#x124;" horiz-adv-x="712" 
d="M52 2q24 33 32 56.5t8 65.5v484q0 42 -8 65.5t-32 56.5v2h134v-2q-24 -33 -32 -56.5t-8 -65.5v-220h420v220q0 42 -8 65.5t-32 56.5v2h134v-2q-24 -33 -32 -56.5t-8 -65.5v-484q0 -42 8 -65.5t32 -56.5v-2h-134v2q24 33 32 56.5t8 65.5v244h-420v-244q0 -42 8 -65.5
t32 -56.5v-2h-134v2zM356 881l-147 -99l-6 7l151 156h4l151 -156l-6 -7z" />
    <glyph glyph-name="hcircumflex" unicode="&#x125;" horiz-adv-x="517" 
d="M54 0v2q22 41 22 117v541q0 46 -44 75v2l94 42v-376q74 87 180 87q69 0 104.5 -38.5t35.5 -107.5v-224q0 -47 3.5 -71t18.5 -47v-2h-94v2q22 41 22 117v214q0 118 -112 118q-93 0 -158 -66v-266q0 -45 3.5 -69t18.5 -48v-2h-94zM276 911l-147 -99l-6 7l151 156h4
l151 -156l-6 -7z" />
    <glyph glyph-name="Hbar" unicode="&#x126;" horiz-adv-x="732" 
d="M62 2q24 33 32 56.5t8 65.5v424h-100v18h100v42q0 42 -8 65.5t-32 56.5v2h134v-2q-24 -33 -32 -56.5t-8 -65.5v-42h420v42q0 42 -8 65.5t-32 56.5v2h134v-2q-24 -33 -32 -56.5t-8 -65.5v-42h100v-18h-100v-424q0 -42 8 -65.5t32 -56.5v-2h-134v2q24 33 32 56.5t8 65.5
v244h-420v-244q0 -42 8 -65.5t32 -56.5v-2h-134v2zM576 388v160h-420v-160h420z" />
    <glyph glyph-name="hbar" unicode="&#x127;" horiz-adv-x="517" 
d="M51 0v2q22 41 22 117v460h-73v18h73v63q0 46 -44 75v2l94 42v-182h197v-18h-197v-176q74 87 180 87q69 0 104.5 -38.5t35.5 -107.5v-224q0 -47 3.5 -71t18.5 -47v-2h-94v2q22 41 22 117v214q0 118 -112 118q-93 0 -158 -66v-266q0 -45 3.5 -69t18.5 -48v-2h-94z" />
    <glyph glyph-name="Itilde" unicode="&#x128;" horiz-adv-x="238" 
d="M53 2q24 32 31.5 55t7.5 67v484q0 42 -8 65.5t-32 56.5v2h134v-2q-24 -33 -32 -56.5t-8 -65.5v-484q0 -42 8 -65.5t33 -56.5l-1 -2h-134zM40 902q33 0 89 -27.5t84 -27.5q27 0 40.5 15t22.5 50l8 -1q-9 -115 -86 -115q-33 0 -89 27.5t-84 27.5q-27 0 -40.5 -15t-22.5 -50
l-8 1q9 115 86 115z" />
    <glyph glyph-name="itilde" unicode="&#x129;" horiz-adv-x="197" 
d="M54 2q22 41 22 117v248q0 45 -44 74v2l94 52v-375q0 -46 3.5 -70t18.5 -48v-2h-94v2zM28 682q26 0 69 -22t72 -22q47 0 61 54l8 -1q-8 -99 -80 -99q-26 0 -69 22t-72 22q-47 0 -61 -54l-8 1q8 99 80 99z" />
    <glyph glyph-name="Imacron" unicode="&#x12a;" horiz-adv-x="238" 
d="M53 2q24 32 31.5 55t7.5 67v484q0 42 -8 65.5t-32 56.5v2h134v-2q-24 -33 -32 -56.5t-8 -65.5v-484q0 -42 8 -65.5t33 -56.5l-1 -2h-134zM-30 873h299v-35h-299v35z" />
    <glyph glyph-name="imacron" unicode="&#x12b;" horiz-adv-x="197" 
d="M-10 645h195v-35h-195v35zM54 2q22 41 22 117v248q0 45 -44 74v2l94 52v-375q0 -46 3.5 -70t18.5 -48v-2h-94v2z" />
    <glyph glyph-name="Ibreve" unicode="&#x12c;" horiz-adv-x="238" 
d="M53 2q24 32 31.5 55t7.5 67v484q0 42 -8 65.5t-32 56.5v2h134v-2q-24 -33 -32 -56.5t-8 -65.5v-484q0 -42 8 -65.5t33 -56.5l-1 -2h-134zM118 840q99 0 132 88h8q-21 -131 -141 -131q-116 0 -137 131h8q38 -88 130 -88z" />
    <glyph glyph-name="ibreve" unicode="&#x12d;" horiz-adv-x="197" 
d="M54 2q22 41 22 117v248q0 45 -44 74v2l94 52v-375q0 -46 3.5 -70t18.5 -48v-2h-94v2zM94 614q90 0 115 79h8q-3 -47 -31.5 -84.5t-92.5 -37.5q-61 0 -89.5 38t-31.5 84h8q26 -79 114 -79z" />
    <glyph glyph-name="Iogonek" unicode="&#x12e;" horiz-adv-x="238" 
d="M53 2q24 32 31.5 55t7.5 67v484q0 42 -8 65.5t-32 56.5v2h134v-2q-24 -33 -32 -56.5t-8 -65.5v-484q0 -42 8 -65.5t33 -56.5l-1 -2h-27q-48 -36 -73 -75q-26 -41 -26 -79q0 -62 64 -62q53 0 100 55l8 -6q-52 -81 -129 -81q-43 0 -66 21t-23 59q0 48 34 86q40 44 89 82
h-85z" />
    <glyph glyph-name="iogonek" unicode="&#x12f;" horiz-adv-x="197" 
d="M54 2q22 41 22 117v248q0 45 -44 74v2l94 52v-375q0 -46 3.5 -70t18.5 -48v-2h-18q-48 -36 -73 -75q-26 -41 -26 -79q0 -62 64 -62q53 0 100 55l8 -6q-52 -81 -129 -81q-43 0 -66 21t-23 59q0 48 34 86q40 44 89 82h-54v2zM139 659q0 -17 -12 -29t-29 -12t-29 12t-12 29
t12 29t29 12t29 -12t12 -29z" />
    <glyph glyph-name="Idotaccent" unicode="&#x130;" horiz-adv-x="238" 
d="M53 2q24 32 31.5 55t7.5 67v484q0 42 -8 65.5t-32 56.5v2h134v-2q-24 -33 -32 -56.5t-8 -65.5v-484q0 -42 8 -65.5t33 -56.5l-1 -2h-134zM160 868q0 -17 -12 -29t-29 -12t-29 12t-12 29t12 29t29 12t29 -12t12 -29z" />
    <glyph glyph-name="dotlessi" unicode="&#x131;" horiz-adv-x="197" 
d="M54 2q22 41 22 117v248q0 45 -44 74v2l94 52v-375q0 -46 3.5 -70t18.5 -48v-2h-94v2z" />
    <glyph glyph-name="IJ" unicode="&#x132;" horiz-adv-x="602" 
d="M53 2q24 32 31.5 55t7.5 67v484q0 42 -8 65.5t-32 56.5v2h134v-2q-24 -33 -32 -56.5t-8 -65.5v-484q0 -42 8 -65.5t33 -56.5l-1 -2h-134zM520 118q0 -64 -33 -98.5t-95 -34.5q-51 0 -98 22l-18 125l8 3q63 -130 125 -130q57 0 57 97v506q0 42 -8 65.5t-32 56.5v2h134v-2
q-24 -33 -32 -56.5t-8 -65.5v-490z" />
    <glyph glyph-name="ij" unicode="&#x133;" horiz-adv-x="390" 
d="M139 659q0 -17 -12 -29t-29 -12t-29 12t-12 29t12 29t29 12t29 -12t12 -29zM54 2q22 41 22 117v248q0 45 -44 74v2l94 52v-375q0 -46 3.5 -70t18.5 -48v-2h-94v2zM339 659q0 -17 -12 -29t-29 -12t-29 12t-12 29t12 29t29 12t29 -12t12 -29zM211 -210q35 19 50 48t15 92
v437q0 45 -44 74v2l94 52l-2 -551q0 -79 -26.5 -115.5t-84.5 -43.5z" />
    <glyph glyph-name="Jcircumflex" unicode="&#x134;" horiz-adv-x="355" 
d="M273 118q0 -64 -33 -98.5t-95 -34.5q-51 0 -98 22l-18 125l8 3q63 -130 125 -130q57 0 57 97v506q0 42 -8 65.5t-32 56.5v2h134v-2q-24 -33 -32 -56.5t-8 -65.5v-490zM246 881l-147 -99l-6 7l151 156h4l151 -156l-6 -7z" />
    <glyph glyph-name="jcircumflex" unicode="&#x135;" horiz-adv-x="190" 
d="M14 -238q35 19 50 48t15 92v465q0 45 -44 74v2l94 52l-2 -579q0 -79 -26.5 -115.5t-84.5 -43.5zM101 651l-129 -111l-7 6l134 173h4l138 -173l-7 -6z" />
    <glyph glyph-name="uni0136" unicode="&#x136;" horiz-adv-x="604" 
d="M53 2q24 32 31.5 55t7.5 67v484q0 42 -8 65.5t-32 56.5v2h134v-2q-24 -33 -32 -56.5t-8 -65.5v-484q0 -42 8 -65.5t33 -56.5l-1 -2h-134zM494 0l-312 381l227 240q55 58 2 109v2h165v-2q-34 -16 -61.5 -36t-38 -31t-37.5 -40l-207 -219l234 -286q48 -58 71 -79t56 -37
l1 -2h-100zM273 -218q21 15 35 35.5t14 37.5q0 30 -33 59v2l48 36q32 -22 32 -61q0 -56 -92 -115z" />
    <glyph glyph-name="uni0137" unicode="&#x137;" horiz-adv-x="437" 
d="M54 2q22 41 22 117v554q0 39 -44 62v2l94 42v-659q0 -45 4 -69.5t18 -48.5v-2h-94v2zM337 0l-186 249l142 161q33 40 -9 63v2h116v-2q-34 -15 -49 -27.5t-41 -43.5l-113 -128l136 -182q30 -38 49.5 -57t44.5 -33v-2h-90zM173 -218q21 15 35 35.5t14 37.5q0 30 -33 59v2
l48 36q32 -22 32 -61q0 -56 -92 -115z" />
    <glyph glyph-name="Lacute" unicode="&#x139;" horiz-adv-x="541" 
d="M52 0v2q24 33 32 56.5t8 65.5v484q0 42 -8 65.5t-32 56.5v2h134v-2q-24 -33 -32 -56.5t-8 -65.5v-591l208 7q48 2 85 35t79 106l8 -3l-46 -162h-428zM226 959l33 -54l-227 -123l-4 7z" />
    <glyph glyph-name="lacute" unicode="&#x13a;" horiz-adv-x="197" 
d="M54 2q22 41 22 117v554q0 39 -44 62v2l94 42v-659q0 -45 4 -69.5t18 -48.5v-2h-94v2zM193 959l33 -54l-227 -123l-4 7z" />
    <glyph glyph-name="uni013B" unicode="&#x13b;" horiz-adv-x="541" 
d="M52 0v2q24 33 32 56.5t8 65.5v484q0 42 -8 65.5t-32 56.5v2h134v-2q-24 -33 -32 -56.5t-8 -65.5v-591l208 7q48 2 85 35t79 106l8 -3l-46 -162h-428zM244 -218q21 15 35 35.5t14 37.5q0 30 -33 59v2l48 36q32 -22 32 -61q0 -56 -92 -115z" />
    <glyph glyph-name="uni013C" unicode="&#x13c;" horiz-adv-x="197" 
d="M54 2q22 41 22 117v554q0 39 -44 62v2l94 42v-659q0 -45 4 -69.5t18 -48.5v-2h-94v2zM42 -218q21 15 35 35.5t14 37.5q0 30 -33 59v2l48 36q32 -22 32 -61q0 -56 -92 -115z" />
    <glyph glyph-name="Lcaron" unicode="&#x13d;" horiz-adv-x="541" 
d="M52 0v2q24 33 32 56.5t8 65.5v484q0 42 -8 65.5t-32 56.5v2h134v-2q-24 -33 -32 -56.5t-8 -65.5v-591l208 7q48 2 85 35t79 106l8 -3l-46 -162h-428zM246 732h63l-88 -203l-7 2z" />
    <glyph glyph-name="lcaron" unicode="&#x13e;" horiz-adv-x="197" 
d="M54 2q22 41 22 117v554q0 39 -44 62v2l94 42v-659q0 -45 4 -69.5t18 -48.5v-2h-94v2zM197 775h63l-88 -203l-7 2z" />
    <glyph glyph-name="Ldot" unicode="&#x13f;" horiz-adv-x="541" 
d="M52 0v2q24 33 32 56.5t8 65.5v484q0 42 -8 65.5t-32 56.5v2h134v-2q-24 -33 -32 -56.5t-8 -65.5v-591l208 7q48 2 85 35t79 106l8 -3l-46 -162h-428zM429 317q-19 0 -33 13.5t-14 33.5t14 33.5t33 13.5q20 0 33.5 -13.5t13.5 -33.5t-13.5 -33.5t-33.5 -13.5z" />
    <glyph glyph-name="ldot" unicode="&#x140;" horiz-adv-x="301" 
d="M54 2q22 41 22 117v554q0 39 -44 62v2l94 42v-659q0 -45 4 -69.5t18 -48.5v-2h-94v2zM248 307q-19 0 -33 13.5t-14 33.5t14 33.5t33 13.5q20 0 33.5 -13.5t13.5 -33.5t-13.5 -33.5t-33.5 -13.5z" />
    <glyph glyph-name="Lslash" unicode="&#x141;" horiz-adv-x="551" 
d="M62 0v2q24 33 32 56.5t8 65.5v141l-84 -46v24l84 46v319q0 42 -8 65.5t-32 56.5v2h134v-2q-24 -33 -32 -56.5t-8 -65.5v-290l252 139v-24l-252 -139v-277l208 7q48 2 85 35t79 106l8 -3l-46 -162h-428z" />
    <glyph glyph-name="lslash" unicode="&#x142;" horiz-adv-x="222" 
d="M64 2q22 41 22 117v209l-66 -69v28l66 69v317q0 39 -44 62v2l94 42v-371l64 67v-28l-64 -67v-260q0 -45 4 -69.5t18 -48.5v-2h-94v2z" />
    <glyph glyph-name="Nacute" unicode="&#x143;" horiz-adv-x="716" 
d="M111 632l4 -494q0 -47 13.5 -74t56.5 -62v-2h-143v2q31 34 40.5 61.5t9.5 74.5v516q-38 54 -80 76v2h89l505 -634l-3 496q0 47 -11.5 74.5t-48.5 61.5v2h133v-2q-31 -35 -40.5 -61.5t-9.5 -74.5v-594l-9 -3zM472 959l33 -54l-227 -123l-4 7z" />
    <glyph glyph-name="nacute" unicode="&#x144;" horiz-adv-x="517" 
d="M148 0h-94v2q22 41 22 117v247q0 46 -44 75v2l90 52v-91l4 -1q74 87 180 87q69 0 104.5 -38.5t35.5 -107.5v-224q0 -47 3.5 -71t18.5 -47v-2h-94v2q22 41 22 117v214q0 118 -112 118q-98 0 -158 -66v-265q0 -46 3.5 -70t18.5 -48v-2zM335 749l49 -38l-172 -178l-7 6z" />
    <glyph glyph-name="uni0145" unicode="&#x145;" horiz-adv-x="716" 
d="M111 632l4 -494q0 -47 13.5 -74t56.5 -62v-2h-143v2q31 34 40.5 61.5t9.5 74.5v516q-38 54 -80 76v2h89l505 -634l-3 496q0 47 -11.5 74.5t-48.5 61.5v2h133v-2q-31 -35 -40.5 -61.5t-9.5 -74.5v-594l-9 -3zM304 -218q21 15 35 35.5t14 37.5q0 30 -33 59v2l48 36
q32 -22 32 -61q0 -56 -92 -115z" />
    <glyph glyph-name="uni0146" unicode="&#x146;" horiz-adv-x="517" 
d="M148 0h-94v2q22 41 22 117v247q0 46 -44 75v2l90 52v-91l4 -1q74 87 180 87q69 0 104.5 -38.5t35.5 -107.5v-224q0 -47 3.5 -71t18.5 -47v-2h-94v2q22 41 22 117v214q0 118 -112 118q-98 0 -158 -66v-265q0 -46 3.5 -70t18.5 -48v-2zM210 -218q21 15 35 35.5t14 37.5
q0 30 -33 59v2l48 36q32 -22 32 -61q0 -56 -92 -115z" />
    <glyph glyph-name="Ncaron" unicode="&#x147;" horiz-adv-x="716" 
d="M111 632l4 -494q0 -47 13.5 -74t56.5 -62v-2h-143v2q31 34 40.5 61.5t9.5 74.5v516q-38 54 -80 76v2h89l505 -634l-3 496q0 47 -11.5 74.5t-48.5 61.5v2h133v-2q-31 -35 -40.5 -61.5t-9.5 -74.5v-594l-9 -3zM363 782l-151 156l6 7l147 -99l147 99l6 -7l-151 -156h-4z" />
    <glyph glyph-name="ncaron" unicode="&#x148;" horiz-adv-x="517" 
d="M148 0h-94v2q22 41 22 117v247q0 46 -44 75v2l90 52v-91l4 -1q74 87 180 87q69 0 104.5 -38.5t35.5 -107.5v-224q0 -47 3.5 -71t18.5 -47v-2h-94v2q22 41 22 117v214q0 118 -112 118q-98 0 -158 -66v-265q0 -46 3.5 -70t18.5 -48v-2zM128 713l7 6l129 -111l133 111l7 -6
l-138 -173h-4z" />
    <glyph glyph-name="napostrophe" unicode="&#x149;" horiz-adv-x="517" 
d="M148 0h-94v2q22 41 22 117v247q0 46 -44 75v2l90 52v-91l4 -1q74 87 180 87q69 0 104.5 -38.5t35.5 -107.5v-224q0 -47 3.5 -71t18.5 -47v-2h-94v2q22 41 22 117v214q0 118 -112 118q-98 0 -158 -66v-265q0 -46 3.5 -70t18.5 -48v-2zM-12 550q52 60 52 102q0 26 -38 60v2
l51 41q35 -26 35 -60q0 -72 -94 -151z" />
    <glyph glyph-name="Eng" unicode="&#x14a;" horiz-adv-x="716" 
d="M495 -225q-54 0 -108 22l-18 125l8 3q38 -67 69 -98.5t67 -31.5q43 0 68 39.5t25 112.5v64l-495 621l4 -494q0 -47 13.5 -74t56.5 -62v-2h-143v2q31 34 40.5 61.5t9.5 74.5v516q-38 54 -80 76v2h89l504 -633l-2 495q0 47 -11.5 74.5t-48.5 61.5v2h133v-2
q-31 -35 -40.5 -61.5t-9.5 -74.5v-636q0 -91 -30.5 -137t-100.5 -46z" />
    <glyph glyph-name="eng" unicode="&#x14b;" horiz-adv-x="497" 
d="M331 -210q35 19 50 48t15 92v403q0 118 -112 118q-98 0 -158 -66v-265q0 -46 3.5 -70t18.5 -48v-2h-94v2q22 41 22 117v247q0 46 -44 75v2l90 52v-91l4 -1q74 87 180 87q69 0 104.5 -38.5t35.5 -107.5l-2 -400q-1 -79 -27 -115.5t-84 -43.5z" />
    <glyph glyph-name="Omacron" unicode="&#x14c;" horiz-adv-x="811" 
d="M405 -15q-156 0 -260.5 109t-104.5 271t104.5 272t260.5 110t261 -110t105 -272t-105 -271t-261 -109zM405 5q136 0 218 101t82 259q0 157 -82 259.5t-218 102.5t-217.5 -102t-81.5 -260q0 -157 81.5 -258.5t217.5 -101.5zM256 873h299v-35h-299v35z" />
    <glyph glyph-name="omacron" unicode="&#x14d;" horiz-adv-x="562" 
d="M281 -15q-101 0 -173.5 73.5t-72.5 178.5t72.5 179t173.5 74t173.5 -74t72.5 -179t-72.5 -178.5t-173.5 -73.5zM281 3q89 0 136.5 66t47.5 168t-48.5 168.5t-135.5 66.5t-135.5 -66.5t-48.5 -168.5t47.5 -168t136.5 -66zM139 645h285v-35h-285v35z" />
    <glyph glyph-name="Obreve" unicode="&#x14e;" horiz-adv-x="811" 
d="M405 -15q-156 0 -260.5 109t-104.5 271t104.5 272t260.5 110t261 -110t105 -272t-105 -271t-261 -109zM405 5q136 0 218 101t82 259q0 157 -82 259.5t-218 102.5t-217.5 -102t-81.5 -260q0 -157 81.5 -258.5t217.5 -101.5zM404 840q99 0 132 88h8q-21 -131 -141 -131
q-116 0 -137 131h8q38 -88 130 -88z" />
    <glyph glyph-name="obreve" unicode="&#x14f;" horiz-adv-x="562" 
d="M281 -15q-101 0 -173.5 73.5t-72.5 178.5t72.5 179t173.5 74t173.5 -74t72.5 -179t-72.5 -178.5t-173.5 -73.5zM281 3q89 0 136.5 66t47.5 168t-48.5 168.5t-135.5 66.5t-135.5 -66.5t-48.5 -168.5t47.5 -168t136.5 -66zM281 614q90 0 115 79h8q-3 -47 -31.5 -84.5
t-92.5 -37.5q-61 0 -89.5 38t-31.5 84h8q26 -79 114 -79z" />
    <glyph glyph-name="Ohungarumlaut" unicode="&#x150;" horiz-adv-x="811" 
d="M405 -15q-156 0 -260.5 109t-104.5 271t104.5 272t260.5 110t261 -110t105 -272t-105 -271t-261 -109zM405 5q136 0 218 101t82 259q0 157 -82 259.5t-218 102.5t-217.5 -102t-81.5 -260q0 -157 81.5 -258.5t217.5 -101.5zM600 949l40 -52l-175 -115l-5 7zM407 949
l40 -52l-175 -115l-5 7z" />
    <glyph glyph-name="ohungarumlaut" unicode="&#x151;" horiz-adv-x="562" 
d="M281 -15q-101 0 -173.5 73.5t-72.5 178.5t72.5 179t173.5 74t173.5 -74t72.5 -179t-72.5 -178.5t-173.5 -73.5zM281 3q89 0 136.5 66t47.5 168t-48.5 168.5t-135.5 66.5t-135.5 -66.5t-48.5 -168.5t47.5 -168t136.5 -66zM440 729l39 -36l-145 -152l-7 7zM298 729l39 -36
l-145 -152l-7 7z" />
    <glyph glyph-name="OE" unicode="&#x152;" horiz-adv-x="1025" 
d="M503 18q28 49 28 97v502q0 45 -31 97l-86 -2q-152 -4 -230 -88.5t-78 -260.5q0 -171 79 -254.5t249 -88.5zM965 0h-541q-180 0 -282 96.5t-102 272.5q0 175 98 269t266 94h511l39 -145l-8 -3q-65 93 -88 112q-15 12 -26 13l-246 6v-337h161q12 0 23.5 12t28 40.5
t19.5 32.5h8v-185h-8q-4 6 -12 19t-14 21.5t-14 19t-16 15.5t-15 5h-161v-341l253 7q44 2 80 36t83 105l8 -3z" />
    <glyph glyph-name="oe" unicode="&#x153;" horiz-adv-x="910" 
d="M692 472q-63 0 -105 -41.5t-55 -117.5l273 6v6q0 147 -113 147zM281 3q88 0 137 66t49 168t-49 168.5t-137 66.5t-137 -66.5t-49 -168.5t49 -168t137 -66zM875 111q-19 -58 -69 -92t-120 -34q-69 0 -119 34t-74 97q-31 -61 -87.5 -96t-124.5 -35q-101 0 -173.5 73.5
t-72.5 178.5t72.5 179t173.5 74q70 0 128 -37.5t88 -101.5q27 65 81 102t118 37q82 0 130 -56t42 -136h-338q-3 -21 -3 -46q0 -101 44.5 -161t133.5 -60q49 0 94.5 21t70.5 61z" />
    <glyph glyph-name="Racute" unicode="&#x154;" horiz-adv-x="618" 
d="M52 0v2q24 33 32 56.5t8 65.5v484q0 42 -8 65.5t-32 56.5v2h257q105 0 155 -45.5t50 -126.5q0 -75 -34.5 -131t-103.5 -75l123 -231q27 -53 51 -80t58 -41v-2h-105l-183 345h-174v-221q0 -42 8 -65.5t32 -56.5v-2h-134zM299 712h-58q-58 0 -95 -1v-346h154q81 0 119 54.5
t38 139.5q0 74 -35.5 113.5t-122.5 39.5zM385 959l33 -54l-227 -123l-4 7z" />
    <glyph glyph-name="racute" unicode="&#x155;" horiz-adv-x="309" 
d="M54 2q22 41 22 117v247q0 46 -44 75v2l90 52v-121l5 -1q9 9 34 37t39 41t39 26t50 13v-80h-2q-25 15 -73 15q-23 0 -88 -75v-230q0 -46 3.5 -70t18.5 -48v-2h-94v2zM255 749l49 -38l-172 -178l-7 6z" />
    <glyph glyph-name="uni0156" unicode="&#x156;" horiz-adv-x="618" 
d="M52 0v2q24 33 32 56.5t8 65.5v484q0 42 -8 65.5t-32 56.5v2h257q105 0 155 -45.5t50 -126.5q0 -75 -34.5 -131t-103.5 -75l123 -231q27 -53 51 -80t58 -41v-2h-105l-183 345h-174v-221q0 -42 8 -65.5t32 -56.5v-2h-134zM299 712h-58q-58 0 -95 -1v-346h154q81 0 119 54.5
t38 139.5q0 74 -35.5 113.5t-122.5 39.5zM267 -218q21 15 35 35.5t14 37.5q0 30 -33 59v2l48 36q32 -22 32 -61q0 -56 -92 -115z" />
    <glyph glyph-name="uni0157" unicode="&#x157;" horiz-adv-x="309" 
d="M54 2q22 41 22 117v247q0 46 -44 75v2l90 52v-121l5 -1q9 9 34 37t39 41t39 26t50 13v-80h-2q-25 15 -73 15q-23 0 -88 -75v-230q0 -46 3.5 -70t18.5 -48v-2h-94v2zM42 -218q21 15 35 35.5t14 37.5q0 30 -33 59v2l48 36q32 -22 32 -61q0 -56 -92 -115z" />
    <glyph glyph-name="Rcaron" unicode="&#x158;" horiz-adv-x="618" 
d="M52 0v2q24 33 32 56.5t8 65.5v484q0 42 -8 65.5t-32 56.5v2h257q105 0 155 -45.5t50 -126.5q0 -75 -34.5 -131t-103.5 -75l123 -231q27 -53 51 -80t58 -41v-2h-105l-183 345h-174v-221q0 -42 8 -65.5t32 -56.5v-2h-134zM299 712h-58q-58 0 -95 -1v-346h154q81 0 119 54.5
t38 139.5q0 74 -35.5 113.5t-122.5 39.5zM276 782l-151 156l6 7l147 -99l147 99l6 -7l-151 -156h-4z" />
    <glyph glyph-name="rcaron" unicode="&#x159;" horiz-adv-x="309" 
d="M54 2q22 41 22 117v247q0 46 -44 75v2l90 52v-121l5 -1q9 9 34 37t39 41t39 26t50 13v-80h-2q-25 15 -73 15q-23 0 -88 -75v-230q0 -46 3.5 -70t18.5 -48v-2h-94v2zM48 713l7 6l129 -111l133 111l7 -6l-138 -173h-4z" />
    <glyph glyph-name="Sacute" unicode="&#x15a;" horiz-adv-x="533" 
d="M448 578l-8 -3q-51 152 -190 152q-79 0 -118 -39t-39 -95q0 -36 12.5 -63t46 -49.5t53 -32.5t70.5 -31q11 -5 16 -7q40 -17 62.5 -28t54 -32t48.5 -42.5t29.5 -53.5t12.5 -71q0 -101 -71 -149.5t-180 -48.5q-101 0 -192 38l-20 142l8 3q34 -86 86.5 -124.5t137.5 -38.5
q88 0 133 42t45 116q0 35 -11.5 63.5t-25.5 46t-45.5 37t-49.5 28t-59 26.5q-35 15 -51 22.5t-45.5 23t-44 29.5t-31.5 34.5t-24 45.5t-7 56q0 83 58 127.5t157 44.5q86 0 162 -30zM370 959l33 -54l-227 -123l-4 7z" />
    <glyph glyph-name="sacute" unicode="&#x15b;" horiz-adv-x="375" 
d="M323 383l-8 -2q-26 51 -56.5 71t-70.5 20q-48 0 -77.5 -24t-29.5 -64q0 -23 8.5 -39.5t30.5 -30t36.5 -20t51.5 -20.5q32 -13 52 -23t43.5 -28t35 -43t11.5 -58q0 -64 -45 -100.5t-131 -36.5q-72 0 -132 29l-10 102l8 2q25 -60 60 -87.5t88 -27.5q58 0 89.5 29t31.5 73
q0 45 -32.5 70t-93.5 47q-31 11 -51.5 21t-44 26.5t-35.5 40.5t-12 55q0 65 48 95t117 30q64 0 108 -18zM273 749l49 -38l-172 -178l-7 6z" />
    <glyph glyph-name="Scircumflex" unicode="&#x15c;" horiz-adv-x="533" 
d="M448 578l-8 -3q-51 152 -190 152q-79 0 -118 -39t-39 -95q0 -36 12.5 -63t46 -49.5t53 -32.5t70.5 -31q11 -5 16 -7q40 -17 62.5 -28t54 -32t48.5 -42.5t29.5 -53.5t12.5 -71q0 -101 -71 -149.5t-180 -48.5q-101 0 -192 38l-20 142l8 3q34 -86 86.5 -124.5t137.5 -38.5
q88 0 133 42t45 116q0 35 -11.5 63.5t-25.5 46t-45.5 37t-49.5 28t-59 26.5q-35 15 -51 22.5t-45.5 23t-44 29.5t-31.5 34.5t-24 45.5t-7 56q0 83 58 127.5t157 44.5q86 0 162 -30zM263 881l-147 -99l-6 7l151 156h4l151 -156l-6 -7z" />
    <glyph glyph-name="scircumflex" unicode="&#x15d;" horiz-adv-x="375" 
d="M323 383l-8 -2q-26 51 -56.5 71t-70.5 20q-48 0 -77.5 -24t-29.5 -64q0 -23 8.5 -39.5t30.5 -30t36.5 -20t51.5 -20.5q32 -13 52 -23t43.5 -28t35 -43t11.5 -58q0 -64 -45 -100.5t-131 -36.5q-72 0 -132 29l-10 102l8 2q25 -60 60 -87.5t88 -27.5q58 0 89.5 29t31.5 73
q0 45 -32.5 70t-93.5 47q-31 11 -51.5 21t-44 26.5t-35.5 40.5t-12 55q0 65 48 95t117 30q64 0 108 -18zM182 651l-129 -111l-7 6l134 173h4l138 -173l-7 -6z" />
    <glyph glyph-name="uni015E" unicode="&#x15e;" horiz-adv-x="533" 
d="M181 -247q54 20 79.5 39.5t25.5 51.5q0 55 -86 65l-1 2q4 8 12 21t10 16l18 30l4 7q-57 2 -98 11q-49 10 -90 27l-20 142l8 3q34 -86 86.5 -124.5t137.5 -38.5q88 0 133 42t45 116q0 35 -11.5 63.5t-25.5 46t-45.5 37t-49.5 28t-59 26.5q-35 15 -51 22.5t-45.5 23
t-44 29.5t-31.5 34.5t-24 45.5t-7 56q0 83 58 127.5t157 44.5q86 0 162 -30l20 -139l-8 -3q-51 152 -190 152q-79 0 -118 -39t-39 -95q0 -36 12.5 -63t46 -49.5t53 -32.5t70.5 -31q11 -5 16 -7q40 -17 62.5 -28t54 -32t48.5 -42.5t29.5 -53.5t12.5 -71q0 -76 -42.5 -123.5
t-114.5 -63.5q-38 -9 -69 -10l-26 -43q83 -19 83 -86q0 -84 -146 -112z" />
    <glyph glyph-name="uni015F" unicode="&#x15f;" horiz-adv-x="375" 
d="M110 -247q54 20 79.5 39.5t25.5 51.5q0 55 -86 65l-1 2q4 8 12 21t10 16l18 30l4 7q-48 0 -78 10q-36 10 -52 19l-10 102l8 2q25 -60 60 -87.5t88 -27.5q58 0 89.5 29t31.5 73q0 45 -32.5 70t-93.5 47q-31 11 -51.5 21t-44 26.5t-35.5 40.5t-12 55q0 65 48 95t117 30
q64 0 108 -18l10 -89l-8 -2q-26 51 -56.5 71t-70.5 20q-48 0 -77.5 -24t-29.5 -64q0 -23 8.5 -39.5t30.5 -30t36.5 -20t51.5 -20.5q32 -13 52 -23t43.5 -28t35 -43t11.5 -58q0 -62 -45 -100q-38 -32 -103 -36l-27 -43q83 -19 83 -86q0 -84 -146 -112z" />
    <glyph glyph-name="Scaron" unicode="&#x160;" horiz-adv-x="533" 
d="M448 578l-8 -3q-51 152 -190 152q-79 0 -118 -39t-39 -95q0 -36 12.5 -63t46 -49.5t53 -32.5t70.5 -31q11 -5 16 -7q40 -17 62.5 -28t54 -32t48.5 -42.5t29.5 -53.5t12.5 -71q0 -101 -71 -149.5t-180 -48.5q-101 0 -192 38l-20 142l8 3q34 -86 86.5 -124.5t137.5 -38.5
q88 0 133 42t45 116q0 35 -11.5 63.5t-25.5 46t-45.5 37t-49.5 28t-59 26.5q-35 15 -51 22.5t-45.5 23t-44 29.5t-31.5 34.5t-24 45.5t-7 56q0 83 58 127.5t157 44.5q86 0 162 -30zM261 782l-151 156l6 7l147 -99l147 99l6 -7l-151 -156h-4z" />
    <glyph glyph-name="scaron" unicode="&#x161;" horiz-adv-x="375" 
d="M323 383l-8 -2q-26 51 -56.5 71t-70.5 20q-48 0 -77.5 -24t-29.5 -64q0 -23 8.5 -39.5t30.5 -30t36.5 -20t51.5 -20.5q32 -13 52 -23t43.5 -28t35 -43t11.5 -58q0 -64 -45 -100.5t-131 -36.5q-72 0 -132 29l-10 102l8 2q25 -60 60 -87.5t88 -27.5q58 0 89.5 29t31.5 73
q0 45 -32.5 70t-93.5 47q-31 11 -51.5 21t-44 26.5t-35.5 40.5t-12 55q0 65 48 95t117 30q64 0 108 -18zM56 713l7 6l129 -111l133 111l7 -6l-138 -173h-4z" />
    <glyph glyph-name="Tcommaaccent" unicode="&#x162;" horiz-adv-x="634" 
d="M384 0h-134v2q25 31 32.5 55t7.5 67v590l-153 -4q-29 0 -114 -152l-8 3l39 171h526l39 -171l-8 -3q-7 12 -22.5 38t-25.5 42t-22.5 35t-23.5 28t-20 9l-153 4v-590q0 -42 8 -65.5t32 -56.5v-2zM256 -218q21 15 35 35.5t14 37.5q0 30 -33 59v2l48 36q32 -22 32 -61
q0 -56 -92 -115z" />
    <glyph glyph-name="tcommaaccent" unicode="&#x163;" horiz-adv-x="319" 
d="M185 -15q-42 0 -71 25.5t-29 84.5v362h-54v2l102 89h2v-73h148v-18h-148v-364q0 -77 73 -77q45 0 84 21l2 -4q-48 -48 -109 -48zM115 -218q21 15 35 35.5t14 37.5q0 30 -33 59v2l48 36q32 -22 32 -61q0 -56 -92 -115z" />
    <glyph glyph-name="Tcaron" unicode="&#x164;" horiz-adv-x="634" 
d="M384 0h-134v2q25 31 32.5 55t7.5 67v590l-153 -4q-29 0 -114 -152l-8 3l39 171h526l39 -171l-8 -3q-7 12 -22.5 38t-25.5 42t-22.5 35t-23.5 28t-20 9l-153 4v-590q0 -42 8 -65.5t32 -56.5v-2zM315 782l-151 156l6 7l147 -99l147 99l6 -7l-151 -156h-4z" />
    <glyph glyph-name="tcaron" unicode="&#x165;" horiz-adv-x="319" 
d="M185 -15q-42 0 -71 25.5t-29 84.5v362h-54v2l102 89h2v-73h148v-18h-148v-364q0 -77 73 -77q45 0 84 21l2 -4q-48 -48 -109 -48zM243 775h63l-88 -203l-7 2z" />
    <glyph glyph-name="Tbar" unicode="&#x166;" horiz-adv-x="634" 
d="M384 0h-134v2q25 31 32.5 55t7.5 67v233h-170v20h170v337l-153 -4q-29 0 -114 -152l-8 3l39 171h526l39 -171l-8 -3q-7 12 -22.5 38t-25.5 42t-22.5 35t-23.5 28t-20 9l-153 4v-337h170v-20h-170v-233q0 -42 8 -65.5t32 -56.5v-2z" />
    <glyph glyph-name="tbar" unicode="&#x167;" horiz-adv-x="319" 
d="M195 -15q-42 0 -71 25.5t-29 84.5v215h-64v16h64v131h-54v2l102 89h2v-73h148v-18h-148v-131h138v-16h-138v-217q0 -77 73 -77q45 0 84 21l2 -4q-48 -48 -109 -48z" />
    <glyph glyph-name="Utilde" unicode="&#x168;" horiz-adv-x="684" 
d="M353 -15q-120 0 -196.5 62.5t-76.5 190.5v367q0 44 -7.5 68t-32.5 57v2h134v-2q-40 -53 -40 -125v-364q0 -121 63 -177.5t165 -56.5q119 0 170 67.5t51 175.5v342q0 48 -14 75t-58 63v2h155v-2q-38 -36 -50 -63t-12 -75v-341q0 -56 -13 -102t-41 -84t-78.5 -59
t-118.5 -21zM281 902q33 0 89 -27.5t84 -27.5q27 0 40.5 15t22.5 50l8 -1q-9 -115 -86 -115q-33 0 -89 27.5t-84 27.5q-27 0 -40.5 -15t-22.5 -50l-8 1q9 115 86 115z" />
    <glyph glyph-name="utilde" unicode="&#x169;" horiz-adv-x="490" 
d="M362 74q-70 -89 -167 -89q-64 0 -98.5 37t-34.5 103v284q0 42 -42 64v2h92v-334q0 -117 104 -117q80 0 141 63v322q0 44 -44 64v2h94v-364q0 -45 9.5 -61.5t35.5 -27.5v-2l-90 -32v86zM163 682q26 0 69 -22t72 -22q48 0 61 54l8 -1q-8 -99 -80 -99q-26 0 -69 22t-72 22
q-48 0 -61 -54l-8 1q8 99 80 99z" />
    <glyph glyph-name="Umacron" unicode="&#x16a;" horiz-adv-x="684" 
d="M353 -15q-120 0 -196.5 62.5t-76.5 190.5v367q0 44 -7.5 68t-32.5 57v2h134v-2q-40 -53 -40 -125v-364q0 -121 63 -177.5t165 -56.5q119 0 170 67.5t51 175.5v342q0 48 -14 75t-58 63v2h155v-2q-38 -36 -50 -63t-12 -75v-341q0 -56 -13 -102t-41 -84t-78.5 -59
t-118.5 -21zM211 873h299v-35h-299v35z" />
    <glyph glyph-name="umacron" unicode="&#x16b;" horiz-adv-x="490" 
d="M362 74q-70 -89 -167 -89q-64 0 -98.5 37t-34.5 103v284q0 42 -42 64v2h92v-334q0 -117 104 -117q80 0 141 63v322q0 44 -44 64v2h94v-364q0 -45 9.5 -61.5t35.5 -27.5v-2l-90 -32v86zM86 645h285v-35h-285v35z" />
    <glyph glyph-name="Ubreve" unicode="&#x16c;" horiz-adv-x="684" 
d="M353 -15q-120 0 -196.5 62.5t-76.5 190.5v367q0 44 -7.5 68t-32.5 57v2h134v-2q-40 -53 -40 -125v-364q0 -121 63 -177.5t165 -56.5q119 0 170 67.5t51 175.5v342q0 48 -14 75t-58 63v2h155v-2q-38 -36 -50 -63t-12 -75v-341q0 -56 -13 -102t-41 -84t-78.5 -59
t-118.5 -21zM359 840q99 0 132 88h8q-21 -131 -141 -131q-116 0 -137 131h8q38 -88 130 -88z" />
    <glyph glyph-name="ubreve" unicode="&#x16d;" horiz-adv-x="490" 
d="M362 74q-70 -89 -167 -89q-64 0 -98.5 37t-34.5 103v284q0 42 -42 64v2h92v-334q0 -117 104 -117q80 0 141 63v322q0 44 -44 64v2h94v-364q0 -45 9.5 -61.5t35.5 -27.5v-2l-90 -32v86zM228 614q90 0 115 79h8q-3 -47 -31.5 -84.5t-92.5 -37.5q-61 0 -89.5 38t-31.5 84h8
q26 -79 114 -79z" />
    <glyph glyph-name="Uring" unicode="&#x16e;" horiz-adv-x="684" 
d="M353 -15q-120 0 -196.5 62.5t-76.5 190.5v367q0 44 -7.5 68t-32.5 57v2h134v-2q-40 -53 -40 -125v-364q0 -121 63 -177.5t165 -56.5q119 0 170 67.5t51 175.5v342q0 48 -14 75t-58 63v2h155v-2q-38 -36 -50 -63t-12 -75v-341q0 -56 -13 -102t-41 -84t-78.5 -59
t-118.5 -21zM276 865q0 37 23.5 61t60.5 24t60.5 -24t23.5 -61t-23.5 -60t-60.5 -23t-60.5 23t-23.5 60zM304 865q0 -31 14.5 -48.5t41.5 -17.5t41.5 17.5t14.5 48.5q0 68 -56 68t-56 -68z" />
    <glyph glyph-name="uring" unicode="&#x16f;" horiz-adv-x="490" 
d="M362 74q-70 -89 -167 -89q-64 0 -98.5 37t-34.5 103v284q0 42 -42 64v2h92v-334q0 -117 104 -117q80 0 141 63v322q0 44 -44 64v2h94v-364q0 -45 9.5 -61.5t35.5 -27.5v-2l-90 -32v86zM152 654q0 37 23.5 61t60.5 24t60.5 -24t23.5 -61t-23.5 -60t-60.5 -23t-60.5 23
t-23.5 60zM180 654q0 -31 14.5 -48.5t41.5 -17.5t41.5 17.5t14.5 48.5q0 68 -56 68t-56 -68z" />
    <glyph glyph-name="Uhungarumlaut" unicode="&#x170;" horiz-adv-x="684" 
d="M353 -15q-120 0 -196.5 62.5t-76.5 190.5v367q0 44 -7.5 68t-32.5 57v2h134v-2q-40 -53 -40 -125v-364q0 -121 63 -177.5t165 -56.5q119 0 170 67.5t51 175.5v342q0 48 -14 75t-58 63v2h155v-2q-38 -36 -50 -63t-12 -75v-341q0 -56 -13 -102t-41 -84t-78.5 -59
t-118.5 -21zM555 949l40 -52l-175 -115l-5 7zM362 949l40 -52l-175 -115l-5 7z" />
    <glyph glyph-name="uhungarumlaut" unicode="&#x171;" horiz-adv-x="490" 
d="M362 74q-70 -89 -167 -89q-64 0 -98.5 37t-34.5 103v284q0 42 -42 64v2h92v-334q0 -117 104 -117q80 0 141 63v322q0 44 -44 64v2h94v-364q0 -45 9.5 -61.5t35.5 -27.5v-2l-90 -32v86zM390 729l39 -36l-145 -152l-7 7zM248 729l39 -36l-145 -152l-7 7z" />
    <glyph glyph-name="Uogonek" unicode="&#x172;" horiz-adv-x="684" 
d="M378 -248q-43 0 -66 21t-23 59q0 77 113 156q-15 -3 -49 -3q-120 0 -196.5 62.5t-76.5 190.5v367q0 44 -7.5 68t-32.5 57v2h134v-2q-40 -53 -40 -125v-364q0 -121 63 -177.5t165 -56.5q119 0 170 67.5t51 175.5v342q0 48 -14 75t-58 63v2h155v-2q-38 -36 -50 -63t-12 -75
v-341q0 -196 -149 -251q-49 -17 -83 -60q-37 -47 -37 -94q0 -62 64 -62q53 0 100 55l8 -6q-52 -81 -129 -81z" />
    <glyph glyph-name="uogonek" unicode="&#x173;" horiz-adv-x="490" 
d="M322 -248q-43 0 -66 21t-23 59q0 84 129 169v73q-70 -89 -167 -89q-64 0 -98.5 37t-34.5 103v284q0 42 -42 64v2h92v-334q0 -117 104 -117q80 0 141 63v322q0 44 -44 64v2h94v-364q0 -45 9.5 -61.5t35.5 -27.5v-2q-59 -19 -86 -36q-87 -56 -87 -135q0 -65 64 -65
q53 0 100 55l8 -6q-52 -81 -129 -81z" />
    <glyph glyph-name="Wcircumflex" unicode="&#x174;" horiz-adv-x="949" 
d="M257 -9l-188 629q-17 56 -26.5 74t-32.5 36v2h139v-2q-1 -1 -7 -9.5t-9 -12.5t-7.5 -15t-5.5 -20.5t0.5 -24t6.5 -30.5l160 -538l170 476l-22 64q-19 53 -30.5 72.5t-35.5 37.5v2h147v-2l-15 -15q-31 -31 -9 -97l186 -543l151 510q23 86 -23 145v2h133v-2
q-34 -25 -50.5 -53.5t-35.5 -91.5l-177 -594h-27l-180 530l-185 -530h-27zM455 881l-147 -99l-6 7l151 156h4l151 -156l-6 -7z" />
    <glyph glyph-name="wcircumflex" unicode="&#x175;" horiz-adv-x="636" 
d="M184 -6l-119 378q-25 77 -55 101v2h112v-2q-9 -10 -11 -34t7 -62l85 -294l106 288v1q-29 85 -54 101v2h107v-2q-22 -27 4 -108l92 -281l88 276q28 87 -14 113v2h99v-2q-23 -17 -35 -37t-26 -67l-123 -375h-6l-122 350l-129 -350h-6zM326 651l-129 -111l-7 6l134 173h4
l138 -173l-7 -6z" />
    <glyph glyph-name="Ycircumflex" unicode="&#x176;" horiz-adv-x="570" 
d="M215 2q24 25 32 47t8 57v236l-169 291q-43 73 -86 97v2h155v-2q-48 -22 -9 -91l156 -270l135 226q22 36 26.5 63t-3.5 42t-26 30v2h136v-2q-11 -7 -20 -13t-18 -16t-13.5 -14.5t-14.5 -19.5t-12.5 -19t-15.5 -25.5t-16 -27.5l-151 -251v-238q0 -36 7.5 -56.5t32.5 -47.5
v-2h-134v2zM297 881l-147 -99l-6 7l151 156h4l151 -156l-6 -7z" />
    <glyph glyph-name="ycircumflex" unicode="&#x177;" horiz-adv-x="412" 
d="M20 -170q21 0 47 9.5t57.5 37.5t47.5 70l25 65l-138 359q-29 79 -59 102v2h117v-2q-32 -29 -5 -104l110 -292l108 284q32 85 -12 112v2h99v-2q-23 -17 -34 -35.5t-30 -68.5l-173 -450q-28 -72 -66 -105t-92 -39zM221 651l-129 -111l-7 6l134 173h4l138 -173l-7 -6z" />
    <glyph glyph-name="Ydieresis" unicode="&#x178;" horiz-adv-x="570" 
d="M215 2q24 25 32 47t8 57v236l-169 291q-43 73 -86 97v2h155v-2q-48 -22 -9 -91l156 -270l135 226q22 36 26.5 63t-3.5 42t-26 30v2h136v-2q-11 -7 -20 -13t-18 -16t-13.5 -14.5t-14.5 -19.5t-12.5 -19t-15.5 -25.5t-16 -27.5l-151 -251v-238q0 -36 7.5 -56.5t32.5 -47.5
v-2h-134v2zM468 868q0 -17 -12 -29t-29 -12t-29 12t-12 29t12 29t29 12t29 -12t12 -29zM208 868q0 -17 -12 -29t-29 -12t-29 12t-12 29t12 29t29 12t29 -12t12 -29z" />
    <glyph glyph-name="Zacute" unicode="&#x179;" horiz-adv-x="608" 
d="M30 0v11l465 705l-263 -8q-51 -2 -90.5 -39t-80.5 -112l-8 3l47 172h464v-11l-464 -706l299 9q94 4 171 157l8 -3l-49 -178h-499zM437 959l33 -54l-227 -123l-4 7z" />
    <glyph glyph-name="zacute" unicode="&#x17a;" horiz-adv-x="412" 
d="M20 0v7l298 451l-152 -4q-43 0 -85 -49l-27 -33l-5 2l33 101h299v-8l-297 -450l168 3q41 0 64.5 20t60.5 72l5 -2l-35 -110h-327zM289 749l49 -38l-172 -178l-7 6z" />
    <glyph glyph-name="Zdotaccent" unicode="&#x17b;" horiz-adv-x="608" 
d="M30 0v11l465 705l-263 -8q-51 -2 -90.5 -39t-80.5 -112l-8 3l47 172h464v-11l-464 -706l299 9q94 4 171 157l8 -3l-49 -178h-499zM371 868q0 -17 -12 -29t-29 -12t-29 12t-12 29t12 29t29 12t29 -12t12 -29z" />
    <glyph glyph-name="zdotaccent" unicode="&#x17c;" horiz-adv-x="412" 
d="M20 0v7l298 451l-152 -4q-43 0 -85 -49l-27 -33l-5 2l33 101h299v-8l-297 -450l168 3q41 0 64.5 20t60.5 72l5 -2l-35 -110h-327zM261 659q0 -17 -12 -29t-29 -12t-29 12t-12 29t12 29t29 12t29 -12t12 -29z" />
    <glyph glyph-name="Zcaron" unicode="&#x17d;" horiz-adv-x="608" 
d="M30 0v11l465 705l-263 -8q-51 -2 -90.5 -39t-80.5 -112l-8 3l47 172h464v-11l-464 -706l299 9q94 4 171 157l8 -3l-49 -178h-499zM328 782l-151 156l6 7l147 -99l147 99l6 -7l-151 -156h-4z" />
    <glyph glyph-name="zcaron" unicode="&#x17e;" horiz-adv-x="412" 
d="M20 0v7l298 451l-152 -4q-43 0 -85 -49l-27 -33l-5 2l33 101h299v-8l-297 -450l168 3q41 0 64.5 20t60.5 72l5 -2l-35 -110h-327zM82 713l7 6l129 -111l133 111l7 -6l-138 -173h-4z" />
    <glyph glyph-name="uni0192" unicode="&#x192;" horiz-adv-x="500" 
d="M21 -190q-43 0 -67 14l-14 101l8 2q17 -34 27 -50.5t26.5 -31.5t33.5 -15q31 0 54 43t44 136l78 358h-83l5 20h82l27 122q51 238 171 238q43 0 67 -14l7 -121l-8 -2q-3 7 -8.5 20.5t-8.5 20.5t-8 18t-8 16.5t-8 13.5t-9 12t-9 8.5t-10.5 6t-11.5 1.5q-30 0 -52.5 -42
t-43.5 -134l-36 -164h108l-4 -20h-108l-70 -319q-26 -117 -67 -177.5t-104 -60.5z" />
    <glyph glyph-name="Aringacute" unicode="&#x1fa;" horiz-adv-x="625" 
d="M298 674l-135 -378h269zM117 0h-112v2q19 17 30 34t17 31t21 54l226 620h27l229 -629q20 -56 30.5 -74t34.5 -36v-2h-125v2q28 37 2 112l-58 162h-284l-57 -160q-27 -74 19 -114v-2zM223 865q0 37 23.5 61t60.5 24t60.5 -24t23.5 -61t-23.5 -60t-60.5 -23t-60.5 23
t-23.5 60zM251 865q0 -31 14.5 -48.5t41.5 -17.5t41.5 17.5t14.5 48.5q0 68 -56 68t-56 -68zM414 1159l33 -54l-227 -123l-4 7z" />
    <glyph glyph-name="aringacute" unicode="&#x1fb;" horiz-adv-x="464" 
d="M180 21q82 0 134 52v177q-59 -7 -107 -23.5t-82.5 -49.5t-34.5 -76q0 -37 22.5 -58.5t67.5 -21.5zM378 -12q-31 0 -47 18.5t-17 49.5q-67 -71 -158 -71q-54 0 -85.5 27t-31.5 75q0 42 26.5 75.5t69 54t87.5 33t92 16.5v92q0 102 -113 102q-76 0 -140 -44l-5 7
q67 67 174 67q76 0 105 -33t29 -89v-302q0 -43 39 -43q24 0 48 24l3 -2q-22 -57 -76 -57zM143 654q0 37 23.5 61t60.5 24t60.5 -24t23.5 -61t-23.5 -60t-60.5 -23t-60.5 23t-23.5 60zM171 654q0 -31 14.5 -48.5t41.5 -17.5t41.5 17.5t14.5 48.5q0 68 -56 68t-56 -68z
M334 959l33 -54l-227 -123l-4 7z" />
    <glyph glyph-name="AEacute" unicode="&#x1fc;" horiz-adv-x="948" 
d="M454 617q0 36 -12 63l-215 -384h227v321zM123 0h-118v2q34 28 52 49.5t47 72.5l326 576q-14 18 -35 30v2h443l39 -145l-8 -3q-65 93 -88 112q-15 12 -26 13l-246 6v-337h161q12 0 23.5 12t28 40.5t19.5 32.5h8v-185h-8q-4 6 -12 19t-14 21.5t-14 19t-16 15.5t-15 5h-161
v-341l253 7q44 2 80 36t83 105l8 -3l-45 -162h-473v2q39 59 39 113v161h-238l-89 -159q-43 -77 -4 -115v-2zM705 959l33 -54l-227 -123l-4 7z" />
    <glyph glyph-name="aeacute" unicode="&#x1fd;" horiz-adv-x="734" 
d="M514 -15q-127 0 -183 116q-66 -116 -182 -116q-54 0 -86 27t-32 75q0 42 26.5 75.5t69 54t87.5 33t92 16.5v92q0 102 -113 102q-76 0 -140 -44l-5 7q67 67 174 67q65 0 94 -26t36 -70q56 96 167 96q82 0 130.5 -56t42.5 -136h-328q-3 -21 -3 -46q0 -100 43.5 -160.5
t127.5 -60.5q48 0 93.5 21t68.5 61l5 -2q-18 -58 -67.5 -92t-117.5 -34zM518 472q-60 0 -100 -41.5t-52 -117.5l263 6v6q0 147 -111 147zM173 23q95 0 151 97q-18 46 -18 108v22q-92 -11 -155.5 -48t-63.5 -101q0 -36 21.5 -57t64.5 -21zM445 749l49 -38l-172 -178l-7 6z
" />
    <glyph glyph-name="Oslashacute" unicode="&#x1fe;" horiz-adv-x="811" 
d="M106 365q0 -178 100 -280l381 577q-76 65 -182 65q-136 0 -217.5 -102t-81.5 -260zM405 5q136 0 218 101t82 259q0 180 -102 282l-381 -577q78 -65 183 -65zM405 -15q-114 0 -200 59l-48 -73h-26l56 85q-69 52 -108 132t-39 177q0 162 104.5 272t260.5 110q114 0 199 -59
l49 74h26l-57 -86q70 -53 109.5 -133.5t39.5 -177.5q0 -162 -105 -271t-261 -109zM512 959l33 -54l-227 -123l-4 7z" />
    <glyph glyph-name="oslashacute" unicode="&#x1ff;" horiz-adv-x="562" 
d="M281 -15q-76 0 -135 41l-64 -93h-25l73 105q-95 76 -95 199q0 105 72.5 179t173.5 74q74 0 133 -41l66 95h25l-74 -107q96 -76 96 -200q0 -105 -72.5 -178.5t-173.5 -73.5zM281 3q89 0 136.5 66t47.5 168q0 108 -53 173l-250 -361q49 -46 119 -46zM97 237q0 -109 51 -172
l250 361q-46 46 -117 46q-87 0 -135.5 -66.5t-48.5 -168.5zM370 749l49 -38l-172 -178l-7 6z" />
    <glyph glyph-name="uni0218" unicode="&#x218;" horiz-adv-x="533" 
d="M448 578l-8 -3q-51 152 -190 152q-79 0 -118 -39t-39 -95q0 -36 12.5 -63t46 -49.5t53 -32.5t70.5 -31q11 -5 16 -7q40 -17 62.5 -28t54 -32t48.5 -42.5t29.5 -53.5t12.5 -71q0 -101 -71 -149.5t-180 -48.5q-101 0 -192 38l-20 142l8 3q34 -86 86.5 -124.5t137.5 -38.5
q88 0 133 42t45 116q0 35 -11.5 63.5t-25.5 46t-45.5 37t-49.5 28t-59 26.5q-35 15 -51 22.5t-45.5 23t-44 29.5t-31.5 34.5t-24 45.5t-7 56q0 83 58 127.5t157 44.5q86 0 162 -30zM222 -218q21 15 35 35.5t14 37.5q0 30 -33 59v2l48 36q32 -22 32 -61q0 -56 -92 -115z" />
    <glyph glyph-name="uni0219" unicode="&#x219;" horiz-adv-x="375" 
d="M323 383l-8 -2q-26 51 -56.5 71t-70.5 20q-48 0 -77.5 -24t-29.5 -64q0 -23 8.5 -39.5t30.5 -30t36.5 -20t51.5 -20.5q32 -13 52 -23t43.5 -28t35 -43t11.5 -58q0 -64 -45 -100.5t-131 -36.5q-72 0 -132 29l-10 102l8 2q25 -60 60 -87.5t88 -27.5q58 0 89.5 29t31.5 73
q0 45 -32.5 70t-93.5 47q-31 11 -51.5 21t-44 26.5t-35.5 40.5t-12 55q0 65 48 95t117 30q64 0 108 -18zM136 -218q21 15 35 35.5t14 37.5q0 30 -33 59v2l48 36q32 -22 32 -61q0 -56 -92 -115z" />
    <glyph glyph-name="uni021A" unicode="&#x21a;" horiz-adv-x="634" 
d="M384 0h-134v2q25 31 32.5 55t7.5 67v590l-153 -4q-29 0 -114 -152l-8 3l39 171h526l39 -171l-8 -3q-7 12 -22.5 38t-25.5 42t-22.5 35t-23.5 28t-20 9l-153 4v-590q0 -42 8 -65.5t32 -56.5v-2zM256 -218q21 15 35 35.5t14 37.5q0 30 -33 59v2l48 36q32 -22 32 -61
q0 -56 -92 -115z" />
    <glyph glyph-name="uni021B" unicode="&#x21b;" horiz-adv-x="319" 
d="M185 -15q-42 0 -71 25.5t-29 84.5v362h-54v2l102 89h2v-73h148v-18h-148v-364q0 -77 73 -77q45 0 84 21l2 -4q-48 -48 -109 -48zM115 -218q21 15 35 35.5t14 37.5q0 30 -33 59v2l48 36q32 -22 32 -61q0 -56 -92 -115z" />
    <glyph glyph-name="uni0237" unicode="&#x237;" horiz-adv-x="217" 
d="M14 -238q35 19 50 48t15 92v465q0 45 -44 74v2l94 52l-2 -579q0 -79 -26.5 -115.5t-84.5 -43.5z" />
    <glyph glyph-name="circumflex" unicode="&#x2c6;" horiz-adv-x="450" 
d="M225 651l-129 -111l-7 6l134 173h4l138 -173l-7 -6z" />
    <glyph glyph-name="caron" unicode="&#x2c7;" horiz-adv-x="450" 
d="M89 713l7 6l129 -111l133 111l7 -6l-138 -173h-4z" />
    <glyph glyph-name="breve" unicode="&#x2d8;" horiz-adv-x="450" 
d="M224 614q90 0 115 79h8q-3 -47 -31.5 -84.5t-92.5 -37.5q-61 0 -89.5 38t-31.5 84h8q26 -79 114 -79z" />
    <glyph glyph-name="dotaccent" unicode="&#x2d9;" horiz-adv-x="450" 
d="M266 659q0 -17 -12 -29t-29 -12t-29 12t-12 29t12 29t29 12t29 -12t12 -29z" />
    <glyph glyph-name="ring" unicode="&#x2da;" horiz-adv-x="300" 
d="M66 654q0 37 23.5 61t60.5 24t60.5 -24t23.5 -61t-23.5 -60t-60.5 -23t-60.5 23t-23.5 60zM94 654q0 -31 14.5 -48.5t41.5 -17.5t41.5 17.5t14.5 48.5q0 68 -56 68t-56 -68z" />
    <glyph glyph-name="ogonek" unicode="&#x2db;" horiz-adv-x="300" 
d="M190 1q-101 -76 -101 -155q0 -62 64 -62q53 0 100 55l8 -6q-52 -81 -129 -81q-43 0 -66 21t-23 59q0 43 30 80t95 89h22z" />
    <glyph glyph-name="tilde" unicode="&#x2dc;" horiz-adv-x="450" 
d="M160 682q26 0 69 -22t72 -22q47 0 61 54l8 -1q-8 -99 -80 -99q-26 0 -69 22t-72 22q-47 0 -61 -54l-8 1q8 99 80 99z" />
    <glyph glyph-name="hungarumlaut" unicode="&#x2dd;" horiz-adv-x="449" 
d="M334 729l39 -36l-145 -152l-7 7zM192 729l39 -36l-145 -152l-7 7z" />
    <glyph glyph-name="Wgrave" unicode="&#x1e80;" horiz-adv-x="949" 
d="M257 -9l-188 629q-17 56 -26.5 74t-32.5 36v2h139v-2q-1 -1 -7 -9.5t-9 -12.5t-7.5 -15t-5.5 -20.5t0.5 -24t6.5 -30.5l160 -538l170 476l-22 64q-19 53 -30.5 72.5t-35.5 37.5v2h147v-2l-15 -15q-31 -31 -9 -97l186 -543l151 510q23 86 -23 145v2h133v-2
q-34 -25 -50.5 -53.5t-35.5 -91.5l-177 -594h-27l-180 530l-185 -530h-27zM529 782l-231 123l37 54l198 -170z" />
    <glyph glyph-name="wgrave" unicode="&#x1e81;" horiz-adv-x="636" 
d="M184 -6l-119 378q-25 77 -55 101v2h112v-2q-9 -10 -11 -34t7 -62l85 -294l106 288v1q-29 85 -54 101v2h107v-2q-22 -27 4 -108l92 -281l88 276q28 87 -14 113v2h99v-2q-23 -17 -35 -37t-26 -67l-123 -375h-6l-122 350l-129 -350h-6zM365 533l-172 178l49 38l130 -210z
" />
    <glyph glyph-name="Wacute" unicode="&#x1e82;" horiz-adv-x="949" 
d="M257 -9l-188 629q-17 56 -26.5 74t-32.5 36v2h139v-2q-1 -1 -7 -9.5t-9 -12.5t-7.5 -15t-5.5 -20.5t0.5 -24t6.5 -30.5l160 -538l170 476l-22 64q-19 53 -30.5 72.5t-35.5 37.5v2h147v-2l-15 -15q-31 -31 -9 -97l186 -543l151 510q23 86 -23 145v2h133v-2
q-34 -25 -50.5 -53.5t-35.5 -91.5l-177 -594h-27l-180 530l-185 -530h-27zM552 959l33 -54l-227 -123l-4 7z" />
    <glyph glyph-name="wacute" unicode="&#x1e83;" horiz-adv-x="636" 
d="M184 -6l-119 378q-25 77 -55 101v2h112v-2q-9 -10 -11 -34t7 -62l85 -294l106 288v1q-29 85 -54 101v2h107v-2q-22 -27 4 -108l92 -281l88 276q28 87 -14 113v2h99v-2q-23 -17 -35 -37t-26 -67l-123 -375h-6l-122 350l-129 -350h-6zM397 749l49 -38l-172 -178l-7 6z" />
    <glyph glyph-name="Wdieresis" unicode="&#x1e84;" horiz-adv-x="949" 
d="M257 -9l-188 629q-17 56 -26.5 74t-32.5 36v2h139v-2q-1 -1 -7 -9.5t-9 -12.5t-7.5 -15t-5.5 -20.5t0.5 -24t6.5 -30.5l160 -538l170 476l-22 64q-19 53 -30.5 72.5t-35.5 37.5v2h147v-2l-15 -15q-31 -31 -9 -97l186 -543l151 510q23 86 -23 145v2h133v-2
q-34 -25 -50.5 -53.5t-35.5 -91.5l-177 -594h-27l-180 530l-185 -530h-27zM616 868q0 -17 -12 -29t-29 -12t-29 12t-12 29t12 29t29 12t29 -12t12 -29zM356 868q0 -17 -12 -29t-29 -12t-29 12t-12 29t12 29t29 12t29 -12t12 -29z" />
    <glyph glyph-name="wdieresis" unicode="&#x1e85;" horiz-adv-x="636" 
d="M184 -6l-119 378q-25 77 -55 101v2h112v-2q-9 -10 -11 -34t7 -62l85 -294l106 288v1q-29 85 -54 101v2h107v-2q-22 -27 4 -108l92 -281l88 276q28 87 -14 113v2h99v-2q-23 -17 -35 -37t-26 -67l-123 -375h-6l-122 350l-129 -350h-6zM469 659q0 -17 -12 -29t-29 -12
t-29 12t-12 29t12 29t29 12t29 -12t12 -29zM269 659q0 -17 -12 -29t-29 -12t-29 12t-12 29t12 29t29 12t29 -12t12 -29z" />
    <glyph glyph-name="Ygrave" unicode="&#x1ef2;" horiz-adv-x="570" 
d="M215 2q24 25 32 47t8 57v236l-169 291q-43 73 -86 97v2h155v-2q-48 -22 -9 -91l156 -270l135 226q22 36 26.5 63t-3.5 42t-26 30v2h136v-2q-11 -7 -20 -13t-18 -16t-13.5 -14.5t-14.5 -19.5t-12.5 -19t-15.5 -25.5t-16 -27.5l-151 -251v-238q0 -36 7.5 -56.5t32.5 -47.5
v-2h-134v2zM381 782l-231 123l37 54l198 -170z" />
    <glyph glyph-name="ygrave" unicode="&#x1ef3;" horiz-adv-x="412" 
d="M20 -170q21 0 47 9.5t57.5 37.5t47.5 70l25 65l-138 359q-29 79 -59 102v2h117v-2q-32 -29 -5 -104l110 -292l108 284q32 85 -12 112v2h99v-2q-23 -17 -34 -35.5t-30 -68.5l-173 -450q-28 -72 -66 -105t-92 -39zM260 533l-172 178l49 38l130 -210z" />
    <glyph glyph-name="endash" unicode="&#x2013;" horiz-adv-x="490" 
d="M30 271v18h430v-18h-430z" />
    <glyph glyph-name="emdash" unicode="&#x2014;" horiz-adv-x="740" 
d="M30 271v18h680v-18h-680z" />
    <glyph glyph-name="quoteleft" unicode="&#x2018;" horiz-adv-x="208" 
d="M160 749q-52 -60 -52 -102q0 -26 38 -60v-2l-51 -41q-35 26 -35 60q0 72 94 151z" />
    <glyph glyph-name="quoteright" unicode="&#x2019;" horiz-adv-x="208" 
d="M48 550q52 60 52 102q0 26 -38 60v2l51 41q35 -26 35 -60q0 -72 -94 -151z" />
    <glyph glyph-name="quotesinglbase" unicode="&#x201a;" horiz-adv-x="208" 
d="M48 -80q52 60 52 102q0 26 -38 60v2l51 41q35 -26 35 -60q0 -72 -94 -151z" />
    <glyph glyph-name="quotedblleft" unicode="&#x201c;" horiz-adv-x="338" 
d="M160 749q-52 -60 -52 -102q0 -26 38 -60v-2l-51 -41q-35 26 -35 60q0 72 94 151zM290 749q-52 -60 -52 -102q0 -26 38 -60v-2l-51 -41q-35 26 -35 60q0 72 94 151z" />
    <glyph glyph-name="quotedblright" unicode="&#x201d;" horiz-adv-x="348" 
d="M188 550q52 60 52 102q0 26 -38 60v2l51 41q35 -26 35 -60q0 -72 -94 -151zM48 550q52 60 52 102q0 26 -38 60v2l51 41q35 -26 35 -60q0 -72 -94 -151z" />
    <glyph glyph-name="quotedblbase" unicode="&#x201e;" horiz-adv-x="348" 
d="M48 -80q52 60 52 102q0 26 -38 60v2l51 41q35 -26 35 -60q0 -72 -94 -151zM188 -80q52 60 52 102q0 26 -38 60v2l51 41q35 -26 35 -60q0 -72 -94 -151z" />
    <glyph glyph-name="dagger" unicode="&#x2020;" horiz-adv-x="416" 
d="M217 0h-18l-18 262l22 256l-163 -23v58l162 -23l-26 202h64l-26 -202l162 23v-58l-163 23l22 -256z" />
    <glyph glyph-name="daggerdbl" unicode="&#x2021;" horiz-adv-x="416" 
d="M214 202l26 -202h-64l26 202l-162 -23v58l162 -23l-18 152l18 152l-162 -23v58l162 -23l-26 202h64l-26 -202l162 23v-58l-162 23l18 -152l-18 -152l162 23v-58z" />
    <glyph glyph-name="bullet" unicode="&#x2022;" horiz-adv-x="238" 
d="M119 211q-30 0 -52 22.5t-22 51.5q0 32 21.5 54t52.5 22q30 0 52 -22t22 -54q0 -29 -22 -51.5t-52 -22.5z" />
    <glyph glyph-name="ellipsis" unicode="&#x2026;" horiz-adv-x="698" 
d="M99 -3q-19 0 -33 13.5t-14 33.5t14 33.5t33 13.5q20 0 33.5 -13.5t13.5 -33.5t-13.5 -33.5t-33.5 -13.5zM349 -3q-19 0 -33 13.5t-14 33.5t14 33.5t33 13.5q20 0 33.5 -13.5t13.5 -33.5t-13.5 -33.5t-33.5 -13.5zM599 -3q-19 0 -33 13.5t-14 33.5t14 33.5t33 13.5
q20 0 33.5 -13.5t13.5 -33.5t-13.5 -33.5t-33.5 -13.5z" />
    <glyph glyph-name="perthousand" unicode="&#x2030;" horiz-adv-x="1142" 
d="M185 346q-65 0 -110 58t-45 143q0 84 45 142t110 58q66 0 111.5 -58t45.5 -142q0 -85 -45.5 -143t-111.5 -58zM185 361q100 0 100 186q0 185 -100 185q-98 0 -98 -185q0 -186 98 -186zM583 -8q-65 0 -110 58t-45 143q0 84 45 142t110 58q66 0 111.5 -58t45.5 -142
q0 -85 -45.5 -143t-111.5 -58zM955 -8q-65 0 -110 58t-45 143q0 84 45 142t110 58q66 0 111.5 -58t45.5 -142q0 -85 -45.5 -143t-111.5 -58zM583 7q100 0 100 186q0 185 -100 185q-98 0 -98 -185q0 -186 98 -186zM955 7q100 0 100 186q0 185 -100 185q-98 0 -98 -185
q0 -186 98 -186zM124 14l521 729l17 -11l-522 -731z" />
    <glyph glyph-name="guilsinglleft" unicode="&#x2039;" horiz-adv-x="251" 
d="M188 52l-138 175v20l138 175l8 -6l-91 -179l91 -179z" />
    <glyph glyph-name="guilsinglright" unicode="&#x203a;" horiz-adv-x="251" 
d="M55 58l91 179l-91 179l8 6l138 -175v-20l-138 -175z" />
    <glyph glyph-name="fraction" unicode="&#x2044;" horiz-adv-x="278" 
d="M-130 14l521 729l17 -11l-522 -731z" />
    <glyph glyph-name="Euro" unicode="&#x20ac;" horiz-adv-x="697" 
d="M627 63q-31 -28 -91.5 -53t-128.5 -25q-127 0 -207.5 84.5t-99.5 221.5h-95v18h93q-3 29 -3 58t3 56h-93v18h95q21 136 109.5 221t223.5 85q95 0 190 -50l20 -141l-8 -2q-39 92 -88 132.5t-118 40.5q-115 0 -182 -77.5t-82 -208.5h251v-18h-253q-2 -38 -2 -56
q0 -20 2 -58h253v-18h-251q15 -132 77 -209t169 -77q87 0 141 53.5t87 159.5l8 -2z" />
    <glyph glyph-name="trademark" unicode="&#x2122;" horiz-adv-x="749" 
d="M223 403h-80v2q18 23 18 53v262l-49 -2q-6 0 -13.5 -5t-15 -14.5t-14 -18t-15.5 -21.5t-14 -20l-5 2l20 91h256l20 -91l-5 -2q-4 5 -14 19.5t-16 22.5t-14.5 18t-15.5 14.5t-12 4.5l-49 2v-262q0 -30 18 -53v-2zM431 403h-73v2q15 17 19.5 28t4.5 33v212q0 21 -5 30.5
t-22 21.5v2h68l112 -258l115 258h64v-2q-17 -11 -22 -21.5t-5 -32.5v-216q0 -31 18 -55v-2h-80v2q18 24 18 55v221l-120 -269h-7l-118 270v-216q0 -21 6 -32t27 -29v-2z" />
    <glyph glyph-name="onethird" unicode="&#x2153;" horiz-adv-x="668" 
d="M47 354v1q17 20 22.5 35.5t5.5 42.5v229h-48v4q50 29 92 78h5v-311q0 -28 5.5 -43t23.5 -35v-1h-106zM43 14l521 729l17 -11l-522 -731zM507 -8q-62 0 -99 23l-13 83l5 1q29 -48 52.5 -70t59.5 -22q43 0 64.5 32t21.5 81q0 103 -91 103q-37 0 -69 -22l-7 9l147 131h-162
l14 43h213v-5l-162 -144q20 5 38 5q54 0 91 -31.5t37 -88.5q0 -58 -38.5 -93t-101.5 -35z" />
    <glyph glyph-name="twothirds" unicode="&#x2154;" horiz-adv-x="729" 
d="M14 354v7q112 94 155 156.5t43 123.5q0 43 -20 67t-57 24q-32 0 -52.5 -22t-44.5 -70l-5 2l12 88q46 17 91 17q64 0 94.5 -28t30.5 -76q0 -56 -45 -113t-142 -134h105q33 0 53.5 17t41.5 54l5 -2l-32 -111h-233zM109 14l521 729l17 -11l-522 -731zM568 -8q-62 0 -99 23
l-13 83l5 1q29 -48 52.5 -70t59.5 -22q43 0 64.5 32t21.5 81q0 103 -91 103q-37 0 -69 -22l-7 9l147 131h-162l14 43h213v-5l-162 -144q20 5 38 5q54 0 91 -31.5t37 -88.5q0 -58 -38.5 -93t-101.5 -35z" />
    <glyph glyph-name="oneeighth" unicode="&#x215b;" horiz-adv-x="619" 
d="M47 354v1q17 20 22.5 35.5t5.5 42.5v229h-48v4q50 29 92 78h5v-311q0 -28 5.5 -43t23.5 -35v-1h-106zM33 14l521 729l17 -11l-522 -731zM474 -8q-51 0 -86.5 26.5t-35.5 71.5q0 77 91 104q-72 38 -72 95q0 47 29.5 75.5t77.5 28.5q44 0 74 -24.5t30 -65.5q0 -66 -76 -90
q95 -43 95 -112q0 -49 -36 -79t-91 -30zM475 7q40 0 64.5 20t24.5 55q0 34 -24 56t-84 50q-68 -33 -68 -98q0 -40 23 -61.5t64 -21.5zM406 313q0 -32 20.5 -52.5t68.5 -41.5q51 31 51 84q0 36 -18.5 55.5t-50.5 19.5t-51.5 -18t-19.5 -47z" />
    <glyph glyph-name="threeeighths" unicode="&#x215c;" horiz-adv-x="680" 
d="M139 346q-62 0 -99 23l-13 83l5 1q29 -48 52.5 -70t59.5 -22q43 0 64.5 32t21.5 81q0 103 -91 103q-37 0 -69 -22l-7 9l147 131h-162l14 43h213v-5l-162 -144q20 5 38 5q54 0 91 -31.5t37 -88.5q0 -58 -38.5 -93t-101.5 -35zM94 14l521 729l17 -11l-522 -731zM535 -8
q-51 0 -86.5 26.5t-35.5 71.5q0 77 91 104q-72 38 -72 95q0 47 29.5 75.5t77.5 28.5q44 0 74 -24.5t30 -65.5q0 -66 -76 -90q95 -43 95 -112q0 -49 -36 -79t-91 -30zM536 7q40 0 64.5 20t24.5 55q0 34 -24 56t-84 50q-68 -33 -68 -98q0 -40 23 -61.5t64 -21.5zM467 313
q0 -32 20.5 -52.5t68.5 -41.5q51 31 51 84q0 36 -18.5 55.5t-50.5 19.5t-51.5 -18t-19.5 -47z" />
    <glyph glyph-name="fiveeighths" unicode="&#x215d;" horiz-adv-x="677" 
d="M128 346q-57 0 -92 23l-12 80l5 1q27 -46 49.5 -67.5t55.5 -21.5q39 0 62.5 27.5t23.5 81.5q0 57 -26 87.5t-73 30.5q-41 0 -66 -25l-7 5l29 171h185l-8 -42h-168l-19 -113q28 20 68 20q56 0 94.5 -34t38.5 -96q0 -61 -38.5 -94.5t-101.5 -33.5zM91 14l521 729l17 -11
l-522 -731zM532 -8q-51 0 -86.5 26.5t-35.5 71.5q0 77 91 104q-72 38 -72 95q0 47 29.5 75.5t77.5 28.5q44 0 74 -24.5t30 -65.5q0 -66 -76 -90q95 -43 95 -112q0 -49 -36 -79t-91 -30zM533 7q40 0 64.5 20t24.5 55q0 34 -24 56t-84 50q-68 -33 -68 -98q0 -40 23 -61.5
t64 -21.5zM464 313q0 -32 20.5 -52.5t68.5 -41.5q51 31 51 84q0 36 -18.5 55.5t-50.5 19.5t-51.5 -18t-19.5 -47z" />
    <glyph glyph-name="seveneighths" unicode="&#x215e;" horiz-adv-x="620" 
d="M71 354q54 196 166 343h-197l8 42h231v-5q-121 -187 -155 -380h-53zM34 14l521 729l17 -11l-522 -731zM475 -8q-51 0 -86.5 26.5t-35.5 71.5q0 77 91 104q-72 38 -72 95q0 47 29.5 75.5t77.5 28.5q44 0 74 -24.5t30 -65.5q0 -66 -76 -90q95 -43 95 -112q0 -49 -36 -79
t-91 -30zM476 7q40 0 64.5 20t24.5 55q0 34 -24 56t-84 50q-68 -33 -68 -98q0 -40 23 -61.5t64 -21.5zM407 313q0 -32 20.5 -52.5t68.5 -41.5q51 31 51 84q0 36 -18.5 55.5t-50.5 19.5t-51.5 -18t-19.5 -47z" />
    <glyph glyph-name="minus" unicode="&#x2212;" horiz-adv-x="532" 
d="M45 298v20h442v-20h-442z" />
    <glyph glyph-name="uni24C5" unicode="&#x24c5;" horiz-adv-x="843" 
d="M40 367q0 159 111 269.5t270 110.5t270.5 -110.5t111.5 -269.5t-111.5 -270t-270.5 -111t-270 111t-111 270zM65 367q0 -150 104 -255.5t252 -105.5t252 105.5t104 255.5t-104 255t-252 105t-252 -105t-104 -255zM308 155q14 17 18 28.5t4 35.5v271q0 24 -4 35.5
t-18 28.5v2h130q123 0 123 -112q0 -60 -34.5 -93t-97.5 -33h-64v-99q0 -24 3.5 -35.5t17.5 -28.5v-2h-78v2zM429 539h-22q-23 0 -42 -1v-202h64q48 0 71.5 29.5t23.5 78.5q0 95 -95 95z" />
    <glyph glyph-name="idotaccent" horiz-adv-x="197" 
d="M139 659q0 -17 -12 -29t-29 -12t-29 12t-12 29t12 29t29 12t29 -12t12 -29zM54 2q22 41 22 117v248q0 45 -44 74v2l94 52v-375q0 -46 3.5 -70t18.5 -48v-2h-94v2z" />
    <glyph glyph-name="space_uni0326" horiz-adv-x="450" 
d="M175 -218q21 15 35 35.5t14 37.5q0 30 -33 59v2l48 36q32 -22 32 -61q0 -56 -92 -115z" />
    <glyph glyph-name="five.num" horiz-adv-x="287" 
d="M123 346q-57 0 -92 23l-12 80l5 1q27 -46 49.5 -67.5t55.5 -21.5q39 0 62.5 27.5t23.5 81.5q0 57 -26 87.5t-73 30.5q-41 0 -66 -25l-7 5l29 171h185l-8 -42h-168l-19 -113q28 20 68 20q56 0 94.5 -34t38.5 -96q0 -61 -38.5 -94.5t-101.5 -33.5z" />
    <glyph glyph-name="zero.num" horiz-adv-x="358" 
d="M179 346q-65 0 -110 58t-45 143q0 84 45 142t110 58q66 0 111.5 -58t45.5 -142q0 -85 -45.5 -143t-111.5 -58zM179 361q100 0 100 186q0 185 -100 185q-98 0 -98 -185q0 -186 98 -186z" />
    <glyph glyph-name="one.num" horiz-adv-x="182" 
d="M42 354v1q17 20 22.5 35.5t5.5 42.5v229h-48v4q50 29 92 78h5v-311q0 -28 5.5 -43t23.5 -35v-1h-106z" />
    <glyph glyph-name="two.num" horiz-adv-x="303" 
d="M9 354v7q112 94 155 156.5t43 123.5q0 43 -20 67t-57 24q-32 0 -52.5 -22t-44.5 -70l-5 2l12 88q46 17 91 17q64 0 94.5 -28t30.5 -76q0 -56 -45 -113t-142 -134h105q33 0 53.5 17t41.5 54l5 -2l-32 -111h-233z" />
    <glyph glyph-name="three.num" horiz-adv-x="296" 
d="M134 346q-62 0 -99 23l-13 83l5 1q29 -48 52.5 -70t59.5 -22q43 0 64.5 32t21.5 81q0 103 -91 103q-37 0 -69 -22l-7 9l147 131h-162l14 43h213v-5l-162 -144q20 5 38 5q54 0 91 -31.5t37 -88.5q0 -58 -38.5 -93t-101.5 -35z" />
    <glyph glyph-name="four.num" horiz-adv-x="306" 
d="M164 355q23 33 23 78v21h-173v7l180 278h57l-214 -269h150v126h48v-126h49l-4 -16h-45v-21q0 -27 4.5 -42t19.5 -36v-1h-95v1z" />
    <glyph glyph-name="six.num" horiz-adv-x="319" 
d="M161 346q-61 0 -98 42t-37 113q0 79 49.5 144.5t156.5 101.5l4 -10q-58 -24 -96 -71t-53 -102q29 46 89 46q51 0 85 -34.5t34 -90.5q0 -61 -38.5 -100t-95.5 -39zM161 361q38 0 60.5 30.5t22.5 85.5q0 108 -84 108q-57 0 -79 -46q-5 -32 -5 -51q0 -53 21.5 -90t63.5 -37z
" />
    <glyph glyph-name="seven.num" horiz-adv-x="267" 
d="M55 354q54 196 166 343h-197l8 42h231v-5q-121 -187 -155 -380h-53z" />
    <glyph glyph-name="eight.num" horiz-adv-x="287" 
d="M141 346q-51 0 -86.5 26.5t-35.5 71.5q0 77 91 104q-72 38 -72 95q0 47 29.5 75.5t77.5 28.5q44 0 74 -24.5t30 -65.5q0 -66 -76 -90q95 -43 95 -112q0 -49 -36 -79t-91 -30zM142 361q40 0 64.5 20t24.5 55q0 34 -24 56t-84 50q-68 -33 -68 -98q0 -40 23 -61.5t64 -21.5z
M73 667q0 -32 20.5 -52.5t68.5 -41.5q51 31 51 84q0 36 -18.5 55.5t-50.5 19.5t-51.5 -18t-19.5 -47z" />
    <glyph glyph-name="nine.num" horiz-adv-x="319" 
d="M77 356q58 25 96 71.5t53 102.5q-28 -47 -89 -47q-51 0 -85 34.5t-34 90.5q0 61 38.5 100t95.5 39q61 0 98 -42t37 -113q0 -79 -49.5 -144.5t-156.5 -101.5zM153 508q57 0 79 46q5 32 5 51q0 53 -21.5 90t-63.5 37q-38 0 -60.5 -30.5t-22.5 -85.5q0 -108 84 -108z" />
    <glyph glyph-name="five.den" horiz-adv-x="287" 
d="M123 -8q-57 0 -92 23l-12 80l5 1q27 -46 49.5 -67.5t55.5 -21.5q39 0 62.5 27.5t23.5 81.5q0 57 -26 87.5t-73 30.5q-41 0 -66 -25l-7 5l29 171h185l-8 -42h-168l-19 -113q28 20 68 20q56 0 94.5 -34t38.5 -96q0 -61 -38.5 -94.5t-101.5 -33.5z" />
    <glyph glyph-name="zero.den" horiz-adv-x="356" 
d="M177 -8q-65 0 -110 58t-45 143q0 84 45 142t110 58q66 0 111.5 -58t45.5 -142q0 -85 -45.5 -143t-111.5 -58zM177 7q100 0 100 186q0 185 -100 185q-98 0 -98 -185q0 -186 98 -186z" />
    <glyph glyph-name="one.den" horiz-adv-x="182" 
d="M42 0v1q17 20 22.5 35.5t5.5 42.5v229h-48v4q50 29 92 78h5v-311q0 -28 5.5 -43t23.5 -35v-1h-106z" />
    <glyph glyph-name="two.den" horiz-adv-x="303" 
d="M9 0v7q112 94 155 156.5t43 123.5q0 43 -20 67t-57 24q-32 0 -52.5 -22t-44.5 -70l-5 2l12 88q46 17 91 17q64 0 94.5 -28t30.5 -76q0 -56 -45 -113t-142 -134h105q33 0 53.5 17t41.5 54l5 -2l-32 -111h-233z" />
    <glyph glyph-name="three.den" horiz-adv-x="296" 
d="M134 -8q-62 0 -99 23l-13 83l5 1q29 -48 52.5 -70t59.5 -22q43 0 64.5 32t21.5 81q0 103 -91 103q-37 0 -69 -22l-7 9l147 131h-162l14 43h213v-5l-162 -144q20 5 38 5q54 0 91 -31.5t37 -88.5q0 -58 -38.5 -93t-101.5 -35z" />
    <glyph glyph-name="four.den" horiz-adv-x="306" 
d="M164 1q23 33 23 78v21h-173v7l180 278h57l-214 -269h150v126h48v-126h49l-4 -16h-45v-21q0 -27 4.5 -42t19.5 -36v-1h-95v1z" />
    <glyph glyph-name="six.den" horiz-adv-x="319" 
d="M161 -8q-61 0 -98 42t-37 113q0 79 49.5 144.5t156.5 101.5l4 -10q-58 -24 -96 -71t-53 -102q29 46 89 46q51 0 85 -34.5t34 -90.5q0 -61 -38.5 -100t-95.5 -39zM161 7q38 0 60.5 30.5t22.5 85.5q0 108 -84 108q-57 0 -79 -46q-5 -32 -5 -51q0 -53 21.5 -90t63.5 -37z
" />
    <glyph glyph-name="seven.den" horiz-adv-x="267" 
d="M55 0q54 196 166 343h-197l8 42h231v-5q-121 -187 -155 -380h-53z" />
    <glyph glyph-name="eight.den" horiz-adv-x="287" 
d="M141 -8q-51 0 -86.5 26.5t-35.5 71.5q0 77 91 104q-72 38 -72 95q0 47 29.5 75.5t77.5 28.5q44 0 74 -24.5t30 -65.5q0 -66 -76 -90q95 -43 95 -112q0 -49 -36 -79t-91 -30zM142 7q40 0 64.5 20t24.5 55q0 34 -24 56t-84 50q-68 -33 -68 -98q0 -40 23 -61.5t64 -21.5z
M73 313q0 -32 20.5 -52.5t68.5 -41.5q51 31 51 84q0 36 -18.5 55.5t-50.5 19.5t-51.5 -18t-19.5 -47z" />
    <glyph glyph-name="nine.den" horiz-adv-x="319" 
d="M77 2q58 25 96 71.5t53 102.5q-28 -47 -89 -47q-51 0 -85 34.5t-34 90.5q0 61 38.5 100t95.5 39q61 0 98 -42t37 -113q0 -79 -49.5 -144.5t-156.5 -101.5zM153 154q57 0 79 46q5 32 5 51q0 53 -21.5 90t-63.5 37q-38 0 -60.5 -30.5t-22.5 -85.5q0 -108 84 -108z" />
    <glyph glyph-name="five.sub" horiz-adv-x="287" 
d="M123 -88q-57 0 -92 23l-12 80l5 1q27 -46 49.5 -67.5t55.5 -21.5q39 0 62.5 27.5t23.5 81.5q0 57 -26 87.5t-73 30.5q-41 0 -66 -25l-7 5l29 171h185l-8 -42h-168l-19 -113q28 20 68 20q56 0 94.5 -34t38.5 -96q0 -61 -38.5 -94.5t-101.5 -33.5z" />
    <glyph glyph-name="zero.sub" horiz-adv-x="358" 
d="M179 -88q-65 0 -110 58t-45 143q0 84 45 142t110 58q66 0 111.5 -58t45.5 -142q0 -85 -45.5 -143t-111.5 -58zM179 -73q100 0 100 186q0 185 -100 185q-98 0 -98 -185q0 -186 98 -186z" />
    <glyph glyph-name="one.sub" horiz-adv-x="182" 
d="M42 -80v1q17 20 22.5 35.5t5.5 42.5v229h-48v4q50 29 92 78h5v-311q0 -28 5.5 -43t23.5 -35v-1h-106z" />
    <glyph glyph-name="two.sub" horiz-adv-x="303" 
d="M9 -80v7q112 94 155 156.5t43 123.5q0 43 -20 67t-57 24q-32 0 -52.5 -22t-44.5 -70l-5 2l12 88q46 17 91 17q64 0 94.5 -28t30.5 -76q0 -56 -45 -113t-142 -134h105q33 0 53.5 17t41.5 54l5 -2l-32 -111h-233z" />
    <glyph glyph-name="three.sub" horiz-adv-x="296" 
d="M134 -88q-62 0 -99 23l-13 83l5 1q29 -48 52.5 -70t59.5 -22q43 0 64.5 32t21.5 81q0 103 -91 103q-37 0 -69 -22l-7 9l147 131h-162l14 43h213v-5l-162 -144q20 5 38 5q54 0 91 -31.5t37 -88.5q0 -58 -38.5 -93t-101.5 -35z" />
    <glyph glyph-name="four.sub" horiz-adv-x="306" 
d="M164 -79q23 33 23 78v21h-173v7l180 278h57l-214 -269h150v126h48v-126h49l-4 -16h-45v-21q0 -27 4.5 -42t19.5 -36v-1h-95v1z" />
    <glyph glyph-name="six.sub" horiz-adv-x="319" 
d="M161 -88q-61 0 -98 42t-37 113q0 79 49.5 144.5t156.5 101.5l4 -10q-58 -24 -96 -71t-53 -102q29 46 89 46q51 0 85 -34.5t34 -90.5q0 -61 -38.5 -100t-95.5 -39zM161 -73q38 0 60.5 30.5t22.5 85.5q0 108 -84 108q-57 0 -79 -46q-5 -32 -5 -51q0 -53 21.5 -90t63.5 -37z
" />
    <glyph glyph-name="seven.sub" horiz-adv-x="267" 
d="M55 -80q54 196 166 343h-197l8 42h231v-5q-121 -187 -155 -380h-53z" />
    <glyph glyph-name="eight.sub" horiz-adv-x="287" 
d="M141 -88q-51 0 -86.5 26.5t-35.5 71.5q0 77 91 104q-72 38 -72 95q0 47 29.5 75.5t77.5 28.5q44 0 74 -24.5t30 -65.5q0 -66 -76 -90q95 -43 95 -112q0 -49 -36 -79t-91 -30zM142 -73q40 0 64.5 20t24.5 55q0 34 -24 56t-84 50q-68 -33 -68 -98q0 -40 23 -61.5t64 -21.5z
M73 233q0 -32 20.5 -52.5t68.5 -41.5q51 31 51 84q0 36 -18.5 55.5t-50.5 19.5t-51.5 -18t-19.5 -47z" />
    <glyph glyph-name="nine.sub" horiz-adv-x="319" 
d="M152 312q61 0 98 -41.5t37 -112.5q0 -79 -49.5 -144.5t-156.5 -101.5l-4 10q58 24 96 71t53 102q-29 -46 -89 -46q-51 0 -85 34.5t-34 90.5q0 61 38.5 99.5t95.5 38.5zM152 298q-38 0 -60.5 -30.5t-22.5 -85.5q0 -108 84 -108q57 0 79 46q5 32 5 51q0 53 -21.5 90
t-63.5 37z" />
    <glyph glyph-name="plus.sub" horiz-adv-x="315" 
d="M167 106v-123h-20v123h-122v18h122v123h20v-123h123v-18h-123z" />
    <glyph glyph-name="minus.sub" horiz-adv-x="315" 
d="M25 106v18h265v-18h-265z" />
    <glyph glyph-name="five.sup" horiz-adv-x="287" 
d="M123 426q-57 0 -92 23l-12 80l5 1q27 -46 49.5 -67.5t55.5 -21.5q39 0 62.5 27.5t23.5 81.5q0 57 -26 87.5t-73 30.5q-41 0 -66 -25l-7 5l29 171h185l-8 -42h-168l-19 -113q28 20 68 20q56 0 94.5 -34t38.5 -96q0 -61 -38.5 -94.5t-101.5 -33.5z" />
    <glyph glyph-name="zero.sup" horiz-adv-x="358" 
d="M179 426q-65 0 -110 58t-45 143q0 84 45 142t110 58q66 0 111.5 -58t45.5 -142q0 -85 -45.5 -143t-111.5 -58zM179 441q100 0 100 186q0 185 -100 185q-98 0 -98 -185q0 -186 98 -186z" />
    <glyph glyph-name="one.sup" horiz-adv-x="182" 
d="M42 434v1q17 20 22.5 35.5t5.5 42.5v229h-48v4q50 29 92 78h5v-311q0 -28 5.5 -43t23.5 -35v-1h-106z" />
    <glyph glyph-name="two.sup" horiz-adv-x="303" 
d="M9 434v7q112 94 155 156.5t43 123.5q0 43 -20 67t-57 24q-32 0 -52.5 -22t-44.5 -70l-5 2l12 88q46 17 91 17q64 0 94.5 -28t30.5 -76q0 -56 -45 -113t-142 -134h105q33 0 53.5 17t41.5 54l5 -2l-32 -111h-233z" />
    <glyph glyph-name="three.sup" horiz-adv-x="296" 
d="M134 426q-62 0 -99 23l-13 83l5 1q29 -48 52.5 -70t59.5 -22q43 0 64.5 32t21.5 81q0 103 -91 103q-37 0 -69 -22l-7 9l147 131h-162l14 43h213v-5l-162 -144q20 5 38 5q54 0 91 -31.5t37 -88.5q0 -58 -38.5 -93t-101.5 -35z" />
    <glyph glyph-name="four.sup" horiz-adv-x="306" 
d="M164 435q23 33 23 78v21h-173v7l180 278h57l-214 -269h150v126h48v-126h49l-4 -16h-45v-21q0 -27 4.5 -42t19.5 -36v-1h-95v1z" />
    <glyph glyph-name="six.sup" horiz-adv-x="319" 
d="M161 426q-61 0 -98 42t-37 113q0 79 49.5 144.5t156.5 101.5l4 -10q-58 -24 -96 -71t-53 -102q29 46 89 46q51 0 85 -34.5t34 -90.5q0 -61 -38.5 -100t-95.5 -39zM161 441q38 0 60.5 30.5t22.5 85.5q0 108 -84 108q-57 0 -79 -46q-5 -32 -5 -51q0 -53 21.5 -90t63.5 -37z
" />
    <glyph glyph-name="seven.sup" horiz-adv-x="267" 
d="M55 434q54 196 166 343h-197l8 42h231v-5q-121 -187 -155 -380h-53z" />
    <glyph glyph-name="eight.sup" horiz-adv-x="287" 
d="M141 426q-51 0 -86.5 26.5t-35.5 71.5q0 77 91 104q-72 38 -72 95q0 47 29.5 75.5t77.5 28.5q44 0 74 -24.5t30 -65.5q0 -66 -76 -90q95 -43 95 -112q0 -49 -36 -79t-91 -30zM142 441q40 0 64.5 20t24.5 55q0 34 -24 56t-84 50q-68 -33 -68 -98q0 -40 23 -61.5t64 -21.5z
M73 747q0 -32 20.5 -52.5t68.5 -41.5q51 31 51 84q0 36 -18.5 55.5t-50.5 19.5t-51.5 -18t-19.5 -47z" />
    <glyph glyph-name="nine.sup" horiz-adv-x="319" 
d="M77 436q58 25 96 71.5t53 102.5q-28 -47 -89 -47q-51 0 -85 34.5t-34 90.5q0 61 38.5 100t95.5 39q61 0 98 -42t37 -113q0 -79 -49.5 -144.5t-156.5 -101.5zM153 588q57 0 79 46q5 32 5 51q0 53 -21.5 90t-63.5 37q-38 0 -60.5 -30.5t-22.5 -85.5q0 -108 84 -108z" />
    <glyph glyph-name="plus.sup" horiz-adv-x="315" 
d="M167 616v-123h-20v123h-122v18h122v123h20v-123h123v-18h-123z" />
    <glyph glyph-name="minus.sup" horiz-adv-x="315" 
d="M25 616v18h265v-18h-265z" />
    <glyph glyph-name="space_uni0326.alt" horiz-adv-x="450" 
d="M211 748q-21 -15 -35 -35.5t-14 -37.5q0 -30 33 -59v-2l-48 -36q-32 22 -32 61q0 56 92 115z" />
    <glyph glyph-name="caron.alt" horiz-adv-x="449" 
d="M136 775h63l-88 -203l-7 2z" />
    <glyph glyph-name="space.uc" horiz-adv-x="191" 
 />
    <glyph glyph-name="questiondown.uc" horiz-adv-x="433" 
d="M302 538q-7 -48 -29.5 -88.5t-50.5 -69.5t-54.5 -59.5t-44.5 -73.5t-18 -96q0 -148 123 -148q58 0 94 33t64 107l7 -2l-19 -124q-84 -32 -151 -32q-85 0 -131.5 42.5t-46.5 122.5q0 51 21 93t52.5 73t65 61t62.5 71.5t40 89.5h16zM288 735q19 0 33 -13.5t14 -33.5
t-14 -33.5t-33 -13.5q-20 0 -33.5 13.5t-13.5 33.5t13.5 33.5t33.5 13.5z" />
    <glyph glyph-name="exclamdown.uc" horiz-adv-x="214" 
d="M136 0h-57v2l21 536h14l22 -536v-2zM107 735q20 0 33.5 -13.5t13.5 -33.5t-13.5 -33.5t-33.5 -13.5q-19 0 -33 13.5t-14 33.5t14 33.5t33 13.5z" />
    <glyph glyph-name="hyphen.uc" horiz-adv-x="281" 
d="M30 363v40h221v-40h-221z" />
    <glyph glyph-name="endash.uc" horiz-adv-x="490" 
d="M30 371v18h430v-18h-430z" />
    <glyph glyph-name="emdash.uc" horiz-adv-x="740" 
d="M30 371v18h680v-18h-680z" />
    <glyph glyph-name="guilsinglleft.uc" horiz-adv-x="276" 
d="M188 132l-138 175v20l138 175l8 -6l-91 -179l91 -179z" />
    <glyph glyph-name="guilsinglright.uc" horiz-adv-x="276" 
d="M80 158l91 179l-91 179l8 6l138 -175v-20l-138 -175z" />
    <glyph glyph-name="guillemotleft.uc" horiz-adv-x="401" 
d="M338 132l-138 175v20l138 175l8 -6l-91 -179l91 -179zM188 132l-138 175v20l138 175l8 -6l-91 -179l91 -179z" />
    <glyph glyph-name="guillemotright.uc" horiz-adv-x="401" 
d="M205 138l91 179l-91 179l8 6l138 -175v-20l-138 -175zM55 138l91 179l-91 179l8 6l138 -175v-20l-138 -175z" />
    <glyph glyph-name="parenleft.uc" horiz-adv-x="272" 
d="M249 -90q-86 76 -132.5 188.5t-46.5 253.5t46.5 254t132.5 189l8 -10q-139 -165 -139 -433q0 -267 139 -432z" />
    <glyph glyph-name="parenright.uc" horiz-adv-x="272" 
d="M15 -80q139 165 139 432q0 268 -139 433l8 10q86 -76 132.5 -189t46.5 -254t-46.5 -253.5t-132.5 -188.5z" />
    <glyph glyph-name="bracketleft.uc" horiz-adv-x="299" 
d="M100 795h184v-18h-136v-849h136v-18h-184v885z" />
    <glyph glyph-name="bracketright.uc" horiz-adv-x="299" 
d="M199 -90h-184v18h136v849h-136v18h184v-885z" />
    <glyph glyph-name="braceleft.uc" horiz-adv-x="283" 
d="M233 -90q-69 0 -106 31.5t-37 88.5q0 35 27.5 110t27.5 119q0 84 -103 84h-12v19h12q103 0 103 84q0 44 -27.5 119t-27.5 110q0 57 37 88.5t106 31.5h35v-18h-35q-42 0 -66.5 -21t-24.5 -80q0 -25 18 -103.5t18 -120.5q0 -88 -96 -98v-3q96 -10 96 -98q0 -42 -18 -120.5
t-18 -103.5q0 -59 24.5 -80t66.5 -21h35v-18h-35z" />
    <glyph glyph-name="braceright.uc" horiz-adv-x="283" 
d="M15 -90v18h35q42 0 66.5 21t24.5 80q0 25 -18 103.5t-18 120.5q0 88 96 98v3q-96 10 -96 98q0 42 18 120.5t18 103.5q0 59 -24.5 80t-66.5 21h-35v18h35q69 0 106 -31.5t37 -88.5q0 -35 -27.5 -110t-27.5 -119q0 -84 103 -84h12v-19h-12q-103 0 -103 -84q0 -44 27.5 -119
t27.5 -110q0 -57 -37 -88.5t-106 -31.5h-35z" />
    <glyph glyph-name="slash.uc" horiz-adv-x="403" 
d="M382 821h23l-385 -911h-23z" />
    <glyph glyph-name="backslash.uc" horiz-adv-x="403" 
d="M383 -90l-385 911h23l385 -911h-23z" />
    <glyph glyph-name="bar.uc" horiz-adv-x="205" 
d="M91 -89v911h23v-911h-23z" />
    <glyph glyph-name="at.uc" horiz-adv-x="849" 
d="M413 -41q-164 0 -268.5 98t-104.5 262q0 181 124 309t317 128q151 0 239.5 -81.5t88.5 -226.5q0 -122 -61 -209t-158 -87q-73 0 -95 51t-2 122l7 26q-36 -89 -86 -148.5t-100 -59.5q-36 0 -56.5 27t-20.5 80q0 121 81 221.5t183 100.5q45 0 71 -17l28 17h4l-65 -244
q-22 -66 -10.5 -111.5t67.5 -45.5q80 0 129 79.5t49 193.5q0 139 -80.5 215.5t-215.5 76.5q-175 0 -284 -121.5t-109 -295.5q0 -157 91 -248.5t241 -91.5q128 0 214 60l8 -16q-89 -64 -226 -64zM336 182q25 0 50 20.5t48.5 59t39.5 70t35 75.5l29 113q-21 33 -61 33
q-75 0 -132.5 -95t-57.5 -195q0 -81 49 -81z" />
    <glyph glyph-name="grave.uc" horiz-adv-x="449" 
d="M329 782l-231 123l37 54l198 -170z" />
    <glyph glyph-name="dieresis.uc" horiz-adv-x="450" 
d="M396 868q0 -17 -12 -29t-29 -12t-29 12t-12 29t12 29t29 12t29 -12t12 -29zM136 868q0 -17 -12 -29t-29 -12t-29 12t-12 29t12 29t29 12t29 -12t12 -29z" />
    <glyph glyph-name="macron.uc" horiz-adv-x="314" 
d="M8 873h299v-35h-299v35z" />
    <glyph glyph-name="acute.uc" horiz-adv-x="449" 
d="M296 959l33 -54l-227 -123l-4 7z" />
    <glyph glyph-name="circumflex.uc" horiz-adv-x="450" 
d="M225 881l-147 -99l-6 7l151 156h4l151 -156l-6 -7z" />
    <glyph glyph-name="caron.uc" horiz-adv-x="450" 
d="M223 782l-151 156l6 7l147 -99l147 99l6 -7l-151 -156h-4z" />
    <glyph glyph-name="breve.uc" horiz-adv-x="450" 
d="M224 840q99 0 132 88h8q-21 -131 -141 -131q-116 0 -137 131h8q38 -88 130 -88z" />
    <glyph glyph-name="dotaccent.uc" horiz-adv-x="450" 
d="M266 868q0 -17 -12 -29t-29 -12t-29 12t-12 29t12 29t29 12t29 -12t12 -29z" />
    <glyph glyph-name="ring.uc" horiz-adv-x="300" 
d="M66 865q0 37 23.5 61t60.5 24t60.5 -24t23.5 -61t-23.5 -60t-60.5 -23t-60.5 23t-23.5 60zM94 865q0 -31 14.5 -48.5t41.5 -17.5t41.5 17.5t14.5 48.5q0 68 -56 68t-56 -68z" />
    <glyph glyph-name="tilde.uc" horiz-adv-x="450" 
d="M146 902q33 0 89 -27.5t84 -27.5q27 0 40.5 15t22.5 50l8 -1q-9 -115 -86 -115q-33 0 -89 27.5t-84 27.5q-27 0 -40.5 -15t-22.5 -50l-8 1q9 115 86 115z" />
    <glyph glyph-name="hungarumlaut.uc" horiz-adv-x="449" 
d="M380 949l40 -52l-175 -115l-5 7zM187 949l40 -52l-175 -115l-5 7z" />
    <glyph glyph-name="Cacute.pl" horiz-adv-x="742" 
d="M672 63q-35 -27 -110.5 -52.5t-159.5 -25.5q-166 0 -264 108.5t-98 273.5q0 164 106 272t282 108q129 0 240 -50l20 -141l-8 -2q-50 92 -110.5 132.5t-145.5 40.5q-156 0 -237 -99.5t-81 -260.5q0 -162 76.5 -262t223.5 -100q108 0 172 53t106 160l8 -2zM444 961l57 -30
l-113 -149l-8 4z" />
    <glyph glyph-name="Nacute.pl" horiz-adv-x="716" 
d="M111 632l4 -494q0 -47 13.5 -74t56.5 -62v-2h-143v2q31 34 40.5 61.5t9.5 74.5v516q-38 54 -80 76v2h89l505 -634l-3 496q0 47 -11.5 74.5t-48.5 61.5v2h133v-2q-31 -35 -40.5 -61.5t-9.5 -74.5v-594l-9 -3zM402 961l57 -30l-113 -149l-8 4z" />
    <glyph glyph-name="Oacute.pl" horiz-adv-x="811" 
d="M405 -15q-156 0 -260.5 109t-104.5 271t104.5 272t260.5 110t261 -110t105 -272t-105 -271t-261 -109zM405 5q136 0 218 101t82 259q0 157 -82 259.5t-218 102.5t-217.5 -102t-81.5 -260q0 -157 81.5 -258.5t217.5 -101.5zM442 961l57 -30l-113 -149l-8 4z" />
    <glyph glyph-name="Sacute.pl" horiz-adv-x="533" 
d="M448 578l-8 -3q-51 152 -190 152q-79 0 -118 -39t-39 -95q0 -36 12.5 -63t46 -49.5t53 -32.5t70.5 -31q11 -5 16 -7q40 -17 62.5 -28t54 -32t48.5 -42.5t29.5 -53.5t12.5 -71q0 -101 -71 -149.5t-180 -48.5q-101 0 -192 38l-20 142l8 3q34 -86 86.5 -124.5t137.5 -38.5
q88 0 133 42t45 116q0 35 -11.5 63.5t-25.5 46t-45.5 37t-49.5 28t-59 26.5q-35 15 -51 22.5t-45.5 23t-44 29.5t-31.5 34.5t-24 45.5t-7 56q0 83 58 127.5t157 44.5q86 0 162 -30zM300 961l57 -30l-113 -149l-8 4z" />
    <glyph glyph-name="Zacute.pl" horiz-adv-x="608" 
d="M30 0v11l465 705l-263 -8q-51 -2 -90.5 -39t-80.5 -112l-8 3l47 172h464v-11l-464 -706l299 9q94 4 171 157l8 -3l-49 -178h-499zM367 961l57 -30l-113 -149l-8 4z" />
    <glyph glyph-name="acute.pl" horiz-adv-x="300" 
d="M167 749l55 -22l-112 -184l-6 3z" />
    <glyph glyph-name="acute.ucpl" horiz-adv-x="300" 
d="M198 961l57 -30l-113 -149l-8 4z" />
    <glyph glyph-name="cacute.pl" 
d="M443 111q-19 -58 -69 -92t-118 -34q-96 0 -156 65.5t-60 173.5q0 121 73.5 193.5t177.5 72.5q62 0 134 -33l7 -94l-6 -2q-35 60 -68 85.5t-84 25.5q-82 0 -130.5 -58.5t-48.5 -162.5q0 -99 46 -159.5t132 -60.5q49 0 94.5 21t70.5 61zM293 749l55 -22l-112 -184l-6 3z
" />
    <glyph glyph-name="divide.osf" horiz-adv-x="546" 
d="M52 233v20h442v-20h-442zM273 29q-19 0 -33 13.5t-14 33.5t14 33.5t33 13.5q20 0 33.5 -13.5t13.5 -33.5t-13.5 -33.5t-33.5 -13.5zM273 363q-19 0 -33 13.5t-14 33.5t14 33.5t33 13.5q20 0 33.5 -13.5t13.5 -33.5t-13.5 -33.5t-33.5 -13.5z" />
    <glyph glyph-name="eight.osf" horiz-adv-x="462" 
d="M232 -10q-86 0 -140.5 50.5t-54.5 126.5q0 69 45.5 121t114.5 81q-67 42 -103.5 87t-36.5 111q0 77 51.5 128.5t127.5 51.5q74 0 124 -49t50 -121q0 -57 -34 -106t-101 -80q70 -46 110 -97t40 -123q0 -83 -56.5 -132t-136.5 -49zM254 404q2 -2 5.5 -4t4.5 -3
q99 60 99 177q0 71 -34 112.5t-96 41.5q-61 0 -97 -38.5t-36 -97.5q0 -41 23 -76.5t45 -52.5t71 -49q10 -7 15 -10zM232 9q65 0 102.5 41t37.5 106q0 36 -11 64.5t-36.5 53.5t-44.5 39.5t-57 38.5q-10 6 -15 10q-60 -36 -89.5 -79.5t-29.5 -109.5q0 -74 36.5 -119t106.5 -45
z" />
    <glyph glyph-name="equal.osf" horiz-adv-x="532" 
d="M45 314v20h442v-20h-442zM45 172v20h442v-20h-442z" />
    <glyph glyph-name="f.short" horiz-adv-x="291" 
d="M76 2q24 38 24 137v318h-63v18h63v99q0 98 30 151.5t87 53.5q32 0 57 -14l12 -80l-6 -2q-31 45 -46 60.5t-32 15.5q-52 0 -52 -141v-143h118v-18h-118v-318q0 -96 23 -137v-2h-97v2z" />
    <glyph glyph-name="f_f.short" horiz-adv-x="531" 
d="M76 2q24 38 24 137v318h-63v18h63v79q0 97 38 151t107 54q41 0 59 -14l12 -80l-6 -2q-31 44 -48 60t-40 16q-32 0 -52 -36.5t-20 -104.5v-123h190v99q0 98 30 151.5t87 53.5q32 0 57 -14l12 -80l-6 -2q-31 45 -46 60.5t-32 15.5q-52 0 -52 -141v-143h118v-18h-118v-318
q0 -96 23 -137v-2h-97v2q24 38 24 137v318h-190v-318q0 -96 23 -137v-2h-97v2z" />
    <glyph glyph-name="five.osf" horiz-adv-x="429" 
d="M150 -245q-50 0 -89.5 16t-59.5 34l-21 137l8 2q37 -91 75 -130.5t95 -39.5q69 0 106.5 48.5t37.5 126.5q0 205 -227 271l113 277h250l-17 -50h-232l-74 -181q109 -31 173 -105t64 -184q0 -96 -54 -159t-148 -63z" />
    <glyph glyph-name="four.osf" horiz-adv-x="466" 
d="M292 0h-285v10l333 485h8v-455h100l-7 -40h-93v-195h-56v195zM292 390l-237 -350h237v350z" />
    <glyph glyph-name="four.osfalt" horiz-adv-x="466" 
d="M292 0h-285v10l308 467h82l-365 -455h260v158h56v-158h101l-4 -22h-97v-195h-56v195z" />
    <glyph glyph-name="greater.osf" horiz-adv-x="530" 
d="M55 20v25l409 196l-409 196v25l430 -208v-26z" />
    <glyph glyph-name="less.osf" horiz-adv-x="530" 
d="M45 228v26l430 208v-25l-409 -196l409 -196v-25z" />
    <glyph glyph-name="minus.osf" horiz-adv-x="532" 
d="M45 233v20h442v-20h-442z" />
    <glyph glyph-name="multiply.osf" horiz-adv-x="472" 
d="M236 227l-170 -170l-15 15l170 170l-170 170l15 15l170 -170l170 170l15 -15l-170 -170l170 -170l-15 -15z" />
    <glyph glyph-name="nacute.pl" horiz-adv-x="517" 
d="M148 0h-94v2q22 41 22 117v247q0 46 -44 75v2l90 52v-91l4 -1q74 87 180 87q69 0 104.5 -38.5t35.5 -107.5v-224q0 -47 3.5 -71t18.5 -47v-2h-94v2q22 41 22 117v214q0 118 -112 118q-98 0 -158 -66v-265q0 -46 3.5 -70t18.5 -48v-2zM312 749l55 -22l-112 -184l-6 3z" />
    <glyph glyph-name="nine.osf" horiz-adv-x="511" 
d="M252 507q99 0 160.5 -83t61.5 -201q0 -67 -24 -134t-73 -132.5t-133.5 -121t-194.5 -90.5l-3 8q122 44 205 124t124 178q-52 -50 -128 -50q-100 0 -155 71.5t-55 176.5q0 100 63.5 177t151.5 77zM253 488q-75 0 -115.5 -65.5t-40.5 -178.5q0 -221 157 -221q77 0 129 53
q31 87 31 173q0 63 -14.5 114.5t-52.5 88t-94 36.5z" />
    <glyph glyph-name="oacute.pl" horiz-adv-x="562" 
d="M281 -15q-101 0 -173.5 73.5t-72.5 178.5t72.5 179t173.5 74t173.5 -74t72.5 -179t-72.5 -178.5t-173.5 -73.5zM281 3q89 0 136.5 66t47.5 168t-48.5 168.5t-135.5 66.5t-135.5 -66.5t-48.5 -168.5t47.5 -168t136.5 -66zM327 749l55 -22l-112 -184l-6 3z" />
    <glyph glyph-name="one.osf" horiz-adv-x="246" 
d="M54 0v2q26 28 34 47.5t8 64.5v315h-84v11l136 67h2v-393q0 -44 8.5 -63t35.5 -49v-2h-140z" />
    <glyph glyph-name="plus.osf" horiz-adv-x="532" 
d="M277 233v-210h-22v210h-210v20h210v210h22v-210h210v-20h-210z" />
    <glyph glyph-name="sacute.pl" horiz-adv-x="375" 
d="M323 383l-8 -2q-26 51 -56.5 71t-70.5 20q-48 0 -77.5 -24t-29.5 -64q0 -23 8.5 -39.5t30.5 -30t36.5 -20t51.5 -20.5q32 -13 52 -23t43.5 -28t35 -43t11.5 -58q0 -64 -45 -100.5t-131 -36.5q-72 0 -132 29l-10 102l8 2q25 -60 60 -87.5t88 -27.5q58 0 89.5 29t31.5 73
q0 45 -32.5 70t-93.5 47q-31 11 -51.5 21t-44 26.5t-35.5 40.5t-12 55q0 65 48 95t117 30q64 0 108 -18zM230 749l55 -22l-112 -184l-6 3z" />
    <glyph glyph-name="seven.osf" horiz-adv-x="432" 
d="M22 -245q39 106 83 201t103.5 195.5t88 145t98.5 150.5h-347l12 50h372v-10q-110 -179 -195.5 -350.5t-154.5 -381.5h-60z" />
    <glyph glyph-name="six.osf" horiz-adv-x="511" 
d="M259 -10q-99 0 -160.5 83t-61.5 201q0 67 24 134t73 132.5t133.5 121t194.5 90.5l3 -8q-122 -44 -205 -124t-124 -178q52 50 128 50q100 0 155 -71.5t55 -176.5q0 -100 -63.5 -177t-151.5 -77zM258 9q75 0 115.5 65.5t40.5 178.5q0 221 -157 221q-77 0 -129 -53
q-31 -87 -31 -173q0 -63 14.5 -114.5t52.5 -88t94 -36.5z" />
    <glyph glyph-name="three.osf" horiz-adv-x="438" 
d="M183 -245q-49 0 -91.5 15t-63.5 36l-18 136l8 2q39 -89 78 -129.5t101 -40.5q70 0 107.5 45t37.5 113q0 90 -57 144.5t-152 71.5v5q95 29 147 84t52 126q0 57 -28.5 91t-77.5 34q-47 0 -81 -33t-73 -100l-7 2l17 118q64 32 144 32q75 0 117.5 -39t42.5 -100t-39.5 -110.5
t-116.5 -79.5q73 -24 119 -79.5t46 -137.5q0 -92 -59 -149t-153 -57z" />
    <glyph glyph-name="three.osfalt" horiz-adv-x="438" 
d="M183 -245q-49 0 -91.5 15t-63.5 36l-18 136l8 2q39 -89 78 -129.5t101 -40.5q70 0 107.5 45t37.5 113q0 90 -57 144.5t-152 71.5v5q107 33 149 81.5t42 110.5q0 58 -31 92t-91 34q-67 0 -118 -39l-5 6q69 69 157 69q70 0 110 -40t40 -101q0 -122 -150 -190
q70 -23 114.5 -79.5t44.5 -135.5q0 -92 -59 -149t-153 -57z" />
    <glyph glyph-name="two.osf" horiz-adv-x="453" 
d="M30 0v8q153 88 219 172.5t66 171.5q0 64 -32 100t-84 36q-45 0 -79.5 -32.5t-67.5 -103.5l-7 2l22 120q59 33 134 33q85 0 129.5 -43t44.5 -110q0 -162 -248 -304h193q42 0 62.5 13t39.5 47l6 -3l-48 -107h-350z" />
    <glyph glyph-name="two.osfalt" horiz-adv-x="453" 
d="M30 0v8q283 163 283 331q0 61 -35.5 96.5t-102.5 35.5q-72 0 -123 -39l-5 6q69 69 164 69q77 0 120.5 -43t43.5 -113q0 -158 -253 -301h198q42 0 62.5 13t39.5 47l6 -3l-48 -107h-350z" />
    <glyph glyph-name="zacute.pl" horiz-adv-x="412" 
d="M20 0v7l298 451l-152 -4q-43 0 -85 -49l-27 -33l-5 2l33 101h299v-8l-297 -450l168 3q41 0 64.5 20t60.5 72l5 -2l-35 -110h-327zM266 749l55 -22l-112 -184l-6 3z" />
    <glyph glyph-name="zero.osf" horiz-adv-x="521" 
d="M260 -10q-92 0 -157.5 77t-65.5 181q0 103 66.5 181t156.5 78q92 0 158 -77.5t66 -181.5t-66 -181t-158 -77zM260 9q80 0 119.5 68.5t39.5 170.5q0 65 -15.5 117.5t-52.5 87.5t-91 35q-79 0 -118.5 -69t-39.5 -171q0 -65 15 -117t51.5 -87t91.5 -35z" />
    </font>
</defs>
</svg>
