<?xml version="1.0" encoding="UTF-8"?>
<svg id="SVGDoc" width="65" height="155" xmlns="http://www.w3.org/2000/svg" version="1.1" xmlns:xlink="http://www.w3.org/1999/xlink" xmlns:avocode="https://avocode.com/" viewBox="0 0 65 155"><defs><clipPath id="clip-1:1865"><path d="M0,0.61v0h64.87v0v153.941v0h-64.87v0z" ></path></clipPath></defs><desc>Generated with Avocode.</desc><g><g opacity="0.5"><title>Group 3</title><g opacity="0.5"><title>Clip 2</title><path d="M0,0.61v0h64.87v0v153.941v0h-64.87v0z" fill="#000000" fill-opacity="1"></path></g><g opacity="0.5" clip-path="url(#clip-1:1865)"><title>Fill 1</title><path d="M46.3065,139.979c-1.479,0.134 -3.22,0.312 -3.871,0.398c-0.797,0.103 -1.39,-0.036 -1.821,-0.424c-0.6,-0.543 -0.699,-0.536 -1.582,0.116c-0.645,0.475 -1.733,0.761 -3.416,0.9c-2.333,0.195 -2.482,0.165 -2.673,-0.548c-0.301,-1.121 -0.255,-2.935 0.081,-3.142c0.525,-0.324 0.731,-10.635 0.216,-10.807c-0.21,-0.068 -0.334,-4.588 -0.328,-11.949c0.005,-6.51 -0.101,-13.392 -0.235,-15.2908c-0.132,-1.901 -0.343,-6.1 -0.467,-9.332c-0.124,-3.232 -0.362,-6.301 -0.526,-6.822c-0.343,-1.093 -0.16,-1.171 3.215,-1.398c2.465,-0.164 2.489,-0.104 2.008,4.963c-0.191,2.011 -0.279,4.576 -0.199,5.702c0.082,1.127 0.153,5.002 0.161,8.6138c0.007,3.611 0.162,8.51 0.344,10.886c0.178,2.377 0.415,7.509 0.521,11.406c0.336,12.359 0.691,15.206 1.898,15.206c0.361,0 0.757,-0.321 0.88,-0.71c0.124,-0.391 0.329,-0.655 0.456,-0.587c1.451,0.78 3.126,1.281 5.494,1.64c1.566,0.237 2.776,0.545 2.691,0.684c-0.087,0.14 -1.367,0.363 -2.847,0.495zM37.9385,143.975c-1.083,0.579 -2.441,0.304 -2.441,-0.496c0,-0.474 1.037,-0.863 2.331,-0.87c0.962,-0.005 1.032,0.871 0.11,1.366zM35.1555,149.397c-1.619,0.17 -2.123,0.123 -1.94,-0.172c0.136,-0.22 0.588,-0.403 1.004,-0.405c0.416,-0.004 0.992,-0.172 1.278,-0.373c0.381,-0.272 -0.008,-0.322 -1.47,-0.193c-1.095,0.097 -1.987,0.064 -1.987,-0.072c0,-0.135 0.866,-0.701 1.924,-1.254c1.617,-0.847 1.974,-0.926 2.242,-0.505c0.174,0.276 0.318,0.765 0.321,1.088c0.003,0.325 0.276,0.741 0.608,0.925c0.33,0.187 0.513,0.427 0.403,0.534c-0.108,0.11 -1.181,0.302 -2.383,0.427zM30.7105,148.306c-0.166,0.959 -0.369,1.051 -2.023,0.932c-1.096,-0.08 -1.403,-0.228 -1.259,-0.605c0.106,-0.275 -0.004,-0.499 -0.242,-0.499c-0.802,0 0.58,-1.174 2.567,-2.181c1.395,-0.705 2.326,-0.942 3.478,-0.881c0.865,0.045 1.573,0.169 1.572,0.275c0,0.107 -0.894,0.661 -1.986,1.232c-1.244,0.648 -2.031,1.295 -2.107,1.727zM25.4725,148.342c0,0.867 -0.079,0.902 -1.209,0.535c-1.182,-0.385 -0.965,-1.299 0.58,-2.436c0.802,-0.591 1.643,-1.071 1.872,-1.071c0.226,0 0.498,-0.223 0.601,-0.492c0.192,-0.502 1.613,-0.371 1.613,0.149c0,0.148 -0.778,0.769 -1.728,1.379c-1.284,0.824 -1.729,1.321 -1.729,1.936zM23.4265,144.535c1.12,-0.942 1.59,-1.064 2.321,-0.6c0.321,0.203 -0.01,0.638 -1.18,1.549c-0.894,0.696 -1.756,1.269 -1.915,1.269c-0.688,0 -0.199,-1.398 0.774,-2.218zM21.8165,147.819c-0.329,0.363 -0.69,0.639 -0.803,0.614c-0.113,-0.026 -0.594,-0.115 -1.069,-0.196c-2.546,-0.44 -3.507,-0.837 -3.127,-1.294c0.379,-0.455 3.503,-0.442 4.965,0.018c0.598,0.189 0.601,0.232 0.034,0.858zM13.7235,141.971c0,0.872 -0.937,0.799 -1.222,-0.093c-0.272,-0.862 -0.03,-1.123 1.532,-1.646c1.602,-0.537 3.669,-0.494 4.148,0.083c0.329,0.398 0.131,0.448 -1.188,0.3c-1.821,-0.205 -3.27,0.396 -3.27,1.356zM15.0025,142.732c-0.445,-0.444 -0.248,-1.434 0.326,-1.654c0.699,-0.27 0.775,-0.197 0.892,0.842c0.094,0.815 -0.691,1.337 -1.218,0.812zM11.7445,143.982c-1.189,-0.011 -2.33899,-0.855 -2.44899,-1.798c-0.084,-0.731 0.11,-1.034 0.93199,-1.461c1.352,-0.698 1.328,-0.709 1.152,0.499c-0.092,0.614 0.078,1.391 0.412,1.903c0.53,0.808 0.526,0.861 -0.047,0.857zM16.8335,138.457c0.676,-0.438 1.134,-0.438 0.864,0c-0.117,0.191 -0.476,0.343 -0.798,0.34c-0.504,-0.004 -0.512,-0.051 -0.066,-0.34zM19.2515,143.122c-0.236,0.286 -0.549,0.519 -0.696,0.519c-0.145,0 -0.355,-0.233 -0.465,-0.519c-0.144,-0.377 0.043,-0.518 0.697,-0.518c0.757,0 0.829,0.081 0.464,0.518zM20.7125,143.927c-0.108,-0.65 1.145,-1.668 2.047,-1.668c0.324,0 0.646,-0.273 0.715,-0.604c0.104,-0.492 0.167,-0.461 0.339,0.172c0.169,0.616 -0.123,1.102 -1.395,2.329c-1.557,1.497 -1.952,1.659 -3.252,1.32c-0.985,-0.257 -0.691,-0.746 0.518,-0.863c0.825,-0.079 1.099,-0.262 1.028,-0.686zM19.7705,141.222c0.118,-0.191 0.429,-0.345 0.693,-0.345c0.261,0 0.573,0.154 0.69,0.345c0.122,0.196 -0.176,0.345 -0.69,0.345c-0.517,0 -0.814,-0.149 -0.693,-0.345zM21.2575,140.116c0.322,-0.322 0.507,-0.322 0.83,0c0.321,0.322 0.23,0.415 -0.414,0.415c-0.647,0 -0.738,-0.093 -0.416,-0.415zM29.9835,140.426c0.516,-0.134 0.697,-0.375 0.557,-0.739c-0.13,-0.338 -0.018,-0.539 0.301,-0.539c0.691,0 0.659,1.596 -0.04,1.863c-0.661,0.253 -0.564,0.262 -1.124,-0.092c-0.346,-0.219 -0.27,-0.342 0.306,-0.493zM32.6665,142.945c0.673,0.004 1.054,0.146 0.928,0.351c-0.365,0.59 -3.628,0.222 -3.628,-0.411c0,-0.208 0.333,-0.272 0.778,-0.153c0.428,0.114 1.292,0.211 1.922,0.213zM31.0045,80.7132c0,-0.41 0.972,-0.61 3.515,-0.725c2.162,-0.096 3.407,0.197 2.321,0.548c-0.917,0.296 -5.836,0.446 -5.836,0.177zM30.8035,78.7112c0.104,-0.166 1.76,-0.331 3.681,-0.364c2.366,-0.041 3.421,0.058 3.27,0.303c-0.134,0.216 -1.64,0.364 -3.682,0.364c-1.899,0 -3.37,-0.136 -3.269,-0.303zM27.0585,75.9502c-0.115,-0.183 -0.011,-0.404 0.228,-0.487c0.768,-0.277 0.126,-0.546 -2.66,-1.124c-2.629,-0.542 -7.136,-2.491 -7.637,-3.302c-0.172,-0.276 0,-0.31 0.578,-0.112c2.038,0.696 5.648,-0.678 6.524,-2.483c0.285,-0.587 1.529,-2.181 2.765,-3.539c1.739,-1.916 2.46,-2.473 3.195,-2.474c0.524,-0.003 0.953,0.085 0.953,0.197c0,0.111 -1.418,1.829 -3.152,3.819c-1.732,1.99 -3.049,3.721 -2.924,3.845c0.393,0.391 2.072,-0.856 2.73,-2.024c0.347,-0.614 1.575,-2.18 2.729,-3.48c1.825,-2.054 2.254,-2.362 3.287,-2.362h1.189l-1.032,1.297c-0.568,0.713 -2.026,2.333 -3.242,3.601c-2.269,2.362 -3.718,4.565 -3.289,4.994c0.134,0.134 0.528,-0.016 0.877,-0.332c0.348,-0.316 1.19,-0.574 1.87,-0.574c1.274,0 1.945,-0.586 3.832,-3.35c0.415,-0.606 5.399,-6.184 6.604,-6.369c0.774,-0.119 1.464,-0.164 1.533,-0.103c0.071,0.062 -0.441,0.777 -1.134,1.587c-1.009,1.179 -3.448,3.653 -4.848,5.292c-1.512,1.771 -1.916,2.597 -1.274,2.597c0.442,0 2.787,-2.531 7.291,-7.861c1.437,-1.701 2.362,-2.508 2.878,-2.512c0.419,-0.001 0.995,-0.168 1.28,-0.365c0.384,-0.268 0.22,-0.303 -0.635,-0.134l-1.153,0.228l0.589,-0.897c0.628,-0.963 1.026,-1.117 1.38,-0.541c0.123,0.198 0.521,0.267 0.885,0.15c0.364,-0.115 0.662,-0.116 0.662,-0.002c0,0.696 -4.876,7.144 -7.263,9.601c-1.936,1.996 -2.758,2.433 -2.758,1.47c0,-0.743 -0.604,-0.64 -1.042,0.18c-0.455,0.851 -0.182,1.376 0.715,1.376c0.97,0 0.856,1.245 -0.177,1.922c-0.467,0.305 -0.988,0.47 -1.159,0.365c-0.17,-0.106 -0.599,0.019 -0.954,0.277c-0.517,0.38 -0.56,0.568 -0.22,0.977c0.358,0.433 0.174,0.535 -1.224,0.688c-2.948,0.324 -6.589,0.307 -6.797,-0.036zM16.8335,68.7942c0,0.646 -0.357,0.68 -1.538,0.141c-1.116,-0.508 -1.132,-0.98 -0.038,-0.98c0.464,0 0.94,-0.156 1.058,-0.345c0.116,-0.191 0.924,-0.346 1.793,-0.346c1.365,0 1.739,-0.169 2.745,-1.235c0.671,-0.71 1.165,-1.594 1.165,-2.081c0,-0.583 0.266,-0.949 0.842,-1.169c0.9,-0.342 1.572,-1.316 1.345,-1.946c-0.076,-0.21 0.295,-0.846 0.825,-1.413c0.528,-0.568 1.119,-1.484 1.313,-2.038c0.304,-0.868 0.553,-1.02 1.814,-1.111c0.805,-0.058 1.463,0.033 1.463,0.205c0,0.551 -1.24,1.455 -1.994,1.455c-0.978,0 -1.313,0.615 -0.413,0.755c0.677,0.106 0.657,0.185 -0.371,1.578c-0.596,0.809 -1.298,1.47 -1.56,1.47c-0.263,0 -0.407,0.194 -0.319,0.433c0.087,0.236 -0.695,1.337 -1.74,2.442c-1.706,1.809 -2.356,3.001 -1.634,3.001c0.144,0 0.922,-0.827 1.728,-1.837c2.199,-2.756 3.337,-3.75 4.004,-3.493c0.633,0.241 0.637,0.235 -3.713,5.069c-1.947,2.165 -2.202,2.334 -3.527,2.334c-0.919,0 -1.748,-0.256 -2.337,-0.717c-0.755,-0.593 -0.911,-0.623 -0.911,-0.172zM12.3095,66.7492c-1.188,-0.645 -4.74899,-5.361 -4.04899,-5.361c0.078,0 0.997,0.828 2.04199,1.842c1.046,1.013 2.788,2.276 3.872,2.806c1.083,0.528 1.968,1.022 1.968,1.095c0,0.349 -3.046,0.045 -3.833,-0.382zM14.7305,65.1792c-0.268,-0.004 -1.034,-0.48 -1.698,-1.055l-1.209,-1.049l1.555,0.93c0.855,0.513 1.619,0.989 1.699,1.058c0.078,0.07 -0.076,0.122 -0.347,0.116zM10.1225,59.2552c0.396,0.202 0.907,0.593 1.138,0.87c0.229,0.277 1.655,1.315 3.167,2.308c1.512,0.994 2.752,1.865 2.752,1.937c0,0.786 -4.096,-1.698 -5.963,-3.616c-0.997,-1.026 -1.48899,-1.7 -1.094,-1.499zM16.1785,65.8522c-0.455,-0.182 -0.742,-0.419 -0.634,-0.525c0.105,-0.106 0.632,0.048 1.172,0.341c1.085,0.587 0.755,0.701 -0.538,0.184zM8.87151,49.6382c0.182,0 0.499,0.194 0.704,0.431c0.205,0.238 0.93199,1.055 1.61299,1.814c2.683,2.994 4.263,4.928 4.264,5.222c0,0.17 0.623,1.224 1.383,2.343c0.759,1.118 1.381,2.245 1.381,2.505c0,1.22 -2.312,0.01 -4.318,-2.259c-3.095,-3.502 -6.37199,-10.056 -5.02699,-10.056zM22.9425,60.7842c-0.115,0.331 -0.496,0.604 -0.846,0.604c-0.773,0 -3.381,-1.87 -3.675,-2.632c-0.186,-0.485 0.111,-0.527 2.47,-0.356c1.474,0.105 2.903,0.199 3.174,0.209c0.367,0.01 0.316,0.212 -0.209,0.792c-0.384,0.428 -0.795,1.05 -0.914,1.383zM17.2435,55.5222c0.439,0.003 1.5,0.173 2.355,0.375c0.856,0.202 2.527,0.365 3.715,0.363c2.159,-0.005 2.342,0.101 1.949,1.126c-0.214,0.563 -0.325,0.57 -5.22,0.291c-1.918,-0.109 -2.227,-0.232 -2.874,-1.142l-0.727,-1.023zM29.5965,60.4462c-0.714,0.862 -1.348,1.288 -1.931,1.288h-0.867l1.132,-1.47c0.622,-0.807 1.161,-1.511 1.192,-1.564c0.033,-0.055 0.392,-0.161 0.798,-0.241c1.035,-0.199 0.924,0.469 -0.324,1.987zM30.3225,57.2212c0.43,-0.803 1.071,-1.129 1.893,-0.96c0.485,0.1 0.462,0.221 -0.167,0.893c-0.399,0.428 -1.038,0.777 -1.416,0.777c-0.589,0 -0.635,-0.103 -0.31,-0.71zM33.4105,56.9192c0.492,-0.919 2.192,-1.01 2.022,-0.109c-0.076,0.401 -0.499,0.641 -1.26,0.713c-1.062,0.104 -1.119,0.059 -0.762,-0.604zM33.0355,60.2332c-1.137,1.474 -1.627,1.846 -2.419,1.846c-0.547,0 -0.996,-0.088 -0.996,-0.198c0,-0.107 0.633,-0.948 1.406,-1.864c0.949,-1.124 1.736,-1.717 2.42,-1.816c0.557,-0.082 1.013,-0.074 1.013,0.017c0,0.093 -0.642,0.998 -1.424,2.015zM39.0025,57.5902l-1.656,1.986c-0.911,1.091 -1.661,2.01 -1.667,2.04c-0.038,0.195 -2.602,0.494 -2.602,0.302c0,-0.13 0.689,-1.132 1.53,-2.227c1.403,-1.82 1.652,-1.994 2.964,-2.046zM37.0315,56.3672c0.368,-0.28 1.185,-0.508 1.813,-0.508c1.198,0 1.535,0.467 0.597,0.826c-0.3,0.116 -1.116,0.204 -1.813,0.198c-1.19,-0.008 -1.228,-0.042 -0.597,-0.516zM38.6915,54.8162c0.239,-0.002 0.784,-0.098 1.211,-0.213c0.429,-0.113 0.778,-0.052 0.778,0.141c0,0.191 -0.547,0.412 -1.21,0.49c-0.667,0.077 -1.21,0.016 -1.21,-0.137c0,-0.15 0.196,-0.277 0.431,-0.281zM34.7945,65.5362c-2.764,3.142 -3.79,3.983 -3.79,3.099c0,-0.931 5.367,-6.637 6.106,-6.493c0.419,0.08 -0.2,0.988 -2.316,3.394zM41.3355,56.9402c0.443,0.149 -1.787,3.377 -3.015,4.362c-1.041,0.836 -1.544,0.507 -0.792,-0.518c1.579,-2.161 3.385,-3.983 3.807,-3.844zM42.9465,54.1302c0.503,0 0.793,0.15 0.672,0.346c-0.118,0.191 -0.517,0.346 -0.885,0.346c-0.368,0 -0.67,-0.155 -0.67,-0.346c0,-0.189 0.397,-0.346 0.883,-0.346zM45.8855,55.8462c1.043,-0.558 0.816,-0.071 -1.24,2.659c-1.601,2.128 -2.069,2.538 -2.909,2.538c-0.55,0 -1.274,0.105 -1.609,0.233c-0.548,0.211 -0.559,0.166 -0.115,-0.444c2.72,-3.727 3.567,-4.628 4.361,-4.628c0.464,0 1.145,-0.16 1.512,-0.358zM47.4425,56.4302c0.705,-0.801 0.957,-0.906 1.371,-0.561c0.712,0.591 0.643,0.797 -0.497,1.47c-1.866,1.102 -2.272,0.68 -0.874,-0.909zM49.8405,60.0042c-0.306,0.494 -1.557,1.117 -1.557,0.774c0,-0.449 0.778,-1.118 1.299,-1.118c0.258,0 0.374,0.154 0.258,0.344zM51.6655,63.4632c1.601,-1.617 2.699,-2.612 2.442,-2.213c-0.258,0.401 -1.86,2.189 -3.564,3.976c-1.704,1.786 -2.802,2.779 -2.443,2.21c0.362,-0.57 1.965,-2.358 3.565,-3.973zM55.9855,61.4232c0.813,-0.874 1.708,-1.9 1.986,-2.28c0.279,-0.382 0.805,-0.926 1.168,-1.212c0.631,-0.493 0.64,-0.478 0.213,0.347c-0.246,0.475 -1.29,1.914 -2.317,3.196c-1.029,1.284 -2.019,2.333 -2.201,2.333c-0.689,0 -0.281,-0.846 1.151,-2.384zM60.9365,54.2262c0.104,0.104 -0.075,0.593 -0.397,1.085c-0.637,0.973 -1.542,1.198 -1.542,0.382c0,-0.55 1.626,-1.78 1.939,-1.467zM46.5555,63.2532c0,-0.285 1.105,-1.148 1.489,-1.163c0.154,-0.005 0.185,0.143 0.067,0.333c-0.278,0.45 -1.556,1.131 -1.556,0.83zM47.6775,70.1052c-1.018,0.959 -2.511,1.667 -5.747,2.719c-2.448,0.797 -3.218,0.822 -1.681,0.056c1.14,-0.566 1.527,-1.47 0.631,-1.47c-0.414,0 -0.405,-0.179 0.059,-1.122c0.302,-0.618 0.644,-1.201 0.758,-1.296c0.115,-0.096 0.947,-1.051 1.851,-2.124c0.906,-1.072 1.951,-2.029 2.326,-2.127c0.768,-0.201 0.883,0.108 0.267,0.725c-0.304,0.304 -0.313,0.518 -0.033,0.797c0.28,0.281 0.49,0.186 0.778,-0.355c0.216,-0.405 0.545,-0.645 0.729,-0.53c0.193,0.118 0.04,0.621 -0.363,1.185c-0.394,0.555 -0.697,1.53 -0.697,2.245v1.266l1.036,-0.738c1.3,-0.923 1.355,-0.429 0.086,0.769zM37.3115,77.2982c-0.904,0.008 -2.226,0.099 -2.939,0.202c-0.711,0.103 -1.295,0.042 -1.295,-0.137c0,-0.177 1.049,-0.412 2.332,-0.52c1.283,-0.11 2.605,-0.303 2.937,-0.433c0.422,-0.164 0.606,-0.068 0.606,0.32c0,0.431 -0.369,0.559 -1.641,0.568zM2.71751,55.1672c-0.421,0 -1.435,-3.323 -1.435,-4.705c0,-0.642 0.154,-1.169 0.346,-1.169c0.189,0 0.343,0.442 0.343,0.981c0,0.54 0.233,1.746 0.515,2.678c0.284,0.934 0.519,1.813 0.52,1.956c0.001,0.142 -0.128,0.259 -0.289,0.259zM7.01451,57.8432c-0.103,0.105 -0.294,-0.106 -0.424,-0.467c-0.131,-0.36 -0.524,-1.066 -0.872,-1.571c-0.03946,-0.05694 -0.07801,-0.11635 -0.11534,-0.17744c0.2489,0.94651 0.49869,1.89252 0.72734,2.84144c0.22574,0.93683 0.6921,1.8134 0.844,2.765c0.02861,0.17922 -0.23751,0.58372 -0.334,0.43c-0.60095,-0.9573 -1.04155,-2.02332 -1.349,-3.111c-1.00846,-3.56764 -2.32332,-7.11903 -2.588,-10.817c-0.17942,-2.50685 0.86964,-4.9508 1.282,-7.43c0.84265,-5.0662 2.19367,-10.07836 2.483,-15.206c0.20852,-3.69553 -0.53606,-7.38691 -1.001,-11.059c-0.46399,-3.66459 -1.63948,-7.24598 -1.784,-10.937c-0.03387,-0.86502 1.96098,-1.74952 1.267,-2.267c-0.74094,-0.55249 -1.92845,0.63381 -2.364,1.449c-0.58652,1.09775 -0.49735,2.47268 -0.394,3.713c0.15901,1.90833 0.73657,3.75922 1.172,5.624c0.35984,1.54107 0.99799,3.02215 1.213,4.59c1.23056,8.97322 1.10144,11.2619 -0.591,20.156c-0.63845,3.35518 -1.55292,6.65273 -2.417,9.957c-0.25702,0.98283 -1.80136,3.50739 -1.706,4.004c1.84028,9.58395 5.83139,15.68836 13.77899,21.798c2.17191,1.66963 5.22025,1.6843 7.749,2.738c0.98799,0.41169 2.07042,0.82241 2.76,1.641c6.83491,8.11365 4.92066,9.77246 6.335,21.847c0.72982,6.23061 0.93376,8.78588 1.135,15.7378c0.19779,6.83258 0.44624,13.66798 0.37,20.503c-0.00939,0.84221 -0.05196,1.83166 -0.626,2.448c-0.74751,0.80258 -1.8977,1.18828 -2.971,1.414c-0.29369,0.06177 0.09664,-0.6249 0.294,-0.851c0.62483,-0.71584 1.5113,-1.17707 2.116,-1.91c0.12208,-0.14796 -0.38304,0.02285 -0.574,0.041c-1.69943,0.16152 -3.39586,0.35561 -5.097,0.498c-2.08249,0.17431 -4.18076,0.18189 -6.253,0.452c-1.11621,0.1455 -2.31855,0.21054 -3.283,0.791c-4.64258,2.79415 -12.49518,4.3884 -9.63199,10.142c0.27684,0.5563 0.82418,1.04075 1.424,1.203c0.25438,0.06881 0.31442,-0.49624 0.247,-0.751c-0.15587,-0.58901 -0.75667,-1.00854 -0.871,-1.607c-0.15659,-0.81967 -0.13002,-1.69595 0.086,-2.502c0.11444,-0.42701 0.41478,-0.98542 0.856,-1.013c0.58398,-0.0365 0.9651,0.70428 1.528,0.864c1.05438,0.29917 2.17656,0.27562 3.25099,0.492c0.31813,0.06407 0.61563,0.20941 0.91,0.346c0.47117,0.21863 1.06325,0.30866 1.383,0.718c0.24956,0.31949 0.47869,1.01547 0.123,1.21c-0.43177,0.23613 -0.88922,-0.54018 -1.381,-0.522c-0.26094,0.00964 -0.73959,0.46224 -0.513,0.592c1.75911,1.00742 3.67812,1.7393 5.617,2.331c1.52788,0.46627 6.78754,0.7155 8.135,0.873c0.9972,0.11656 1.97784,0.347 2.969,0.507c0.77027,0.12434 1.53864,0.42366 2.315,0.346c2.22458,-0.22253 4.39682,-0.81336 6.592,-1.237c0.29573,-0.05707 0.67455,-0.42524 0.88,-0.205c0.72083,0.77273 -2.52538,0.65871 -1.456,1.323c0.50512,0.31378 1.21556,0.00371 1.772,-0.206c0.81773,-0.30819 2.75936,-1.64958 3.135,-2.593c0.13187,-0.3312 -0.58581,0.41762 -0.916,0.552c-0.30876,0.12566 -0.64543,0.26093 -0.976,0.218c-1.1366,-0.14761 -2.76952,-1.01632 -3.533,-1.805c-0.29739,-0.3072 -0.74173,-0.80804 -0.519,-1.173c0.2634,-0.4316 0.9625,-0.39357 1.468,-0.382c1.1823,0.02706 2.33752,0.36626 3.513,0.496c1.83941,0.20302 3.68375,0.64238 5.529,0.502c0.50011,-0.03805 -0.92627,-0.44994 -1.257,-0.827c-0.99187,-1.13081 4.10462,0.61472 1.461,-0.738c-0.70044,-0.35841 -1.5671,-0.14331 -2.351,-0.211c-0.71378,-0.06164 -2.40181,0.49067 -2.142,-0.177c0.3167,-0.81387 1.68959,-0.45354 2.507,-0.761c0.68406,-0.2573 1.43626,-0.44741 1.986,-0.929c0.19732,-0.17286 -0.51597,-0.16561 -0.776,-0.131c-2.21254,0.29445 -4.39037,1.40677 -6.603,1.113c-0.66508,-0.0883 -0.4882,-1.43574 -0.138,-2.008c0.15598,-0.25488 2.88675,-0.15479 3.015,-0.108c0.15814,0.05769 -0.01568,0.3374 0,0.505c0.0105,0.11222 -0.02895,0.36456 0.078,0.329c0.55213,-0.18358 0.99588,-0.60524 1.519,-0.86c0.65802,-0.32045 1.31265,-0.6713 2.019,-0.863c1.0039,-0.27245 2.03794,-0.4711 3.077,-0.52c5.6291,-0.26489 11.61848,-1.17688 13.48,7.098c0.41179,1.83051 -2.24242,3.55464 -4.093,3.864c-10.59128,1.77052 -21.40205,2.27193 -32.14,2.193c-2.70435,-0.01988 -5.12284,-1.74234 -7.723,-2.486c-0.36245,-0.10366 -0.75327,-0.03235 -1.13,-0.046c-1.04894,-0.03801 -2.11112,0.06034 -3.147,-0.109c-1.55743,-0.25461 -3.04526,-0.83808 -4.591,-1.156c-0.73752,-0.15169 -2.94667,-0.5231 -2.24499,-0.25c4.18886,1.63031 8.75524,2.68704 13.13399,3.74c1.89893,0.45664 3.75024,1.27672 5.702,1.348c7.36792,0.2691 14.76404,0.22237 22.116,-0.332c3.69963,-0.27897 7.61743,-0.46646 10.919,-2.159c2.15268,-1.10357 3.80428,-3.39649 4.46,-5.725c0.35063,-1.2451 -2.22837,-3.64871 -2.419,-3.738c-3.15434,-1.47746 -6.18241,-3.29413 -9.503,-4.346c-1.86784,-0.59168 -3.90671,-0.31136 -5.855,-0.519c-1.35213,-0.14411 -2.95597,0.27961 -4.044,-0.536c-1.77436,-1.3301 -3.27183,-3.27148 -3.88,-5.404c-0.87643,-3.07315 -0.26802,-6.38576 -0.393,-9.579c-0.13302,-3.39844 -0.2718,-6.79671 -0.381,-10.196c-0.21647,-6.73872 -0.51226,-13.47613 -0.596,-20.2178c-0.05714,-4.60005 0.14552,-7.50072 1.389,-11.842c0.09814,-0.34263 0.41337,-0.58199 0.646,-0.852c0.27853,-0.32329 0.60873,-0.59978 0.885,-0.925c0.1783,-0.20989 0.27765,-0.48391 0.475,-0.676c0.47116,-0.45862 0.92502,-0.97379 1.516,-1.262c0.54035,-0.26352 1.24376,-0.05215 1.771,-0.341c0.18186,-0.09963 -0.54173,-0.14011 -0.517,-0.346c0.05143,-0.42806 0.36917,-0.80599 0.69,-1.094c1.06065,-0.95218 2.27103,-1.72307 3.407,-2.584c0.66203,-0.50174 1.34028,-0.98268 1.987,-1.504c0.12021,-0.09691 0.34479,-0.19604 0.308,-0.346c-0.04691,-0.19122 -0.4167,-0.1599 -0.478,-0.347c-0.76292,-2.32859 -0.03338,-2.20747 2.059,-3.75c0.56882,-0.41934 2.13687,-1.72364 1.816,-1.094c-0.64858,1.27271 -1.85683,2.17615 -2.877,3.176c-0.29329,0.28744 -1.039,0.25134 -1.039,0.662c0,0.35457 0.72593,-0.06153 1.039,-0.228c5.64064,-2.99934 5.31493,-3.63769 9.865,-10.343c0.6101,-0.89909 1.28743,-1.85784 1.414,-2.937c0.3955,-3.37214 0.41528,-6.80218 0.125,-10.185c-0.20112,-2.34379 -0.93871,-4.61526 -1.589,-6.876c-0.1842,-0.64039 -0.78596,-1.12783 -0.902,-1.784c-0.66143,-3.74028 -1.03938,-7.5271 -1.413,-11.307c-0.1791,-1.81199 0.99762,-6.78883 -0.244,-5.457c-1.50648,1.61593 -0.92279,4.37307 -0.802,6.579c0.22607,4.12859 1.20089,8.18198 1.834,12.268c0.75357,4.86342 2.40927,9.65925 2.326,14.58c-0.01535,0.90694 -1.73958,0.52051 -2.587,0.844c-0.64729,0.24709 -1.21426,0.71201 -1.89,0.865c-0.31717,0.07181 -0.62939,-0.16757 -0.95,-0.222c-0.44809,-0.07608 -0.90172,-0.22303 -1.353,-0.169c-0.78064,0.09347 -1.88536,1.284 -2.28,0.604c-0.38588,-0.66492 1.51905,-0.74514 1.778,-1.469c0.13447,-0.3759 -0.64427,-0.64669 -1.04,-0.594c-0.90434,0.12041 -1.62244,0.90453 -2.52,1.068c-0.28726,0.05232 -0.45318,-0.40242 -0.736,-0.475c-1.15689,-0.2969 -1.41402,0.23836 -2.46,0.704c-0.45354,0.2019 -0.93648,0.33109 -1.396,0.519c-0.37735,0.15431 -1.16365,0.91152 -1.113,0.507c0.08874,-0.70878 0.86836,-1.1356 1.266,-1.729c0.60093,-0.89678 0.96873,-1.97163 1.728,-2.739c1.83028,-1.8498 5.14482,-2.48627 7.258,-3.522c0.264,-0.12939 -0.59654,-0.07538 -0.882,-0.005c-2.32295,0.57269 -4.5986,1.32452 -6.914,1.927c-2.39602,0.62346 -3.09153,0.5715 -5.649,0.937c-0.65435,0.09352 -1.29674,0.28872 -1.957,0.32c-6.56385,0.31095 -13.13463,0.95834 -19.701,0.706c-0.83108,-0.03194 -2.32854,-0.23097 -3.57722,-0.50269c8.50707,2.95432 10.95856,1.61102 23.47422,0.59969c2.06645,-0.16698 4.06674,-0.87921 6.135,-1.022c0.41138,-0.0284 0.93988,0.15104 1.122,0.521c0.05954,0.12096 -0.74045,0.99298 -0.949,1.072c-1.64634,0.62382 -3.24396,1.61974 -5.003,1.693c-6.65412,0.27712 -13.31819,-0.30538 -19.969,-0.653c-0.97382,-0.0509 -1.91902,-0.34858 -2.875,-0.541c-0.60755,-0.12229 -1.19784,-0.34658 -1.815,-0.403c-0.17562,-0.01606 -0.53161,0.01992 -0.493,0.192c0.0533,0.23758 0.40258,0.27746 0.622,0.383c0.94999,0.45693 2.07152,0.74258 3.09,0.897c1.7422,0.26415 9.37958,0.9601 10.37,1.069c1.18436,0.13022 4.72622,0.31758 3.544,0.466c-3.7524,0.4711 -7.56214,0.7868 -11.334,0.512c-1.7469,-0.12727 -3.34288,-1.05671 -4.972,-1.7c-0.14709,-0.05808 -0.1986,-0.50744 -0.288,-0.377c-0.20531,0.29957 -0.05086,0.73712 -0.189,1.073c-0.12884,0.31329 -0.27086,0.93379 -0.592,0.826c-0.86751,-0.29119 -1.42483,-1.14883 -2.125,-1.738c-1.76426,-1.48457 -3.01013,-4.01543 -5.26799,-4.483c-1.09529,-0.22682 -1.38153,2.06386 -1.14,3.156c0.47995,2.17025 2.43102,3.77608 3.13899,5.883c0.16373,0.48726 -1.03424,-0.29905 -1.38799,-0.672c-1.12565,-1.18674 -2.22917,-2.45017 -2.961,-3.913c-0.48116,-0.96179 -0.31226,-2.13247 -0.584,-3.173c-0.1036,-0.39669 -0.35031,-0.74146 -0.534,-1.108c-0.10637,-0.21225 -0.1042,-0.5767 -0.336,-0.628c-0.37226,-0.08238 -1.14263,-0.06899 -1.101,0.31c0.21279,1.93706 0.64867,3.8383 1.13252,5.73071c0.18082,0.13654 0.53293,0.67314 0.93148,1.44729c0.574,1.113 0.96,2.106 0.855,2.209zM5.09951,54.2512c0.00304,-0.10717 0.04938,-0.12405 0.12852,-0.06429c0.12291,0.4807 0.24891,0.96084 0.37514,1.44084c-0.2937,-0.48075 -0.51165,-1.06602 -0.50366,-1.37656zM23.4275,48.8152c0.081,-0.071 1.701,-0.226 3.601,-0.342c2.205,-0.134 3.206,-0.094 2.766,0.107c-0.65,0.299 -6.678,0.52 -6.367,0.235zM14.7605,49.0492c2.78413,-1.10542 5.98941,0.14237 8.984,0.218c5.04308,0.12737 10.08439,0.36342 15.129,0.391c1.20661,0.0066 -2.40474,-0.20415 -3.605,-0.328c-0.95461,-0.0985 -1.9216,-0.13341 -2.859,-0.339c-0.32942,-0.07225 -0.6627,-0.23295 -0.889,-0.483c-0.07504,-0.08291 0.14937,-0.22829 0.26,-0.212c0.34062,0.05014 0.63366,0.27002 0.956,0.391c0.08333,0.03128 0.17277,0.08708 0.259,0.065c0.32777,-0.08392 0.60796,-0.33358 0.944,-0.373c3.6769,-0.43135 7.36527,-0.77166 11.058,-1.035c0.23516,-0.01677 0.46414,0.10095 0.679,0.198c0.20713,0.09356 0.34816,0.3425 0.574,0.368c0.10963,0.01238 0.07598,-0.22626 0.17,-0.284c0.74019,-0.45455 5.31311,-2.31849 4.629,-2.755c-6.55335,-4.18149 -18.49022,-4.03234 -25.577,-4.219c-1.21777,-0.03208 2.42453,0.24743 3.63,0.423c5.24681,0.76418 10.49569,1.52005 15.725,2.396c0.14122,0.02366 0.18778,0.22725 0.316,0.291c1.12245,0.55807 4.61654,1.19555 3.419,1.566c-8.97334,2.77582 -27.33486,1.60344 -35.184,1.176c-0.43883,-0.0239 0.80433,-0.35484 1.212,-0.519c0.46418,-0.18691 1.90131,-0.48837 1.403,-0.534c-0.93236,-0.08538 -1.84294,0.42744 -2.779,0.408c-1.81254,-0.03764 -3.61009,-0.34503 -5.40799,-0.578c-0.2255,-0.02922 -0.81631,-0.36207 -0.65,-0.207c0.81941,0.76405 1.68244,1.50177 2.648,2.07c0.5017,0.29525 1.12884,0.28962 1.67999,0.477c0.67182,0.2284 1.38285,0.39361 1.985,0.769c0.39831,0.24831 0.49761,0.8843 0.936,1.052c0.01737,0.00664 0.03471,0.01327 0.05203,0.01988c-0.10609,-0.14081 -0.02934,-0.28094 0.30297,-0.41288zM14.45753,49.46208c0.19971,0.26506 1.04727,0.53254 2.05775,0.75243c-0.64836,-0.22516 -1.3319,-0.47529 -2.05775,-0.75243z" fill="#9da8d4" fill-opacity="1"></path></g></g></g></svg>