<svg id="Layer_1" data-name="Layer 1" xmlns="http://www.w3.org/2000/svg" viewBox="0 0 696.24 27.62"><defs><style>.cls-1{fill:#00245d;}</style></defs><path class="cls-1" d="M30,37.71a8.47,8.47,0,0,1,4.1,1.87A5.81,5.81,0,0,1,36,44a6.53,6.53,0,0,1-1.24,3.77,7.09,7.09,0,0,1-3.4,2.62,19.75,19.75,0,0,1-6.6.83H12.32v-.71h1a2.61,2.61,0,0,0,2.34-1.05,6.12,6.12,0,0,0,.45-2.92v-17c0-1.65-.19-2.69-.56-3.12a2.82,2.82,0,0,0-2.23-.86h-1v-.7H23.67a22.47,22.47,0,0,1,5.09.46,8.17,8.17,0,0,1,4.44,2.48,6.06,6.06,0,0,1,1.53,4.08,5.65,5.65,0,0,1-1.2,3.54A7,7,0,0,1,30,37.71ZM19.81,36.65a13.81,13.81,0,0,0,1.65.2c.61,0,1.29.07,2,.07a11.39,11.39,0,0,0,4.27-.61,4.53,4.53,0,0,0,2.17-1.87,5.3,5.3,0,0,0,.75-2.76,5.05,5.05,0,0,0-1.88-3.94,8.14,8.14,0,0,0-5.49-1.63,13,13,0,0,0-3.49.43Zm0,12.63a19.89,19.89,0,0,0,4.48.52,8.12,8.12,0,0,0,5.39-1.58,5,5,0,0,0,1.86-3.92,5.59,5.59,0,0,0-.87-3,5.87,5.87,0,0,0-2.76-2.24,11.79,11.79,0,0,0-4.66-.81c-.8,0-1.49,0-2.06,0a10.46,10.46,0,0,0-1.38.13Z" transform="translate(-12.32 -24.13)"/><path class="cls-1" d="M64.53,42.39H54.27L52.5,46.51a6.63,6.63,0,0,0-.66,2.3,1.33,1.33,0,0,0,.57,1.06,5,5,0,0,0,2.48.59v.71h-8.3v-.71a4.28,4.28,0,0,0,2.13-.76,12,12,0,0,0,2.2-3.8l9.31-21.65h.65l9.18,21.89a10.1,10.1,0,0,0,2,3.44,4.12,4.12,0,0,0,2.52.88v.71H64.2v-.71a3.87,3.87,0,0,0,2.12-.52,1.36,1.36,0,0,0,.56-1.09,8,8,0,0,0-.78-2.71Zm-.6-1.45L59.48,30.3,54.9,40.94Z" transform="translate(-12.32 -24.13)"/><path class="cls-1" d="M83.86,51.17v-.71h1a2.57,2.57,0,0,0,2.35-1.07,6.11,6.11,0,0,0,.43-2.9v-17q0-2.49-.54-3.12a2.83,2.83,0,0,0-2.24-.86h-1v-.7h10.7c3.92,0,6.91.44,9,1.34a10.66,10.66,0,0,1,4.94,4.46,13.81,13.81,0,0,1,1.87,7.23A13.2,13.2,0,0,1,107,47.05q-3.75,4.13-11.4,4.12Zm7.5-1.91a19.82,19.82,0,0,0,4.12.54,9.75,9.75,0,0,0,7.45-3.16q3-3.16,3-8.58c0-3.64-1-6.5-3-8.6a10,10,0,0,0-7.6-3.14,16.08,16.08,0,0,0-4,.56Z" transform="translate(-12.32 -24.13)"/><path class="cls-1" d="M146.92,51.17h-7l-8.94-12.3c-.65,0-1.17,0-1.58,0h-.53l-.59,0v7.62c0,1.67.18,2.71.54,3.11a2.71,2.71,0,0,0,2.2.86h1v.71H120.73v-.71h1a2.61,2.61,0,0,0,2.37-1.09,6.28,6.28,0,0,0,.41-2.88v-17c0-1.68-.18-2.71-.54-3.12a2.84,2.84,0,0,0-2.24-.86h-1v-.7h9.57a22.74,22.74,0,0,1,6.18.61,7.14,7.14,0,0,1,3.37,2.25,5.9,5.9,0,0,1,1.38,3.92,6.15,6.15,0,0,1-1.58,4.22,8.88,8.88,0,0,1-4.89,2.52l5.46,7.54a13.45,13.45,0,0,0,3.2,3.48,8,8,0,0,0,3.5,1.09ZM128.23,37.62h1.07A8.37,8.37,0,0,0,134.91,36a5.23,5.23,0,0,0,1.89-4.15,5.25,5.25,0,0,0-5.56-5.54,16.33,16.33,0,0,0-3,.37Z" transform="translate(-12.32 -24.13)"/><path class="cls-1" d="M173.71,25.53v-.7H183v.7h-1a2.64,2.64,0,0,0-2.37,1.3,6,6,0,0,0-.41,2.8V40.3a18.64,18.64,0,0,1-.79,6.14,7.68,7.68,0,0,1-3.08,3.75,11,11,0,0,1-6.26,1.56,11.87,11.87,0,0,1-6.55-1.49,8.08,8.08,0,0,1-3.16-4,22.07,22.07,0,0,1-.62-6.48V29.51a5.3,5.3,0,0,0-.67-3.22,2.71,2.71,0,0,0-2.16-.76h-1v-.7h11.35v.7h-1a2.59,2.59,0,0,0-2.32,1,5.9,5.9,0,0,0-.48,2.94V41a24.88,24.88,0,0,0,.28,3.51,7.47,7.47,0,0,0,1,3.08,5.41,5.41,0,0,0,2.13,1.82,7.39,7.39,0,0,0,3.42.72A9.48,9.48,0,0,0,173.94,49a6,6,0,0,0,2.79-2.88,16.6,16.6,0,0,0,.75-5.94V29.51q0-2.49-.54-3.12a2.83,2.83,0,0,0-2.24-.86Z" transform="translate(-12.32 -24.13)"/><path class="cls-1" d="M214.6,24.83l.29,6.18h-.74a7.5,7.5,0,0,0-.58-2.33A3.92,3.92,0,0,0,212,27a5.53,5.53,0,0,0-2.63-.54h-3.72V46.61c0,1.63.18,2.64.53,3a2.93,2.93,0,0,0,2.28.81h.92v.71H198.11v-.71h.95a2.7,2.7,0,0,0,2.39-1,5.82,5.82,0,0,0,.43-2.84V26.48h-3.17a8.88,8.88,0,0,0-2.62.27,3.65,3.65,0,0,0-1.73,1.42,5.72,5.72,0,0,0-.85,2.84h-.74l.29-6.18Z" transform="translate(-12.32 -24.13)"/><path class="cls-1" d="M247,24.83l.29,6.18h-.74a7.5,7.5,0,0,0-.58-2.33A3.86,3.86,0,0,0,244.4,27a5.5,5.5,0,0,0-2.63-.54h-3.72V46.61c0,1.63.18,2.64.53,3a2.93,2.93,0,0,0,2.28.81h.92v.71H230.55v-.71h.95a2.7,2.7,0,0,0,2.39-1,5.82,5.82,0,0,0,.43-2.84V26.48h-3.16a9,9,0,0,0-2.63.27,3.65,3.65,0,0,0-1.73,1.42A5.72,5.72,0,0,0,226,31h-.74l.29-6.18Z" transform="translate(-12.32 -24.13)"/><path class="cls-1" d="M261.06,34.31V33.4a8.9,8.9,0,0,0,2.75-2.21,3,3,0,0,0,.51-1.77,1.54,1.54,0,0,0-.21-.89.68.68,0,0,0-.51-.29,1.67,1.67,0,0,0-.57.14,2.94,2.94,0,0,1-.85.17,2.09,2.09,0,0,1-1.4-3.56,2.75,2.75,0,0,1,1.94-.74,3.14,3.14,0,0,1,2.34,1.09,3.86,3.86,0,0,1,1,2.73,6.05,6.05,0,0,1-1.72,4.18A8.47,8.47,0,0,1,261.06,34.31Z" transform="translate(-12.32 -24.13)"/><path class="cls-1" d="M296.07,24.25v9.11h-.7a11.49,11.49,0,0,0-1.26-4.17,6.51,6.51,0,0,0-2.58-2.46,7.1,7.1,0,0,0-3.46-.91,4.73,4.73,0,0,0-3.35,1.23,3.73,3.73,0,0,0-1.32,2.8,3.3,3.3,0,0,0,.83,2.18q1.22,1.45,5.74,3.88a37.73,37.73,0,0,1,5,3,7.56,7.56,0,0,1,2.07,2.49,6.64,6.64,0,0,1,.72,3,6.81,6.81,0,0,1-2.32,5.15,8.42,8.42,0,0,1-6,2.16,12.26,12.26,0,0,1-2.16-.18,22.21,22.21,0,0,1-2.49-.73,11.2,11.2,0,0,0-2.4-.62,1,1,0,0,0-.77.3,2.38,2.38,0,0,0-.42,1.23h-.7v-9h.7A12.67,12.67,0,0,0,282.64,47a6.62,6.62,0,0,0,2.62,2.34,8.12,8.12,0,0,0,3.86.93A5.51,5.51,0,0,0,293,48.94a4,4,0,0,0,1.41-3,4.15,4.15,0,0,0-.53-1.95,5.79,5.79,0,0,0-1.66-1.84A47.94,47.94,0,0,0,288,39.65a38.86,38.86,0,0,1-4.82-3A8,8,0,0,1,281,34.16a6.16,6.16,0,0,1-.74-3,6.49,6.49,0,0,1,2.18-4.88,7.82,7.82,0,0,1,5.55-2,11,11,0,0,1,4.46,1,4.75,4.75,0,0,0,1.54.49,1.12,1.12,0,0,0,.83-.31,2.45,2.45,0,0,0,.52-1.22Z" transform="translate(-12.32 -24.13)"/><path class="cls-1" d="M334.36,38.83v7.66c0,1.67.19,2.71.55,3.11a2.74,2.74,0,0,0,2.22.86h1v.71H326.87v-.71h1a2.65,2.65,0,0,0,2.39-1.09,6.52,6.52,0,0,0,.39-2.88v-17c0-1.68-.18-2.71-.53-3.12a2.84,2.84,0,0,0-2.25-.86h-1v-.7h9.64a17.21,17.21,0,0,1,5.57.72A7.72,7.72,0,0,1,345.52,28a6.32,6.32,0,0,1,1.4,4.09,6.92,6.92,0,0,1-2.13,5.25,8.37,8.37,0,0,1-6,2,17,17,0,0,1-2.06-.13C336,39.14,335.21,39,334.36,38.83Zm0-1.1c.69.13,1.3.23,1.83.29a10.46,10.46,0,0,0,1.35.1A4.61,4.61,0,0,0,341,36.56a5.7,5.7,0,0,0,1.46-4.06,7.31,7.31,0,0,0-.69-3.17,4.84,4.84,0,0,0-2-2.2,5.72,5.72,0,0,0-2.91-.73,11.27,11.27,0,0,0-2.54.37Z" transform="translate(-12.32 -24.13)"/><path class="cls-1" d="M371.07,42.39H360.81L359,46.51a6.63,6.63,0,0,0-.66,2.3,1.33,1.33,0,0,0,.57,1.06,4.9,4.9,0,0,0,2.47.59v.71h-8.3v-.71a4.37,4.37,0,0,0,2.14-.76,11.86,11.86,0,0,0,2.19-3.8l9.31-21.65h.66l9.18,21.89a10.1,10.1,0,0,0,2,3.44,4.08,4.08,0,0,0,2.51.88v.71H370.73v-.71a3.88,3.88,0,0,0,2.13-.52,1.35,1.35,0,0,0,.55-1.09,8,8,0,0,0-.78-2.71Zm-.61-1.45L366,30.3l-4.58,10.64Z" transform="translate(-12.32 -24.13)"/><path class="cls-1" d="M412.51,43.92l.63.14-2.24,7.11H390.52v-.71h1a2.62,2.62,0,0,0,2.38-1.09,6.28,6.28,0,0,0,.41-2.88v-17q0-2.49-.54-3.12a2.85,2.85,0,0,0-2.25-.86h-1v-.7h11.89v.7a7.31,7.31,0,0,0-2.93.38,2.34,2.34,0,0,0-1.15,1,8.31,8.31,0,0,0-.31,2.95V46.49a5.35,5.35,0,0,0,.31,2.22,1.33,1.33,0,0,0,.72.61,12.64,12.64,0,0,0,3,.19H404a14.32,14.32,0,0,0,4.26-.44,5.53,5.53,0,0,0,2.23-1.58A12.53,12.53,0,0,0,412.51,43.92Z" transform="translate(-12.32 -24.13)"/><path class="cls-1" d="M440.38,42.39H430.12l-1.77,4.12a6.63,6.63,0,0,0-.66,2.3,1.33,1.33,0,0,0,.57,1.06,4.9,4.9,0,0,0,2.47.59v.71h-8.3v-.71a4.37,4.37,0,0,0,2.14-.76,11.86,11.86,0,0,0,2.19-3.8l9.31-21.65h.66l9.18,21.89a10.1,10.1,0,0,0,2,3.44,4.08,4.08,0,0,0,2.51.88v.71H440v-.71a3.88,3.88,0,0,0,2.13-.52,1.38,1.38,0,0,0,.55-1.09,8,8,0,0,0-.78-2.71Zm-.61-1.45L435.32,30.3l-4.58,10.64Z" transform="translate(-12.32 -24.13)"/><path class="cls-1" d="M482.9,24.25l.62,8.94h-.62a11.3,11.3,0,0,0-3.42-5.8,8.3,8.3,0,0,0-5.35-1.78,8.73,8.73,0,0,0-4.72,1.33,8.85,8.85,0,0,0-3.32,4.25,19,19,0,0,0-1.21,7.24,15.28,15.28,0,0,0,1.15,6.2,8.55,8.55,0,0,0,3.44,4,9.91,9.91,0,0,0,5.25,1.4,9,9,0,0,0,4.52-1.1,14.89,14.89,0,0,0,4.3-4.37l.6.38a13.86,13.86,0,0,1-4.61,5.15,11.67,11.67,0,0,1-6.27,1.64,11.87,11.87,0,0,1-10.13-4.85,13.85,13.85,0,0,1-2.68-8.5,15.16,15.16,0,0,1,1.76-7.23,12.78,12.78,0,0,1,4.85-5.11,13,13,0,0,1,6.74-1.81,12.31,12.31,0,0,1,5.61,1.39,3,3,0,0,0,1.16.43,1.26,1.26,0,0,0,.91-.37,3,3,0,0,0,.72-1.45Z" transform="translate(-12.32 -24.13)"/><path class="cls-1" d="M502,26.27V36.63h5.76a4.73,4.73,0,0,0,3-.68,4.31,4.31,0,0,0,1.13-3.13h.7V42h-.7a10.12,10.12,0,0,0-.54-2.47,2.5,2.5,0,0,0-1.15-1.07,5.84,5.84,0,0,0-2.45-.39H502v8.68a7.69,7.69,0,0,0,.16,2.13,1.18,1.18,0,0,0,.54.61,3.28,3.28,0,0,0,1.47.22h4.45a11.86,11.86,0,0,0,3.23-.31,4.78,4.78,0,0,0,1.94-1.22,14.71,14.71,0,0,0,2.46-3.61H517l-2.27,6.59H494.5v-.71h.94A3.63,3.63,0,0,0,497.2,50a1.63,1.63,0,0,0,.85-.94,9.39,9.39,0,0,0,.22-2.58V29.42c0-1.68-.17-2.72-.5-3.11a3,3,0,0,0-2.33-.78h-.94v-.7h20.26l.29,5.79h-.75a9.09,9.09,0,0,0-.9-2.86,3.06,3.06,0,0,0-1.46-1.19,8.54,8.54,0,0,0-2.73-.3Z" transform="translate(-12.32 -24.13)"/><path class="cls-1" d="M551.09,36.78h12.08V29.34a8.55,8.55,0,0,0-.25-2.62,1.74,1.74,0,0,0-.81-.83,3.59,3.59,0,0,0-1.74-.46h-.92v-.71h11.12v.71h-.92a3.72,3.72,0,0,0-1.75.44,1.68,1.68,0,0,0-.83.93,9.19,9.19,0,0,0-.22,2.54V46.12a8.47,8.47,0,0,0,.25,2.61,1.74,1.74,0,0,0,.79.83,3.7,3.7,0,0,0,1.76.46h.92v.7H559.45V50h.92a2.78,2.78,0,0,0,2.32-.94,5.66,5.66,0,0,0,.48-3V38.2H551.09v7.92a8.47,8.47,0,0,0,.25,2.61,1.67,1.67,0,0,0,.8.83,3.6,3.6,0,0,0,1.75.46h.94v.7H543.69V50h.92a2.81,2.81,0,0,0,2.34-.94,6,6,0,0,0,.46-3V29.34a8.89,8.89,0,0,0-.25-2.62,1.74,1.74,0,0,0-.79-.83,3.7,3.7,0,0,0-1.76-.46h-.92v-.71h11.14v.71h-.94a3.69,3.69,0,0,0-1.75.44,1.7,1.7,0,0,0-.82.93,8.69,8.69,0,0,0-.23,2.54Z" transform="translate(-12.32 -24.13)"/><path class="cls-1" d="M595.16,24.13A11.78,11.78,0,0,1,603.93,28a13.28,13.28,0,0,1,3.72,9.6,13.69,13.69,0,0,1-3.74,9.84,12.5,12.5,0,0,1-18.08.09,13.69,13.69,0,0,1-3.65-9.87,13.18,13.18,0,0,1,4.22-10.11A12.44,12.44,0,0,1,595.16,24.13Zm-.36,1.4a6.84,6.84,0,0,0-5.6,2.59q-2.62,3.22-2.63,9.43,0,6.38,2.73,9.8A6.71,6.71,0,0,0,594.82,50a7.53,7.53,0,0,0,6-2.86c1.59-1.9,2.38-4.91,2.38-9q0-6.68-2.62-10A7.09,7.09,0,0,0,594.8,25.53Z" transform="translate(-12.32 -24.13)"/><path class="cls-1" d="M641.31,24.72l.29,6.1h-.73a7.42,7.42,0,0,0-.58-2.3,3.86,3.86,0,0,0-1.58-1.64,5.56,5.56,0,0,0-2.6-.53h-3.66V46.22c0,1.6.17,2.59.52,3a2.85,2.85,0,0,0,2.24.81h.9v.7h-11V50H626a2.65,2.65,0,0,0,2.34-1,5.84,5.84,0,0,0,.42-2.8V26.35h-3.13a8.69,8.69,0,0,0-2.59.27,3.53,3.53,0,0,0-1.7,1.4,5.59,5.59,0,0,0-.85,2.8h-.73l.31-6.1Z" transform="translate(-12.32 -24.13)"/><path class="cls-1" d="M660.21,26.14V36.42h5.71a4.64,4.64,0,0,0,3-.67A4.27,4.27,0,0,0,670,32.64h.71v9H670a10,10,0,0,0-.53-2.43,2.43,2.43,0,0,0-1.13-1.06,5.91,5.91,0,0,0-2.42-.38h-5.71v8.57a8.15,8.15,0,0,0,.15,2.1,1.2,1.2,0,0,0,.54.6,3.33,3.33,0,0,0,1.45.22h4.41A12.21,12.21,0,0,0,670,49a4.73,4.73,0,0,0,1.91-1.21,14.57,14.57,0,0,0,2.44-3.58h.77l-2.25,6.51h-20V50h.92a3.59,3.59,0,0,0,1.75-.45,1.56,1.56,0,0,0,.83-.92,8.83,8.83,0,0,0,.22-2.51V29.25c0-1.65-.16-2.67-.5-3.05a3,3,0,0,0-2.3-.77h-.92v-.71h20l.29,5.7h-.75a8.91,8.91,0,0,0-.89-2.82A3.1,3.1,0,0,0,670,26.43a8.69,8.69,0,0,0-2.7-.29Z" transform="translate(-12.32 -24.13)"/><path class="cls-1" d="M707.92,43.53l.64.14-2.23,7H686.2V50h1a2.62,2.62,0,0,0,2.36-1.08,6.32,6.32,0,0,0,.4-2.84V29.33c0-1.63-.18-2.64-.54-3a2.79,2.79,0,0,0-2.22-.85h-1v-.71H698v.71a7.13,7.13,0,0,0-2.9.39,2.25,2.25,0,0,0-1.14,1,8.24,8.24,0,0,0-.31,2.94V46.1a5.22,5.22,0,0,0,.31,2.19,1.31,1.31,0,0,0,.71.59,12.08,12.08,0,0,0,3,.2h1.9a13.82,13.82,0,0,0,4.19-.44,5.54,5.54,0,0,0,2.21-1.57A12.88,12.88,0,0,0,707.92,43.53Z" transform="translate(-12.32 -24.13)"/></svg>