<?xml version="1.0" encoding="UTF-8" standalone="no"?>
<svg
   xmlns:dc="http://purl.org/dc/elements/1.1/"
   xmlns:cc="http://creativecommons.org/ns#"
   xmlns:rdf="http://www.w3.org/1999/02/22-rdf-syntax-ns#"
   xmlns:svg="http://www.w3.org/2000/svg"
   xmlns="http://www.w3.org/2000/svg"
   version="1.1"
   id="svg2"
   viewBox="0 0 54.234084 65.376458"
   height="18.450689mm"
   width="15.306064mm">
  <defs
     id="defs4" />
  <metadata
     id="metadata7">
    <rdf:RDF>
      <cc:Work
         rdf:about="">
        <dc:format>image/svg+xml</dc:format>
        <dc:type
           rdf:resource="http://purl.org/dc/dcmitype/StillImage" />
        <dc:title></dc:title>
      </cc:Work>
    </rdf:RDF>
  </metadata>
  <g
     transform="translate(-30.201381,-541.82898)"
     id="layer1">
    <path
       id="path4156"
       d="m 31.003731,580.68543 c 1.271943,-1.70428 3.436065,-2.36862 5.412369,-1.66146 0.345395,0.12359 4.118805,3.2749 8.385358,7.00292 4.266552,3.72802 7.847758,6.77822 7.958236,6.77822 0.110479,0 0.206906,-10.89498 0.214283,-24.21106 0.009,-16.28589 0.137996,-24.42125 0.39401,-24.8532 0.544871,-0.9193 2.503399,-1.91187 3.772498,-1.91187 1.351014,0 3.190788,0.98688 4.051765,2.17341 0.614388,0.84671 0.652997,2.31606 0.652997,24.85133 0,13.17327 0.05373,23.9514 0.119401,23.9514 0.06567,-10e-6 3.608398,-3.05137 7.872726,-6.78081 4.677266,-4.09059 8.173457,-6.89418 8.812285,-7.06658 3.503623,-0.94548 6.848184,2.30895 5.467055,5.31972 -0.257663,0.56169 -5.909734,5.51679 -13.623971,11.94396 L 57.309117,607.20544 44.162957,596.24548 C 36.932571,590.21751 30.8282,584.91176 30.597692,584.45494 c -0.641201,-1.27072 -0.503279,-2.55111 0.406039,-3.76951 z"
       style="fill:#0e1036;fill-opacity:1;stroke:none" />
  </g>
</svg>
