<svg xmlns="http://www.w3.org/2000/svg" width="28" height="29" viewBox="0 0 28 29"><defs><clipPath id="8f7ja"><path d="M0 2.74h28v25.587H0z"/></clipPath></defs><g><g><g><g><path fill="#0e0f38" d="M19.62.472v6.39c0 .26.209.471.467.471a.47.47 0 0 0 .466-.472V.472A.47.47 0 0 0 20.087 0a.47.47 0 0 0-.467.472"/></g><g><g/><g clip-path="url(#8f7ja)"><path fill="#0e0f38" d="M3.651 28.327C1.604 28.327 0 26.717 0 24.661V6.407C0 4.35 1.604 2.74 3.651 2.74h2.454a.47.47 0 0 1 .467.472.47.47 0 0 1-.467.472H3.651A2.691 2.691 0 0 0 .933 6.407v3.635h26.134V6.407a2.691 2.691 0 0 0-2.718-2.723h-2.454a.47.47 0 0 1-.467-.472.47.47 0 0 1 .467-.472h2.454C26.396 2.74 28 4.35 28 6.407V24.66c0 2.056-1.604 3.666-3.651 3.666zM.933 24.652a2.691 2.691 0 0 0 2.72 2.721h20.705a2.691 2.691 0 0 0 2.719-2.72V10.985H.933z"/></g></g><g><path fill="#0e0f38" d="M9.717 2.74a.47.47 0 0 0-.467.472c0 .26.209.472.467.472h8.57a.47.47 0 0 0 .468-.472.47.47 0 0 0-.467-.472z"/></g><g><path fill="#0e0f38" d="M7.44.472v6.39c0 .26.209.471.467.471a.47.47 0 0 0 .466-.472V.472A.47.47 0 0 0 7.907 0a.47.47 0 0 0-.467.472"/></g></g></g></g></svg>