<svg xmlns="http://www.w3.org/2000/svg" width="241" height="137" viewBox="0 0 241 137"><defs><clipPath id="sd3ya"><path d="M85.12.18h71.612v88.3H85.12z"/></clipPath><clipPath id="sd3yb"><path d="M230.47 105.46h10.389v12.304H230.47z"/></clipPath><clipPath id="sd3yc"><path d="M16.69 128.26h6.061v8.743H16.69z"/></clipPath><clipPath id="sd3yd"><path d="M33.24 135.02h2.223v1.977H33.24z"/></clipPath><clipPath id="sd3ye"><path d="M114.32 128.26h6.061v8.743h-6.061z"/></clipPath></defs><g><g><g><g/><g clip-path="url(#sd3ya)"><path fill="#0f1238" d="M124.507 66.855v5.406h1.79v5.406h-3.58v-18.02h1.79v1.802h1.79v5.406zm-10.737 0v5.406h1.795v5.406h-3.59v-18.02h1.795v1.802h1.795v5.406zm5.366 0v5.406h1.79v5.406h-3.58v-18.02h1.79v1.802h1.79v5.406zm16.112 0v5.406h1.79v5.406h-3.58v-18.02h1.79v1.802h1.79v5.406zm-14.322-63.07c-.989 0-1.79-.807-1.79-1.803 0-.995.801-1.802 1.79-1.802.99 0 1.79.807 1.79 1.802 0 .996-.8 1.803-1.79 1.803zm35.806 52.248H85.12l8.951-5.405 26.855-45.042 26.855 45.042zm-42.071-3.594h1.79v-5.406h-1.79zm3.579-14.426h1.79v-5.396h-1.79zm.001 14.426h1.79v-5.406h-1.79zm3.58-14.426h1.79v-5.396h-1.79zm.001 14.426h1.79v-5.406h-1.79zm3.58 0h1.79v-5.406h-1.79zm15.217 14.416v5.406h1.79v5.406h-3.58v-18.02h1.79v1.802h1.79v5.406zm-10.742 0v5.406h1.79v5.406h-3.58v-18.02h1.79v1.802h1.79v5.406zm8.058 14.416h8.95v7.208H94.968v-7.208h8.951v5.406h1.79v-5.406h10.742v5.406h1.79v-5.406h1.791v5.406h1.79v-5.406h1.791v5.406h1.79v-5.406h10.742v5.406h1.79zm8.055-19.822h1.79v5.406h-1.79v5.406h1.79v5.406h-3.58v-18.02h1.79zm-53.709 0h1.79v5.406h-1.79v5.406h1.79v5.406h-3.58v-18.02h1.79zm57.29-1.802h1.79v18.02h-1.79zm-51.919 7.208v5.406h1.79v5.406h-3.58v-18.02h1.79v1.802h1.79v5.406zm10.742 0v5.406h1.79v5.406h-3.58v-18.02h1.79v1.802h1.79v5.406zm-5.37 0v5.406h1.79v5.406h-3.581v-18.02h1.79v1.802h1.79v5.406z"/></g></g><g><path fill="#0f1238" d="M10.124 111.72c.584.544.876 1.209.876 1.994 0 .597-.193 1.168-.578 1.714-.384.546-.912.945-1.581 1.196-.671.251-1.694.376-3.071.376H0v-.32h.456c.506 0 .87-.161 1.091-.482.137-.209.206-.652.206-1.33v-7.736c0-.75-.087-1.222-.26-1.418-.232-.262-.578-.393-1.037-.393H0V105h5.278c.985 0 1.774.07 2.37.213.9.211 1.588.587 2.062 1.127.474.539.712 1.159.712 1.86 0 .602-.186 1.14-.558 1.613-.372.476-.92.827-1.645 1.057.848.177 1.483.461 1.905.85zm-6.637-1.334c.222.04.475.072.76.093.286.02.6.03.943.03.877 0 1.536-.092 1.978-.278.441-.185.778-.47 1.01-.852.23-.384.346-.802.346-1.256 0-.702-.291-1.3-.873-1.795-.582-.495-1.43-.743-2.545-.743-.6 0-1.14.065-1.62.194zm0 5.752c.702.16 1.396.24 2.08.24 1.096 0 1.933-.241 2.508-.723.576-.48.864-1.076.864-1.785 0-.466-.136-.915-.405-1.346-.271-.431-.698-.771-1.282-1.02-.584-.248-1.306-.372-2.167-.372-.373 0-.692.006-.957.017a4.985 4.985 0 0 0-.641.063z"/></g><g><path fill="#0f1238" d="M24.333 113.76h-4.764l-.823 1.99c-.204.496-.307.866-.307 1.11 0 .195.089.366.266.513.178.148.56.243 1.15.287v.34H16v-.34c.51-.094.841-.216.991-.367.307-.301.647-.914 1.02-1.836L22.333 105h.302l4.264 10.572c.342.853.653 1.407.933 1.66.28.254.668.397 1.167.428v.34h-4.825v-.34c.487-.025.816-.11.988-.254a.667.667 0 0 0 .257-.527c0-.277-.12-.713-.36-1.31zm-.281-.7l-2.066-5.138-2.128 5.138z"/></g><g><path fill="#0f1238" d="M34 117v-.32h.446c.503 0 .86-.164 1.07-.49.128-.197.192-.637.192-1.322v-7.736c0-.755-.081-1.228-.245-1.418-.228-.262-.566-.393-1.017-.393H34V105h4.849c1.78 0 3.134.203 4.063.61.928.407 1.675 1.086 2.24 2.036.565.95.848 2.047.848 3.292 0 1.67-.504 3.066-1.511 4.186-1.13 1.251-2.852 1.876-5.166 1.876zm3.399-.87c.743.165 1.366.247 1.869.247 1.357 0 2.484-.48 3.379-1.44.896-.96 1.343-2.264 1.343-3.909 0-1.655-.447-2.961-1.343-3.917-.895-.954-2.045-1.432-3.449-1.432-.527 0-1.127.085-1.8.257z"/></g><g><path fill="#0f1238" d="M65 117h-3.23l-4.096-5.604c-.297.012-.538.018-.724.018a7.076 7.076 0 0 1-.515-.018v3.471c0 .762.083 1.235.248 1.42.224.261.56.392 1.01.392h.47V117H53v-.32h.451c.508 0 .871-.167 1.09-.5.124-.185.186-.622.186-1.313v-7.735c0-.76-.083-1.234-.248-1.418-.23-.262-.573-.393-1.028-.393H53V105h4.386c1.28 0 2.222.094 2.83.279a3.24 3.24 0 0 1 1.544 1.027c.424.499.636 1.093.636 1.784a2.8 2.8 0 0 1-.725 1.922c-.483.542-1.23.927-2.244 1.15l2.503 3.434c.57.796 1.059 1.324 1.468 1.585.41.261.944.427 1.602.498zm-8.565-6.17c.111 0 .208.002.29.005.081.003.149.005.202.005 1.133 0 1.988-.248 2.564-.743.575-.494.863-1.125.863-1.891 0-.747-.232-1.356-.697-1.824-.464-.468-1.08-.703-1.846-.703-.338 0-.797.057-1.376.17z"/></g><g><path fill="#0f1238" d="M77.718 105.34V105H82v.34h-.457c-.478 0-.845.21-1.102.628-.125.195-.189.645-.189 1.352v5.152c0 1.275-.12 2.263-.364 2.966-.243.702-.72 1.306-1.43 1.808-.712.502-1.679.754-2.904.754-1.331 0-2.342-.24-3.032-.72a3.881 3.881 0 0 1-1.467-1.937c-.192-.555-.288-1.597-.288-3.124v-4.96c0-.787-.103-1.304-.309-1.55-.206-.246-.54-.37-1-.37H69V105h5.262v.34h-.467c-.502 0-.86.167-1.076.501-.149.227-.224.7-.224 1.419v5.532c0 .493.044 1.057.13 1.694.088.636.246 1.132.475 1.488.228.356.559.65.989.88.43.23.958.346 1.585.346.8 0 1.516-.18 2.148-.543.632-.361 1.064-.825 1.296-1.39.231-.564.347-1.52.347-2.868v-5.14c0-.8-.083-1.3-.25-1.503-.233-.277-.58-.416-1.04-.416z"/></g><g><path fill="#0f1238" d="M96.869 105l.131 2.816h-.334c-.064-.496-.153-.85-.263-1.062a1.772 1.772 0 0 0-.726-.756c-.302-.162-.7-.243-1.193-.243h-1.679v9.17c0 .739.08 1.199.238 1.382.224.248.568.372 1.033.372h.414V117h-5.074v-.321h.426c.508 0 .87-.154 1.082-.46.13-.19.196-.621.196-1.295v-9.17h-1.432c-.557 0-.952.042-1.186.124-.305.113-.565.328-.782.646-.217.319-.345.75-.386 1.292H87l.131-2.816z"/></g><g><path fill="#0f1238" d="M112.869 105l.131 2.816h-.334c-.064-.496-.153-.85-.263-1.062a1.772 1.772 0 0 0-.726-.756c-.302-.162-.7-.243-1.192-.243h-1.68v9.17c0 .739.08 1.199.238 1.382.224.248.568.372 1.033.372h.414V117h-5.074v-.321h.426c.509 0 .87-.154 1.083-.46.13-.19.195-.621.195-1.295v-9.17h-1.432c-.557 0-.951.042-1.186.124-.305.113-.565.328-.782.646-.217.319-.345.75-.386 1.292H103l.131-2.816z"/></g><g><path fill="#0f1238" d="M119.447 110v-.452c.683-.392 1.147-.758 1.392-1.099.172-.243.259-.536.259-.876 0-.2-.037-.347-.109-.443-.08-.097-.166-.145-.26-.145a.88.88 0 0 0-.288.068 1.383 1.383 0 0 1-.427.087 1 1 0 0 1-.706-.29.955.955 0 0 1-.308-.727c0-.322.101-.574.305-.756a1.43 1.43 0 0 1 .984-.367c.439 0 .834.182 1.185.545.35.364.526.816.526 1.357 0 .759-.291 1.45-.873 2.075-.387.412-.947.753-1.68 1.023"/></g><g><path fill="#0f1238" d="M136.107 105v4.307h-.362c-.12-.824-.335-1.48-.645-1.969-.31-.489-.751-.876-1.325-1.163a3.93 3.93 0 0 0-1.779-.431c-.694 0-1.267.194-1.72.581-.454.387-.68.828-.68 1.323 0 .378.143.723.429 1.033.414.458 1.396 1.07 2.95 1.831 1.266.623 2.129 1.1 2.59 1.433.46.334.814.727 1.063 1.178.249.453.372.926.372 1.421 0 .941-.397 1.753-1.19 2.434-.796.682-1.819 1.022-3.069 1.022-.393 0-.762-.028-1.108-.085-.206-.032-.633-.146-1.282-.343-.647-.198-1.059-.297-1.232-.297a.542.542 0 0 0-.395.142c-.095.094-.167.289-.213.583h-.363v-4.268h.363c.173.892.405 1.558.699 2 .293.443.74.81 1.343 1.104.604.293 1.265.44 1.984.44.833 0 1.49-.201 1.972-.605.483-.403.725-.88.725-1.43 0-.304-.091-.612-.274-.924-.183-.311-.468-.602-.854-.87-.259-.184-.969-.572-2.13-1.164-1.16-.593-1.988-1.066-2.479-1.42-.49-.355-.863-.747-1.117-1.175a2.718 2.718 0 0 1-.38-1.413c0-.893.374-1.662 1.12-2.307.748-.645 1.698-.968 2.852-.968.72 0 1.484.164 2.292.492.373.155.637.232.79.232a.626.626 0 0 0 .426-.143c.11-.097.198-.29.265-.581z"/></g><g><path fill="#0f1238" d="M154.74 114.867c0 .762.09 1.235.27 1.42.243.261.613.392 1.109.392h.5V117H151v-.321h.495c.555 0 .952-.166 1.192-.5.129-.184.193-.62.193-1.312v-7.735c0-.76-.088-1.234-.262-1.418-.252-.262-.626-.393-1.123-.393H151V105h4.811c1.174 0 2.101.11 2.778.332a3.831 3.831 0 0 1 1.713 1.118c.465.525.698 1.147.698 1.866 0 .979-.352 1.774-1.06 2.387-.705.614-1.704.92-2.994.92-.316 0-.658-.02-1.026-.061-.368-.041-.76-.102-1.18-.183zm0-3.987c.342.059.644.103.909.133.263.03.489.043.676.043.669 0 1.248-.237 1.734-.712.487-.475.73-1.09.73-1.846 0-.52-.116-1.002-.347-1.448a2.292 2.292 0 0 0-.987-1 3.085 3.085 0 0 0-1.449-.333c-.329 0-.751.056-1.267.169z"/></g><g><path fill="#0f1238" d="M172.333 113.76h-4.764l-.824 1.99c-.204.496-.306.866-.306 1.11 0 .195.088.366.266.513.177.148.56.243 1.15.287v.34H164v-.34c.51-.094.841-.216.991-.367.307-.301.646-.914 1.019-1.836L170.334 105h.302l4.263 10.572c.343.853.654 1.407.934 1.66.279.254.668.397 1.167.428v.34h-4.825v-.34c.487-.025.816-.11.987-.254a.666.666 0 0 0 .258-.527c0-.277-.12-.713-.36-1.31zm-.281-.7l-2.066-5.138-2.128 5.138z"/></g><g><path fill="#0f1238" d="M191.725 113.698l.275.062-.99 3.24H182v-.321h.435c.49 0 .841-.165 1.052-.497.119-.19.18-.627.18-1.315v-7.735c0-.755-.08-1.228-.24-1.418-.223-.262-.553-.393-.992-.393H182V105h5.256v.32c-.616-.005-1.048.054-1.295.176-.249.123-.418.278-.51.465-.091.187-.136.634-.136 1.341v7.567c0 .492.046.83.137 1.012a.615.615 0 0 0 .318.276c.143.059.59.088 1.341.088h.85c.894 0 1.52-.067 1.882-.202.36-.135.69-.374.988-.72.298-.342.595-.884.894-1.625"/></g><g><path fill="#0f1238" d="M203.333 113.76h-4.764l-.823 1.99c-.204.496-.306.866-.306 1.11 0 .195.089.366.265.513.179.148.56.243 1.15.287v.34H195v-.34c.51-.094.841-.216.991-.367.307-.301.647-.914 1.02-1.836L201.334 105h.303l4.263 10.572c.343.853.654 1.407.933 1.66.28.254.668.397 1.167.428v.34h-4.825v-.34c.487-.025.816-.11.989-.254a.668.668 0 0 0 .256-.527c0-.277-.12-.713-.36-1.31zm-.281-.7l-2.065-5.138-2.129 5.138z"/></g><g><path fill="#0f1238" d="M224.423 105l.289 4.229h-.289c-.371-1.27-.901-2.186-1.59-2.745-.689-.558-1.516-.838-2.48-.838-.809 0-1.54.21-2.192.629-.654.42-1.167 1.088-1.541 2.007-.375.918-.563 2.059-.563 3.425 0 1.125.178 2.102.532 2.929.355.826.887 1.46 1.598 1.9.712.44 1.525.66 2.437.66.792 0 1.492-.171 2.098-.518.607-.346 1.272-1.035 2-2.066l.278.177c-.612 1.11-1.327 1.924-2.144 2.439-.816.514-1.786.772-2.91.772-2.024 0-3.591-.764-4.702-2.292-.83-1.137-1.244-2.475-1.244-4.016 0-1.24.273-2.38.817-3.42.546-1.038 1.296-1.844 2.251-2.415a5.982 5.982 0 0 1 3.13-.857c.88 0 1.75.22 2.605.66.251.134.431.201.54.201a.587.587 0 0 0 .422-.174c.155-.164.265-.394.332-.687z"/></g><g><g/><g clip-path="url(#sd3yb)"><path fill="#0f1238" d="M233.926 106.137v4.836h2.655c.694 0 1.156-.105 1.39-.315.31-.277.484-.766.52-1.465h.324v4.295h-.324c-.084-.6-.168-.985-.25-1.155a1.131 1.131 0 0 0-.531-.5c-.245-.122-.622-.183-1.129-.183h-2.655v4.056c0 .546.024.878.072.995.048.118.13.212.25.281.12.07.345.104.678.104h2.052c.685 0 1.182-.047 1.491-.143.31-.097.608-.286.893-.569.369-.372.747-.934 1.134-1.686h.363l-1.046 3.076h-9.343v-.33h.43c.286 0 .558-.07.815-.21a.77.77 0 0 0 .39-.442c.068-.196.102-.598.102-1.204v-7.97c0-.787-.077-1.27-.232-1.453-.215-.244-.574-.366-1.075-.366h-.43v-.329h9.338l.134 2.708h-.344c-.125-.649-.263-1.095-.415-1.338a1.434 1.434 0 0 0-.674-.556c-.24-.09-.658-.137-1.26-.137z"/></g></g><g><g/><g clip-path="url(#sd3yc)"><path fill="#0f1238" d="M22.157 128.26v2.877h-.246c-.08-.553-.226-.992-.436-1.32a2.185 2.185 0 0 0-.895-.78 2.674 2.674 0 0 0-1.203-.288c-.469 0-.856.13-1.162.391-.306.261-.46.558-.46.89 0 .256.097.488.29.698.279.307.944.719 1.992 1.232.855.418 1.438.74 1.748.965.31.224.548.49.715.793.167.305.251.625.251.958 0 .634-.268 1.18-.803 1.639-.534.459-1.222.688-2.063.688-.265 0-.513-.018-.746-.057-.138-.02-.426-.098-.862-.231-.436-.134-.713-.2-.83-.2-.11 0-.2.031-.264.094-.065.063-.114.196-.144.394h-.246v-2.877h.246c.116.601.273 1.051.47 1.349.197.299.498.546.904.743.406.197.85.296 1.335.296.56 0 1.003-.135 1.327-.407.326-.272.488-.592.488-.964 0-.206-.062-.414-.184-.624a1.924 1.924 0 0 0-.576-.586c-.175-.124-.654-.384-1.439-.784-.785-.399-1.341-.717-1.67-.954a2.667 2.667 0 0 1-.748-.789 1.829 1.829 0 0 1-.256-.949c0-.599.253-1.114.756-1.548.503-.432 1.144-.649 1.923-.649.485 0 1 .11 1.544.332.252.105.43.157.533.157a.417.417 0 0 0 .287-.098c.073-.063.133-.194.178-.391z"/></g></g><g><path fill="#0f1238" d="M31.92 128l.08 1.873h-.234c-.045-.33-.107-.565-.184-.706a1.21 1.21 0 0 0-.505-.505c-.211-.107-.488-.162-.83-.162h-1.171v6.115c0 .493.055.799.167.92.157.165.397.247.723.247h.29V136h-3.553v-.218h.299c.356 0 .61-.102.758-.306.09-.125.136-.412.136-.86V128.5H26.89c-.391 0-.669.027-.834.083a1.137 1.137 0 0 0-.55.43c-.152.21-.242.499-.271.86H25l.08-1.873z"/></g><g><g/><g clip-path="url(#sd3yd)"><path fill="#0f1238" d="M34.352 135.02c.313 0 .577.097.79.29a.91.91 0 0 1 .321.698.9.9 0 0 1-.325.7c-.217.192-.48.29-.786.29-.308 0-.57-.098-.787-.29a.9.9 0 0 1-.325-.7c0-.279.108-.513.325-.702.217-.19.479-.286.787-.286"/></g></g><g><path fill="#0f1238" d="M49.609 137l-2.991-7.572v6.015c0 .553.052.898.156 1.036.144.186.37.278.678.278h.279V137H45v-.243h.278c.333 0 .569-.115.708-.346.085-.14.127-.463.127-.968v-5.886c0-.397-.039-.685-.116-.862a.69.69 0 0 0-.298-.321c-.145-.086-.379-.13-.699-.13V128h2.239l2.79 7.018L52.803 128H55v.243h-.272c-.336 0-.574.116-.713.346-.085.142-.127.465-.127.968v5.886c0 .553.054.898.162 1.036.143.186.37.278.678.278H55V137h-3.321v-.243h.277c.337 0 .573-.115.708-.346.085-.14.128-.463.128-.968v-6.015L49.8 137z"/></g><g><path fill="#0f1238" d="M61.078 128c1.06 0 1.979.424 2.756 1.274.777.847 1.166 1.907 1.166 3.176 0 1.308-.392 2.393-1.175 3.256-.783.862-1.73 1.294-2.844 1.294-1.124 0-2.069-.42-2.834-1.263-.765-.842-1.147-1.93-1.147-3.268 0-1.366.44-2.481 1.325-3.346A3.805 3.805 0 0 1 61.078 128m-.115.455c-.732 0-1.32.287-1.762.857-.551.71-.827 1.751-.827 3.12 0 1.404.286 2.485.857 3.241.438.575 1.019.862 1.74.862.767 0 1.402-.315 1.902-.944.501-.63.752-1.624.752-2.982 0-1.47-.275-2.568-.826-3.29-.444-.576-1.055-.864-1.836-.864"/></g><g><path fill="#0f1238" d="M76 136h-2.156l-2.734-3.743c-.197.008-.358.012-.482.012a5.072 5.072 0 0 1-.342-.012v2.332c0 .502.055.813.166.935.148.172.373.258.67.258h.314V136H68v-.218h.301c.338 0 .58-.109.725-.329.082-.121.123-.408.123-.864v-5.179c0-.501-.055-.812-.164-.933-.153-.173-.381-.26-.684-.26H68V128h2.93c.855 0 1.485.062 1.89.186.405.125.75.352 1.032.685.283.333.424.728.424 1.188 0 .492-.162.92-.485 1.282-.323.361-.825.617-1.505.767l1.667 2.29c.38.528.707.88.98 1.054.272.173.628.284 1.067.33zm-5.714-4.116c.075 0 .14.002.195.004l.136.003c.762 0 1.336-.165 1.723-.495.388-.33.58-.75.58-1.261 0-.499-.155-.904-.468-1.217-.312-.312-.726-.47-1.24-.47-.228 0-.537.039-.926.116z"/></g><g><path fill="#0f1238" d="M82 135.782V136h-4v-.218h.33c.387 0 .667-.096.843-.287.11-.126.165-.428.165-.906v-5.179c0-.402-.03-.669-.09-.798-.045-.098-.139-.182-.283-.253a1.513 1.513 0 0 0-.634-.14H78V128h4v.218h-.336c-.38 0-.657.096-.83.289-.116.124-.173.425-.173.903v5.18c0 .403.03.67.09.8.045.097.141.18.288.25.197.096.405.142.625.142z"/></g><g><path fill="#0f1238" d="M91.92 128l.08 1.873h-.234c-.045-.33-.107-.565-.184-.706a1.206 1.206 0 0 0-.505-.505c-.21-.107-.488-.162-.83-.162h-1.17v6.115c0 .493.054.799.166.92.157.165.397.247.723.247h.29V136h-3.553v-.218h.299c.356 0 .61-.102.758-.306.09-.125.136-.412.136-.86V128.5H86.89c-.391 0-.669.027-.833.083a1.139 1.139 0 0 0-.55.43c-.153.21-.243.499-.272.86H85l.08-1.873z"/></g><g><path fill="#0f1238" d="M100.912 128l-5.347 7.513h3.333c.51 0 .904-.11 1.177-.33.273-.22.516-.667.727-1.34l.198.036-.383 2.121H94v-.22l5.215-7.305h-2.598c-.432 0-.744.046-.938.14a.98.98 0 0 0-.443.4c-.102.174-.194.501-.279.98h-.227L94.9 128z"/></g><g><path fill="#0f1238" d="M133 128v.24a.919.919 0 0 0-.5.123c-.13.084-.25.236-.367.461-.078.151-.2.513-.368 1.084L129.554 137h-.233l-1.794-5.603-1.778 5.603h-.217l-2.338-7.298c-.175-.55-.285-.873-.332-.972a.807.807 0 0 0-.318-.368c-.134-.082-.315-.122-.544-.122V128h2.919v.24h-.14c-.207 0-.363.053-.472.157a.511.511 0 0 0-.163.38c0 .154.085.507.256 1.057l1.553 4.94 1.313-4.193-.24-.752-.188-.596a3.475 3.475 0 0 0-.274-.575.789.789 0 0 0-.187-.209 1.002 1.002 0 0 0-.292-.17 1.155 1.155 0 0 0-.35-.039V128h3.072v.24h-.21c-.216 0-.376.053-.477.157a.593.593 0 0 0-.152.425c0 .222.087.61.262 1.164l1.519 4.776 1.511-4.842c.17-.54.256-.915.256-1.124a.512.512 0 0 0-.296-.464 1.54 1.54 0 0 0-.577-.092V128z"/></g><g><path fill="#0f1238" d="M139 135.782V136h-4v-.218h.33c.387 0 .666-.096.842-.287.11-.126.166-.428.166-.906v-5.179c0-.402-.03-.669-.09-.798-.046-.098-.14-.182-.283-.253a1.51 1.51 0 0 0-.634-.14H135V128h4v.218h-.337c-.38 0-.657.096-.83.289-.115.124-.172.425-.172.903v5.18c0 .403.03.67.09.8.044.097.14.18.287.25.197.096.405.142.625.142z"/></g><g><path fill="#0f1238" d="M149.92 128l.08 1.873h-.234c-.045-.33-.107-.565-.184-.706a1.202 1.202 0 0 0-.505-.505c-.21-.107-.487-.162-.83-.162h-1.171v6.115c0 .493.056.799.168.92.156.165.398.247.723.247h.29V136h-3.554v-.218h.299c.356 0 .609-.102.758-.306.091-.125.136-.412.136-.86V128.5h-1.006c-.391 0-.67.027-.834.083a1.139 1.139 0 0 0-.55.43c-.152.21-.243.499-.272.86H143l.08-1.873z"/></g><g><path fill="#0f1238" d="M158.912 128l-5.347 7.513h3.332c.512 0 .904-.11 1.178-.33.273-.22.515-.667.727-1.34l.198.036-.384 2.121H152v-.22l5.215-7.305h-2.599c-.43 0-.744.046-.937.14a.987.987 0 0 0-.444.4c-.101.174-.193.501-.278.98h-.227l.17-1.995z"/></g><g><path fill="#0f1238" d="M165.32 128.436v3.154h1.796c.466 0 .777-.07.935-.207.209-.18.325-.502.35-.96h.223v2.795h-.224c-.056-.39-.111-.64-.168-.749a.752.752 0 0 0-.356-.324c-.165-.08-.418-.12-.76-.12h-1.796v2.642c0 .355.016.57.049.647a.37.37 0 0 0 .169.184c.08.044.233.066.459.066h1.388c.463 0 .799-.03 1.008-.093.21-.063.41-.187.604-.371.25-.243.505-.61.767-1.1H170l-.706 2H163v-.217h.29c.191 0 .374-.046.546-.136a.5.5 0 0 0 .261-.283c.047-.127.07-.385.07-.774v-5.206c0-.503-.053-.813-.156-.93-.144-.158-.386-.236-.722-.236H163V128h6.305l.079 1.757h-.236c-.084-.422-.178-.712-.28-.87a.95.95 0 0 0-.455-.361c-.162-.06-.444-.09-.85-.09z"/></g><g><path fill="#0f1238" d="M181 136h-2.156l-2.735-3.743c-.197.008-.358.012-.48.012a5.037 5.037 0 0 1-.343-.012v2.332c0 .502.055.813.165.935.15.172.374.258.672.258h.312V136H173v-.218h.3c.338 0 .58-.109.726-.329.082-.121.123-.408.123-.864v-5.179c0-.501-.054-.812-.164-.933-.153-.173-.382-.26-.684-.26H173V128h2.93c.854 0 1.484.062 1.89.186.405.125.749.352 1.031.685.284.333.425.728.425 1.188 0 .492-.162.92-.486 1.282-.323.361-.824.617-1.504.767l1.668 2.29c.378.528.705.88.977 1.054.273.173.63.284 1.069.33zm-5.714-4.116c.074 0 .14.002.195.004l.135.003c.762 0 1.336-.165 1.723-.495.388-.33.582-.75.582-1.261 0-.499-.157-.904-.469-1.217-.313-.312-.726-.47-1.242-.47-.227 0-.535.039-.924.116z"/></g><g><path fill="#0f1238" d="M190.804 133.782l.196.041-.694 2.177H184v-.218h.305c.342 0 .587-.109.735-.327.083-.125.125-.414.125-.866v-5.179c0-.497-.056-.807-.168-.933-.155-.173-.386-.259-.692-.259H184V128h3.677v.218c-.432-.003-.735.035-.91.117-.172.082-.292.186-.355.31-.064.124-.096.422-.096.893v5.034c0 .327.032.551.097.673a.417.417 0 0 0 .221.183c.1.04.414.059.939.059h.596c.626 0 1.064-.045 1.317-.135.253-.09.483-.25.691-.481.21-.23.418-.593.627-1.089"/></g><g><path fill="#0f1238" d="M197.767 134.066h-3.294l-.573 1.379c-.142.342-.213.596-.213.765 0 .134.062.252.185.352.123.103.389.168.797.198v.24H192v-.24c.354-.063.584-.148.687-.252.213-.208.448-.629.707-1.266l3.008-7.242h.198l2.944 7.321c.237.589.453.97.647 1.145.194.174.464.273.809.294v.24h-3.344v-.24c.338-.016.567-.075.686-.175.118-.099.177-.22.177-.362 0-.191-.083-.492-.25-.904zm-.181-.47l-1.43-3.561-1.484 3.562z"/></g><g><path fill="#0f1238" d="M204 128h2.24l5.052 6.63v-5.098c0-.542-.057-.88-.173-1.016-.151-.182-.39-.274-.718-.274h-.288V128H213v.242h-.295c-.352 0-.601.113-.749.339-.09.14-.135.457-.135.951V137h-.217l-5.45-7.143v5.466c0 .545.056.884.166 1.018.156.183.394.274.718.274h.294v.241h-2.885v-.241h.287c.356 0 .609-.113.755-.339.091-.139.135-.456.135-.953v-6.159c-.238-.3-.42-.499-.544-.595a1.94 1.94 0 0 0-.545-.268c-.117-.04-.296-.06-.535-.06z"/></g><g><path fill="#0f1238" d="M216 136v-.218h.335c.375 0 .642-.108.798-.322.096-.13.145-.42.145-.87v-5.18c0-.497-.061-.807-.184-.933-.17-.173-.423-.259-.76-.259H216V128h3.638c1.334 0 2.35.136 3.046.406a3.523 3.523 0 0 1 1.68 1.359c.424.633.636 1.365.636 2.194 0 1.113-.378 2.043-1.133 2.79-.848.834-2.139 1.251-3.873 1.251zm2.54-.588c.56.11 1.027.165 1.404.165 1.021 0 1.866-.32 2.54-.96.672-.64 1.009-1.508 1.009-2.605 0-1.102-.337-1.972-1.01-2.608-.673-.637-1.535-.955-2.59-.955-.395 0-.847.058-1.352.17z"/></g><g><g/><g clip-path="url(#sd3ye)"><path fill="#0f1238" d="M119.787 128.26v2.877h-.246c-.08-.553-.226-.992-.436-1.32a2.185 2.185 0 0 0-.895-.78 2.674 2.674 0 0 0-1.203-.288c-.469 0-.856.13-1.162.391-.306.261-.46.558-.46.89 0 .256.097.488.29.698.279.307.944.719 1.992 1.232.855.418 1.437.74 1.748.965.31.224.548.49.715.793.167.305.251.625.251.958 0 .634-.268 1.18-.803 1.639-.534.459-1.222.688-2.063.688-.265 0-.513-.018-.746-.057-.138-.02-.426-.098-.862-.231-.436-.134-.713-.2-.83-.2-.11 0-.2.031-.264.094-.065.063-.114.196-.144.394h-.246v-2.877h.246c.116.601.273 1.051.47 1.349.197.299.498.546.904.743.406.197.85.296 1.335.296.56 0 1.003-.135 1.328-.407.325-.272.487-.592.487-.964 0-.206-.062-.414-.184-.624a1.924 1.924 0 0 0-.576-.586c-.175-.124-.654-.384-1.439-.784-.785-.399-1.341-.717-1.67-.954a2.667 2.667 0 0 1-.748-.789 1.829 1.829 0 0 1-.256-.949c0-.599.253-1.114.756-1.548.503-.432 1.144-.649 1.923-.649.485 0 1 .11 1.544.332.252.105.43.157.533.157a.417.417 0 0 0 .287-.098c.073-.063.134-.194.178-.391z"/></g></g></g></g></svg>