<svg xmlns="http://www.w3.org/2000/svg" width="82" height="100"><defs><clipPath id="a"><path d="M0 .4h82v99H0z"/></clipPath></defs><g clip-path="url(#a)"><path fill="#0f1238" d="M45.1 75.159v6.064h2.05v6.064h-4.1V67.074h2.05v2.02h2.05v6.065zm-12.3 0v6.064h2.05v6.064h-4.1V67.074h2.05v2.02h2.05v6.065zm6.15 0v6.064H41v6.064h-4.1V67.074h2.05v2.02H41v6.065zm18.45 0v6.064h2.05v6.064h-4.1V67.074h2.05v2.02h2.05v6.065zM41 4.441c-1.133 0-2.05-.904-2.05-2.02C38.95 1.304 39.867.4 41 .4c1.133 0 2.05.904 2.05 2.02 0 1.117-.917 2.021-2.05 2.021zm41 58.591H0l10.25-6.06L41 6.461l30.75 50.51zm-48.174-4.04h2.05V52.93h-2.05zm4.098-16.163h2.05v-6.061h-2.05zm.002 16.163h2.05V52.93h-2.05zm4.1-16.163h2.049v-6.061h-2.05zm0 16.163h2.05V52.93h-2.05zm4.1 0h2.05V52.93h-2.05zM63.55 75.159v6.064h2.05v6.064h-4.1V67.074h2.05v2.02h2.05v6.065zm-12.3 0v6.064h2.05v6.064h-4.1V67.074h2.05v2.02h2.05v6.065zm9.226 16.16h10.25V99.4h-59.45v-8.082h10.25v6.061h2.05v-6.06h12.299v6.06h2.05v-6.06h2.05v6.06h2.05v-6.06h2.05v6.06h2.05v-6.06h12.3v6.06h2.05zM69.7 69.094h2.05v6.064H69.7v6.064h2.05v6.064h-4.1V67.074h2.05zm-61.5 0h2.05v6.064H8.2v6.064h2.05v6.064h-4.1V67.074H8.2zm65.6-2.022h2.05v20.215H73.8zM14.35 75.16v6.064h2.05v6.064h-4.1V67.074h2.05v2.02h2.05v6.065zm12.3 0v6.064h2.05v6.064h-4.1V67.074h2.05v2.02h2.05v6.065zm-6.15 0v6.064h2.05v6.064h-4.1V67.074h2.05v2.02h2.05v6.065z"/></g></svg>