<svg xmlns="http://www.w3.org/2000/svg" width="276" height="53"><defs><clipPath id="a"><path d="M266.11 16.15h9.712v11.345h-9.712z"/></clipPath><clipPath id="b"><path d="M74.84 37.07h4.947v7.763H74.84z"/></clipPath><clipPath id="c"><path d="M90.46 43.14h1.693v1.693H90.46z"/></clipPath><clipPath id="d"><path d="M162.53 37.07h4.947v7.763h-4.947z"/></clipPath><clipPath id="e"><path d="M0 0h44v53H0z"/></clipPath></defs><path fill="#0f1238" d="M69.383 22.504a2.5 2.5 0 01.811 1.884c0 .565-.178 1.105-.535 1.62a3.06 3.06 0 01-1.466 1.132c-.622.237-1.57.355-2.846.355H60v-.303h.422c.47 0 .807-.152 1.012-.455.127-.197.19-.616.19-1.257v-7.314c0-.709-.08-1.156-.24-1.341-.216-.248-.536-.372-.962-.372H60v-.303h4.892c.912 0 1.644.067 2.195.2.835.201 1.472.556 1.912 1.067.44.51.66 1.096.66 1.759 0 .568-.173 1.077-.518 1.525-.344.45-.852.782-1.524.999.786.167 1.375.436 1.766.804zm-6.152-1.257c.207.039.442.069.707.088.265.02.557.03.875.03.814 0 1.427-.088 1.836-.264.41-.176.723-.445.938-.807.214-.363.322-.76.322-1.19 0-.663-.27-1.23-.81-1.698-.541-.469-1.329-.703-2.364-.703-.558 0-1.059.06-1.504.184zm0 5.434a8.492 8.492 0 001.928.226c1.016 0 1.791-.228 2.324-.683.534-.456.8-1.02.8-1.69 0-.441-.125-.866-.374-1.275-.251-.408-.647-.73-1.188-.964-.541-.235-1.21-.353-2.008-.353-.347 0-.642.006-.888.017a4.527 4.527 0 00-.594.06zm19.275-2.968h-4.423l-.764 1.775c-.19.443-.284.772-.284.99 0 .173.082.326.246.458.166.132.52.216 1.068.255v.304H74.77v-.304c.474-.083.781-.192.92-.327.285-.268.6-.815.946-1.637L80.65 15.9h.28l3.959 9.43c.318.76.607 1.254.867 1.48.259.226.62.354 1.083.38v.305h-4.48v-.304c.453-.022.758-.098.918-.226a.587.587 0 00.238-.47c0-.247-.112-.636-.335-1.168zm-.261-.625l-1.917-4.582-1.976 4.582zm8.595 4.407v-.304h.424c.478 0 .817-.154 1.017-.463.122-.186.183-.602.183-1.249v-7.313c0-.715-.077-1.161-.233-1.341-.217-.248-.539-.372-.967-.372h-.424v-.303h4.61c1.692 0 2.98.192 3.862.577.883.385 1.593 1.026 2.13 1.924.537.898.806 1.936.806 3.113 0 1.579-.479 2.898-1.436 3.957-1.075 1.183-2.712 1.774-4.911 1.774zm3.228-.813c.707.156 1.3.234 1.778.234 1.292 0 2.364-.454 3.215-1.364.853-.908 1.279-2.141 1.279-3.698 0-1.567-.426-2.803-1.279-3.706-.851-.904-1.945-1.356-3.28-1.356-.502 0-1.073.08-1.713.243zm23.949.813h-3.038l-3.852-5.298c-.28.011-.507.017-.681.017a6.61 6.61 0 01-.485-.017v3.282c0 .72.078 1.167.233 1.341.211.248.528.372.95.372h.442v.303h-4.856v-.303h.424c.478 0 .82-.158 1.025-.473.117-.174.175-.587.175-1.24v-7.313c0-.72-.077-1.167-.233-1.341-.217-.248-.539-.372-.967-.372h-.424v-.303h4.126c1.203 0 2.09.088 2.66.264.571.176 1.055.5 1.454.97.398.472.597 1.034.597 1.687 0 .698-.227 1.303-.681 1.817-.454.513-1.158.877-2.11 1.088l2.354 3.247c.535.752.996 1.25 1.38 1.498.386.247.888.404 1.507.471zm-8.059-5.828a7.5 7.5 0 01.274.005c.077.002.14.004.19.004 1.071 0 1.879-.235 2.423-.703.543-.468.816-1.064.816-1.79 0-.707-.22-1.283-.659-1.726-.439-.444-1.02-.665-1.744-.665-.32 0-.753.053-1.3.16zm19.608-5.214v-.303h3.981v.303h-.424c-.445 0-.787.187-1.025.56-.117.174-.176.575-.176 1.206v4.595c0 1.137-.112 2.019-.339 2.646-.225.626-.67 1.164-1.33 1.612-.661.448-1.56.673-2.699.673-1.238 0-2.178-.214-2.82-.643a3.481 3.481 0 01-1.364-1.727c-.178-.495-.268-1.424-.268-2.787v-4.422c0-.703-.095-1.164-.286-1.384-.192-.22-.502-.329-.93-.329h-.426v-.303h4.892v.303h-.434c-.466 0-.8.15-1 .447-.139.203-.208.625-.208 1.266v4.933c0 .44.04.944.121 1.512.081.567.228 1.01.44 1.327.213.317.52.579.92.784.4.206.891.31 1.474.31.744 0 1.41-.162 1.998-.485.587-.323.989-.736 1.204-1.24.215-.503.323-1.356.323-2.558v-4.583c0-.715-.077-1.161-.233-1.342-.216-.247-.539-.37-.966-.37zm17.623-.303l.125 2.662h-.318c-.062-.468-.146-.803-.252-1.004a1.682 1.682 0 00-.692-.714c-.287-.154-.666-.23-1.136-.23h-1.601v8.669c0 .699.075 1.134.227 1.307.213.234.54.351.984.351h.395v.304h-4.838v-.304h.406c.485 0 .83-.145 1.032-.435.124-.179.187-.586.187-1.223v-8.67h-1.365c-.53 0-.908.04-1.131.118-.29.106-.539.309-.746.61-.206.301-.329.708-.368 1.221h-.318l.125-2.662zm13.98 0l.125 2.662h-.318c-.061-.468-.146-.803-.252-1.004a1.682 1.682 0 00-.692-.714c-.287-.154-.666-.23-1.136-.23h-1.601v8.669c0 .699.076 1.134.227 1.307.213.234.54.351.985.351h.394v.304h-4.838v-.304h.406c.486 0 .83-.145 1.033-.435.124-.179.186-.586.186-1.223v-8.67h-1.365c-.53 0-.907.04-1.13.118-.292.106-.54.309-.746.61-.207.301-.33.708-.369 1.221h-.318l.125-2.662zm6.041 4.084v-.392c.582-.339.977-.657 1.185-.952.147-.211.22-.465.22-.76 0-.172-.031-.3-.092-.384-.068-.083-.142-.126-.22-.126a.738.738 0 00-.246.06 1.18 1.18 0 01-.364.075.843.843 0 01-.6-.252.835.835 0 01-.263-.63c0-.279.086-.498.26-.654a1.2 1.2 0 01.837-.319c.374 0 .71.158 1.009.473.297.315.447.707.447 1.176 0 .658-.248 1.257-.743 1.799-.33.357-.806.652-1.43.886m15.092-4.334v3.924h-.303c-.101-.75-.282-1.348-.542-1.794a2.805 2.805 0 00-1.111-1.06 3.088 3.088 0 00-1.493-.392c-.583 0-1.063.177-1.444.53-.38.352-.57.754-.57 1.204 0 .345.12.659.36.942.347.417 1.172.974 2.475 1.668 1.063.568 1.786 1.002 2.174 1.306.386.304.682.662.892 1.073.208.412.311.844.311 1.295 0 .857-.333 1.597-.999 2.218-.667.62-1.525.93-2.574.93-.33 0-.64-.025-.93-.076-.173-.03-.53-.133-1.075-.313-.544-.18-.889-.27-1.034-.27-.14 0-.25.043-.331.129-.08.085-.14.262-.18.53h-.303v-3.888h.303c.146.812.34 1.42.587 1.822.246.404.622.739 1.127 1.006.507.267 1.061.4 1.665.4.698 0 1.25-.182 1.655-.55.405-.367.608-.802.608-1.303 0-.277-.077-.558-.23-.842-.154-.283-.393-.548-.717-.793-.217-.167-.813-.52-1.787-1.06s-1.668-.972-2.08-1.295a3.51 3.51 0 01-.937-1.07 2.641 2.641 0 01-.319-1.287c0-.814.314-1.514.94-2.102.628-.588 1.424-.882 2.393-.882.604 0 1.245.15 1.922.449.314.14.535.21.664.21a.5.5 0 00.357-.13c.092-.088.167-.264.223-.529zm16.509 9.579c0 .72.079 1.167.233 1.341.211.248.53.371.959.371h.433v.304h-4.856v-.304h.427c.48 0 .824-.157 1.03-.472.112-.174.167-.587.167-1.24v-7.313c0-.72-.075-1.167-.226-1.341-.218-.248-.541-.372-.97-.372h-.428v-.303h4.157c1.014 0 1.816.104 2.4.314a3.3 3.3 0 011.481 1.057c.402.496.603 1.084.603 1.764 0 .925-.305 1.678-.915 2.257-.61.58-1.473.869-2.588.869a7.51 7.51 0 01-.887-.057 11.816 11.816 0 01-1.02-.173zm0-3.766c.296.056.557.099.786.127.227.028.423.04.584.04.578 0 1.078-.224 1.499-.673.42-.45.63-1.032.63-1.748 0-.492-.1-.948-.3-1.37a2.088 2.088 0 00-.852-.947 2.477 2.477 0 00-1.252-.314c-.285 0-.65.053-1.095.159zm15.815 2h-4.423l-.764 1.775c-.19.443-.285.772-.285.99 0 .173.082.326.247.458.165.132.52.216 1.068.255v.304h-3.579v-.304c.474-.083.781-.192.92-.327.285-.268.6-.815.946-1.637l4.014-9.327h.28l3.958 9.43c.319.76.607 1.254.868 1.48.258.226.62.354 1.083.38v.305h-4.48v-.304c.453-.022.758-.098.917-.226a.586.586 0 00.239-.47c0-.247-.112-.636-.335-1.168zm-.261-.625l-1.918-4.582-1.975 4.582zm18.125 1.285l.268.06-.964 3.062h-8.784v-.304h.424c.478 0 .82-.155 1.025-.47.116-.178.176-.592.176-1.242v-7.313c0-.714-.078-1.161-.233-1.341-.218-.248-.54-.372-.968-.372h-.424v-.303h5.124v.303c-.6-.005-1.022.05-1.263.166-.242.116-.407.263-.497.44-.089.176-.133.6-.133 1.268v7.153c0 .465.045.784.135.957.066.118.17.205.309.26.139.057.575.085 1.307.085h.83c.87 0 1.481-.064 1.834-.192.351-.127.673-.354.963-.68.29-.324.58-.836.871-1.537m10.296-.66h-4.423l-.763 1.775c-.19.443-.285.772-.285.99 0 .173.082.326.246.458.166.132.52.216 1.068.255v.304h-3.579v-.304c.474-.083.781-.192.92-.327.285-.268.6-.815.947-1.637l4.013-9.327h.282l3.957 9.43c.319.76.607 1.254.867 1.48.26.226.62.354 1.083.38v.305h-4.48v-.304c.453-.022.758-.098.918-.226a.588.588 0 00.238-.47c0-.247-.112-.636-.335-1.168zm-.261-.625l-1.917-4.582-1.976 4.582zm18.581-7.188l.268 3.853h-.268c-.345-1.158-.837-1.992-1.476-2.5-.64-.51-1.407-.764-2.302-.764-.751 0-1.43.19-2.035.573-.607.382-1.084.991-1.431 1.828-.348.837-.522 1.876-.522 3.12 0 1.026.165 1.916.493 2.67.33.752.824 1.33 1.484 1.731s1.415.602 2.262.602c.735 0 1.385-.157 1.948-.473.563-.315 1.181-.943 1.856-1.882l.258.161c-.567 1.012-1.231 1.753-1.99 2.222-.757.468-1.658.704-2.701.704-1.88 0-3.334-.696-4.365-2.089-.77-1.036-1.155-2.255-1.155-3.658 0-1.13.253-2.17.759-3.116.506-.946 1.202-1.68 2.09-2.201a5.633 5.633 0 012.905-.781c.817 0 1.624.2 2.418.601.233.123.4.184.5.184a.55.55 0 00.393-.159c.144-.15.246-.359.308-.626z"/><g clip-path="url(#a)"><path fill="#0f1238" d="M269.341 16.774v4.46h2.482c.648 0 1.08-.097 1.299-.291.291-.256.453-.706.486-1.35h.304v3.96h-.304c-.078-.553-.156-.909-.234-1.066a1.051 1.051 0 00-.496-.46c-.228-.113-.58-.169-1.055-.169h-2.482v3.74c0 .503.023.81.067.917a.523.523 0 00.233.26c.112.064.323.096.634.096h1.92c.64 0 1.104-.044 1.393-.133.289-.089.568-.263.835-.524.345-.343.698-.862 1.06-1.555h.34l-.978 2.836h-8.735v-.303h.402c.268 0 .522-.065.762-.195.178-.09.3-.226.365-.407.063-.181.095-.551.095-1.11v-7.35c0-.725-.072-1.171-.217-1.34-.201-.224-.537-.336-1.005-.336h-.402v-.304h8.73l.125 2.497h-.321c-.118-.598-.247-1.01-.388-1.234a1.336 1.336 0 00-.631-.512c-.223-.084-.615-.127-1.178-.127z"/></g><g clip-path="url(#b)"><path fill="#0f1238" d="M79.302 37.07v2.554h-.2c-.067-.49-.185-.88-.357-1.171a1.839 1.839 0 00-.73-.693 2.04 2.04 0 00-.982-.256c-.383 0-.698.116-.949.347-.25.232-.375.496-.375.791 0 .227.08.433.237.62.227.272.77.638 1.626 1.093.698.372 1.173.658 1.427.857.252.2.447.435.583.704.136.271.205.555.205.85 0 .564-.219 1.049-.655 1.456-.437.408-.998.611-1.685.611-.216 0-.418-.016-.608-.05a6.105 6.105 0 01-.704-.206c-.356-.118-.582-.178-.677-.178a.283.283 0 00-.216.085c-.053.056-.092.174-.117.35h-.201v-2.555h.2c.095.533.223.933.384 1.197.162.266.407.485.739.66.33.175.694.263 1.089.263.457 0 .818-.12 1.083-.362.266-.24.398-.525.398-.855 0-.183-.05-.368-.15-.554a1.668 1.668 0 00-.47-.521c-.143-.11-.534-.34-1.175-.696-.64-.354-1.094-.636-1.363-.847a2.3 2.3 0 01-.61-.7 1.734 1.734 0 01-.209-.843c0-.532.206-.99.617-1.374.41-.384.934-.577 1.57-.577.395 0 .816.098 1.26.295.205.093.35.139.434.139a.324.324 0 00.235-.086c.06-.057.109-.173.145-.348z"/></g><path fill="#0f1238" d="M88.038 37.39l.07 1.694h-.203c-.04-.298-.092-.511-.16-.639a1.071 1.071 0 00-.436-.456c-.183-.097-.422-.147-.719-.147h-1.013v5.53c0 .446.048.723.145.832.136.15.344.224.625.224h.252v.197h-3.075v-.197h.258c.308 0 .528-.092.656-.277.079-.113.118-.372.118-.778v-5.53h-.87c-.34 0-.58.024-.723.074a.991.991 0 00-.475.389c-.132.19-.21.451-.236.778h-.202l.07-1.694z"/><g clip-path="url(#c)"><path fill="#0f1238" d="M91.307 43.14c.238 0 .44.083.602.248a.823.823 0 01.244.598.814.814 0 01-.247.599.82.82 0 01-.6.248.819.819 0 01-.599-.248.814.814 0 01-.247-.599c0-.239.082-.439.247-.601a.825.825 0 01.6-.245"/></g><path fill="#0f1238" d="M104.538 44.621l-2.873-6.252v4.967c0 .456.05.741.15.855.137.153.355.23.651.23h.268v.2h-2.624v-.2h.267c.32 0 .547-.096.68-.286.082-.116.122-.383.122-.8v-4.86c0-.327-.037-.565-.11-.71a.613.613 0 00-.287-.266c-.14-.072-.364-.108-.672-.108v-.201h2.151l2.682 5.794 2.664-5.794h2.111v.2h-.261c-.323 0-.551.097-.685.286-.082.117-.123.384-.123.8v4.86c0 .456.052.741.156.855.137.153.355.23.652.23h.261v.2h-3.191v-.2h.267c.324 0 .55-.096.68-.286.081-.116.123-.383.123-.8V38.37l-2.875 6.252zm10.546-7.391c.94 0 1.754.356 2.443 1.07.688.712 1.033 1.601 1.033 2.668 0 1.099-.347 2.01-1.042 2.735-.693.724-1.533 1.086-2.52 1.086-.996 0-1.834-.353-2.511-1.06-.679-.707-1.017-1.622-1.017-2.745 0-1.148.39-2.084 1.174-2.811.68-.628 1.493-.943 2.44-.943m-.102.382c-.649 0-1.17.242-1.561.722-.489.598-.733 1.475-.733 2.628 0 1.182.253 2.093.76 2.73.388.483.902.725 1.54.725.681 0 1.244-.265 1.687-.795.444-.53.666-1.368.666-2.511 0-1.239-.244-2.163-.732-2.771-.393-.485-.935-.728-1.627-.728m13.167 7.013h-1.938l-2.456-3.385c-.178.007-.322.01-.433.01a4.553 4.553 0 01-.308-.01v2.11c0 .453.05.734.149.845.134.155.335.233.603.233h.281v.197h-3.087v-.197h.27c.304 0 .521-.098.652-.297.074-.11.11-.37.11-.782v-4.684c0-.453-.049-.734-.147-.844-.138-.156-.342-.234-.614-.234h-.271v-.197h2.634c.767 0 1.334.056 1.697.168.365.113.674.319.928.62.254.3.38.658.38 1.074 0 .445-.145.832-.435 1.16-.29.326-.742.558-1.352.693l1.498 2.072c.34.477.634.795.88.952.245.157.565.257.959.3zm-5.135-3.722c.067 0 .126.002.175.003l.122.003c.685 0 1.201-.15 1.549-.448.348-.299.522-.678.522-1.14 0-.451-.14-.818-.422-1.1-.28-.283-.652-.425-1.114-.425-.205 0-.483.034-.832.104zm10.053 3.525v.197h-3.087v-.197h.255c.299 0 .515-.086.65-.26.085-.113.127-.386.127-.819v-4.684c0-.363-.023-.605-.069-.721a.477.477 0 00-.218-.23 1.026 1.026 0 00-.49-.126h-.255v-.198h3.087v.198h-.26c-.293 0-.506.086-.64.26-.09.113-.133.385-.133.817v4.684c0 .366.023.607.069.724.035.088.11.163.222.227a.966.966 0 00.482.128zm8.741-7.038l.07 1.694h-.203c-.04-.298-.092-.511-.16-.639a1.068 1.068 0 00-.436-.456c-.182-.097-.422-.147-.719-.147h-1.012v5.53c0 .446.047.723.144.832.136.15.344.224.625.224h.252v.197h-3.075v-.197h.258c.308 0 .528-.092.656-.277.079-.113.118-.372.118-.778v-5.53h-.87c-.34 0-.58.024-.722.074a.993.993 0 00-.476.389c-.132.19-.21.451-.236.778h-.202l.07-1.694zm8.746 0l-4.761 6.795h2.967c.455 0 .805-.1 1.048-.299.243-.199.46-.603.648-1.211l.176.032-.341 1.918H144.4v-.198l4.643-6.608h-2.313c-.385 0-.663.042-.835.126a.878.878 0 00-.395.362c-.09.158-.173.454-.248.887h-.202l.151-1.804zm28.686-.18v.198a.917.917 0 00-.458.1c-.118.069-.23.195-.336.38-.072.123-.184.42-.337.89l-2.024 5.83h-.213l-1.643-4.606-1.627 4.605h-.199l-2.14-5.998c-.16-.451-.261-.717-.304-.8a.691.691 0 00-.29-.302c-.124-.067-.29-.1-.499-.1v-.197h2.672v.198h-.129c-.188 0-.331.043-.43.129a.4.4 0 00-.15.312c0 .126.078.416.234.869l1.422 4.06 1.202-3.446-.22-.619-.172-.49a2.74 2.74 0 00-.251-.472.679.679 0 00-.171-.172.947.947 0 00-.267-.14 1.172 1.172 0 00-.321-.031v-.198h2.813v.198h-.193c-.198 0-.344.043-.437.128a.46.46 0 00-.139.35c0 .182.08.501.24.956l1.39 3.926 1.384-3.98c.156-.443.234-.752.234-.924a.42.42 0 00-.271-.381 1.555 1.555 0 00-.527-.075v-.198zm5.617 7.038v.197h-3.087v-.197h.255c.298 0 .514-.086.65-.26.084-.113.127-.386.127-.819v-4.684c0-.363-.023-.605-.07-.721a.477.477 0 00-.218-.23 1.024 1.024 0 00-.489-.126h-.255v-.198h3.087v.198h-.26c-.293 0-.507.086-.641.26-.088.113-.132.385-.132.817v4.684c0 .366.022.607.068.724.035.088.11.163.223.227a.966.966 0 00.482.128zm9.321-7.038l.07 1.694h-.203c-.039-.298-.092-.511-.16-.639a1.065 1.065 0 00-.436-.456c-.182-.097-.422-.147-.719-.147h-1.013v5.53c0 .446.049.723.145.833.136.15.345.223.626.223h.25v.197h-3.074v-.197h.258c.309 0 .527-.092.656-.277.08-.113.118-.372.118-.778v-5.53h-.87c-.34 0-.58.024-.723.074a.993.993 0 00-.475.389c-.132.19-.21.451-.235.778h-.203l.07-1.694zm8.746 0l-4.761 6.795h2.967c.455 0 .805-.1 1.048-.299.243-.199.459-.603.647-1.211l.177.032-.342 1.918h-5.89v-.198l4.643-6.608h-2.314c-.384 0-.663.042-.834.126a.884.884 0 00-.395.362c-.09.158-.173.454-.248.887h-.202l.151-1.804zm5.32.394v2.852h1.59c.413 0 .688-.062.828-.186.185-.164.288-.454.31-.87h.197v2.529h-.198c-.05-.352-.099-.579-.149-.678a.671.671 0 00-.315-.293c-.146-.071-.37-.108-.673-.108h-1.59v2.389c0 .32.014.516.043.585.028.07.079.125.15.166.07.04.206.06.406.06h1.23c.41 0 .706-.027.892-.084.186-.057.363-.169.534-.335.222-.22.448-.551.68-.995h.208l-.625 1.809h-5.572v-.197h.256c.17 0 .332-.04.484-.122a.449.449 0 00.231-.256c.042-.115.062-.348.062-.7v-4.708c0-.455-.046-.736-.138-.842-.128-.142-.341-.213-.64-.213h-.255v-.197h5.582l.07 1.589h-.209c-.074-.382-.157-.644-.248-.788a.844.844 0 00-.402-.326c-.144-.053-.394-.081-.753-.081zm14.446 6.841h-1.939l-2.457-3.385c-.177.007-.321.01-.432.01a4.522 4.522 0 01-.308-.01v2.11c0 .453.05.734.148.845.135.155.336.233.604.233h.281v.197H215.5v-.197h.27c.304 0 .52-.098.652-.297.074-.11.11-.37.11-.782v-4.684c0-.453-.048-.734-.147-.844-.138-.156-.343-.234-.615-.234h-.27v-.197h2.634c.767 0 1.333.056 1.698.168.364.113.673.319.926.62.255.3.382.658.382 1.074 0 .445-.146.832-.437 1.16-.29.326-.74.558-1.351.693l1.498 2.072c.34.477.634.795.879.952.245.157.566.257.96.3zm-5.136-3.722c.067 0 .126.002.175.003l.122.003c.684 0 1.2-.15 1.549-.448.348-.299.522-.678.522-1.14 0-.451-.141-.818-.421-1.1-.282-.283-.653-.425-1.116-.425a4.45 4.45 0 00-.83.104zm13.511 1.717l.174.036-.615 1.97h-5.594v-.198h.27c.304 0 .521-.098.652-.296.074-.113.11-.374.11-.783v-4.684c0-.449-.048-.73-.148-.844-.137-.156-.342-.233-.613-.233h-.271v-.198h3.262v.198c-.384-.004-.652.03-.807.105a.653.653 0 00-.315.28c-.058.113-.086.382-.086.808v4.553c0 .296.028.498.086.608a.368.368 0 00.197.165c.089.037.366.054.832.054h.528c.556 0 .945-.04 1.17-.121a1.52 1.52 0 00.612-.436c.186-.208.37-.537.556-.985m6.376-.403h-2.81l-.49 1.133c-.12.281-.181.49-.181.629 0 .11.052.208.157.29.105.084.332.137.68.162v.197h-2.277v-.197c.302-.052.498-.122.586-.207.182-.171.382-.517.603-1.04l2.567-5.953h.17l2.51 6.018c.204.483.388.797.553.94.165.144.396.225.69.242v.197h-2.853v-.197c.289-.013.484-.062.585-.143a.372.372 0 00.152-.298c0-.157-.072-.405-.214-.743zm-.163-.394l-1.216-2.92-1.262 2.92zm5.262-4.432h1.962l4.43 5.416v-4.164c0-.443-.051-.72-.152-.83-.133-.15-.342-.224-.63-.224h-.252v-.198h2.53v.198h-.259c-.308 0-.527.092-.656.276-.08.115-.118.374-.118.778v6.1h-.19l-4.777-5.835v4.466c0 .445.049.722.145.831.137.15.346.224.63.224h.258v.197h-2.53v-.197h.252c.312 0 .534-.092.662-.277.08-.113.119-.372.119-.778V38.16c-.21-.245-.368-.408-.477-.486a1.751 1.751 0 00-.478-.219 1.648 1.648 0 00-.469-.048zm11.17 7.235v-.197h.27c.304 0 .52-.097.646-.291.078-.118.117-.38.117-.788v-4.684c0-.449-.05-.73-.149-.844-.137-.156-.342-.233-.613-.233h-.271v-.198h2.941c1.079 0 1.9.123 2.464.368.562.246 1.015.655 1.357 1.228.343.573.515 1.235.515 1.984 0 1.007-.306 1.849-.917 2.524-.685.754-1.728 1.131-3.131 1.131zm2.052-.542c.453.1.832.15 1.138.15.829 0 1.515-.289 2.06-.868.546-.576.82-1.36.82-2.351 0-.995-.274-1.781-.82-2.356-.545-.574-1.245-.862-2.102-.862-.32 0-.686.052-1.096.154z"/><g clip-path="url(#d)"><path fill="#0f1238" d="M166.992 37.07v2.554h-.2c-.067-.49-.185-.88-.357-1.171a1.839 1.839 0 00-.73-.693 2.04 2.04 0 00-.982-.256c-.383 0-.698.116-.949.347-.25.232-.375.496-.375.791 0 .227.08.433.237.62.227.272.77.638 1.626 1.093.698.372 1.173.658 1.426.857.253.2.448.435.584.704.136.271.205.555.205.85 0 .564-.219 1.049-.655 1.456-.437.408-.998.611-1.685.611-.216 0-.418-.016-.608-.05a6.105 6.105 0 01-.704-.206c-.356-.118-.582-.178-.677-.178a.283.283 0 00-.216.085c-.053.056-.092.174-.118.35h-.2v-2.555h.2c.095.533.223.933.384 1.197.162.266.407.485.739.66.33.175.694.263 1.089.263.457 0 .818-.12 1.083-.362.266-.24.398-.525.398-.855 0-.183-.05-.368-.15-.554a1.668 1.668 0 00-.47-.521c-.143-.11-.534-.34-1.175-.696-.64-.354-1.094-.636-1.363-.847a2.3 2.3 0 01-.61-.7 1.734 1.734 0 01-.209-.843c0-.532.206-.99.617-1.374.41-.384.934-.577 1.57-.577.395 0 .816.098 1.26.295.205.093.35.139.434.139a.324.324 0 00.235-.086c.06-.057.109-.173.145-.348z"/></g><g clip-path="url(#e)"><path fill="#0f1238" d="M24.2 40.02v3.245h1.1v3.245h-2.2V35.694h1.1v1.081h1.1v3.245zm-6.6 0v3.245h1.1v3.245h-2.2V35.694h1.1v1.081h1.1v3.245zm3.3 0v3.245H22v3.245h-2.2V35.694h1.1v1.081H22v3.245zm9.9 0v3.245h1.1v3.245h-2.2V35.694h1.1v1.081h1.1v3.245zM22 2.164a1.09 1.09 0 01-1.1-1.082A1.09 1.09 0 0122 0c.608 0 1.1.484 1.1 1.082A1.09 1.09 0 0122 2.164zM44 33.53H0l5.5-3.245L22 3.245l16.5 27.04zm-25.85-2.154h1.1v-3.255h-1.1zm2.2-8.663h1.1V19.47h-1.1zm0 8.663h1.1v-3.255h-1.1zm2.2-8.663h1.1V19.47h-1.1zm0 8.663h1.1v-3.255h-1.1zm2.2 0h1.1v-3.255h-1.1zm9.35 8.643v3.245h1.1v3.245H33V35.694h1.1v1.081h1.1v3.245zm-6.6 0v3.245h1.1v3.245h-2.2V35.694h1.1v1.081h1.1v3.245zm4.95 8.653h5.5V53H6.05v-4.327h5.5v3.245h1.1v-3.245h6.6v3.245h1.1v-3.245h1.1v3.245h1.1v-3.245h1.1v3.245h1.1v-3.245h6.6v3.245h1.1zm4.95-11.898h1.1v3.245h-1.1v3.245h1.1v3.245h-2.2V35.694h1.1zm-33 0h1.1v3.245H4.4v3.245h1.1v3.245H3.3V35.694h1.1zm35.2-1.081h1.1V46.51h-1.1zM7.7 40.02v3.245h1.1v3.245H6.6V35.694h1.1v1.081h1.1v3.245zm6.6 0v3.245h1.1v3.245h-2.2V35.694h1.1v1.081h1.1v3.245zm-3.3 0v3.245h1.1v3.245H9.9V35.694H11v1.081h1.1v3.245z"/></g></svg>