<?xml version="1.0" encoding="UTF-8" standalone="no"?>
<svg
   xmlns:dc="http://purl.org/dc/elements/1.1/"
   xmlns:cc="http://creativecommons.org/ns#"
   xmlns:rdf="http://www.w3.org/1999/02/22-rdf-syntax-ns#"
   xmlns:svg="http://www.w3.org/2000/svg"
   xmlns="http://www.w3.org/2000/svg"
   version="1.1"
   id="svg2"
   viewBox="0 0 20.000018 19.994957"
   height="5.6430211mm"
   width="5.6444497mm">
  <defs
     id="defs4" />
  <metadata
     id="metadata7">
    <rdf:RDF>
      <cc:Work
         rdf:about="">
        <dc:format>image/svg+xml</dc:format>
        <dc:type
           rdf:resource="http://purl.org/dc/dcmitype/StillImage" />
        <dc:title></dc:title>
      </cc:Work>
    </rdf:RDF>
  </metadata>
  <g
     transform="translate(280.59194,-1084.373)"
     id="layer1">
    <path
       id="path4147"
       d="m -270.60861,1104.2604 c -0.11245,-0.1739 -0.14382,-3.011 -0.0364,-3.2923 0.11042,-0.2892 0.40244,-0.3285 0.53927,-0.073 0.0529,0.099 0.0921,0.802 0.0921,1.652 0,0.85 -0.0392,1.5532 -0.0921,1.6521 -0.10379,0.194 -0.394,0.2292 -0.50287,0.061 z m -4.81097,-1.1523 c -0.0587,-0.059 -0.10656,-0.1688 -0.10639,-0.2447 3.6e-4,-0.1677 1.3688,-2.5618 1.59901,-2.7975 0.17873,-0.1831 0.41654,-0.1449 0.50302,0.081 0.0576,0.1503 -1.39034,2.7654 -1.63739,2.9572 -0.17784,0.138 -0.22418,0.1386 -0.35825,0 z m 9.29766,0 c -0.24705,-0.1918 -1.69503,-2.8068 -1.6374,-2.9571 0.0865,-0.2256 0.32429,-0.2637 0.50303,-0.081 0.2302,0.2358 1.59863,2.6299 1.59901,2.7975 2.8e-4,0.1367 -0.16301,0.3515 -0.26722,0.3515 -0.0298,0 -0.11861,-0.05 -0.19742,-0.1112 z m -12.95732,-3.4883 c -0.0589,-0.071 -0.0938,-0.1959 -0.0776,-0.2773 0.0336,-0.1682 2.66351,-1.7291 2.91329,-1.7291 0.20625,0 0.37955,0.2055 0.31506,0.3737 -0.0506,0.1321 -2.77928,1.7619 -2.94976,1.7619 -0.0516,0 -0.14209,-0.058 -0.20102,-0.1292 z m 15.27062,-0.6888 c -0.76832,-0.4486 -1.41918,-0.8735 -1.44636,-0.9444 -0.0643,-0.1677 0.10924,-0.3732 0.31525,-0.3732 0.24978,0 2.8797,1.5609 2.91329,1.7291 0.0336,0.1681 -0.13452,0.4071 -0.28497,0.4052 -0.0551,-7e-4 -0.72888,-0.3682 -1.49721,-0.8167 z m -8.01077,-0.027 c -0.80239,-0.2208 -1.42263,-0.5922 -2.06882,-1.2389 -0.95568,-0.9565 -1.36828,-1.9509 -1.37027,-3.3028 -0.002,-1.2667 0.36351,-2.2243 1.19926,-3.1428 0.9421,-1.0355 2.05541,-1.5252 3.46759,-1.5252 1.41972,0 2.52369,0.4886 3.4833,1.5416 0.79655,0.8741 1.18251,1.8957 1.18251,3.13 0,1.3406 -0.41405,2.333 -1.37435,3.294 -0.97532,0.9761 -1.9625,1.3811 -3.33591,1.3686 -0.41567,0 -0.94816,-0.06 -1.18331,-0.1245 z m 2.59793,-0.7428 c 1.50368,-0.579 2.53274,-1.9317 2.65187,-3.4859 0.0902,-1.1773 -0.35703,-2.3629 -1.20324,-3.1895 -2.02134,-1.9745 -5.25795,-1.3827 -6.47596,1.1841 -0.72441,1.5266 -0.40356,3.3386 0.80543,4.5485 0.49728,0.4977 0.95935,0.7723 1.74033,1.0342 0.64163,0.2152 1.79585,0.1727 2.48157,-0.091 z m -11.21724,-3.313 c -0.23325,-0.136 -0.19325,-0.4279 0.0725,-0.529 0.12544,-0.048 0.84303,-0.087 1.59464,-0.087 0.75161,0 1.4692,0.039 1.59464,0.087 0.27336,0.104 0.3045,0.3999 0.0561,0.533 -0.22465,0.1203 -3.11053,0.1168 -3.31784,0 z m 16.35992,0 c -0.23324,-0.136 -0.19325,-0.4279 0.0725,-0.529 0.12544,-0.048 0.84302,-0.087 1.59464,-0.087 0.75161,0 1.4692,0.039 1.59464,0.087 0.27336,0.104 0.3045,0.3999 0.0561,0.533 -0.22466,0.1203 -3.11053,0.1168 -3.31785,0 z m -13.83307,-4.0645 c -0.74969,-0.4296 -1.40302,-0.8526 -1.45185,-0.94 -0.10475,-0.1873 0.0438,-0.4165 0.26958,-0.416 0.17621,3e-4 2.56378,1.367 2.81085,1.6089 0.13886,0.1359 0.15582,0.2059 0.0794,0.3274 -0.0535,0.085 -0.15293,0.1649 -0.22104,0.1777 -0.0681,0.013 -0.73723,-0.3283 -1.48692,-0.758 z m 12.98396,0.6725 c -0.27233,-0.2726 -0.0831,-0.4387 1.58601,-1.3921 0.61313,-0.3502 1.17838,-0.6368 1.25612,-0.6368 0.22176,0 0.36789,0.2283 0.26696,0.417 -0.0833,0.1558 -2.73267,1.7186 -2.91345,1.7186 -0.0489,0 -0.13696,-0.048 -0.19564,-0.1067 z m -9.38085,-2.5137 c -0.0709,-0.071 -0.48045,-0.7367 -0.9102,-1.4794 -0.81739,-1.4128 -0.87211,-1.6396 -0.39557,-1.6396 0.16903,0 0.33712,0.2312 0.99058,1.3625 0.43284,0.7494 0.78699,1.4321 0.78699,1.5172 0,0.1568 -0.1597,0.3682 -0.27817,0.3682 -0.0356,0 -0.12276,-0.058 -0.19363,-0.1289 z m 7.06912,0.022 c -0.19446,-0.1946 -0.11336,-0.4057 0.68348,-1.7791 0.64972,-1.1199 0.82579,-1.362 0.99057,-1.362 0.11023,0 0.2414,0.065 0.29151,0.1446 0.0714,0.1133 -0.0775,0.4359 -0.69026,1.495 -0.9479,1.6383 -1.03555,1.7415 -1.2753,1.5015 z m -3.39866,-1.1892 c -0.0952,-0.2506 -0.11968,-2.61 -0.0317,-3.0504 0.0681,-0.3406 0.36492,-0.4675 0.53834,-0.2301 0.15989,0.2188 0.16986,3.2432 0.0112,3.4019 -0.17916,0.1793 -0.42559,0.1216 -0.51789,-0.1214 z"
       style="fill:#ffffff;fill-opacity:1;stroke:none" />
  </g>
</svg>
