<?xml version="1.0" encoding="UTF-8"?>
<svg id="SVGDoc" width="269" height="168" xmlns="http://www.w3.org/2000/svg" version="1.1" xmlns:xlink="http://www.w3.org/1999/xlink" xmlns:avocode="https://avocode.com/" viewBox="0 0 269 168"><defs></defs><desc>Generated with Avocode.</desc><g><g><title>Group</title><g><title>Group</title><g><title>Vector</title><path d="M268.61546,102.81h-0.56064v2.18739h-1.36797v-1.82658h-0.56065v1.82659h-1.34556v-2.18739h-0.56064v2.79624h4.39546zM264.24243,108.13188v0.58631h2.71351c0.40367,0 0.71764,0.0902 0.91947,0.29315c0.20183,0.20295 0.29153,0.47356 0.29153,0.81182c0,0.4059 -0.11213,0.69905 -0.33639,0.87946c-0.22426,0.1804 -0.53821,0.29315 -0.91945,0.29315h-2.66867v0.58631h2.75838c0.2691,0 0.49336,-0.0451 0.71762,-0.11275c0.22426,-0.06765 0.40366,-0.18041 0.53821,-0.33826c0.15698,-0.1353 0.26912,-0.3157 0.35882,-0.5412c0.08971,-0.22551 0.11212,-0.45101 0.11212,-0.74417c0,-0.29315 -0.04484,-0.54121 -0.11212,-0.76671c-0.0897,-0.2255 -0.20184,-0.4059 -0.35882,-0.5412c-0.15698,-0.13531 -0.33638,-0.24806 -0.56064,-0.31571c-0.24668,-0.04511 -0.49336,-0.0902 -0.76247,-0.0902zM264.22,113.5665v0.6089l3.74511,1.3755l-3.74511,1.3756v0.6089l4.39546,-1.6237v-0.699zM268.61546,119.2943h-0.56064v2.1874h-1.36797v-1.8266h-0.56065v1.8266h-1.34556v-2.1874h-0.56064v2.7962h4.39546zM266.41773,126.7585h-1.63709v-0.654c0,-0.3383 0.06728,-0.6089 0.17941,-0.7893c0.11213,-0.2029 0.31397,-0.2931 0.58308,-0.2931c0.13455,0 0.24667,0.0225 0.3588,0.0676c0.11213,0.0451 0.17941,0.1128 0.24669,0.2255c0.06727,0.0902 0.11212,0.203 0.15698,0.3157c0.04485,0.1128 0.06729,0.2481 0.06729,0.4059zM266.93353,126.7585l-0.04486,-0.7442l1.74921,-1.0824v-0.7216l-1.83892,1.1951c-0.0897,-0.3157 -0.24667,-0.5412 -0.4485,-0.7216c-0.20184,-0.1804 -0.47095,-0.2706 -0.80733,-0.2706c-0.40366,0 -0.71762,0.1353 -0.94188,0.4059c-0.24668,0.2706 -0.35882,0.6765 -0.35882,1.2177v1.3305h4.39545v-0.6088z" fill="#0f1238" fill-opacity="1"></path></g><g><title>Vector</title><path d="M234.954,122.0379c1.099,0.203 2.399,0.2706 3.902,0.2706c3.431,0 5.898,-0.7441 7.378,-2.255c1.48,-1.5109 2.22,-3.8336 2.22,-6.9906c0,-3.47276 -0.762,-5.9533 -2.287,-7.46418c-1.525,-1.51087 -3.745,-2.25503 -6.661,-2.25503c-1.704,0 -2.893,0.3157 -3.566,0.92456c-0.65,0.60886 -0.986,1.87168 -0.986,3.78846zM267.471,143.7314c0,0.2706 -0.045,0.4059 -0.135,0.4059h-8.544c-1.099,0 -3.162,-1.8492 -6.212,-5.5249c-3.05,-3.6757 -6.66,-8.727 -10.854,-15.1764c-1.188,0.2706 -2.422,0.4059 -3.7,0.4059c-0.269,0 -1.256,-0.0676 -2.983,-0.2029v15.1087c0,1.3756 0.135,2.3904 0.404,2.9992c0.269,0.6089 0.763,1.0373 1.547,1.2628c0.785,0.2255 1.996,0.3383 3.678,0.3383c0.135,0 0.202,0.1353 0.202,0.4059c0,0.2706 -0.067,0.4059 -0.202,0.4059c-1.368,0 -2.467,-0.0226 -3.251,-0.0677l-4.575,-0.0676l-4.508,0.0676c-0.807,0.0451 -1.928,0.0677 -3.386,0.0677c-0.09,0 -0.135,-0.1353 -0.135,-0.4059c0,-0.2706 0.045,-0.4059 0.135,-0.4059c1.659,0 2.915,-0.1128 3.7,-0.3383c0.785,-0.2029 1.323,-0.6314 1.615,-1.2853c0.291,-0.654 0.426,-1.6462 0.426,-2.9767v-30.82629c0,-1.33046 -0.135,-2.32268 -0.404,-2.93154c-0.291,-0.60886 -0.785,-1.03732 -1.57,-1.28537c-0.784,-0.24806 -1.995,-0.36081 -3.677,-0.36081c-0.135,0 -0.202,-0.1353 -0.202,-0.40591c0,-0.2706 0.067,-0.40589 0.202,-0.40589l3.251,0.06764c1.862,0.09021 3.364,0.13531 4.508,0.13531c0.964,0 1.861,-0.02256 2.713,-0.06766c0.83,-0.0451 1.525,-0.09019 2.108,-0.13529c1.637,-0.13531 3.118,-0.20296 4.441,-0.20296c3.476,0 6.167,0.78926 8.073,2.39033c1.906,1.60108 2.848,3.74336 2.848,6.40434c0,2.4128 -0.695,4.5551 -2.086,6.4945c-1.39,1.9393 -3.251,3.4727 -5.539,4.5777c3.701,5.367 6.84,9.5613 9.374,12.6056c2.534,3.0443 4.777,5.2317 6.75,6.5622c1.951,1.3304 3.88,2.0069 5.786,2.0069c0.09,0 0.202,0.0902 0.202,0.3609zM208.671,134.2377c0,-0.0902 0.09,-0.1353 0.291,-0.1353c0.135,0 0.247,0.0225 0.359,0.0676c0.112,0.0451 0.18,0.1128 0.18,0.203c-0.404,2.7962 -0.606,5.7278 -0.606,8.7946c0,0.3608 -0.067,0.6088 -0.224,0.7667c-0.157,0.1578 -0.426,0.2255 -0.83,0.2255h-27.74c-0.09,0 -0.135,-0.1353 -0.135,-0.4059c0,-0.2706 0.045,-0.4059 0.135,-0.4059c1.682,0 2.892,-0.1128 3.677,-0.3383c0.785,-0.2029 1.301,-0.6314 1.593,-1.2853c0.291,-0.654 0.426,-1.6462 0.426,-2.9767v-30.82629c0,-1.33046 -0.135,-2.32268 -0.426,-2.93154c-0.292,-0.60886 -0.808,-1.03732 -1.593,-1.28537c-0.785,-0.24806 -1.995,-0.36081 -3.677,-0.36081c-0.09,0 -0.135,-0.1353 -0.135,-0.40591c0,-0.2706 0.045,-0.40589 0.135,-0.40589h26.596c0.404,0 0.606,0.20294 0.606,0.60885l0.112,8.16326c0,0.1353 -0.112,0.2029 -0.336,0.2255c-0.225,0.0225 -0.359,-0.0226 -0.404,-0.1579c-0.112,-2.34522 -0.83,-4.1718 -2.108,-5.47972c-1.278,-1.30792 -2.983,-1.96188 -5.091,-1.96188h-4.036c-1.548,0 -2.669,0.11276 -3.409,0.36081c-0.74,0.24805 -1.233,0.65396 -1.525,1.26282c-0.291,0.58631 -0.426,1.48832 -0.426,2.68349v13.53018h8.073c2.108,0 3.633,-0.3382 4.53,-1.0598c0.897,-0.6991 1.346,-1.8943 1.346,-3.5856c0,-0.0902 0.134,-0.1352 0.403,-0.1352c0.27,0 0.404,0.045 0.404,0.1352l-0.067,5.3896c0,1.2853 0.022,2.255 0.067,2.9315l0.067,3.2022c0,0.0902 -0.134,0.1353 -0.403,0.1353c-0.269,0 -0.404,-0.0451 -0.404,-0.1353c0,-1.9394 -0.493,-3.3375 -1.435,-4.1944c-0.942,-0.8344 -2.534,-1.2628 -4.732,-1.2628h-7.871v15.3117c0,1.2402 0.134,2.1423 0.403,2.7286c0.269,0.5863 0.74,0.9696 1.458,1.1951c0.718,0.2255 1.816,0.3383 3.319,0.3383h5.292c2.108,0 3.88,-0.7442 5.293,-2.255c1.413,-1.5109 2.355,-3.6081 2.848,-6.269zM168.17,102.53189c0.135,0 0.157,0.18039 0.157,0.451c0,0.2706 -0.067,0.4059 -0.202,0.4059c-1.457,0 -2.736,0.40591 -3.835,1.19518c-1.098,0.78926 -2.063,2.14228 -2.848,4.05905l-14.105,35.49428c-0.045,0.1804 -0.269,0.2706 -0.718,0.2706c-0.336,0 -0.583,-0.0902 -0.718,-0.2706l-8.611,-18.8521l-7.49,18.8521c-0.045,0.1804 -0.269,0.2706 -0.718,0.2706c-0.336,0 -0.583,-0.0902 -0.717,-0.2706l-16.483,-36.03549c-0.785,-1.78147 -1.57,-2.99919 -2.377,-3.69825c-0.808,-0.69906 -1.884,-1.03731 -3.252,-1.03731c-0.135,0 -0.202,-0.13531 -0.202,-0.40591c0,-0.27061 0.067,-0.40591 0.202,-0.40591l2.512,0.06765c1.233,0.0902 2.242,0.13531 2.982,0.13531c1.592,0 3.297,-0.04511 5.158,-0.13531l2.714,-0.06765c0.134,0 0.201,0.1353 0.201,0.40591c0,0.2706 -0.067,0.40591 -0.201,0.40591c-1.324,0 -2.288,0.15785 -2.938,0.47355c-0.651,0.31571 -0.965,0.85691 -0.965,1.60107c0,0.65396 0.225,1.46578 0.673,2.39034l14.106,30.44299l5.965,-14.8607l-7.019,-15.31169c-0.74,-1.69127 -1.525,-2.90899 -2.31,-3.6306c-0.807,-0.74416 -1.839,-1.10496 -3.117,-1.10496c-0.135,0 -0.202,-0.13531 -0.202,-0.40591c0,-0.27061 0.067,-0.40591 0.202,-0.40591l2.444,0.06765c1.234,0.0902 2.176,0.13531 2.848,0.13531c1.279,0 2.579,-0.04511 3.902,-0.13531l1.862,-0.06765c0.134,0 0.202,0.1353 0.202,0.40591c0,0.2706 -0.068,0.40591 -0.202,0.40591c-0.83,0 -1.413,0.06765 -1.749,0.20295c-0.337,0.11275 -0.494,0.38335 -0.494,0.78926c0,0.58631 0.404,1.73638 1.189,3.47275l4.821,10.39569l3.902,-9.92213c0.471,-1.33047 0.718,-2.32268 0.718,-2.99919c0,-0.67651 -0.224,-1.15007 -0.673,-1.46578c-0.426,-0.3157 -1.143,-0.47355 -2.108,-0.47355c-0.134,0 -0.202,-0.13531 -0.202,-0.40591c0,-0.27061 0.068,-0.40591 0.202,-0.40591l1.525,0.06765c0.875,0.0902 1.817,0.13531 2.781,0.13531c0.875,0 1.906,-0.04511 3.05,-0.13531l2.713,-0.06765c0.09,0 0.135,0.1353 0.135,0.40591c0,0.2706 -0.045,0.40591 -0.135,0.40591c-1.502,0 -2.78,0.38335 -3.834,1.17261c-1.054,0.76672 -1.974,2.14228 -2.714,4.08161l-4.508,11.38793l8.41,18.2432l11.841,-29.83408c0.359,-0.92457 0.538,-1.71383 0.538,-2.32269c0,-0.94711 -0.404,-1.62362 -1.188,-2.07462c-0.785,-0.45101 -2.041,-0.67652 -3.768,-0.67652c-0.135,0 -0.202,-0.1353 -0.202,-0.40591c0,-0.2706 0.067,-0.40589 0.202,-0.40589l2.781,0.06764c1.413,0.09021 2.736,0.13531 3.969,0.13531c0.942,0 1.974,-0.0451 3.117,-0.13531zM82.5265,141.341c2.3995,-1.4432 4.3057,-3.608 5.6961,-6.4494c1.3904,-2.8413 2.0856,-6.2239 2.0856,-10.1251c0,-4.1718 -0.7625,-7.8701 -2.3099,-11.1173c-1.5473,-3.24725 -3.7226,-5.77289 -6.5258,-7.59947c-2.8032,-1.80402 -6.0774,-2.72859 -9.8225,-2.72859c-4.8664,0 -8.6563,1.57852 -11.3922,4.73557c-2.736,3.15709 -4.1039,7.48669 -4.1039,12.98899c0,4.1944 0.7625,7.9828 2.3098,11.433c1.525,3.4277 3.7003,6.1337 6.481,8.1182c2.7808,1.9618 5.9428,2.954 9.4637,2.954c3.005,0 5.7185,-0.7216 8.1181,-2.2099zM61.1324,142.0401c-3.2069,-1.9393 -5.6737,-4.5552 -7.4229,-7.8701c-1.7492,-3.3149 -2.6238,-6.9229 -2.6238,-10.8242c0,-4.5551 1.1661,-8.4789 3.4535,-11.7487c2.2874,-3.26979 5.2476,-5.70522 8.8357,-7.35139c3.6106,-1.64618 7.2884,-2.45799 11.0335,-2.45799c4.1936,0 7.8714,0.99221 11.0558,2.97664c3.1621,1.98443 5.6064,4.57773 7.3108,7.82494c1.7043,3.2473 2.5565,6.6749 2.5565,10.3281c0,4.0365 -1.0764,7.7347 -3.1844,11.1173c-2.108,3.36 -4.9561,6.0209 -8.4993,7.9828c-3.5433,1.9619 -7.4005,2.9316 -11.5493,2.9316c-4.1039,0 -7.7593,-0.9697 -10.9661,-2.909zM10.0018,103.72704c-2.78073,0 -4.86632,0.72161 -6.27914,2.16483c-1.39039,1.42067 -2.39955,3.85611 -3.00504,7.26122c0,0.0902 -0.11213,0.1353 -0.35881,0.1353c-0.24668,0 -0.35881,-0.0451 -0.35881,-0.1353c0.1794,-1.6011 0.38123,-3.69827 0.60549,-6.26901c0.22426,-2.57074 0.33639,-4.51006 0.33639,-5.79543c0,-0.2255 0.11213,-0.33825 0.33638,-0.38335c0.24669,0 0.35881,0.11276 0.35881,0.33826c0,0.96967 1.18856,1.46577 3.56569,1.46577c3.74508,0.1353 8.18534,0.20295 13.29844,0.20295c2.6014,0 5.3597,-0.0451 8.2751,-0.1353l4.5075,-0.06765c1.5922,0 2.7584,-0.11275 3.5433,-0.33825c0.7849,-0.2255 1.2782,-0.65396 1.5025,-1.33047c0.0448,-0.1804 0.1794,-0.27061 0.4036,-0.27061c0.2243,0 0.3364,0.09021 0.3364,0.27061c-0.1345,1.28537 -0.2691,3.24725 -0.4036,5.86308c-0.1346,2.61584 -0.2019,4.75811 -0.2019,6.40431c0,0.0902 -0.1345,0.1353 -0.4036,0.1353c-0.2691,0 -0.4037,-0.0451 -0.4037,-0.1353c-0.1121,-3.47276 -0.8297,-5.9082 -2.108,-7.30632c-1.2783,-1.39812 -3.3863,-2.09718 -6.3465,-2.09718c-1.9958,0 -3.3862,0.0902 -4.2384,0.27061c-0.8522,0.1804 -1.4128,0.5412 -1.7268,1.12751c-0.3139,0.58631 -0.4709,1.55597 -0.4709,2.93154v30.71354c0,1.3756 0.157,2.3904 0.4709,2.9992c0.314,0.6089 0.9195,1.0373 1.7941,1.2628c0.8746,0.2255 2.265,0.3383 4.1711,0.3383c0.1346,0 0.2019,0.1353 0.2019,0.4059c0,0.2706 -0.0673,0.4059 -0.2019,0.4059c-1.4352,0 -2.6238,-0.0226 -3.4984,-0.0677l-5.1579,-0.0676l-4.956,0.0676c-0.8746,0.0451 -2.0856,0.0677 -3.633,0.0677c-0.08971,0 -0.13456,-0.1353 -0.13456,-0.4059c0,-0.2706 0.04485,-0.4059 0.13456,-0.4059c1.9062,0 3.2966,-0.1128 4.1712,-0.3383c0.8746,-0.2029 1.4801,-0.6314 1.8165,-1.2853c0.3139,-0.654 0.4933,-1.6462 0.4933,-2.9767v-30.82629c0,-1.35302 -0.157,-2.34524 -0.4709,-2.88644c-0.314,-0.54121 -0.8746,-0.90201 -1.7268,-1.05986c-0.8522,-0.18041 -2.2426,-0.24806 -4.2385,-0.24806z" fill="#0f1238" fill-opacity="1"></path></g></g><g><title>Vector</title><path d="M118.6052,58.6534v4.7582h1.5698v4.7581h-3.1396v-15.8529h1.5698v1.5785h1.5698v4.7581zM123.3371,58.6534v4.7582h1.5698v4.7581h-3.1396v-15.8529h1.5698v1.5785h1.5698v4.7581zM113.8734,58.6534v4.7582h1.5698v4.7581h-3.13957v-15.8529h1.56977v1.5785h1.5698v4.7581zM159.5769,52.3168h1.5698v15.8529h-1.5698zM109.14161,53.8953h1.5698v4.7581h-1.5698v4.7582h1.5698v4.7581h-3.1396v-15.8529h1.5698zM156.4374,53.8953h1.5698v4.7581h-1.5698v4.7582h1.5698v4.7581h-3.1396v-15.8529h1.5698zM149.3284,71.3493h7.8714v6.3366h-45.7035v-6.3366h7.9163v4.7581h1.5698v-4.7581h9.4636v4.7581h1.5698v-4.7581h1.5698v4.7581h1.5698v-4.7581h1.5698v4.7581h1.5698v-4.7581h9.4636v4.7581h1.5698zM142.2643,58.6534v4.7582h1.5698v4.7581h-3.1396v-15.8529h1.5698v1.5785h1.5698v4.7581zM151.7055,58.6534v4.7582h1.5698v4.7581h-3.1396v-15.8529h1.5698v1.5785h1.5698v4.7581zM139.8872,41.222h-1.5698v4.7582h1.5698zM136.7252,41.222h-1.5698v4.7582h1.5698zM135.1554,33.3069h1.5698v-4.7582h-1.5698zM133.5632,41.222h-1.5698v4.7582h1.5698zM131.9934,33.3069h1.5698v-4.7582h-1.5698zM130.4236,41.222h-1.5698v4.7582h1.5698zM165.8786,49.1372h-63.0386l7.87141,-4.7581l23.65909,-39.64353l23.6367,39.64353zM132.8007,1.57852c0,-0.85691 0.7176,-1.57852 1.5698,-1.57852c0.8522,0 1.5698,0.69906 1.5698,1.57852c0,0.85692 -0.6952,1.57853 -1.5698,1.57853c-0.8746,0 -1.5922,-0.69906 -1.5698,-1.57853zM146.9737,58.6534v4.7582h1.5698v4.7581h-3.1396v-15.8529h1.5698v1.5785h1.5698v4.7581zM132.8007,58.6534v4.7582h1.5698v4.7581h-3.1396v-15.8529h1.5698v1.5785h1.5698v4.7581zM128.0689,58.6534v4.7582h1.5698v4.7581h-3.1396v-15.8529h1.5698v1.5785h1.5698v4.7581zM137.5325,58.6534v4.7582h1.5698v4.7581h-3.1396v-15.8529h1.5698v1.5785h1.5698v4.7581z" fill="#0f1238" fill-opacity="1"></path></g><g><title>Group</title><g><title>Vector</title><path d="M1.75005,163.10946c-0.02243,-0.40591 -0.02243,-0.51865 -0.49336,-0.60885c-0.1794,-0.0451 -0.24668,-0.0902 -0.24668,-0.15785c0,-0.06765 0.0897,-0.11276 0.22426,-0.11276c0.22426,0 0.65034,0.02256 0.94188,0.02256c0.42608,0 0.60549,-0.02256 0.91945,-0.02256c0.13455,0 0.22425,0.04511 0.22425,0.11276c0,0.06765 -0.0897,0.11275 -0.22425,0.1353c-0.49337,0.11275 -0.49337,0.3157 -0.51579,0.5412c-0.04485,0.29315 -0.04485,0.85692 -0.04485,2.5482c0,0.47356 0,1.01476 0.02242,1.28537c0.02243,0.47356 0.06728,0.6314 0.62792,0.74415c0.15698,0.02255 0.22426,0.09021 0.22426,0.13531c0,0.06765 -0.13456,0.11274 -0.22426,0.11274c-0.42609,0 -1.05401,-0.04509 -1.27826,-0.04509c-0.24668,0 -0.33639,0.02255 -0.65034,0.02255c-0.15698,0 -0.22426,-0.06765 -0.22426,-0.11275c0,-0.06765 0.0897,-0.11275 0.24668,-0.1353c0.42609,-0.0902 0.47094,-0.2255 0.49336,-0.63141c0.02243,-0.3157 0.04485,-1.19517 0.04485,-1.93933c-0.04485,-0.54121 -0.06728,-1.60108 -0.06728,-1.89424z" fill="#0f1238" fill-opacity="1"></path></g><g><title>Vector</title><path d="M4.1766,162.25c0.17941,0 0.60549,0.02256 1.05401,0.02256c0.04485,0 0.13455,0.06764 0.1794,0.11274c0.13456,0.15785 0.33639,0.40592 0.67277,0.85692c0.38124,0.49611 2.265,2.54818 2.84807,3.17959c0.04485,0.0451 0.0897,-0.0451 0.0897,-0.06765c0.04485,-0.2706 0.02242,-1.21772 0.02242,-2.43544c0,-0.29315 -0.02242,-0.60885 -0.04485,-0.85691c0,-0.1804 -0.06727,-0.38336 -0.53821,-0.51866c-0.17941,-0.0451 -0.22426,-0.11276 -0.22426,-0.18041c0,-0.06765 0.11213,-0.06765 0.22426,-0.06765c0.22425,0 0.47094,0 0.74004,0c0.31396,0 0.58307,-0.04509 0.80733,-0.04509c0.13455,0 0.20183,0.02255 0.20183,0.0902c0,0.0451 -0.04485,0.13529 -0.20183,0.18039c-0.35881,0.0902 -0.51579,0.15787 -0.53822,0.63142c-0.02242,0.3157 -0.0897,2.00697 -0.0897,3.49529c0,0.3608 0.06728,1.01477 0.06728,1.15007c0,0.0902 -0.04485,0.18041 -0.11213,0.18041c-0.11213,0 -0.31396,-0.18041 -0.38124,-0.27061c-0.13455,-0.18041 -0.29153,-0.40592 -0.53822,-0.67652c-0.80732,-0.96966 -2.28741,-2.63838 -3.07231,-3.5855c-0.04485,-0.0451 -0.08971,-0.02254 -0.08971,0.02256c0,0.2255 -0.04485,0.47354 -0.04485,1.15005c0,0.78927 -0.02242,2.09719 0,2.3678c0.04485,0.4059 0.13456,0.51866 0.53822,0.65396c0.17941,0.0451 0.22426,0.11275 0.22426,0.15785c0,0.0902 -0.11213,0.11276 -0.26911,0.11276c-0.24668,0 -0.6055,-0.04511 -0.91945,-0.04511c-0.17941,0 -0.42609,0.02255 -0.56064,0.02255c-0.11213,0 -0.22426,0 -0.22426,-0.0902c0,-0.06765 0.0897,-0.11275 0.1794,-0.1353c0.40366,-0.1353 0.56064,-0.1804 0.60549,-0.81181c0.04485,-0.69906 0.15698,-2.77369 0.15698,-3.47275c0,-0.31571 -0.04485,-0.38337 -0.06728,-0.42847c-0.24668,-0.29315 -0.33639,-0.29315 -0.71762,-0.40591c-0.0897,-0.02255 -0.17941,-0.06765 -0.17941,-0.1353c-0.0897,-0.1353 0,-0.15785 0.20183,-0.15785z" fill="#0f1238" fill-opacity="1"></path></g><g><title>Vector</title><path d="M13.83747,162.26784c0.04485,0.02255 0.11212,0.1353 0.11212,0.15785c0.02243,0.15785 0.08971,0.67651 0.08971,0.69906c0,0.13531 0,0.24805 -0.06728,0.24805c-0.06728,0 -0.17941,-0.06765 -0.20183,-0.18041c-0.11213,-0.3157 -0.33639,-0.56375 -0.42609,-0.60885c-0.15698,-0.11275 -0.35881,-0.20296 -0.60549,-0.20296c-0.58307,0 -0.98673,0.42847 -0.98673,1.01478c0,0.60885 0.42609,0.87945 1.18856,1.39811c0.67277,0.451 1.18856,0.902 1.18856,1.66872c0,0.42845 -0.24668,0.92456 -0.6952,1.21772c-0.2691,0.1804 -0.78489,0.3157 -1.16613,0.3157c-0.26911,0 -0.85218,-0.0902 -1.12129,-0.2255c-0.0897,-0.0451 -0.20183,-0.24804 -0.20183,-0.27059c-0.04485,-0.29316 -0.13455,-0.67651 -0.13455,-0.81182c0,-0.0451 0.0897,-0.15785 0.11213,-0.15785c0.06728,0 0.20183,0.22549 0.31396,0.49609c0.22426,0.47356 0.7849,0.67652 1.12128,0.67652c0.60549,0 1.03158,-0.42845 1.03158,-1.03731c0,-0.36081 -0.1794,-0.74417 -1.07643,-1.33048c-0.71762,-0.47356 -1.23341,-0.96965 -1.23341,-1.71381c0,-0.40591 0.1794,-0.78927 0.47094,-1.05987c0.26911,-0.24805 0.67277,-0.42846 1.27826,-0.42846c0.40366,-0.02255 0.85218,0.11276 1.00916,0.13531z" fill="#0f1238" fill-opacity="1"></path></g><g><title>Vector</title><path d="M16.86618,162.4555c-0.0897,0 -0.1794,0.0451 -0.24668,0.06765c-0.04485,0.02255 -0.06728,0.13531 -0.0897,0.33826c0,0.1804 0,1.24027 -0.02243,2.25503c0,0.78926 0.02243,1.51088 0.02243,1.71383c0,0.56376 0.06727,0.6314 0.51579,0.7667c0.15698,0.04511 0.22425,0.09022 0.22425,0.15787c0,0.06765 -0.15697,0.11274 -0.29153,0.11274c-0.22426,0 -0.51579,-0.04509 -0.89703,-0.04509c-0.24668,0 -0.60549,0.04509 -0.8746,0.04509c-0.13455,0 -0.24668,-0.04509 -0.24668,-0.11274c0,-0.06765 0.0897,-0.11276 0.17941,-0.13531c0.49336,-0.11275 0.58307,-0.2706 0.60549,-0.63141c0.02243,-0.42845 0.04485,-1.12752 0.04485,-1.55598c0,-0.29315 -0.02243,-2.11972 -0.02243,-2.39033c0,-0.3157 0,-0.42846 -0.49336,-0.49611c-0.1794,-0.02255 -0.26911,-0.06765 -0.26911,-0.1353c0,-0.06765 0.0897,-0.11276 0.20183,-0.11276c0.06728,0 0.20183,0 0.29153,0c0.33639,0 1.00915,-0.06765 1.43525,-0.06765c0.7849,0 1.27826,0.20296 1.59222,0.49611c0.42609,0.40591 0.49337,0.87946 0.49337,1.17261c0,0.76671 -0.35882,1.12753 -0.6055,1.33048c-0.22425,0.1804 -0.60549,0.38335 -0.98673,0.38335c-0.0897,0 -0.31395,0 -0.44851,-0.06765c-0.11213,-0.0451 -0.13455,-0.09019 -0.13455,-0.13529c0,-0.0451 0.04485,-0.06767 0.11213,-0.06767c0.06727,0 0.1794,0 0.22425,0c0.44851,0 1.07643,-0.40589 1.07643,-1.39811c0,-0.81181 -0.58306,-1.48833 -1.39039,-1.48833z" fill="#0f1238" fill-opacity="1"></path></g><g><title>Vector</title><path d="M20.61005,163.10946c-0.02243,-0.40591 -0.02243,-0.51865 -0.49336,-0.60885c-0.1794,-0.0451 -0.24668,-0.0902 -0.24668,-0.15785c0,-0.06765 0.0897,-0.11276 0.22426,-0.11276c0.22426,0 0.65034,0.02256 0.94188,0.02256c0.42609,0 0.6055,-0.02256 0.91945,-0.02256c0.13456,0 0.22426,0.04511 0.22426,0.11276c0,0.06765 -0.0897,0.11275 -0.22426,0.1353c-0.49336,0.11275 -0.49336,0.3157 -0.51578,0.5412c-0.04486,0.29315 -0.04486,0.85692 -0.04486,2.5482c0,0.47356 0,1.01476 0.02243,1.28537c0.02242,0.47356 0.06728,0.6314 0.62792,0.74415c0.15698,0.02255 0.22425,0.09021 0.22425,0.13531c0,0.06765 -0.13455,0.11274 -0.22425,0.11274c-0.42609,0 -1.05401,-0.04509 -1.27826,-0.04509c-0.24668,0 -0.33638,0.02255 -0.65034,0.02255c-0.15698,0 -0.22426,-0.06765 -0.22426,-0.11275c0,-0.06765 0.0897,-0.11275 0.24668,-0.1353c0.42609,-0.0902 0.47094,-0.2255 0.49336,-0.63141c0.02243,-0.3157 0.04485,-1.19517 0.04485,-1.93933c-0.04485,-0.54121 -0.04485,-1.60108 -0.06728,-1.89424z" fill="#0f1238" fill-opacity="1"></path></g><g><title>Vector</title><path d="M26.259,164.86583c-0.04485,0.02255 -0.20183,0.11276 -0.26911,0.13531c-0.02242,0.02255 -0.04485,0.0902 -0.04485,0.1353c0.0897,0.20295 0.80732,1.37558 1.32312,1.96189c0.22425,0.2706 0.47093,0.42844 0.85217,0.51864c0.06728,0.02255 0.13456,0.09021 0.13456,0.11276c0,0.0451 -0.06728,0.09019 -0.11213,0.11274c-0.11213,0.0451 -0.29154,0.06767 -0.47094,0.06767c-0.40366,0 -0.89703,-0.24805 -1.14371,-0.56376c-0.29154,-0.42846 -0.74005,-1.08242 -1.07643,-1.62363c-0.11213,-0.1804 -0.29154,-0.40591 -0.33639,-0.42846c-0.04485,-0.0451 -0.35881,-0.11276 -0.60549,-0.11276c-0.06728,0 -0.11213,0.06766 -0.11213,0.11276c0,0.1353 0,1.24026 0.04485,1.73637c0.02243,0.36081 0.11213,0.49611 0.51579,0.58631c0.13455,0.0451 0.20183,0.11277 0.20183,0.13532c0,0.0902 -0.15698,0.11274 -0.20183,0.11274c-0.35881,0 -0.51579,-0.04509 -1.09886,-0.04509c-0.15698,0 -0.60549,0.04509 -0.6952,0.04509c-0.11213,0 -0.22426,-0.04509 -0.22426,-0.11274c0,-0.06765 0.06728,-0.09022 0.17941,-0.13532c0.38124,-0.11275 0.53822,-0.1804 0.56064,-0.49611c0.02243,-0.2706 0.04485,-1.1726 0.04485,-1.71381c0,-1.33047 -0.02243,-2.11974 -0.04485,-2.43544c-0.04485,-0.3157 -0.11213,-0.33826 -0.49336,-0.42846c-0.13455,-0.0451 -0.20183,-0.06765 -0.20183,-0.1353c0,-0.06765 0.04485,-0.11276 0.22426,-0.11276c0.26911,0 0.29153,0 0.49337,0c0.31396,0 0.91946,-0.04509 1.3904,-0.04509c0.60549,0 1.054,0.06764 1.39039,0.3608c0.29153,0.2255 0.49336,0.67651 0.49336,1.08242c-0.02242,0.42846 -0.29153,0.92456 -0.71762,1.17261zM25.78806,162.81376c-0.20183,-0.20295 -0.58307,-0.3157 -0.85218,-0.3157c-0.04485,0 -0.31395,0.02255 -0.42608,0.06765c-0.04485,0.02255 -0.11213,0.13531 -0.11213,0.18041c-0.02243,0.3157 -0.04485,1.96187 -0.02243,2.11972c0.02243,0.06765 0.08971,0.13531 0.13456,0.13531c0.49336,0 0.9643,-0.13531 1.07643,-0.22551c0.24668,-0.13531 0.56064,-0.51865 0.56064,-1.05985c0.04485,-0.24806 -0.0897,-0.65397 -0.35881,-0.90202z" fill="#0f1238" fill-opacity="1"></path></g><g><title>Vector</title><path d="M31.46202,162.31294c0.06727,0.24805 0.22425,0.60886 0.38123,1.05987c0.44852,1.26282 1.07644,2.97664 1.23342,3.3149c0.29153,0.69906 0.42608,0.78926 0.80732,0.87946c0.13455,0.0451 0.20183,0.09019 0.20183,0.13529c0,0.0451 -0.06727,0.11276 -0.26911,0.11276c-0.29153,0 -0.69519,-0.04511 -1.07643,-0.04511c-0.26911,0 -0.40366,0.02256 -0.60549,0.02256c-0.20183,0 -0.26911,-0.06766 -0.26911,-0.11276c0,-0.0451 0.04485,-0.11275 0.20183,-0.1353c0.42609,-0.0902 0.38124,-0.24806 0.33639,-0.42846c-0.06728,-0.3608 -0.29154,-0.92455 -0.49337,-1.46575c0,-0.0451 -0.04485,-0.09021 -0.29153,-0.09021c-0.47094,0 -1.23341,-0.00001 -1.41282,0.0451c-0.04485,0 -0.06728,0.04509 -0.0897,0.06764c-0.22426,0.56376 -0.44851,1.28538 -0.44851,1.51089c0,0.11275 0.04485,0.24804 0.42608,0.36079c0.13456,0.0451 0.22426,0.0902 0.22426,0.15785c0,0.0902 -0.13455,0.11276 -0.24668,0.11276c-0.13456,0 -0.35881,-0.02255 -0.67277,-0.02255c-0.31396,0 -0.76247,0.04509 -0.89703,0.04509c-0.15698,0 -0.20183,-0.04509 -0.20183,-0.09019c0,-0.0451 0.06728,-0.1353 0.17941,-0.1804c0.42609,-0.1353 0.53822,-0.1804 0.7849,-0.72161c0.20183,-0.42846 1.16614,-3.0443 1.52495,-3.92377c0.04485,-0.11275 0.06728,-0.1804 0.06728,-0.2255c0,-0.02255 0.02242,-0.06764 0.06727,-0.1353c0.04485,-0.0902 0.13456,-0.24806 0.20183,-0.33826c0.06728,-0.06765 0.08971,-0.11274 0.13456,-0.11274c0.0897,0 0.13455,0.02254 0.20183,0.20294zM31.73113,165.13173c-0.13456,-0.42845 -0.6055,-1.73637 -0.67277,-1.84912c-0.02243,-0.0451 -0.04485,-0.06765 -0.06728,0c-0.15698,0.42845 -0.60549,1.62361 -0.67277,1.89421c0,0.0451 0,0.06767 0.04485,0.06767c0.33639,0 1.05401,-0.00001 1.32312,-0.02256c0.02242,-0.0451 0.06727,-0.06765 0.04485,-0.0902z" fill="#0f1238" fill-opacity="1"></path></g><g><title>Vector</title><path d="M38.16969,162.25317c0.31396,-0.02255 0.47094,-0.06765 0.58307,-0.15785c0.06727,-0.0451 0.0897,-0.04511 0.11213,-0.04511c0.04485,0 0.06727,0.06766 0.04485,0.20296c-0.08971,0.2706 -0.13456,0.54121 -0.17941,0.99222c0,0.06765 -0.06727,0.15785 -0.13455,0.15785c-0.06728,0 -0.0897,-0.06766 -0.11213,-0.27061c-0.04485,-0.45101 -0.15698,-0.49612 -0.6952,-0.51867c-0.13455,0 -1.09885,0 -1.21098,0.02255c-0.04485,0 -0.06728,0.09021 -0.06728,0.11276c0,0.4059 0,1.35301 0,2.11972c0,0.99221 0,1.82659 0.04485,2.14229c0.04485,0.38336 0.08971,0.4961 0.6055,0.60885c0.11212,0.02255 0.22425,0.0902 0.22425,0.15786c0,0.0902 -0.15698,0.11275 -0.24668,0.11275c-0.06728,0 -0.60549,-0.04511 -0.9643,-0.04511c-0.42609,0 -0.87461,0.06767 -0.96431,0.06767c-0.17941,0 -0.24668,-0.04511 -0.24668,-0.11276c0,-0.06765 0.0897,-0.1353 0.15698,-0.1353c0.60549,-0.1353 0.60549,-0.29316 0.65034,-0.92457c0.02243,-0.49611 0.06728,-2.25502 0.06728,-2.93153c0,-0.49611 0,-0.65398 0,-1.03734c0,-0.06765 -0.04485,-0.11274 -0.06728,-0.11274c-0.1794,-0.02255 -0.91945,-0.04511 -1.054,-0.04511c-0.31396,0 -0.49337,0.04511 -0.62792,0.20296c-0.04485,0.02255 -0.13455,0.15785 -0.29153,0.451c-0.06728,0.18041 -0.13455,0.18041 -0.15698,0.18041c-0.04485,0 -0.0897,-0.11274 -0.0897,-0.20294c0,-0.15786 0.15698,-0.63142 0.15698,-1.15008c0,-0.0451 0.06728,-0.13531 0.13456,-0.13531c0.04485,0 0.04485,0.06766 0.13455,0.13531c0.02243,0.02255 0.15698,0.15785 0.29153,0.15785c0.22426,0.02255 0.89703,0.04509 1.99589,0.04509c0.40366,-0.02255 1.54737,-0.04509 1.90618,-0.04509z" fill="#0f1238" fill-opacity="1"></path></g><g><title>Vector</title><path d="M40.30005,163.10946c-0.02243,-0.40591 -0.02242,-0.51865 -0.49336,-0.60885c-0.17941,-0.0451 -0.24668,-0.0902 -0.24668,-0.15785c0,-0.06765 0.0897,-0.11276 0.22426,-0.11276c0.22426,0 0.65035,0.02256 0.94188,0.02256c0.42609,0 0.60549,-0.02256 0.91945,-0.02256c0.13456,0 0.22426,0.04511 0.22426,0.11276c0,0.06765 -0.0897,0.11275 -0.22426,0.1353c-0.49336,0.11275 -0.49336,0.3157 -0.51579,0.5412c-0.04485,0.29315 -0.04485,0.85692 -0.04485,2.5482c0,0.47356 0,1.01476 0.02243,1.28537c0.02242,0.47356 0.06727,0.6314 0.62791,0.74415c0.15698,0.02255 0.22426,0.09021 0.22426,0.13531c0,0.06765 -0.13455,0.11274 -0.22426,0.11274c-0.42608,0 -1.054,-0.04509 -1.27826,-0.04509c-0.24668,0 -0.33638,0.02255 -0.65034,0.02255c-0.15698,0 -0.22426,-0.06765 -0.22426,-0.11275c0,-0.06765 0.0897,-0.11275 0.24668,-0.1353c0.42609,-0.0902 0.47094,-0.2255 0.49337,-0.63141c0.02243,-0.3157 0.04485,-1.19517 0.04485,-1.93933c-0.02243,-0.54121 -0.04485,-1.60108 -0.06728,-1.89424z" fill="#0f1238" fill-opacity="1"></path></g><g><title>Vector</title><path d="M48.5931,164.95134c0,1.21772 -0.60549,2.05208 -1.21099,2.50309c-0.53821,0.38336 -1.25583,0.49611 -1.68192,0.49611c-0.8746,0 -1.70435,-0.38336 -2.24257,-0.96967c-0.44851,-0.51865 -0.71762,-1.21772 -0.71762,-1.93933c0,-1.05987 0.47094,-1.78148 1.12128,-2.32269c0.42609,-0.33826 1.14371,-0.60885 1.74921,-0.60885c1.6595,0 2.98261,1.21771 2.98261,2.84134zM44.24252,162.87671c-0.38124,0.36081 -0.67277,1.01478 -0.67277,2.02954c0,1.28537 0.94188,2.75115 2.30984,2.75115c0.71762,0 1.03159,-0.3157 1.14371,-0.4059c0.33639,-0.31571 0.71762,-1.01478 0.71762,-2.02954c0,-0.94712 -0.40366,-1.84914 -1.03157,-2.3678c-0.35882,-0.29315 -0.89704,-0.47356 -1.27827,-0.47356c-0.35881,0 -0.8746,0.20296 -1.18856,0.49611z" fill="#0f1238" fill-opacity="1"></path></g><g><title>Vector</title><path d="M49.6066,162.25c0.1794,0 0.6055,0.02256 1.05401,0.02256c0.04485,0 0.13456,0.06764 0.17941,0.11274c0.13455,0.15785 0.33638,0.40592 0.67277,0.85692c0.38123,0.49611 2.26499,2.54818 2.84806,3.17959c0.04485,0.0451 0.0897,-0.0451 0.0897,-0.06765c0.04485,-0.2706 0.02243,-1.21772 0.02243,-2.43544c0,-0.29315 -0.02243,-0.60885 -0.04486,-0.85691c0,-0.1804 -0.06727,-0.38336 -0.53821,-0.51866c-0.17941,-0.0451 -0.22426,-0.11276 -0.22426,-0.18041c0,-0.06765 0.11213,-0.06765 0.22426,-0.06765c0.22425,0 0.47094,0 0.74004,0c0.31396,0 0.58307,-0.04509 0.80733,-0.04509c0.13455,0 0.20183,0.02255 0.20183,0.0902c0,0.0451 -0.04485,0.13529 -0.20183,0.18039c-0.35881,0.0902 -0.51579,0.15787 -0.53822,0.63142c-0.02242,0.3157 -0.0897,2.00697 -0.0897,3.49529c0,0.3608 0.06728,1.01477 0.06728,1.15007c0,0.0902 -0.04485,0.18041 -0.11213,0.18041c-0.11213,0 -0.31396,-0.18041 -0.38123,-0.27061c-0.13456,-0.18041 -0.29154,-0.40592 -0.53822,-0.67652c-0.80733,-0.96966 -2.28742,-2.63838 -3.07232,-3.5855c-0.04485,-0.0451 -0.08971,-0.02254 -0.08971,0.02256c0,0.2255 -0.04484,0.47354 -0.04484,1.15005c0,0.78927 -0.02243,2.09719 0,2.3678c0.04485,0.4059 0.13455,0.51866 0.53821,0.65396c0.17941,0.0451 0.22426,0.11275 0.22426,0.15785c0,0.0902 -0.11213,0.11276 -0.26911,0.11276c-0.24668,0 -0.60549,-0.04511 -0.91945,-0.04511c-0.17941,0 -0.42609,0.02255 -0.56064,0.02255c-0.11213,0 -0.22426,0 -0.22426,-0.0902c0,-0.06765 0.0897,-0.11275 0.17941,-0.1353c0.40366,-0.1353 0.56064,-0.1804 0.60549,-0.81181c0.04485,-0.69906 0.15698,-2.77369 0.15698,-3.47275c0,-0.31571 -0.04485,-0.38337 -0.06728,-0.42847c-0.24668,-0.29315 -0.33639,-0.29315 -0.71762,-0.40591c-0.0897,-0.02255 -0.17941,-0.06765 -0.17941,-0.1353c-0.0897,-0.1353 0,-0.15785 0.20183,-0.15785z" fill="#0f1238" fill-opacity="1"></path></g><g><title>Vector</title><path d="M61.62202,162.31294c0.06728,0.24805 0.22426,0.60886 0.38124,1.05987c0.44851,1.26282 1.07643,2.97664 1.23341,3.3149c0.29153,0.69906 0.42608,0.78926 0.80732,0.87946c0.13455,0.0451 0.20183,0.09019 0.20183,0.13529c0,0.0451 -0.06728,0.11276 -0.26911,0.11276c-0.29153,0 -0.69519,-0.04511 -1.07643,-0.04511c-0.26911,0 -0.40366,0.02256 -0.60549,0.02256c-0.20183,0 -0.26911,-0.06766 -0.26911,-0.11276c0,-0.0451 0.04485,-0.11275 0.20183,-0.1353c0.42609,-0.0902 0.38124,-0.24806 0.33639,-0.42846c-0.06728,-0.3608 -0.29154,-0.92455 -0.49337,-1.46575c0,-0.0451 -0.04485,-0.09021 -0.29153,-0.09021c-0.47094,0 -1.23341,-0.00001 -1.41282,0.0451c-0.04485,0 -0.06728,0.04509 -0.0897,0.06764c-0.22426,0.56376 -0.44852,1.28538 -0.44852,1.51089c0,0.11275 0.04486,0.24804 0.42609,0.36079c0.13456,0.0451 0.22426,0.0902 0.22426,0.15785c0,0.0902 -0.13456,0.11276 -0.24668,0.11276c-0.13456,0 -0.35881,-0.02255 -0.67277,-0.02255c-0.31396,0 -0.76247,0.04509 -0.89703,0.04509c-0.15698,0 -0.20183,-0.04509 -0.20183,-0.09019c0,-0.0451 0.06728,-0.1353 0.17941,-0.1804c0.42609,-0.1353 0.53822,-0.1804 0.7849,-0.72161c0.20184,-0.42846 1.16614,-3.0443 1.52495,-3.92377c0.04485,-0.11275 0.06727,-0.1804 0.06727,-0.2255c0,-0.02255 0.02243,-0.06764 0.06728,-0.1353c0.04485,-0.0902 0.13456,-0.24806 0.20183,-0.33826c0.06728,-0.06765 0.08971,-0.11274 0.13456,-0.11274c0.11213,0 0.13455,0.02254 0.20183,0.20294zM61.89112,165.13173c-0.13455,-0.42845 -0.60549,-1.73637 -0.67276,-1.84912c-0.02243,-0.0451 -0.04486,-0.06765 -0.06728,0c-0.15698,0.42845 -0.60549,1.62361 -0.67277,1.89421c0,0.0451 0,0.06767 0.04485,0.06767c0.33639,0 1.05401,-0.00001 1.32312,-0.02256c0.04485,-0.0451 0.06727,-0.06765 0.04484,-0.0902z" fill="#0f1238" fill-opacity="1"></path></g><g><title>Vector</title><path d="M64.8566,162.25c0.1794,0 0.60549,0.02256 1.05401,0.02256c0.04485,0 0.13455,0.06764 0.1794,0.11274c0.13456,0.15785 0.33639,0.40592 0.67277,0.85692c0.38124,0.49611 2.265,2.54818 2.84806,3.17959c0.04485,0.0451 0.0897,-0.0451 0.0897,-0.06765c0.04485,-0.2706 0.02243,-1.21772 0.02243,-2.43544c0,-0.29315 -0.02243,-0.60885 -0.04485,-0.85691c0,-0.1804 -0.06728,-0.38336 -0.53822,-0.51866c-0.17941,-0.0451 -0.22425,-0.11276 -0.22425,-0.18041c0,-0.06765 0.11212,-0.06765 0.22425,-0.06765c0.22425,0 0.47094,0 0.74005,0c0.31396,0 0.58307,-0.04509 0.80732,-0.04509c0.13456,0 0.20183,0.02255 0.20183,0.0902c0,0.0451 -0.04485,0.13529 -0.20183,0.18039c-0.35881,0.0902 -0.51579,0.15787 -0.53822,0.63142c-0.02242,0.3157 -0.0897,2.00697 -0.0897,3.49529c0,0.3608 0.06728,1.01477 0.06728,1.15007c0,0.0902 -0.04486,0.18041 -0.11213,0.18041c-0.11213,0 -0.31396,-0.18041 -0.38123,-0.27061c-0.13456,-0.18041 -0.29154,-0.40592 -0.53822,-0.67652c-0.80733,-0.96966 -2.28742,-2.63838 -3.07232,-3.5855c-0.04485,-0.0451 -0.0897,-0.02254 -0.0897,0.02256c0,0.2255 -0.04485,0.47354 -0.04485,1.15005c0,0.78927 -0.02243,2.09719 0,2.3678c0.04485,0.4059 0.13455,0.51866 0.53822,0.65396c0.1794,0.0451 0.22425,0.11275 0.22425,0.15785c0,0.0902 -0.11213,0.11276 -0.26911,0.11276c-0.24668,0 -0.60549,-0.04511 -0.91945,-0.04511c-0.1794,0 -0.42609,0.02255 -0.56064,0.02255c-0.11213,0 -0.22425,0 -0.22425,-0.0902c0,-0.06765 0.0897,-0.11275 0.17941,-0.1353c0.40366,-0.1353 0.56064,-0.1804 0.60549,-0.81181c0.04485,-0.69906 0.15698,-2.77369 0.15698,-3.47275c0,-0.31571 -0.04485,-0.38337 -0.06727,-0.42847c-0.24668,-0.29315 -0.33638,-0.29315 -0.71762,-0.40591c-0.0897,-0.02255 -0.1794,-0.06765 -0.1794,-0.1353c-0.0897,-0.1353 0,-0.15785 0.20183,-0.15785z" fill="#0f1238" fill-opacity="1"></path></g><g><title>Vector</title><path d="M76.49335,163.01202c0.47094,0.451 0.78489,1.21773 0.78489,1.89424c0,1.24027 -0.7849,2.16484 -1.36796,2.50309c-0.49337,0.29316 -1.21099,0.49611 -2.04074,0.49611c-0.35881,0 -1.12128,-0.02256 -1.68192,-0.06766c-0.15698,0 -0.31396,0 -0.44852,0c-0.20183,0 -0.2691,-0.06765 -0.2691,-0.1353c0,-0.06765 0.08971,-0.11276 0.17941,-0.11276c0.58307,-0.06765 0.62792,-0.22549 0.67277,-0.92456c0.02243,-0.4059 0.02242,-0.6765 0.02242,-1.17261c0,-0.49611 -0.02243,-1.51088 -0.04485,-2.20994c-0.02243,-0.54121 -0.02242,-0.67652 -0.53821,-0.74417c-0.0897,-0.02255 -0.20183,-0.06765 -0.20183,-0.1353c0,-0.06765 0.06728,-0.11276 0.20183,-0.11276h0.24668c0.42609,0 1.39038,-0.06765 2.13043,-0.06765c1.18856,-0.0451 2.01831,0.47355 2.3547,0.78926zM73.15192,162.51591c-0.06727,0.0451 -0.06728,0.06766 -0.0897,0.11276c-0.02243,0.11275 -0.04485,0.87948 -0.04485,1.64619v1.24026c0,0.60886 0,1.10498 0.04485,1.48833c0.02242,0.27061 0.15698,0.38336 0.17941,0.40591c0.15698,0.11275 0.51578,0.2255 0.69519,0.2255c0.40366,0 1.12128,-0.15785 1.61465,-0.56376c0.51579,-0.42846 0.8746,-1.19517 0.8746,-2.16483c0,-0.74416 -0.35881,-1.55598 -0.91946,-1.96189c-0.42608,-0.31571 -1.1437,-0.51865 -1.79405,-0.51865c-0.2691,0.02255 -0.49336,0.04509 -0.56064,0.09019z" fill="#0f1238" fill-opacity="1"></path></g><g><title>Vector</title><path d="M81.00366,162.25c0.22426,0 0.38123,0.02256 0.62792,0.02256c0.33638,0 0.91945,-0.02256 1.12128,-0.02256c0.15698,0 0.22426,0.0451 0.22426,0.0902c0,0.0451 -0.06728,0.11275 -0.20183,0.1353c-0.49337,0.11275 -0.56065,0.20296 -0.58307,0.33826c-0.04485,0.38336 -0.04485,1.26281 -0.04485,2.54817c0,0.67651 0.02243,1.51088 0.06728,1.78148c0.02242,0.11275 0.22426,0.3157 0.29153,0.3157c0.22426,0.0451 0.53822,0.04511 0.82975,0.04511c0.24668,0 0.49336,0 0.60549,-0.02255c0.06728,0 0.1794,0 0.33638,-0.15785c0.11213,-0.11275 0.24669,-0.24806 0.49337,-0.58632c0.0897,-0.15785 0.1794,-0.1804 0.22425,-0.1804c0.04485,0 0.06728,0.0902 0.04485,0.24805c-0.13455,0.42846 -0.20183,0.60887 -0.2691,0.92457c0,0.0902 -0.17941,0.1353 -0.20183,0.1353c-0.11213,0 -0.8746,-0.04509 -2.6238,-0.04509c-0.58306,0 -0.98673,0.04509 -1.09886,0.04509c-0.15698,0 -0.24668,-0.02255 -0.24668,-0.0902c0,-0.06766 0.06728,-0.13531 0.20183,-0.15786c0.47094,-0.0902 0.58306,-0.24805 0.62792,-0.58631c0.02243,-0.2255 0.04485,-1.57851 0.04485,-2.84132c0,-0.33826 0,-0.94712 0,-1.21772c0,-0.1804 -0.04484,-0.36081 -0.44851,-0.42846c-0.17941,-0.0451 -0.24668,-0.11275 -0.24668,-0.15785c0,-0.0902 0.04485,-0.1353 0.22425,-0.1353z" fill="#0f1238" fill-opacity="1"></path></g><g><title>Vector</title><path d="M86.43005,163.10946c-0.02243,-0.40591 -0.02243,-0.51865 -0.49337,-0.60885c-0.17941,-0.0451 -0.24668,-0.0902 -0.24668,-0.15785c0,-0.06765 0.0897,-0.11276 0.22425,-0.11276c0.22426,0 0.65035,0.02256 0.94189,0.02256c0.42609,0 0.60549,-0.02256 0.91945,-0.02256c0.13456,0 0.22426,0.04511 0.22426,0.11276c0,0.06765 -0.0897,0.11275 -0.22426,0.1353c-0.49336,0.11275 -0.49336,0.3157 -0.51579,0.5412c-0.04485,0.29315 -0.04485,0.85692 -0.04485,2.5482c0,0.47356 0,1.01476 0.02242,1.28537c0.02243,0.47356 0.06729,0.6314 0.62793,0.74415c0.15698,0.02255 0.22425,0.09021 0.22425,0.13531c0,0.06765 -0.13455,0.11274 -0.22425,0.11274c-0.42609,0 -1.05401,-0.04509 -1.27827,-0.04509c-0.24668,0 -0.33639,0.02255 -0.65035,0.02255c-0.15698,0 -0.22426,-0.06765 -0.22426,-0.11275c0,-0.06765 0.0897,-0.11275 0.24668,-0.1353c0.42609,-0.0902 0.47094,-0.2255 0.49337,-0.63141c0.02243,-0.3157 0.04485,-1.19517 0.04485,-1.93933c-0.04485,-0.54121 -0.04485,-1.60108 -0.06728,-1.89424z" fill="#0f1238" fill-opacity="1"></path></g><g><title>Vector</title><path d="M91.0647,162.27511c0.51579,0 1.30068,-0.02256 1.36796,-0.02256c0.04485,0 0.11213,0.0451 0.11213,0.0902c-0.02242,0.24805 0.02242,0.5412 0.02242,0.85691c0,0.11275 -0.04485,0.22551 -0.11212,0.22551c-0.06728,0 -0.13456,-0.0902 -0.17941,-0.2706c-0.13456,-0.42846 -0.22426,-0.49612 -0.51579,-0.54122c-0.29153,-0.0451 -1.14371,-0.04509 -1.32311,-0.02254c-0.08971,0 -0.13455,0.09019 -0.13455,0.11274c-0.02243,0.20295 -0.04486,1.33048 -0.04486,1.89424c0,0.24806 0.04486,0.31571 0.08971,0.31571c0.33638,0 1.03158,0 1.23341,0c0.26911,-0.02255 0.33638,-0.11276 0.47093,-0.40591c0.04486,-0.11275 0.08971,-0.20296 0.15698,-0.20296c0.06728,0 0.06728,0.0902 0.06728,0.1804c0,0.11276 -0.04485,0.38335 -0.04485,0.54121c0,0.42845 0.02243,0.49611 0.02243,0.67651c0,0.09021 -0.04486,0.20295 -0.13456,0.20295c-0.04485,0 -0.0897,-0.06764 -0.13455,-0.18039c-0.0897,-0.31571 -0.1794,-0.36081 -0.35881,-0.40591c-0.0897,-0.02255 -0.40367,-0.04511 -0.58307,-0.04511c-0.15698,0 -0.58307,0.00001 -0.76247,0.02256c-0.02243,0 -0.06728,0.06766 -0.06728,0.11276c0,0.15785 0.02243,1.37555 0.04485,1.62361c0,0.2706 0.02243,0.42847 0.58307,0.54122c0.13455,0.02255 0.20183,0.0902 0.20183,0.15785c0,0.0451 -0.06728,0.11274 -0.24668,0.11274c-0.22426,0 -0.49336,-0.02254 -0.80732,-0.02254c-0.33639,0 -0.85218,0.04509 -1.03159,0.04509c-0.1794,0 -0.24668,-0.0451 -0.24668,-0.0902c0,-0.06765 0.08971,-0.1353 0.22426,-0.18041c0.47094,-0.11275 0.49337,-0.31569 0.49337,-0.42844c0.02243,-0.2706 0.06727,-0.90202 0.06727,-2.61585c0,-0.81181 -0.00001,-1.33047 -0.02243,-1.53342c-0.02243,-0.29315 -0.15698,-0.42845 -0.53821,-0.5412c-0.17941,-0.0451 -0.22426,-0.0902 -0.22426,-0.1353c0,-0.06765 0.11213,-0.11276 0.24668,-0.11276c0.38124,0 0.6952,0.02256 0.96431,0.02256z" fill="#0f1238" fill-opacity="1"></path></g><g><title>Vector</title><path d="M96.23019,162.27256c0.29153,0 0.67277,0 0.7849,-0.02256c0.02242,0 0.06728,0.0451 0.06728,0.0902c0,0.40591 0.02242,0.65396 0.02242,0.81181c0,0.11275 -0.04485,0.2255 -0.13456,0.2255c-0.0897,0 -0.11212,-0.11276 -0.13455,-0.20296c-0.11212,-0.45101 -0.29153,-0.54119 -0.58307,-0.58629c-0.22425,-0.0451 -0.85217,-0.04511 -1.21098,-0.04511c-0.02242,0 -0.11213,0.0451 -0.13456,0.24805c-0.02242,0.2255 -0.04485,1.82658 -0.02243,1.96188c0,0.0451 0.02244,0.09021 0.06729,0.09021h0.56064c0.80732,0 0.85217,-0.04511 0.98673,-0.42846c0.04485,-0.13531 0.11212,-0.18041 0.15698,-0.18041c0.06727,0 0.06728,0.11276 0.06728,0.18041c-0.02243,0.24805 -0.02243,0.42844 -0.02243,0.60885c0,0.2255 0.02243,0.36081 0.02243,0.51866c0,0.15785 -0.04486,0.24806 -0.08971,0.24806c-0.06727,0 -0.11213,-0.09021 -0.13455,-0.18041c-0.11213,-0.40591 -0.15698,-0.42845 -0.67277,-0.451c-0.26911,-0.02255 -0.6055,-0.02255 -0.85218,-0.02255c-0.04485,0 -0.06728,0.06764 -0.06728,0.06764c-0.04485,0.18041 -0.02243,0.96966 -0.02243,1.35302c0,0.24805 0.04486,0.5863 0.08971,0.72161c0.04485,0.11275 0.11213,0.1804 0.15698,0.1804c0.13455,0.02255 0.42609,0.06765 0.7849,0.06765c0.11213,0 0.62792,0 0.80733,-0.06765c0.26911,-0.06765 0.49336,-0.24805 0.71762,-0.6314c0.0897,-0.1804 0.13455,-0.24806 0.20183,-0.24806c0.06728,0 0.0897,0.13531 0.06728,0.24806c0,0.06765 -0.24669,0.85692 -0.31396,0.92457c-0.02243,0.0451 -0.11213,0.11274 -0.13456,0.11274c-0.0897,0 -1.39039,-0.06765 -2.78078,-0.06765c-0.44851,0 -0.65035,0.04509 -0.96431,0.04509c-0.15698,0 -0.24668,-0.02254 -0.24668,-0.11274c0,-0.06765 0.11213,-0.11276 0.24668,-0.13531c0.42609,-0.11275 0.60549,-0.15785 0.62792,-0.63141c0.02243,-0.3608 0.06727,-1.37555 0.06727,-2.43542c0,-1.03731 0,-1.21771 0,-1.46577c-0.02243,-0.38335 -0.11212,-0.49611 -0.49336,-0.56376c-0.1794,-0.0451 -0.24668,-0.06766 -0.24668,-0.13531c0,-0.06765 0.11213,-0.11274 0.24668,-0.11274c0.40366,0 0.74005,0.04509 1.32312,0.04509z" fill="#0f1238" fill-opacity="1"></path></g><g><title>Vector</title><path d="M101.44747,162.26784c0.04485,0.02255 0.11213,0.1353 0.11213,0.15785c0.02243,0.15785 0.0897,0.67651 0.0897,0.69906c0,0.13531 0,0.24805 -0.06727,0.24805c-0.06728,0 -0.17941,-0.06765 -0.20184,-0.18041c-0.11213,-0.3157 -0.33638,-0.56375 -0.42608,-0.60885c-0.15698,-0.11275 -0.35881,-0.20296 -0.6055,-0.20296c-0.58307,0 -0.98673,0.42847 -0.98673,1.01478c0,0.60885 0.42609,0.87945 1.18856,1.39811c0.67278,0.451 1.18856,0.902 1.18856,1.66872c0,0.42845 -0.24668,0.92456 -0.6952,1.21772c-0.2691,0.1804 -0.78489,0.3157 -1.16613,0.3157c-0.2691,0 -0.85217,-0.0902 -1.12128,-0.2255c-0.0897,-0.0451 -0.20183,-0.24804 -0.20183,-0.27059c-0.04485,-0.29316 -0.13456,-0.67651 -0.13456,-0.81182c0,-0.0451 0.0897,-0.15785 0.11213,-0.15785c0.06728,0 0.20183,0.22549 0.31396,0.49609c0.22426,0.47356 0.78491,0.67652 1.12128,0.67652c0.6055,0 1.03159,-0.42845 1.03159,-1.03731c0,-0.36081 -0.17941,-0.74417 -1.07644,-1.33048c-0.71762,-0.47356 -1.23341,-0.96965 -1.23341,-1.71381c0,-0.40591 0.1794,-0.78927 0.47094,-1.05987c0.26911,-0.24805 0.67278,-0.42846 1.27828,-0.42846c0.42609,-0.02255 0.85217,0.11276 1.00915,0.13531z" fill="#0f1238" fill-opacity="1"></path></g><g><title>Vector</title><path d="M107.18969,162.25317c0.31396,-0.02255 0.47093,-0.06765 0.58306,-0.15785c0.06728,-0.0451 0.08971,-0.04511 0.11214,-0.04511c0.04485,0 0.06727,0.06766 0.04485,0.20296c-0.08971,0.2706 -0.13456,0.54121 -0.17941,0.99222c0,0.06765 -0.06728,0.15785 -0.13456,0.15785c-0.06728,0 -0.0897,-0.06766 -0.11213,-0.27061c-0.04485,-0.45101 -0.15697,-0.49612 -0.69519,-0.51867c-0.13455,0 -1.09885,0 -1.21098,0.02255c-0.04485,0 -0.06728,0.09021 -0.06728,0.11276c0,0.4059 0,1.35301 0,2.11972c0,0.99221 0,1.82659 0.04485,2.14229c0.04485,0.38336 0.0897,0.4961 0.60549,0.60885c0.11213,0.02255 0.22426,0.0902 0.22426,0.15786c0,0.0902 -0.15698,0.11275 -0.24668,0.11275c-0.06728,0 -0.60549,-0.04511 -0.9643,-0.04511c-0.42609,0 -0.87461,0.06767 -0.96431,0.06767c-0.1794,0 -0.24668,-0.04511 -0.24668,-0.11276c0,-0.06765 0.0897,-0.1353 0.15698,-0.1353c0.60549,-0.1353 0.60549,-0.29316 0.65034,-0.92457c0.02243,-0.49611 0.06728,-2.25502 0.06728,-2.93153c0,-0.49611 0,-0.65398 0,-1.03734c0,-0.06765 -0.04485,-0.11274 -0.06728,-0.11274c-0.1794,-0.02255 -0.91945,-0.04511 -1.05401,-0.04511c-0.31395,0 -0.49336,0.04511 -0.62791,0.20296c-0.04485,0.02255 -0.13456,0.15785 -0.29153,0.451c-0.06728,0.18041 -0.13455,0.18041 -0.15698,0.18041c-0.04485,0 -0.0897,-0.11274 -0.0897,-0.20294c0,-0.15786 0.15698,-0.63142 0.15698,-1.15008c0,-0.0451 0.06728,-0.13531 0.13456,-0.13531c0.04485,0 0.04485,0.06766 0.13456,0.13531c0.02242,0.02255 0.15697,0.15785 0.29153,0.15785c0.22426,0.02255 0.89703,0.04509 1.99589,0.04509c0.38124,-0.02255 1.54737,-0.04509 1.90618,-0.04509z" fill="#0f1238" fill-opacity="1"></path></g><g><title>Vector</title><path d="M108.74425,162.23c0.13455,0 0.58307,0.04511 0.96431,0.04511c0.24668,0 0.31396,-0.02256 0.65034,-0.02256c0.13455,0 0.17941,0.0451 0.17941,0.0902c0,0.06765 -0.06728,0.13529 -0.17941,0.18039c-0.31396,0.06765 -0.24668,0.1804 -0.13456,0.40591c0.11213,0.20295 0.74005,1.26283 1.12128,1.89424c0.02243,0.02255 0.06728,0.02255 0.08971,-0.02255c0.24668,-0.33826 0.89703,-1.42068 1.09886,-1.78148c0.1794,-0.31571 0.0897,-0.40591 -0.24669,-0.49611c-0.13455,-0.0451 -0.1794,-0.11274 -0.1794,-0.18039c0,-0.06765 0.11212,-0.06765 0.20183,-0.06765c0.22425,0 0.35881,0 0.56064,0c0.31396,0 0.80732,-0.04511 0.9643,-0.04511c0.0897,0 0.17941,0.0451 0.17941,0.0902c0,0.06765 -0.06728,0.11275 -0.22426,0.15785c-0.40366,0.11275 -0.65034,0.31571 -0.94187,0.67652c-0.40367,0.49611 -0.85218,1.26282 -1.14372,1.69128c-0.0897,0.1353 -0.22425,0.4059 -0.22425,0.51865c0,0.49611 0.02243,1.55598 0.04485,1.82659c0.04485,0.1804 0.13456,0.29314 0.6055,0.40589c0.1794,0.0451 0.24668,0.09022 0.24668,0.15787c0,0.06765 -0.0897,0.09018 -0.24668,0.09018c-0.13456,0 -0.53822,-0.04509 -0.74005,-0.04509c-0.51579,0 -1.07643,0.04509 -1.21098,0.04509c-0.13455,0 -0.22426,-0.04508 -0.22426,-0.09018c0,-0.0451 0.06728,-0.11277 0.24668,-0.15787c0.47094,-0.11275 0.53822,-0.29315 0.56064,-0.42845c0.02243,-0.3608 0.02242,-1.28537 0.02242,-1.78148c0,-0.0451 -0.04484,-0.24805 -0.06727,-0.3157c-0.13455,-0.31571 -0.67277,-1.17263 -1.07643,-1.80404c-0.40366,-0.60885 -0.49336,-0.72161 -0.8746,-0.81181c-0.15698,-0.0451 -0.24668,-0.11274 -0.24668,-0.18039c0,-0.02255 0.0897,-0.04511 0.22425,-0.04511z" fill="#0f1238" fill-opacity="1"></path></g><g><title>Vector</title><path d="M114.66366,162.25c0.22426,0 0.38123,0.02256 0.62792,0.02256c0.33638,0 0.91945,-0.02256 1.12128,-0.02256c0.15698,0 0.22425,0.0451 0.22425,0.0902c0,0.0451 -0.06728,0.11275 -0.20183,0.1353c-0.49336,0.11275 -0.56064,0.20296 -0.58306,0.33826c-0.04485,0.38336 -0.04486,1.26281 -0.04486,2.54817c0,0.67651 0.02243,1.51088 0.06728,1.78148c0.02242,0.11275 0.22426,0.3157 0.29153,0.3157c0.22426,0.0451 0.53822,0.04511 0.82975,0.04511c0.24668,0 0.49337,0 0.60549,-0.02255c0.06728,0 0.17941,0 0.33639,-0.15785c0.11213,-0.11275 0.24668,-0.24806 0.49336,-0.58632c0.0897,-0.15785 0.17941,-0.1804 0.22426,-0.1804c0.04485,0 0.06728,0.0902 0.04485,0.24805c-0.13455,0.42846 -0.20183,0.60887 -0.26911,0.92457c0,0.0902 -0.17941,0.1353 -0.20183,0.1353c-0.11213,0 -0.8746,-0.04509 -2.6238,-0.04509c-0.58306,0 -0.98673,0.04509 -1.09885,0.04509c-0.15698,0 -0.24667,-0.02255 -0.24667,-0.0902c0,-0.06766 0.06728,-0.13531 0.20183,-0.15786c0.47094,-0.0902 0.58306,-0.24805 0.62792,-0.58631c0.02243,-0.2255 0.04485,-1.57851 0.04485,-2.84132c0,-0.33826 0,-0.94712 0,-1.21772c0,-0.1804 -0.04485,-0.36081 -0.44851,-0.42846c-0.1794,-0.0451 -0.24668,-0.11275 -0.24668,-0.15785c-0.02243,-0.0902 0.02243,-0.1353 0.22426,-0.1353z" fill="#0f1238" fill-opacity="1"></path></g><g><title>Vector</title><path d="M122.1502,162.27256c0.29154,0 0.67278,0 0.78491,-0.02256c0.02243,0 0.06728,0.0451 0.06728,0.0902c0,0.40591 0.02243,0.65396 0.02243,0.81181c0,0.11275 -0.04486,0.2255 -0.13456,0.2255c-0.08971,0 -0.11213,-0.11276 -0.13456,-0.20296c-0.11213,-0.45101 -0.29153,-0.54119 -0.58307,-0.58629c-0.22425,-0.0451 -0.85218,-0.04511 -1.21099,-0.04511c-0.02243,0 -0.11212,0.0451 -0.13455,0.24805c-0.02243,0.2255 -0.04486,1.82658 -0.02243,1.96188c0,0.0451 0.02242,0.09021 0.06727,0.09021h0.56065c0.80733,0 0.85218,-0.04511 0.98674,-0.42846c0.04485,-0.13531 0.11213,-0.18041 0.15698,-0.18041c0.06728,0 0.06727,0.11276 0.06727,0.18041c-0.02242,0.24805 -0.02242,0.42844 -0.02242,0.60885c0,0.2255 0.02242,0.36081 0.02242,0.51866c0,0.15785 -0.04485,0.24806 -0.0897,0.24806c-0.04485,0 -0.11213,-0.09021 -0.13455,-0.18041c-0.11213,-0.40591 -0.15698,-0.42845 -0.67277,-0.451c-0.26911,-0.02255 -0.6055,-0.02255 -0.85219,-0.02255c-0.04485,0 -0.06727,0.06764 -0.06727,0.06764c-0.04485,0.18041 -0.02243,0.96966 -0.02243,1.35302c0,0.24805 0.04485,0.5863 0.0897,0.72161c0.04486,0.11275 0.11213,0.1804 0.15698,0.1804c0.13456,0.02255 0.42609,0.06765 0.7849,0.06765c0.11213,0 0.62793,0 0.80733,-0.06765c0.26911,-0.06765 0.49337,-0.24805 0.71763,-0.6314c0.0897,-0.1804 0.13455,-0.24806 0.20183,-0.24806c0.06728,0 0.08971,0.13531 0.06728,0.24806c0,0.06765 -0.24669,0.85692 -0.31397,0.92457c-0.02242,0.0451 -0.11212,0.11274 -0.13454,0.11274c-0.08971,0 -1.39041,-0.06765 -2.78081,-0.06765c-0.44851,0 -0.65034,0.04509 -0.9643,0.04509c-0.15698,0 -0.24668,-0.02254 -0.24668,-0.11274c0,-0.06765 0.11213,-0.11276 0.24669,-0.13531c0.42609,-0.11275 0.6055,-0.15785 0.62793,-0.63141c0.02243,-0.3608 0.06727,-1.37555 0.06727,-2.43542c0,-1.03731 0,-1.21771 0,-1.46577c-0.02243,-0.38335 -0.11213,-0.49611 -0.49337,-0.56376c-0.17941,-0.0451 -0.24668,-0.06766 -0.24668,-0.13531c0,-0.06765 0.11213,-0.11274 0.24669,-0.11274c0.40367,0 0.74005,0.04509 1.32312,0.04509z" fill="#0f1238" fill-opacity="1"></path></g><g><title>Vector</title><path d="M129.10469,162.27511c0.51579,0 1.30069,-0.02256 1.36797,-0.02256c0.04485,0 0.11212,0.0451 0.11212,0.0902c-0.02242,0.24805 0.02243,0.5412 0.02243,0.85691c0,0.11275 -0.04485,0.22551 -0.11213,0.22551c-0.06728,0 -0.13455,-0.0902 -0.1794,-0.2706c-0.13456,-0.42846 -0.22426,-0.49612 -0.51579,-0.54122c-0.29153,-0.0451 -1.14371,-0.04509 -1.32311,-0.02254c-0.08971,0 -0.13456,0.09019 -0.13456,0.11274c-0.02243,0.20295 -0.04485,1.33048 -0.04485,1.89424c0,0.24806 0.04485,0.31571 0.0897,0.31571c0.33639,0 1.03158,0 1.23341,0c0.26911,-0.02255 0.33638,-0.11276 0.47094,-0.40591c0.04485,-0.11275 0.0897,-0.20296 0.15698,-0.20296c0.06727,0 0.06728,0.0902 0.06728,0.1804c0,0.11276 -0.04485,0.38335 -0.04485,0.54121c0,0.42845 0.02242,0.49611 0.02242,0.67651c0,0.09021 -0.04485,0.20295 -0.13455,0.20295c-0.04485,0 -0.08971,-0.06764 -0.13456,-0.18039c-0.0897,-0.31571 -0.1794,-0.36081 -0.35881,-0.40591c-0.0897,-0.02255 -0.40366,-0.04511 -0.58307,-0.04511c-0.15698,0 -0.58307,0.00001 -0.76247,0.02256c-0.02243,0 -0.06728,0.06766 -0.06728,0.11276c0,0.15785 0.02243,1.37555 0.04486,1.62361c0,0.2706 0.02242,0.42847 0.58306,0.54122c0.13455,0.02255 0.20183,0.0902 0.20183,0.15785c0,0.0451 -0.06727,0.11274 -0.24667,0.11274c-0.22426,0 -0.49337,-0.02254 -0.80733,-0.02254c-0.33638,0 -0.85217,0.04509 -1.03158,0.04509c-0.17941,0 -0.24668,-0.0451 -0.24668,-0.0902c0,-0.06765 0.0897,-0.1353 0.22425,-0.18041c0.47094,-0.11275 0.49337,-0.31569 0.49337,-0.42844c0.02243,-0.2706 0.06727,-0.90202 0.06727,-2.61585c0,-0.81181 0,-1.33047 -0.02242,-1.53342c-0.02243,-0.29315 -0.15698,-0.42845 -0.53822,-0.5412c-0.17941,-0.0451 -0.22425,-0.0902 -0.22425,-0.1353c0,-0.06765 0.11213,-0.11276 0.24668,-0.11276c0.38124,0 0.69519,0.02256 0.9643,0.02256z" fill="#0f1238" fill-opacity="1"></path></g><g><title>Vector</title><path d="M134.729,164.86583c-0.04485,0.02255 -0.20183,0.11276 -0.26911,0.13531c-0.02242,0.02255 -0.04485,0.0902 -0.04485,0.1353c0.0897,0.20295 0.80732,1.37558 1.32311,1.96189c0.22426,0.2706 0.47095,0.42844 0.85218,0.51864c0.06728,0.02255 0.13455,0.09021 0.13455,0.11276c0,0.0451 -0.06728,0.09019 -0.11213,0.11274c-0.11213,0.0451 -0.29153,0.06767 -0.47093,0.06767c-0.40367,0 -0.89703,-0.24805 -1.14371,-0.56376c-0.29153,-0.42846 -0.74005,-1.08242 -1.07644,-1.62363c-0.11213,-0.1804 -0.29153,-0.40591 -0.33638,-0.42846c-0.04485,-0.0451 -0.35881,-0.11276 -0.60549,-0.11276c-0.06728,0 -0.11213,0.06766 -0.11213,0.11276c0,0.1353 0,1.24026 0.04485,1.73637c0.02243,0.36081 0.11213,0.49611 0.51579,0.58631c0.13456,0.0451 0.20183,0.11277 0.20183,0.13532c0,0.0902 -0.15698,0.11274 -0.20183,0.11274c-0.35881,0 -0.51579,-0.04509 -1.09886,-0.04509c-0.15698,0 -0.60549,0.04509 -0.69519,0.04509c-0.11213,0 -0.22426,-0.04509 -0.22426,-0.11274c0,-0.06765 0.06728,-0.09022 0.17941,-0.13532c0.38124,-0.11275 0.53822,-0.1804 0.56064,-0.49611c0.02243,-0.2706 0.04485,-1.1726 0.04485,-1.71381c0,-1.33047 -0.02243,-2.11974 -0.04485,-2.43544c-0.04485,-0.3157 -0.11213,-0.33826 -0.49337,-0.42846c-0.13455,-0.0451 -0.20183,-0.06765 -0.20183,-0.1353c0,-0.06765 0.04485,-0.11276 0.22425,-0.11276c0.26911,0 0.29154,0 0.49337,0c0.31396,0 0.91945,-0.04509 1.39039,-0.04509c0.60549,0 1.05401,0.06764 1.3904,0.3608c0.29153,0.2255 0.49336,0.67651 0.49336,1.08242c-0.02243,0.42846 -0.29154,0.92456 -0.71762,1.17261zM134.28049,162.81376c-0.20183,-0.20295 -0.58307,-0.3157 -0.85218,-0.3157c-0.04485,0 -0.31396,0.02255 -0.42609,0.06765c-0.04485,0.02255 -0.11213,0.13531 -0.11213,0.18041c-0.02242,0.3157 -0.04484,1.96187 -0.02242,2.11972c0.02243,0.06765 0.0897,0.13531 0.13455,0.13531c0.49336,0 0.96431,-0.13531 1.07644,-0.22551c0.24668,-0.13531 0.56064,-0.51865 0.56064,-1.05985c0.02243,-0.24806 -0.11213,-0.65397 -0.35881,-0.90202z" fill="#0f1238" fill-opacity="1"></path></g><g><title>Vector</title><path d="M142.8231,164.95134c0,1.21772 -0.60549,2.05208 -1.21099,2.50309c-0.53821,0.38336 -1.25583,0.49611 -1.68192,0.49611c-0.8746,0 -1.70435,-0.38336 -2.24257,-0.96967c-0.44851,-0.51865 -0.71762,-1.21772 -0.71762,-1.93933c0,-1.05987 0.47094,-1.78148 1.12128,-2.32269c0.42609,-0.33826 1.14372,-0.60885 1.74921,-0.60885c1.63708,0 2.98261,1.21771 2.98261,2.84134zM138.47252,162.87671c-0.38123,0.36081 -0.67276,1.01478 -0.67276,2.02954c0,1.28537 0.94187,2.75115 2.30984,2.75115c0.71762,0 1.03158,-0.3157 1.14371,-0.4059c0.33639,-0.31571 0.71762,-1.01478 0.71762,-2.02954c0,-0.94712 -0.40366,-1.84914 -1.03158,-2.3678c-0.35881,-0.29315 -0.89703,-0.47356 -1.27827,-0.47356c-0.35881,0 -0.89702,0.20296 -1.18856,0.49611z" fill="#0f1238" fill-opacity="1"></path></g><g><title>Vector</title><path d="M144.05823,162.25c0.56064,0 0.65033,0.02256 1.14369,0.02256c0.02243,0 0.08971,0.06764 0.08971,0.11274c0.11213,0.3157 0.15698,0.4059 0.31396,0.78926c0.49336,1.01477 1.48009,3.0894 1.59222,3.24725c0.02242,0.02255 0.06728,0.04511 0.0897,0.02256c0.06728,-0.13531 1.68194,-3.17959 1.81649,-3.5404c0,-0.0451 0.13455,-0.31571 0.20182,-0.49611c0,-0.0451 0.06728,-0.11276 0.08971,-0.11276c0.31396,0 1.00916,-0.02254 1.07644,-0.02254c0.11213,0 0.22425,0.02254 0.22425,0.09019c0,0.06765 -0.06727,0.11276 -0.22425,0.13531c-0.13456,0.02255 -0.2467,0.06764 -0.38125,0.11274c-0.13456,0.0451 -0.2691,0.22551 -0.2691,0.67651c0,2.39033 0.08969,3.4953 0.11212,3.7208c0.04485,0.38336 0.13455,0.47355 0.56064,0.5863c0.15698,0.0451 0.22427,0.11277 0.22427,0.15787c0,0.06765 -0.11213,0.11274 -0.24668,0.11274c-0.08971,0 -0.76248,-0.0451 -1.07644,-0.0451c-0.15698,0 -0.44852,0.02254 -0.65035,0.02254c-0.0897,0 -0.24668,-0.04509 -0.24668,-0.11274c0,-0.06765 0.11212,-0.11275 0.22425,-0.15785c0.35881,-0.11275 0.35881,-0.31571 0.40366,-0.60887c0.04486,-0.38335 0.02243,-2.88642 0,-3.33743c0,-0.06765 -0.04483,-0.11276 -0.08968,-0.02256c-0.08971,0.15786 -1.05402,2.07464 -1.3904,2.7737c-0.20183,0.451 -0.40366,0.902 -0.53821,1.24025c-0.0897,0.24806 -0.13456,0.24806 -0.20184,0.24806c-0.04485,0 -0.11212,-0.06765 -0.13455,-0.15785c-0.06728,-0.22551 -0.15698,-0.4961 -0.31396,-0.92456c-0.47094,-1.15006 -1.16614,-2.50308 -1.4801,-3.22469c-0.02242,-0.06765 -0.04485,-0.06766 -0.06727,0.02254c-0.06728,0.3608 -0.15698,2.52564 -0.13455,3.33745c0.02242,0.42846 0.08969,0.56375 0.51578,0.69905c0.1794,0.0451 0.22425,0.0902 0.22425,0.15785c0,0.06766 -0.0897,0.11276 -0.22425,0.11276c-0.26911,0 -0.62791,-0.02255 -0.85217,-0.02255c-0.20183,0 -0.47093,0.02255 -0.69519,0.02255c-0.13455,0 -0.22427,-0.02255 -0.22427,-0.11276c0,-0.0451 0.06728,-0.09019 0.17941,-0.11274c0.53822,-0.15785 0.58307,-0.31571 0.65035,-0.78927c0.0897,-0.58631 0.2691,-3.08938 0.29153,-3.72078c0,-0.06765 -0.02242,-0.40591 -0.38123,-0.49611c-0.13455,-0.0451 -0.24667,-0.06766 -0.3588,-0.11276c-0.06728,-0.02255 -0.13457,-0.06765 -0.13457,-0.1353c0.04485,-0.15785 0.11214,-0.15785 0.29154,-0.15785z" fill="#0f1238" fill-opacity="1"></path></g><g><title>Vector</title><path d="M157.29385,164.688c-0.02242,0 0.00001,0.06764 0.02243,0.06764c0.42609,0.18041 1.05401,0.58631 1.05401,1.42067c0,0.60886 -0.26911,1.01476 -0.67277,1.28537c-0.42609,0.29315 -1.09886,0.4059 -1.52495,0.4059c-0.24668,0 -1.05399,-0.04509 -1.45766,-0.04509c-0.20183,0 -0.40367,0 -0.53823,0c-0.13455,0 -0.24668,-0.04511 -0.24668,-0.11276c0,-0.06765 0.11214,-0.11274 0.22427,-0.13529c0.60549,-0.11275 0.6055,-0.22551 0.65035,-0.51867c0.02243,-0.1804 0.06727,-1.10497 0.06727,-2.81879c0,-0.74416 -0.02243,-1.24027 -0.04486,-1.35302c-0.04485,-0.1804 -0.06727,-0.29316 -0.53821,-0.33826c-0.11213,-0.02255 -0.22425,-0.06765 -0.22425,-0.1353c0,-0.06765 0.11213,-0.11276 0.22425,-0.11276h0.58307c0.26911,0 1.00916,-0.06765 1.36797,-0.06765c0.51579,0 0.96431,0.0902 1.21099,0.24806c0.42609,0.24805 0.60549,0.69907 0.60549,1.08243c-0.06728,0.65396 -0.44853,0.96966 -0.76249,1.12752zM156.84535,165.139c-0.22426,-0.11276 -0.58307,-0.15786 -0.89703,-0.15786c-0.20184,0 -0.35881,0.0451 -0.38124,0.06765c-0.02242,0.02255 -0.04485,0.06765 -0.06727,0.24806c-0.02243,0.3157 -0.00001,1.42066 0.04484,1.73637c0,0.06765 0.04487,0.20296 0.13457,0.29316c0.1794,0.20295 0.47093,0.29315 0.58305,0.29315c0.71763,0 1.3007,-0.51865 1.3007,-1.33046c0,-0.54121 -0.31396,-0.94712 -0.71762,-1.15007zM156.01559,162.47806c-0.04485,0 -0.2691,0.0451 -0.3588,0.06765c-0.02243,0 -0.08971,0.11276 -0.11214,0.13531c-0.02242,0.1353 -0.04484,0.51865 -0.04484,1.91677c0,0.0451 0.02243,0.11274 0.0897,0.11274c0.38124,0 0.98674,-0.06764 1.21099,-0.2255c0.26911,-0.1804 0.47094,-0.51865 0.47094,-0.87946c0,-0.69906 -0.44852,-1.12751 -1.25585,-1.12751z" fill="#0f1238" fill-opacity="1"></path></g><g><title>Vector</title><path d="M161.9096,162.31294c0.06727,0.24805 0.22425,0.60886 0.38123,1.05987c0.44851,1.26282 1.07644,2.97664 1.23342,3.3149c0.29153,0.69906 0.42609,0.78926 0.80732,0.87946c0.13456,0.0451 0.20183,0.09019 0.20183,0.13529c0,0.0451 -0.06729,0.11276 -0.26912,0.11276c-0.29153,0 -0.69518,-0.04511 -1.07642,-0.04511c-0.26911,0 -0.40367,0.02256 -0.6055,0.02256c-0.20183,0 -0.2691,-0.06766 -0.2691,-0.11276c0,-0.0451 0.04484,-0.11275 0.20182,-0.1353c0.42609,-0.0902 0.38124,-0.24806 0.33639,-0.42846c-0.06728,-0.3608 -0.29154,-0.92455 -0.49337,-1.46575c0,-0.0451 -0.04484,-0.09021 -0.29152,-0.09021c-0.47094,0 -1.23343,-0.00001 -1.41283,0.0451c-0.04485,0 -0.06726,0.04509 -0.08969,0.06764c-0.22426,0.56376 -0.44852,1.28538 -0.44852,1.51089c0,0.11275 0.04485,0.24804 0.42609,0.36079c0.13455,0.0451 0.24668,0.0902 0.24668,0.15785c0,0.0902 -0.13455,0.11276 -0.24668,0.11276c-0.13455,0 -0.35882,-0.02255 -0.67278,-0.02255c-0.31396,0 -0.76247,0.04509 -0.89703,0.04509c-0.15698,0 -0.20182,-0.04509 -0.20182,-0.09019c0,-0.0451 0.06728,-0.1353 0.17941,-0.1804c0.42609,-0.1353 0.53821,-0.1804 0.7849,-0.72161c0.20184,-0.42846 1.16614,-3.0443 1.52495,-3.92377c0.04485,-0.11275 0.06727,-0.1804 0.06727,-0.2255c0,-0.02255 0.02243,-0.06764 0.06728,-0.1353c0.04485,-0.0902 0.13456,-0.24806 0.20184,-0.33826c0.06728,-0.06765 0.0897,-0.11274 0.13455,-0.11274c0.0897,0 0.11213,0.02254 0.17941,0.20294zM162.17869,165.13173c-0.13455,-0.42845 -0.60548,-1.73637 -0.67276,-1.84912c-0.02242,-0.0451 -0.04484,-0.06765 -0.06727,0c-0.15698,0.42845 -0.6055,1.62361 -0.67278,1.89421c0,0.0451 0.00001,0.06767 0.04486,0.06767c0.33639,0 1.054,-0.00001 1.32311,-0.02256c0.04485,-0.0451 0.06727,-0.06765 0.04484,-0.0902z" fill="#0f1238" fill-opacity="1"></path></g><g><title>Vector</title><path d="M170.01336,163.01202c0.47093,0.451 0.78489,1.21773 0.78489,1.89424c0,1.24027 -0.7849,2.16484 -1.36797,2.50309c-0.51579,0.29316 -1.21099,0.49611 -2.04074,0.49611c-0.35881,0 -1.12128,-0.02256 -1.68192,-0.06766c-0.15698,0 -0.31395,0 -0.44851,0c-0.20183,0 -0.26911,-0.06765 -0.26911,-0.1353c0,-0.06765 0.08971,-0.11276 0.17941,-0.11276c0.58307,-0.06765 0.62792,-0.22549 0.67278,-0.92456c0.02243,-0.4059 0.02243,-0.6765 0.02243,-1.17261c0,-0.49611 -0.02244,-1.51088 -0.04486,-2.20994c-0.02243,-0.54121 -0.02242,-0.67652 -0.53821,-0.74417c-0.0897,-0.02255 -0.20184,-0.06765 -0.20184,-0.1353c0,-0.06765 0.06729,-0.11276 0.20184,-0.11276h0.24668c0.42609,0 1.39038,-0.06765 2.13043,-0.06765c1.18856,-0.0451 2.01831,0.47355 2.3547,0.78926zM166.67192,162.51591c-0.06727,0.0451 -0.06726,0.06766 -0.08968,0.11276c-0.02243,0.11275 -0.04487,0.87948 -0.04487,1.64619v1.24026c0,0.60886 0.00001,1.10498 0.04487,1.48833c0.02242,0.27061 0.15696,0.38336 0.17939,0.40591c0.15698,0.11275 0.5158,0.2255 0.6952,0.2255c0.40367,0 1.12128,-0.15785 1.59222,-0.56376c0.51579,-0.42846 0.8746,-1.19517 0.8746,-2.16483c0,-0.74416 -0.35882,-1.55598 -0.91946,-1.96189c-0.42609,-0.31571 -1.14371,-0.51865 -1.77163,-0.51865c-0.29153,0.02255 -0.49336,0.04509 -0.56064,0.09019z" fill="#0f1238" fill-opacity="1"></path></g><g><title>Vector</title><path d="M175.00899,164.86583c-0.04485,0.02255 -0.20182,0.11276 -0.26909,0.13531c-0.02243,0.02255 -0.04486,0.0902 -0.04486,0.1353c0.0897,0.20295 0.80733,1.37558 1.32312,1.96189c0.24668,0.2706 0.47093,0.42844 0.85217,0.51864c0.06728,0.02255 0.13455,0.09021 0.13455,0.11276c0,0.0451 -0.06727,0.09019 -0.11212,0.11274c-0.11213,0.0451 -0.29153,0.06767 -0.47094,0.06767c-0.40366,0 -0.89703,-0.24805 -1.14371,-0.56376c-0.29154,-0.42846 -0.74006,-1.08242 -1.07644,-1.62363c-0.11213,-0.1804 -0.29152,-0.40591 -0.33637,-0.42846c-0.04486,-0.0451 -0.35883,-0.11276 -0.60551,-0.11276c-0.06728,0 -0.11212,0.06766 -0.11212,0.11276c0,0.1353 0,1.24026 0.04485,1.73637c0.02242,0.36081 0.11213,0.49611 0.5158,0.58631c0.13455,0.0451 0.20182,0.11277 0.20182,0.13532c0,0.0902 -0.15697,0.11274 -0.20182,0.11274c-0.35881,0 -0.51581,-0.04509 -1.09887,-0.04509c-0.15698,0 -0.60549,0.04509 -0.69519,0.04509c-0.11213,0 -0.22425,-0.04509 -0.22425,-0.11274c0,-0.06765 0.06726,-0.09022 0.17939,-0.13532c0.38124,-0.11275 0.53822,-0.1804 0.56064,-0.49611c0.02243,-0.2706 0.04486,-1.1726 0.04486,-1.71381c0,-1.33047 -0.02243,-2.11974 -0.04486,-2.43544c-0.04485,-0.3157 -0.11211,-0.33826 -0.49335,-0.42846c-0.13455,-0.0451 -0.20184,-0.06765 -0.20184,-0.1353c0,-0.06765 0.04485,-0.11276 0.22425,-0.11276c0.26911,0 0.29154,0 0.49337,0c0.31396,0 0.91946,-0.04509 1.3904,-0.04509c0.60549,0 1.05399,0.06764 1.39038,0.3608c0.29153,0.2255 0.49337,0.67651 0.49337,1.08242c0,0.42846 -0.29154,0.92456 -0.71763,1.17261zM174.56049,162.81376c-0.20183,-0.20295 -0.58307,-0.3157 -0.85217,-0.3157c-0.04486,0 -0.31397,0.02255 -0.4261,0.06765c-0.04485,0.02255 -0.11213,0.13531 -0.11213,0.18041c-0.02243,0.3157 -0.04484,1.96187 -0.02242,2.11972c0.02243,0.06765 0.0897,0.13531 0.13455,0.13531c0.49337,0 0.9643,-0.13531 1.07643,-0.22551c0.22425,-0.13531 0.56064,-0.51865 0.56064,-1.05985c0.02242,-0.24806 -0.11212,-0.65397 -0.3588,-0.90202z" fill="#0f1238" fill-opacity="1"></path></g><g><title>Vector</title><path d="M177.20668,162.25256c0.35881,0 0.56064,0.02256 0.87461,0.02256c0.31396,0 0.65035,-0.02256 0.82975,-0.02256c0.15698,0 0.2691,0.02255 0.2691,0.0902c0,0.06765 -0.0897,0.1353 -0.24668,0.15785c-0.31396,0.06765 -0.47093,0.13531 -0.51579,0.49611c-0.04485,0.29316 -0.04486,1.17262 -0.04486,2.41289c0,0.96967 0.22426,1.33047 0.49337,1.64617c0.24669,0.27061 0.78491,0.47356 1.23342,0.47356c0.56065,0 1.3904,-0.24806 1.61466,-1.21772c0.11213,-0.45101 0.17939,-1.17262 0.17939,-2.16484c0,-0.56376 -0.02242,-1.01476 -0.04484,-1.10496c-0.02243,-0.31571 -0.08971,-0.45101 -0.56065,-0.56376c-0.0897,-0.02255 -0.17941,-0.0902 -0.17941,-0.15785c0,-0.0451 0.04486,-0.0902 0.20184,-0.0902c0.22426,0 0.44852,0.02256 0.71763,0.02256c0.35881,0 0.53821,-0.02256 0.78489,-0.02256c0.13456,0 0.22426,0.02255 0.22426,0.0902c0,0.0451 -0.06728,0.11275 -0.17941,0.15785c-0.35881,0.11275 -0.53822,0.24805 -0.56065,0.78926c0,0.3608 -0.06727,1.33047 -0.06727,1.78148c-0.04485,1.51088 -0.4485,2.25505 -1.07643,2.61585c-0.40366,0.22551 -0.85218,0.2706 -1.23342,0.2706c-0.7849,0 -1.34554,-0.3157 -1.54738,-0.51865c-0.49336,-0.45101 -0.69519,-1.08243 -0.69519,-2.54821c0,-1.24027 -0.02242,-1.93932 -0.04484,-2.05207c-0.02243,-0.15785 -0.13457,-0.31571 -0.47095,-0.36081c-0.11213,-0.02255 -0.20182,-0.06765 -0.20182,-0.1353c0,-0.0451 0.11213,-0.06765 0.24668,-0.06765z" fill="#0f1238" fill-opacity="1"></path></g><g><title>Vector</title><path d="M188.32728,162.25317c0.31396,-0.02255 0.47094,-0.06765 0.58307,-0.15785c0.06728,-0.0451 0.0897,-0.04511 0.11212,-0.04511c0.04485,0 0.06729,0.06766 0.04486,0.20296c-0.0897,0.2706 -0.13456,0.54121 -0.17941,0.99222c0,0.06765 -0.06727,0.15785 -0.13455,0.15785c-0.06727,0 -0.08971,-0.06766 -0.11213,-0.27061c-0.04485,-0.45101 -0.15698,-0.49612 -0.69519,-0.51867c-0.13456,0 -1.09887,0 -1.21099,0.02255c-0.04486,0 -0.06728,0.09021 -0.06728,0.11276c0,0.4059 0,1.35301 0,2.11972c0,0.99221 -0.00001,1.82659 0.04485,2.14229c0.04485,0.38336 0.08971,0.4961 0.6055,0.60885c0.11213,0.02255 0.24667,0.0902 0.24667,0.15786c0,0.0902 -0.15697,0.11275 -0.24667,0.11275c-0.06728,0 -0.6055,-0.04511 -0.96431,-0.04511c-0.42609,0 -0.8746,0.06767 -0.9643,0.06767c-0.17941,0 -0.24669,-0.04511 -0.24669,-0.11276c0,-0.06765 0.0897,-0.1353 0.15698,-0.1353c0.6055,-0.1353 0.6055,-0.29316 0.65035,-0.92457c0.02242,-0.49611 0.06727,-2.25502 0.06727,-2.93153c0,-0.49611 0,-0.65398 0,-1.03734c0,-0.06765 -0.04485,-0.11274 -0.06727,-0.11274c-0.17941,-0.02255 -0.91946,-0.04511 -1.05401,-0.04511c-0.31396,0 -0.51579,0.04511 -0.62792,0.20296c-0.04485,0.02255 -0.13457,0.15785 -0.29155,0.451c-0.06728,0.18041 -0.13455,0.18041 -0.15698,0.18041c-0.04485,0 -0.0897,-0.11274 -0.0897,-0.20294c0,-0.15786 0.15698,-0.63142 0.15698,-1.15008c0,-0.0451 0.06729,-0.13531 0.13457,-0.13531c0.04485,0 0.04485,0.06766 0.13455,0.13531c0.02243,0.02255 0.15697,0.15785 0.29153,0.15785c0.22426,0.02255 0.89703,0.04509 1.99589,0.04509c0.35881,-0.02255 1.54738,-0.04509 1.88377,-0.04509z" fill="#0f1238" fill-opacity="1"></path></g><g><title>Vector</title><path d="M194.29725,162.25317c0.31396,-0.02255 0.47095,-0.06765 0.58307,-0.15785c0.06728,-0.0451 0.08971,-0.04511 0.11214,-0.04511c0.04485,0 0.06727,0.06766 0.04484,0.20296c-0.0897,0.2706 -0.13456,0.54121 -0.17941,0.99222c0,0.06765 -0.06727,0.15785 -0.13455,0.15785c-0.06727,0 -0.08969,-0.06766 -0.11211,-0.27061c-0.04485,-0.45101 -0.15699,-0.49612 -0.69521,-0.51867c-0.13455,0 -1.09886,0 -1.21099,0.02255c-0.04485,0 -0.06727,0.09021 -0.06727,0.11276c0,0.4059 0,1.35301 0,2.11972c0,0.99221 0.00001,1.82659 0.04486,2.14229c0.04485,0.38336 0.08969,0.4961 0.60548,0.60885c0.11213,0.02255 0.24669,0.0902 0.24669,0.15786c0,0.0902 -0.15698,0.11275 -0.24669,0.11275c-0.06727,0 -0.60549,-0.04511 -0.9643,-0.04511c-0.42609,0 -0.8746,0.06767 -0.96431,0.06767c-0.1794,0 -0.24668,-0.04511 -0.24668,-0.11276c0,-0.06765 0.0897,-0.1353 0.15698,-0.1353c0.60549,-0.1353 0.6055,-0.29316 0.65035,-0.92457c0.02242,-0.49611 0.06727,-2.25502 0.06727,-2.93153c0,-0.49611 0,-0.65398 0,-1.03734c0,-0.06765 -0.04485,-0.11274 -0.06727,-0.11274c-0.17941,-0.02255 -0.91946,-0.04511 -1.05401,-0.04511c-0.31396,0 -0.51579,0.04511 -0.62792,0.20296c-0.04485,0.02255 -0.13455,0.15785 -0.29153,0.451c-0.06728,0.18041 -0.13455,0.18041 -0.15698,0.18041c-0.04485,0 -0.0897,-0.11274 -0.0897,-0.20294c0,-0.15786 0.15698,-0.63142 0.15698,-1.15008c0,-0.0451 0.06727,-0.13531 0.13455,-0.13531c0.04485,0 0.04486,0.06766 0.13456,0.13531c0.02243,0.02255 0.15697,0.15785 0.29153,0.15785c0.22426,0.02255 0.89703,0.04509 1.99588,0.04509c0.38124,-0.02255 1.54737,-0.04509 1.88375,-0.04509z" fill="#0f1238" fill-opacity="1"></path></g><g><title>Vector</title><path d="M197.05127,162.70021c0,0.72162 -0.80731,1.03732 -0.96429,1.03732c-0.0897,0 -0.15698,-0.02255 -0.15698,-0.0902c0,-0.06765 0.06728,-0.11275 0.11213,-0.1353c0.29153,-0.15785 0.51578,-0.38335 0.51578,-0.60885c0,-0.27061 -0.13454,-0.31571 -0.3588,-0.40591c-0.06728,-0.02255 -0.20184,-0.0451 -0.20184,-0.24806c0,-0.1804 0.1794,-0.33826 0.38123,-0.33826c0.44851,-0.02255 0.67277,0.3608 0.67277,0.78926z" fill="#0f1238" fill-opacity="1"></path></g><g><title>Vector</title><path d="M200.81748,162.26784c0.04485,0.02255 0.11214,0.1353 0.11214,0.15785c0.02242,0.15785 0.08969,0.67651 0.08969,0.69906c0,0.13531 0,0.24805 -0.06728,0.24805c-0.06728,0 -0.1794,-0.06765 -0.20182,-0.18041c-0.11213,-0.3157 -0.3364,-0.56375 -0.4261,-0.60885c-0.15698,-0.11275 -0.3588,-0.20296 -0.60549,-0.20296c-0.58307,0 -0.98674,0.42847 -0.98674,1.01478c0,0.60885 0.42609,0.87945 1.18857,1.39811c0.67277,0.451 1.18856,0.902 1.18856,1.66872c0,0.42845 -0.24668,0.92456 -0.69519,1.21772c-0.26911,0.1804 -0.7849,0.3157 -1.16614,0.3157c-0.26911,0 -0.85218,-0.0902 -1.12129,-0.2255c-0.0897,-0.0451 -0.20184,-0.24804 -0.20184,-0.27059c-0.04485,-0.29316 -0.13455,-0.67651 -0.13455,-0.81182c0,-0.0451 0.08969,-0.15785 0.11212,-0.15785c0.06728,0 0.20183,0.22549 0.31396,0.49609c0.22426,0.47356 0.7849,0.67652 1.12129,0.67652c0.58307,0 1.0316,-0.42845 1.0316,-1.03731c0,-0.36081 -0.17941,-0.74417 -1.07644,-1.33048c-0.71763,-0.47356 -1.23343,-0.96965 -1.23343,-1.71381c0,-0.40591 0.17942,-0.78927 0.47096,-1.05987c0.26911,-0.24805 0.67277,-0.42846 1.27827,-0.42846c0.40366,-0.02255 0.85217,0.11276 1.00915,0.13531z" fill="#0f1238" fill-opacity="1"></path></g><g><title>Vector</title><path d="M206.33375,162.4555c-0.0897,0 -0.17941,0.0451 -0.24669,0.06765c-0.04485,0.02255 -0.06728,0.13531 -0.0897,0.33826c0,0.1804 0.00001,1.24027 -0.02241,2.25503c0,0.78926 0.02241,1.51088 0.02241,1.71383c0,0.56376 0.06728,0.6314 0.5158,0.7667c0.15698,0.04511 0.24668,0.09022 0.24668,0.15787c0,0.06765 -0.15699,0.11274 -0.29154,0.11274c-0.22426,0 -0.51578,-0.04509 -0.89702,-0.04509c-0.24668,0 -0.60549,0.04509 -0.8746,0.04509c-0.13455,0 -0.24668,-0.04509 -0.24668,-0.11274c0,-0.06765 0.08969,-0.11276 0.17939,-0.13531c0.49337,-0.11275 0.58308,-0.2706 0.6055,-0.63141c0.02243,-0.42845 0.04484,-1.12752 0.04484,-1.55598c0,-0.29315 -0.02241,-2.11972 -0.02241,-2.39033c0,-0.3157 0,-0.42846 -0.49337,-0.49611c-0.1794,-0.02255 -0.26911,-0.06765 -0.26911,-0.1353c0,-0.06765 0.08971,-0.11276 0.20184,-0.11276c0.06728,0 0.20183,0 0.29153,0c0.33639,0 1.00915,-0.06765 1.43524,-0.06765c0.7849,0 1.27827,0.20296 1.61465,0.49611c0.40367,0.40591 0.49337,0.87946 0.49337,1.17261c0,0.76671 -0.35882,1.12753 -0.6055,1.33048c-0.22426,0.1804 -0.60548,0.38335 -0.98672,0.38335c-0.0897,0 -0.31397,0 -0.44852,-0.06765c-0.11213,-0.0451 -0.13455,-0.09019 -0.13455,-0.13529c0,-0.0451 0.04484,-0.06767 0.11212,-0.06767c0.06727,0 0.17942,0 0.22427,0c0.44851,0 1.07642,-0.40589 1.07642,-1.39811c-0.02243,-0.81181 -0.62792,-1.48833 -1.43524,-1.48833z" fill="#0f1238" fill-opacity="1"></path></g><g><title>Vector</title><path d="M211.4696,162.31294c0.06728,0.24805 0.22426,0.60886 0.38124,1.05987c0.44851,1.26282 1.07644,2.97664 1.23342,3.3149c0.29153,0.69906 0.42609,0.78926 0.80733,0.87946c0.13455,0.0451 0.20182,0.09019 0.20182,0.13529c0,0.0451 -0.06727,0.11276 -0.2691,0.11276c-0.29153,0 -0.6952,-0.04511 -1.07644,-0.04511c-0.26911,0 -0.40366,0.02256 -0.60549,0.02256c-0.20183,0 -0.26911,-0.06766 -0.26911,-0.11276c0,-0.0451 0.04484,-0.11275 0.20182,-0.1353c0.42609,-0.0902 0.38124,-0.24806 0.33639,-0.42846c-0.06728,-0.3608 -0.29154,-0.92455 -0.49337,-1.46575c0,-0.0451 -0.04484,-0.09021 -0.29153,-0.09021c-0.47094,0 -1.23341,-0.00001 -1.41281,0.0451c-0.04485,0 -0.06728,0.04509 -0.08971,0.06764c-0.22425,0.56376 -0.44852,1.28538 -0.44852,1.51089c0,0.11275 0.04486,0.24804 0.42609,0.36079c0.13456,0.0451 0.24669,0.0902 0.24669,0.15785c0,0.0902 -0.13456,0.11276 -0.24669,0.11276c-0.13455,0 -0.35881,-0.02255 -0.67277,-0.02255c-0.31396,0 -0.76246,0.04509 -0.89702,0.04509c-0.15698,0 -0.20184,-0.04509 -0.20184,-0.09019c0,-0.0451 0.06728,-0.1353 0.17941,-0.1804c0.42609,-0.1353 0.53821,-0.1804 0.7849,-0.72161c0.20183,-0.42846 1.16613,-3.0443 1.52495,-3.92377c0.04485,-0.11275 0.06727,-0.1804 0.06727,-0.2255c0,-0.02255 0.02242,-0.06764 0.06728,-0.1353c0.04485,-0.0902 0.13456,-0.24806 0.20184,-0.33826c0.06727,-0.06765 0.08969,-0.11274 0.13454,-0.11274c0.06728,0 0.11214,0.02254 0.17941,0.20294zM211.73872,165.13173c-0.13456,-0.42845 -0.6055,-1.73637 -0.67278,-1.84912c-0.02243,-0.0451 -0.04485,-0.06765 -0.06727,0c-0.15698,0.42845 -0.60551,1.62361 -0.67278,1.89421c0,0.0451 0.00001,0.06767 0.04486,0.06767c0.33638,0 1.054,-0.00001 1.32311,-0.02256c0.02242,-0.0451 0.06728,-0.06765 0.04486,-0.0902z" fill="#0f1238" fill-opacity="1"></path></g><g><title>Vector</title><path d="M214.92366,162.25c0.24668,0 0.38123,0.02256 0.62792,0.02256c0.33638,0 0.91945,-0.02256 1.12128,-0.02256c0.15698,0 0.22425,0.0451 0.22425,0.0902c0,0.0451 -0.06726,0.11275 -0.20182,0.1353c-0.49336,0.11275 -0.56064,0.20296 -0.58307,0.33826c-0.04485,0.38336 -0.04484,1.26281 -0.04484,2.54817c0,0.67651 0.02242,1.51088 0.06727,1.78148c0.02243,0.11275 0.22425,0.3157 0.29153,0.3157c0.22425,0.0451 0.53822,0.04511 0.82975,0.04511c0.24669,0 0.49336,0 0.60549,-0.02255c0.06728,0 0.17941,0 0.33639,-0.15785c0.11212,-0.11275 0.24668,-0.24806 0.49336,-0.58632c0.08971,-0.15785 0.17941,-0.1804 0.22426,-0.1804c0.04485,0 0.06727,0.0902 0.04484,0.24805c-0.13455,0.42846 -0.20182,0.60887 -0.2691,0.92457c0,0.0902 -0.17941,0.1353 -0.20184,0.1353c-0.11212,0 -0.87459,-0.04509 -2.62379,-0.04509c-0.58307,0 -0.98673,0.04509 -1.09886,0.04509c-0.15698,0 -0.24668,-0.02255 -0.24668,-0.0902c0,-0.06766 0.06727,-0.13531 0.20182,-0.15786c0.47094,-0.0902 0.58308,-0.24805 0.62793,-0.58631c0.02242,-0.2255 0.04484,-1.57851 0.04484,-2.84132c0,-0.33826 0,-0.94712 0,-1.21772c0,-0.1804 -0.04484,-0.36081 -0.44851,-0.42846c-0.1794,-0.0451 -0.24668,-0.11275 -0.24668,-0.15785c-0.02242,-0.0902 0.04485,-0.1353 0.22425,-0.1353z" fill="#0f1238" fill-opacity="1"></path></g><g><title>Vector</title><path d="M222.5496,162.31294c0.06727,0.24805 0.22425,0.60886 0.38123,1.05987c0.44851,1.26282 1.07644,2.97664 1.23342,3.3149c0.29153,0.69906 0.42607,0.78926 0.80731,0.87946c0.13455,0.0451 0.20184,0.09019 0.20184,0.13529c0,0.0451 -0.06729,0.11276 -0.26912,0.11276c-0.29153,0 -0.69518,-0.04511 -1.07642,-0.04511c-0.26911,0 -0.40367,0.02256 -0.6055,0.02256c-0.20183,0 -0.2691,-0.06766 -0.2691,-0.11276c0,-0.0451 0.04484,-0.11275 0.20182,-0.1353c0.42609,-0.0902 0.38124,-0.24806 0.33639,-0.42846c-0.06728,-0.3608 -0.29154,-0.92455 -0.49337,-1.46575c0,-0.0451 -0.04484,-0.09021 -0.29152,-0.09021c-0.47094,0 -1.23343,-0.00001 -1.41283,0.0451c-0.04485,0 -0.06728,0.04509 -0.08971,0.06764c-0.22425,0.56376 -0.4485,1.28538 -0.4485,1.51089c0,0.11275 0.04485,0.24804 0.42609,0.36079c0.13455,0.0451 0.24668,0.0902 0.24668,0.15785c0,0.0902 -0.13455,0.11276 -0.24668,0.11276c-0.13455,0 -0.35882,-0.02255 -0.67278,-0.02255c-0.31396,0 -0.76247,0.04509 -0.89703,0.04509c-0.15698,0 -0.20182,-0.04509 -0.20182,-0.09019c0,-0.0451 0.06728,-0.1353 0.17941,-0.1804c0.42609,-0.1353 0.53821,-0.1804 0.7849,-0.72161c0.20184,-0.42846 1.16614,-3.0443 1.52495,-3.92377c0.04485,-0.11275 0.06727,-0.1804 0.06727,-0.2255c0,-0.02255 0.02243,-0.06764 0.06728,-0.1353c0.04485,-0.0902 0.13456,-0.24806 0.20184,-0.33826c0.06728,-0.06765 0.0897,-0.11274 0.13455,-0.11274c0.06727,0 0.11213,0.02254 0.17941,0.20294zM222.81869,165.13173c-0.13455,-0.42845 -0.60548,-1.73637 -0.67276,-1.84912c-0.02242,-0.0451 -0.04484,-0.06765 -0.06727,0c-0.15698,0.42845 -0.6055,1.62361 -0.67278,1.89421c0,0.0451 0,0.06767 0.04485,0.06767c0.33638,0 1.05401,-0.00001 1.32312,-0.02256c0.02243,-0.0451 0.04484,-0.06765 0.04484,-0.0902z" fill="#0f1238" fill-opacity="1"></path></g><g><title>Vector</title><path d="M229.90333,162.24785c0.22426,0.0451 0.5158,0.1353 0.65035,0.15785c0.04485,0 0.13455,0.06765 0.13455,0.24806c0,0.1804 0.04485,0.56376 0.06727,0.74417c0,0.1804 -0.06727,0.29314 -0.13454,0.29314c-0.04486,0 -0.0897,-0.09019 -0.13455,-0.2255c-0.06728,-0.3157 -0.2467,-0.56376 -0.35882,-0.65396c-0.47095,-0.36081 -0.89704,-0.45102 -1.36798,-0.45102c-1.3904,0 -2.26501,1.15008 -2.26501,2.43545c0,0.58631 0.11214,1.03733 0.29155,1.42068c0.49337,0.99222 1.4801,1.37556 2.1753,1.37556c0.15698,0 0.58307,-0.02255 0.94188,-0.2255c0.38124,-0.20295 0.60549,-0.47355 0.7849,-0.83435c0.11213,-0.18041 0.13456,-0.22552 0.17941,-0.22552c0.0897,0 0.0897,0.18041 0.06727,0.29317c-0.02242,0.2255 -0.22426,0.6765 -0.33639,0.87946c-0.04485,0.06765 -0.17939,0.1804 -0.26909,0.2255c-0.13456,0.06765 -0.82977,0.24805 -1.56982,0.24805c-1.21099,0 -2.0856,-0.60885 -2.42199,-1.01476c-0.31396,-0.38335 -0.71762,-0.99222 -0.71762,-1.98444c0,-0.99222 0.58308,-1.75893 0.9419,-2.07463c0.74006,-0.60886 1.52493,-0.78926 2.33227,-0.78926c0.29154,0.02255 0.69521,0.06765 1.00917,0.15785z" fill="#0f1238" fill-opacity="1"></path></g><g><title>Vector</title><path d="M234.7102,162.27256c0.29153,0 0.67276,0 0.78489,-0.02256c0.02243,0 0.06728,0.0451 0.06728,0.0902c0,0.40591 0.02243,0.65396 0.02243,0.81181c0,0.11275 -0.04485,0.2255 -0.13455,0.2255c-0.06728,0 -0.11214,-0.11276 -0.13457,-0.20296c-0.11213,-0.45101 -0.29152,-0.54119 -0.58305,-0.58629c-0.22426,-0.0451 -0.85218,-0.04511 -1.211,-0.04511c-0.02242,0 -0.11214,0.0451 -0.13456,0.24805c-0.02243,0.2255 -0.04484,1.82658 -0.02241,1.96188c0,0.0451 0.02242,0.09021 0.06727,0.09021h0.56064c0.80733,0 0.85219,-0.04511 0.98674,-0.42846c0.04485,-0.13531 0.11213,-0.18041 0.15698,-0.18041c0.06728,0 0.06727,0.11276 0.06727,0.18041c-0.02242,0.24805 -0.02243,0.42844 -0.02243,0.60885c0,0.2255 0.02243,0.36081 0.02243,0.51866c0,0.15785 -0.04485,0.24806 -0.0897,0.24806c-0.04485,0 -0.11212,-0.09021 -0.13455,-0.18041c-0.11213,-0.40591 -0.15699,-0.42845 -0.67278,-0.451c-0.26911,-0.02255 -0.60549,-0.02255 -0.85217,-0.02255c-0.04485,0 -0.06729,0.06764 -0.06729,0.06764c-0.04485,0.18041 -0.02241,0.96966 -0.02241,1.35302c0,0.24805 0.04485,0.5863 0.0897,0.72161c0.04485,0.11275 0.11213,0.1804 0.15698,0.1804c0.13455,0.02255 0.42609,0.06765 0.7849,0.06765c0.11213,0 0.62792,0 0.80732,-0.06765c0.26911,-0.06765 0.49337,-0.24805 0.71763,-0.6314c0.0897,-0.1804 0.13454,-0.24806 0.20182,-0.24806c0.06728,0 0.0897,0.13531 0.06728,0.24806c0,0.06765 -0.24669,0.85692 -0.31396,0.92457c-0.02243,0.0451 -0.11213,0.11274 -0.13455,0.11274c-0.08971,0 -1.39039,-0.06765 -2.78079,-0.06765c-0.44851,0 -0.65035,0.04509 -0.96431,0.04509c-0.15698,0 -0.24668,-0.02254 -0.24668,-0.11274c0,-0.06765 0.11213,-0.11276 0.24668,-0.13531c0.42609,-0.11275 0.60549,-0.15785 0.62792,-0.63141c0.02243,-0.3608 0.06727,-1.37555 0.06727,-2.43542c0,-1.03731 0,-1.21771 0,-1.46577c-0.02243,-0.38335 -0.11213,-0.49611 -0.49337,-0.56376c-0.17941,-0.0451 -0.24668,-0.06766 -0.24668,-0.13531c0,-0.06765 0.11213,-0.11274 0.24669,-0.11274c0.40366,0 0.74006,0.04509 1.32312,0.04509z" fill="#0f1238" fill-opacity="1"></path></g><g><title>Vector</title><path d="M240.91706,164.82073c0.49336,0 1.68193,-0.02255 3.18444,-0.02255c0.04485,0 0.06726,-0.0451 0.08969,-0.2255c0,-0.11275 0.00001,-1.24026 -0.02242,-1.57852c-0.02242,-0.3157 -0.0897,-0.38336 -0.47093,-0.49611c-0.11213,-0.0451 -0.22427,-0.0902 -0.22427,-0.15785c0,-0.06765 0.08971,-0.0902 0.26911,-0.0902c0.11213,0 0.67277,0.02256 0.8746,0.02256c0.29153,0 0.67276,-0.02256 0.78489,-0.02256c0.13455,0 0.24668,0.02255 0.24668,0.0902c0,0.0451 -0.06728,0.11275 -0.24668,0.15785c-0.35881,0.0902 -0.42608,0.24806 -0.44851,0.49611c-0.04485,0.42846 -0.06727,1.37556 -0.06727,2.84133c0,0.38335 0.04484,1.15006 0.04484,1.28536c0.02243,0.33826 0.11213,0.36081 0.49337,0.49611c0.11213,0.0451 0.20184,0.11275 0.20184,0.15785c0,0.06766 -0.06728,0.09021 -0.24668,0.09021c-0.13456,0 -0.44852,-0.02256 -0.71762,-0.02256c-0.17941,0 -0.82976,0.04511 -1.00916,0.04511c-0.13456,0 -0.22425,-0.02255 -0.22425,-0.0902c0,-0.06765 0.0897,-0.1353 0.1794,-0.15785c0.47094,-0.1353 0.49336,-0.24805 0.53821,-0.85691c0.02243,-0.3608 0.04485,-0.96967 0.04485,-1.39812c0,-0.15785 -0.04484,-0.18041 -0.11212,-0.18041c-1.32311,0 -3.02745,-0.02255 -3.18443,0c-0.02242,0 -0.0897,0.06765 -0.0897,0.1353c-0.02243,0.2255 0,1.33048 0,1.57853c0,0.4059 0.11212,0.56375 0.47093,0.6765c0.17941,0.0451 0.24669,0.0902 0.24669,0.1804c0,0.06766 -0.13456,0.09021 -0.24669,0.09021c-0.06727,0 -0.58306,-0.0451 -0.89702,-0.0451c-0.20183,0 -0.56064,0.0451 -0.85217,0.0451c-0.1794,0 -0.24668,-0.0451 -0.24668,-0.09021c0,-0.0902 0.11212,-0.1353 0.20182,-0.15785c0.42609,-0.11275 0.49337,-0.20294 0.53823,-0.5412c0.02242,-0.3608 0.06727,-1.33046 0.06727,-2.72858c0,-0.15785 0.02243,-0.94712 0,-1.33048c-0.02243,-0.29315 -0.06728,-0.40591 -0.42609,-0.49611c-0.1794,-0.0451 -0.24668,-0.0902 -0.24668,-0.15785c0,-0.06765 0.11213,-0.09019 0.24668,-0.09019c0.24668,0 0.56064,0.02254 0.78489,0.02254c0.35881,0 0.60549,-0.02254 0.80732,-0.02254c0.17941,0 0.26912,0.04509 0.26912,0.09019c0,0.0902 -0.06728,0.1353 -0.24669,0.15785c-0.40366,0.06765 -0.42609,0.20295 -0.44852,0.56376c-0.02242,0.29315 -0.04484,1.42068 -0.02241,1.57853c0.04485,0.15785 0.06727,0.15785 0.11212,0.15785z" fill="#0f1238" fill-opacity="1"></path></g><g><title>Vector</title><path d="M252.46312,164.95134c0,1.21772 -0.6055,2.05208 -1.211,2.50309c-0.53821,0.38336 -1.25584,0.49611 -1.68192,0.49611c-0.87461,0 -1.70436,-0.38336 -2.24258,-0.96967c-0.44851,-0.51865 -0.71762,-1.21772 -0.71762,-1.93933c0,-1.05987 0.47094,-1.78148 1.12129,-2.32269c0.42609,-0.33826 1.14371,-0.60885 1.7492,-0.60885c1.6595,0 2.98263,1.21771 2.98263,2.84134zM248.11252,162.87671c-0.38124,0.36081 -0.67276,1.01478 -0.67276,2.02954c0,1.28537 0.94188,2.75115 2.30985,2.75115c0.71762,0 1.03158,-0.3157 1.14371,-0.4059c0.33639,-0.31571 0.71762,-1.01478 0.71762,-2.02954c0,-0.94712 -0.40366,-1.84914 -1.03158,-2.3678c-0.35881,-0.29315 -0.89703,-0.47356 -1.27826,-0.47356c-0.35881,0 -0.87462,0.20296 -1.18858,0.49611z" fill="#0f1238" fill-opacity="1"></path></g><g><title>Vector</title><path d="M257.69728,162.25317c0.31396,-0.02255 0.47094,-0.06765 0.58307,-0.15785c0.06728,-0.0451 0.0897,-0.04511 0.11212,-0.04511c0.04485,0 0.06729,0.06766 0.04486,0.20296c-0.0897,0.2706 -0.13456,0.54121 -0.17941,0.99222c0,0.06765 -0.06727,0.15785 -0.13455,0.15785c-0.06727,0 -0.08971,-0.06766 -0.11213,-0.27061c-0.04485,-0.45101 -0.15698,-0.49612 -0.69519,-0.51867c-0.13456,0 -1.09887,0 -1.21099,0.02255c-0.04486,0 -0.06728,0.09021 -0.06728,0.11276c0,0.4059 0,1.35301 0,2.11972c0,0.99221 -0.00001,1.82659 0.04485,2.14229c0.04485,0.38336 0.08971,0.4961 0.6055,0.60885c0.11213,0.02255 0.24667,0.0902 0.24667,0.15786c0,0.0902 -0.15697,0.11275 -0.24667,0.11275c-0.06728,0 -0.6055,-0.04511 -0.96431,-0.04511c-0.42609,0 -0.8746,0.06767 -0.9643,0.06767c-0.17941,0 -0.24669,-0.04511 -0.24669,-0.11276c0,-0.06765 0.0897,-0.1353 0.15698,-0.1353c0.6055,-0.1353 0.6055,-0.29316 0.65035,-0.92457c0.02242,-0.49611 0.06727,-2.25502 0.06727,-2.93153c0,-0.49611 0,-0.65398 0,-1.03734c0,-0.06765 -0.04485,-0.11274 -0.06727,-0.11274c-0.17941,-0.02255 -0.91946,-0.04511 -1.05401,-0.04511c-0.31396,0 -0.51579,0.04511 -0.62792,0.20296c-0.04485,0.02255 -0.13457,0.15785 -0.29155,0.451c-0.06728,0.18041 -0.13455,0.18041 -0.15698,0.18041c-0.04485,0 -0.0897,-0.11274 -0.0897,-0.20294c0,-0.15786 0.15698,-0.63142 0.15698,-1.15008c0,-0.0451 0.06729,-0.13531 0.13457,-0.13531c0.04485,0 0.04485,0.06766 0.13455,0.13531c0.02243,0.02255 0.15697,0.15785 0.29153,0.15785c0.22426,0.02255 0.89703,0.04509 1.99589,0.04509c0.35881,-0.02255 1.52496,-0.04509 1.88377,-0.04509z" fill="#0f1238" fill-opacity="1"></path></g><g><title>Vector</title><path d="M261.9302,162.27256c0.29154,0 0.67277,0 0.7849,-0.02256c0.02243,0 0.06728,0.0451 0.06728,0.0902c0,0.40591 0.02243,0.65396 0.02243,0.81181c0,0.11275 -0.04485,0.2255 -0.13455,0.2255c-0.06728,0 -0.11214,-0.11276 -0.13457,-0.20296c-0.11213,-0.45101 -0.29152,-0.54119 -0.58306,-0.58629c-0.22425,-0.0451 -0.85218,-0.04511 -1.21099,-0.04511c-0.02243,0 -0.11212,0.0451 -0.13455,0.24805c-0.02243,0.2255 -0.04486,1.82658 -0.02243,1.96188c0,0.0451 0.02242,0.09021 0.06727,0.09021h0.56065c0.80733,0 0.85218,-0.04511 0.98674,-0.42846c0.04485,-0.13531 0.11213,-0.18041 0.15698,-0.18041c0.06728,0 0.06727,0.11276 0.06727,0.18041c-0.02242,0.24805 -0.02243,0.42844 -0.02243,0.60885c0,0.2255 0.02243,0.36081 0.02243,0.51866c0,0.15785 -0.04485,0.24806 -0.0897,0.24806c-0.06728,0 -0.11212,-0.09021 -0.13455,-0.18041c-0.11213,-0.40591 -0.15699,-0.42845 -0.67278,-0.451c-0.26911,-0.02255 -0.60549,-0.02255 -0.85217,-0.02255c-0.04486,0 -0.06728,0.06764 -0.06728,0.06764c-0.04485,0.18041 -0.02243,0.96966 -0.02243,1.35302c0,0.24805 0.04485,0.5863 0.08971,0.72161c0.04485,0.11275 0.11212,0.1804 0.15697,0.1804c0.13456,0.02255 0.42609,0.06765 0.7849,0.06765c0.11213,0 0.62793,0 0.80733,-0.06765c0.26911,-0.06765 0.49337,-0.24805 0.71763,-0.6314c0.0897,-0.1804 0.13455,-0.24806 0.20182,-0.24806c0.06728,0 0.08972,0.13531 0.06729,0.24806c0,0.06765 -0.2467,0.85692 -0.31397,0.92457c-0.02243,0.0451 -0.11213,0.11274 -0.13455,0.11274c-0.0897,0 -1.3904,-0.06765 -2.7808,-0.06765c-0.44851,0 -0.65034,0.04509 -0.9643,0.04509c-0.15698,0 -0.24668,-0.02254 -0.24668,-0.11274c0,-0.06765 0.11213,-0.11276 0.24669,-0.13531c0.42609,-0.11275 0.60549,-0.15785 0.62792,-0.63141c0.02243,-0.3608 0.06727,-1.37555 0.06727,-2.43542c0,-1.03731 0,-1.21771 0,-1.46577c-0.02243,-0.38335 -0.11213,-0.49611 -0.49337,-0.56376c-0.17941,-0.0451 -0.24668,-0.06766 -0.24668,-0.13531c0,-0.06765 0.11213,-0.11274 0.24669,-0.11274c0.40366,0 0.74006,0.04509 1.32313,0.04509z" fill="#0f1238" fill-opacity="1"></path></g><g><title>Vector</title><path d="M264.35367,162.25c0.24669,0 0.38124,0.02256 0.62792,0.02256c0.33639,0 0.91946,-0.02256 1.1213,-0.02256c0.15698,0 0.22425,0.0451 0.22425,0.0902c0,0.0451 -0.06727,0.11275 -0.20182,0.1353c-0.49337,0.11275 -0.56066,0.20296 -0.58308,0.33826c-0.04485,0.38336 -0.04486,1.26281 -0.04486,2.54817c0,0.67651 0.02244,1.51088 0.06729,1.78148c0.02243,0.11275 0.22425,0.3157 0.29153,0.3157c0.22426,0.0451 0.53823,0.04511 0.82977,0.04511c0.24668,0 0.49336,0 0.60549,-0.02255c0.06728,0 0.17941,0 0.33639,-0.15785c0.11213,-0.11275 0.24669,-0.24806 0.49337,-0.58632c0.08971,-0.15785 0.17941,-0.1804 0.22426,-0.1804c0.04485,0 0.06727,0.0902 0.04484,0.24805c-0.13455,0.42846 -0.20182,0.60887 -0.2691,0.92457c0,0.0902 -0.17941,0.1353 -0.20184,0.1353c-0.11213,0 -0.87461,-0.04509 -2.62383,-0.04509c-0.58307,0 -0.98673,0.04509 -1.09886,0.04509c-0.15698,0 -0.24669,-0.02255 -0.24669,-0.0902c0,-0.06766 0.06727,-0.13531 0.20183,-0.15786c0.47094,-0.0902 0.58307,-0.24805 0.62792,-0.58631c0.02243,-0.2255 0.04486,-1.57851 0.04486,-2.84132c0,-0.33826 0,-0.94712 0,-1.21772c0,-0.1804 -0.04486,-0.36081 -0.44853,-0.42846c-0.17941,-0.0451 -0.24667,-0.11275 -0.24667,-0.15785c-0.02243,-0.0902 0.04485,-0.1353 0.22426,-0.1353z" fill="#0f1238" fill-opacity="1"></path></g></g></g></g></svg>