<svg xmlns="http://www.w3.org/2000/svg" width="44" height="43" viewBox="0 0 44 43"><g><g><g><path fill="none" stroke="#0e0f38" stroke-miterlimit="20" stroke-width="2" d="M13.6 14.65v0l8.269 8.4v0l6.431-6.533v0"/></g><g><path fill="none" stroke="#0e0f38" stroke-miterlimit="20" stroke-width="2" d="M22.525 9.4v3.15"/></g><g><path fill="none" stroke="#0e0f38" stroke-miterlimit="20" stroke-width="2" d="M22.525 33.55v3.15"/></g><g><path fill="none" stroke="#0e0f38" stroke-miterlimit="20" stroke-width="2" d="M35.65 22.525H32.5"/></g><g><path fill="none" stroke="#0e0f38" stroke-miterlimit="20" stroke-width="2" d="M12.55 22.525H9.4"/></g><g><g><path fill="none" stroke="#0e0f38" stroke-miterlimit="20" stroke-width="2" d="M39.346 23.358c0 9.58-7.768 17.348-17.348 17.348-9.58 0-17.348-7.768-17.348-17.348 0-9.58 7.767-17.348 17.348-17.348 9.58 0 17.348 7.767 17.348 17.348z"/></g><g><path fill="none" stroke="#0e0f38" stroke-miterlimit="20" stroke-width="2" d="M10.13 42.535l2.74-4.565"/></g><g><path fill="none" stroke="#0e0f38" stroke-miterlimit="20" stroke-width="2" d="M33.87 42.535l-2.74-4.565"/></g><g><path fill="none" stroke="#0e0f38" stroke-miterlimit="20" stroke-width="2" d="M28.32 3.33a9.032 9.032 0 0 1 5.551-1.89c5.04 0 9.13 4.09 9.13 9.13 0 1.844-.547 3.57-1.497 5.004"/></g><g><path fill="none" stroke="#0e0f38" stroke-miterlimit="20" stroke-width="2" d="M2.497 15.574A9.041 9.041 0 0 1 1 10.57c0-5.04 4.09-9.13 9.13-9.13 2.091 0 4.018.702 5.552 1.89"/></g></g></g></g></svg>