<?xml version="1.0" encoding="UTF-8" standalone="no"?>
<!-- Created with Inkscape (http://www.inkscape.org/) -->

<svg
   xmlns:dc="http://purl.org/dc/elements/1.1/"
   xmlns:cc="http://creativecommons.org/ns#"
   xmlns:rdf="http://www.w3.org/1999/02/22-rdf-syntax-ns#"
   xmlns:svg="http://www.w3.org/2000/svg"
   xmlns="http://www.w3.org/2000/svg"
   xmlns:sodipodi="http://sodipodi.sourceforge.net/DTD/sodipodi-0.dtd"
   xmlns:inkscape="http://www.inkscape.org/namespaces/inkscape"
   width="5.6444502mm"
   height="5.6444502mm"
   viewBox="0 0 20.00002 20.00002"
   id="svg2"
   version="1.1"
   inkscape:version="0.91 r13725"
   sodipodi:docname="icon-room.svg">
  <defs
     id="defs4" />
  <sodipodi:namedview
     id="base"
     pagecolor="#ffffff"
     bordercolor="#666666"
     borderopacity="1.0"
     inkscape:pageopacity="0.0"
     inkscape:pageshadow="2"
     inkscape:zoom="5.6"
     inkscape:cx="7.7611016"
     inkscape:cy="-19.451605"
     inkscape:document-units="px"
     inkscape:current-layer="layer1"
     showgrid="false"
     fit-margin-top="0"
     fit-margin-left="0"
     fit-margin-right="0"
     fit-margin-bottom="0"
     inkscape:window-width="1920"
     inkscape:window-height="976"
     inkscape:window-x="-8"
     inkscape:window-y="-8"
     inkscape:window-maximized="1" />
  <metadata
     id="metadata7">
    <rdf:RDF>
      <cc:Work
         rdf:about="">
        <dc:format>image/svg+xml</dc:format>
        <dc:type
           rdf:resource="http://purl.org/dc/dcmitype/StillImage" />
        <dc:title></dc:title>
      </cc:Work>
    </rdf:RDF>
  </metadata>
  <g
     inkscape:label="Layer 1"
     inkscape:groupmode="layer"
     id="layer1"
     transform="translate(81.461692,-510.04889)">
    <path
       style="fill:#ffffff;fill-opacity:1;stroke:none"
       d="m -80.856422,526.27135 c -0.01355,-0.0135 -0.02463,-0.13744 -0.02463,-0.27533 l 0,-0.25072 -0.163814,-0.0725 c -0.134691,-0.0596 -0.171178,-0.0976 -0.205238,-0.21414 -0.02965,-0.10143 -0.03822,-1.11261 -0.03013,-3.55886 l 0.01129,-3.41717 0.09735,-0.20762 c 0.126154,-0.26904 0.312149,-0.47209 0.556399,-0.6074 l 0.195926,-0.10854 0.738848,-0.01 c 0.406366,-0.005 0.776546,-0.0183 0.822623,-0.0286 l 0.08378,-0.0187 -0.0099,-0.89498 -0.0099,-0.89499 -0.843712,-0.0185 -0.843712,-0.0185 -0.08908,-0.10365 c -0.049,-0.057 -0.08908,-0.13456 -0.08908,-0.17234 0,-0.16662 0.386247,-1.92001 0.45596,-2.06985 0.100383,-0.21576 0.36394,-0.47727 0.596898,-0.59226 0.182057,-0.0899 0.198514,-0.0912 1.145213,-0.0912 0.908901,0 0.969864,0.004 1.134768,0.0805 0.239666,0.11072 0.523077,0.38581 0.61304,0.59503 0.07819,0.18185 0.450264,1.89427 0.450264,2.0723 0,0.0622 -0.03736,0.13745 -0.09524,0.19188 -0.09349,0.0879 -0.110257,0.0899 -0.914324,0.10803 l -0.819086,0.0185 -0.0099,0.86813 c -0.009,0.78345 -0.0038,0.87263 0.05324,0.91432 0.0451,0.033 0.256338,0.0462 0.738165,0.0462 0.588224,0 0.700794,0.01 0.875754,0.0751 0.282532,0.1057 0.513796,0.32264 0.659557,0.61869 l 0.121421,0.24661 0.0096,3.47339 c 0.0094,3.40118 0.0081,3.47585 -0.06324,3.59203 -0.04622,0.0753 -0.117281,0.13009 -0.194331,0.14995 -0.121284,0.0313 -0.121498,0.0317 -0.139941,0.3062 l -0.01847,0.27488 -0.31401,0 -0.314011,0 -0.01847,-0.27706 -0.01847,-0.27707 -1.736292,0 -1.736292,0 -0.01079,0.2863 -0.01079,0.2863 -0.306299,0 c -0.168465,0 -0.317382,-0.0111 -0.330927,-0.0246 z m 4.500813,-2.54286 0,-1.29298 -2.087245,-0.01 c -1.929446,-0.009 -2.090735,-0.005 -2.133422,0.0532 -0.06527,0.0889 -0.06672,2.45164 -0.0015,2.51681 0.03406,0.0341 0.539521,0.0424 2.133423,0.0351 l 2.088788,-0.01 0,-1.29298 z m -2.674692,-0.21728 c -0.02766,-0.0333 -0.0399,-0.15347 -0.03303,-0.3242 l 0.01092,-0.27125 0.583295,-0.0102 0.583294,-0.0102 -0.01069,0.3242 -0.01069,0.32419 -0.539582,0.0102 c -0.432657,0.008 -0.548292,-3e-4 -0.58353,-0.0428 z m 2.674692,-2.47952 0,-0.7019 -2.087245,-0.01 c -1.929446,-0.009 -2.090735,-0.005 -2.133422,0.0532 -0.04842,0.0659 -0.06878,1.20292 -0.02364,1.32055 0.0203,0.0529 0.232513,0.0578 2.133422,0.0492 l 2.110884,-0.01 0,-0.70191 z m -2.674692,0.26298 c -0.02766,-0.0333 -0.0399,-0.15347 -0.03303,-0.32421 l 0.01092,-0.27125 0.583295,-0.0102 0.583294,-0.0102 -0.01069,0.32419 -0.01069,0.32419 -0.539582,0.0102 c -0.432657,0.008 -0.548292,-2.9e-4 -0.58353,-0.0427 z m 2.684343,-2.18398 c 0.01084,-0.58097 -0.02222,-0.68723 -0.258675,-0.8314 -0.115608,-0.0705 -0.189291,-0.0734 -1.851109,-0.0735 -1.930101,-1.5e-4 -1.905628,-0.003 -2.062779,0.25114 -0.06928,0.11209 -0.08434,0.19971 -0.09742,0.56676 -0.0085,0.2388 -0.0048,0.47673 0.0083,0.52875 l 0.02374,0.0946 2.114172,-0.01 2.114171,-0.01 0.0097,-0.51719 z m -2.700288,0.10467 c -0.04916,-0.0492 -0.02671,-0.55567 0.02659,-0.59991 0.03473,-0.0288 0.222029,-0.0392 0.581842,-0.0322 l 0.530627,0.0103 0.01067,0.32324 0.01067,0.32325 -0.567888,0 c -0.312339,0 -0.578971,-0.0111 -0.592517,-0.0246 z m 2.021389,-4.25375 c 0.0102,-0.0165 -0.04583,-0.3323 -0.124503,-0.70177 -0.216913,-1.01862 -0.198403,-1.00452 -1.318124,-1.00452 -1.099256,0 -1.090652,-0.006 -1.286824,0.9332 -0.07111,0.34056 -0.129298,0.66057 -0.129298,0.71114 l 0,0.092 1.420101,0 c 0.781056,0 1.428447,-0.0135 1.438648,-0.03 z m 2.560839,11.31112 c -0.0143,-0.0143 -0.026,-0.73767 -0.026,-1.60748 l 0,-1.58147 0.789183,-2.11791 0.789183,-2.1179 0.02004,-0.58902 c 0.02776,-0.81581 0.142343,-1.19389 0.525573,-1.73423 0.373205,-0.52619 0.92044,-0.89679 1.588727,-1.0759 0.241417,-0.0647 0.432843,-0.0693 2.881505,-0.0693 2.448663,0 2.640087,0.005 2.881507,0.0693 0.851938,0.22833 1.516715,0.78081 1.865738,1.55056 0.180267,0.39757 0.2258,0.62939 0.247812,1.26164 l 0.02058,0.59107 0.70278,1.90253 c 0.386527,1.0464 0.745864,2.01891 0.798523,2.16114 l 0.09575,0.25859 0,1.55158 0,1.55158 -0.323246,0.0107 -0.323246,0.0107 0,-0.58799 c 0,-0.44988 -0.01177,-0.59776 -0.0501,-0.62957 -0.03677,-0.0305 -1.617119,-0.0391 -5.938486,-0.0322 l -5.888387,0.009 -0.01847,0.60955 -0.01847,0.60955 -0.297245,0.0106 c -0.163485,0.006 -0.308945,-0.001 -0.323245,-0.0154 z m 12.520089,-2.03044 c 0.01322,-0.0527 0.01507,-0.29787 0.0041,-0.5449 -0.02491,-0.56173 -0.132354,-0.87441 -0.370553,-1.0783 -0.294924,-0.25244 0.01955,-0.239 -5.590762,-0.239 -4.972911,0 -5.075306,10e-4 -5.268017,0.0735 -0.212054,0.0793 -0.452883,0.29867 -0.568281,0.51755 -0.05553,0.10533 -0.07059,0.23402 -0.08125,0.69425 -0.0072,0.31072 -0.0038,0.58918 0.0076,0.61879 0.01797,0.0468 0.788729,0.0538 5.931893,0.0538 l 5.911235,0 0.02403,-0.0957 z m -0.613704,-2.56413 c 3e-6,-0.0804 -0.763847,-2.17609 -0.816104,-2.23905 -0.03575,-0.0431 -0.162807,-0.0512 -0.676055,-0.043 l -0.632025,0.0101 -0.01847,0.34505 c -0.01721,0.32154 -0.02553,0.35112 -0.122123,0.43407 l -0.103654,0.089 -2.936692,0 c -3.129886,0 -3.097876,0.002 -3.174482,-0.17411 -0.01582,-0.0363 -0.03861,-0.20732 -0.05065,-0.38003 l -0.0219,-0.31401 -0.635493,-0.0101 c -0.588988,-0.009 -0.638202,-0.005 -0.672504,0.0591 -0.06307,0.11785 -0.81619,2.17293 -0.81619,2.22719 -10e-7,0.0434 0.811638,0.0512 5.338173,0.0512 4.72146,0 5.338173,-0.006 5.338173,-0.0554 z m -5.674606,-2.12718 c 0.01233,-0.0321 0.02242,-0.44716 0.02242,-0.92226 0,-0.81623 -0.0039,-0.86593 -0.07146,-0.90207 -0.0441,-0.0236 -0.44618,-0.0382 -1.050219,-0.0382 -0.840529,0 -0.986962,0.008 -1.036815,0.058 -0.04944,0.0494 -0.05805,0.18532 -0.05805,0.91617 0,0.61817 0.0124,0.87052 0.04433,0.90245 0.03238,0.0324 0.325036,0.0443 1.085848,0.0443 0.915648,0 1.044226,-0.007 1.06394,-0.0584 z m 2.858412,-0.88101 c 0.0077,-0.71216 -7.1e-4,-0.92771 -0.03694,-0.9507 -0.05403,-0.0343 -1.987776,-0.0422 -2.075647,-0.008 -0.0511,0.0196 -0.05844,0.13701 -0.05844,0.93588 0,0.50239 0.01133,0.92478 0.02518,0.93863 0.01385,0.0139 0.500106,0.0208 1.080565,0.0154 l 1.055382,-0.01 0.0099,-0.92097 z m -5.717494,-0.69451 0.01847,-0.72887 0.102421,-0.10234 0.102419,-0.10233 2.871442,-0.0108 c 1.579293,-0.006 2.924282,-10e-4 2.988869,0.0104 0.06458,0.0116 0.156015,0.0524 0.203183,0.0905 0.08341,0.0675 0.08626,0.0899 0.104228,0.82079 l 0.01847,0.75142 0.554136,0 0.554135,0 0.01055,-0.40341 c 0.0058,-0.22189 -0.008,-0.49276 -0.03066,-0.60195 -0.05353,-0.25788 -0.289191,-0.72221 -0.476361,-0.93862 -0.191063,-0.22091 -0.590159,-0.49184 -0.867585,-0.58899 -0.381833,-0.1337 -0.773417,-0.15044 -3.190939,-0.13638 -2.059872,0.012 -2.340485,0.0205 -2.534926,0.0773 -0.691936,0.20198 -1.251654,0.7474 -1.465824,1.42839 -0.07651,0.24327 -0.14075,1.00459 -0.09486,1.12418 0.02004,0.0522 0.09333,0.0586 0.568686,0.0497 l 0.545679,-0.0102 0.01847,-0.72886 z"
       id="path4147"
       inkscape:connector-curvature="0" />
  </g>
</svg>
