<?xml version="1.0" encoding="utf-8"?>
<!-- Generator: Adobe Illustrator 24.2.1, SVG Export Plug-In . SVG Version: 6.00 Build 0)  -->
<svg version="1.1" id="Layer_1" xmlns="http://www.w3.org/2000/svg" xmlns:xlink="http://www.w3.org/1999/xlink" x="0px" y="0px"
	 viewBox="0 0 120 120" style="enable-background:new 0 0 120 120;" xml:space="preserve">
<style type="text/css">
	.st0{fill:#111239;}
</style>
<g>
	<path class="st0" d="M96,63.3V52.2c0-2.4,0.9-4.8,2.7-6.8l0.9-1.1c2.3-2.6,3.5-5.7,3.5-8.9V9.3c0-1-1-1.8-2.3-1.8
		c-1.3,0-2.3,0.8-2.3,1.8v26.1c0,2.5-0.9,4.8-2.7,6.8l-1,1.1c-2.3,2.7-3.5,5.7-3.5,8.9v11.1c0,7.1,0.5,14.5,1.6,21.8l2.9,20.5
		c0.2,1.4-0.4,2.8-1.6,3.8c-1.2,1-2.8,1.6-4.6,1.6c-1.8,0-3.4-0.6-4.6-1.6c-1.2-1-1.7-2.4-1.6-3.7l2.9-20.6c1-7.4,1.5-14.8,1.5-21.8
		V52.2c0-3.2-1.2-6.2-3.5-8.9l-0.9-1c-1.8-2-2.7-4.4-2.7-6.8V9.3c0-1-1-1.8-2.3-1.8c-1.3,0-2.3,0.8-2.3,1.8v26.1
		c0,3.2,1.2,6.3,3.5,8.9l0.9,1c1.8,2,2.7,4.4,2.7,6.8v11.1c0,6.9-0.5,14.1-1.5,21.4l-2.9,20.6c-0.3,2.4,0.7,4.8,2.7,6.5
		c2,1.8,5,2.8,8.1,2.8c3,0,6-1,8-2.8c2.1-1.8,3.1-4.2,2.8-6.6l-2.9-20.6C96.5,77.5,96,70.3,96,63.3z"/>
	<path class="st0" d="M93.4,34.5c1.3,0,2.3-1,2.3-2.3v-22c0-1.3-1-2.3-2.3-2.3c-1.3,0-2.3,1-2.3,2.3v22C91,33.5,92.1,34.5,93.4,34.5
		z"/>
	<path class="st0" d="M85.9,34.5c1.3,0,2.3-1,2.3-2.3v-22c0-1.3-1-2.3-2.3-2.3c-1.3,0-2.3,1-2.3,2.3v22
		C83.5,33.5,84.6,34.5,85.9,34.5z"/>
	<path class="st0" d="M45.1,9.4c-3.1-2-7-3.1-11-3.1l-0.5,0C29.7,6.4,25.9,7.5,23,9.4c-2.1,1.4-4,2.9-5.6,4.7
		c-3.5,4-5.4,8.6-5.3,13.5l0,0.2c0,7.4,3.7,14.4,10.5,19.7c3.2,2.5,5,5.3,5,7.7v8.1c0,7-0.5,14.2-1.6,21.5l-2.8,20.6
		c-0.3,2.3,0.6,4.6,2.6,6.4c1.9,1.7,4.7,2.8,7.6,2.9c0.2,0,0.4,0,0.7,0c0,0,0,0,0,0c3,0,5.9-1,8-2.8c2.1-1.8,3.1-4.2,2.8-6.6
		L42,84.8c-1-7.3-1.5-14.5-1.5-21.5l0-8.1c0-2.5,1.8-5.3,5-7.8C52.2,42.3,56,35.1,56,27.9l0-0.4c0-4.8-1.9-9.4-5.4-13.4
		C49.1,12.3,47.2,10.7,45.1,9.4z M51.4,27.8c0,6.4-3.3,12.6-9.1,17.1c-2.4,1.8-6.4,5.6-6.4,10.3l0,8.1c0,7.1,0.5,14.4,1.5,21.8
		l2.9,20.5c0.2,1.4-0.4,2.8-1.6,3.8c-1.2,1-2.8,1.6-4.5,1.6l-0.2,0c-0.1,0-0.2,0-0.3,0c-1.7-0.1-3.3-0.7-4.4-1.7
		c-1.1-1-1.6-2.3-1.5-3.7l2.8-20.6c1-7.4,1.6-14.7,1.6-21.9v-8.1c0-4.7-4-8.5-6.4-10.3c-5.9-4.6-9.1-10.6-9.1-17.2l0-0.2
		c0-4,1.5-7.9,4.5-11.3c1.4-1.5,3-2.9,4.7-4c2.2-1.4,4.9-2.2,7.7-2.3H34c3,0,5.8,0.8,8.1,2.3c1.8,1.1,3.4,2.5,4.7,4
		c2.9,3.3,4.5,7.3,4.5,11.2L51.4,27.8z"/>
</g>
</svg>
