<svg xmlns="http://www.w3.org/2000/svg" width="42" height="42" viewBox="0 0 42 42"><defs><clipPath id="sb7ha"><path d="M0 38.08h42V42H0z"/></clipPath><clipPath id="sb7hb"><path d="M14.07 0h3.202v11H14.07z"/></clipPath><clipPath id="sb7hc"><path d="M20 0h3.001v11H20z"/></clipPath><clipPath id="sb7hd"><path d="M24.73 0h3.202v11H24.73z"/></clipPath></defs><g><g><g><g/><g clip-path="url(#sb7ha)"><path fill="#0e0f38" d="M41.3 38.08c-.387 0-.7.358-.7.8 0 .838-.597 1.52-1.33 1.52H2.73c-.733 0-1.33-.682-1.33-1.52 0-.442-.313-.8-.7-.8-.386 0-.7.358-.7.8C0 40.6 1.225 42 2.73 42h36.54c1.505 0 2.73-1.4 2.73-3.12 0-.442-.313-.8-.7-.8"/></g></g><g><path fill="#0e0f38" d="M3.708 36A.697.697 0 0 1 3 35.312c0-8.957 7.035-16.414 16.131-17.245a2.584 2.584 0 0 1-.398-1.383c0-1.48 1.237-2.684 2.76-2.684 1.521 0 2.76 1.204 2.76 2.684 0 .495-.14.971-.4 1.383 9.05.824 16.059 8.206 16.131 17.104.01.046.016.093.016.14 0 .381-.317.689-.708.689H3.708m16.154-16.609c-8.425.474-15.074 7.1-15.432 15.223h34.135c-.357-8.13-7.009-14.755-15.439-15.223a.708.708 0 0 1-.13-.019c-.404-.098-.838-.453-.838-1 0-.303.115-.592.325-.812.233-.241.36-.55.36-.877 0-.72-.604-1.307-1.345-1.307-.742 0-1.345.587-1.345 1.307 0 .327.125.636.354.871.214.224.33.513.33.819 0 .561-.447.914-.863 1.004a.761.761 0 0 1-.112.014"/></g><g><g/><g clip-path="url(#sb7hb)"><path fill="#0e0f38" d="M16.112 11c.16 0 .32-.042.46-.126.361-.218.448-.647.193-.958-.984-1.2-1.484-2.368-.726-4.162l.823-1.95c.445-1.052.526-2.117.25-3.258-.09-.371-.516-.607-.948-.532-.433.078-.71.442-.619.814.215.882.153 1.702-.186 2.507l-.824 1.95c-1.055 2.499-.126 4.144.923 5.423.155.19.403.291.654.291"/></g></g><g><g/><g clip-path="url(#sb7hc)"><path fill="#0e0f38" d="M21.915 11c.149 0 .3-.042.43-.126.34-.218.42-.647.182-.958-.923-1.2-1.392-2.368-.681-4.162l.771-1.95c.417-1.053.494-2.118.234-3.258-.085-.371-.484-.607-.888-.532-.406.078-.666.442-.58.814.2.881.143 1.701-.175 2.507l-.772 1.95c-.99 2.499-.118 4.144.865 5.423a.77.77 0 0 0 .614.291"/></g></g><g><g/><g clip-path="url(#sb7hd)"><path fill="#0e0f38" d="M26.773 11a.89.89 0 0 0 .46-.126c.36-.218.447-.647.193-.958-.984-1.2-1.484-2.368-.727-4.162l.824-1.95c.444-1.053.526-2.118.248-3.258-.09-.371-.515-.607-.948-.532-.432.078-.708.442-.619.814.216.881.155 1.701-.185 2.507l-.824 1.95c-1.056 2.499-.125 4.144.923 5.423.155.19.403.291.655.291"/></g></g></g></g></svg>