<svg xmlns="http://www.w3.org/2000/svg" width="32" height="32"><path fill="none" stroke="#0e0f38" stroke-miterlimit="20" stroke-width="2" d="M19.26 25.786H1m7.17 2.61h3.913m7.177-7.831v8.478A1.956 1.956 0 0117.304 31H2.957A1.956 1.956 0 011 29.043V2.957C1 1.876 1.876 1 2.957 1h14.347c1.081 0 1.957.876 1.957 1.957v4.565"/><path fill="#0e0f38" d="M18.286 14.048a.978.978 0 11-1.955.001.978.978 0 011.955 0m3.911-.001a.978.978 0 11-1.956.001.978.978 0 011.956 0m3.91-.001a.978.978 0 11-1.956.001.978.978 0 011.956 0"/><path fill="none" stroke="#0e0f38" stroke-miterlimit="20" stroke-width="2" d="M21.213 7.52c-5.403 0-9.783 2.92-9.783 6.522 0 1.903 1.23 3.61 3.181 4.803l-1.097 3.293a.651.651 0 00.965.759l4.122-2.576a14.35 14.35 0 002.612.242c5.402 0 9.782-2.92 9.782-6.521 0-3.602-4.38-6.522-9.782-6.522z"/></svg>