<svg xmlns="http://www.w3.org/2000/svg" width="42" height="42"><path fill="none" stroke="#0e0f38" stroke-miterlimit="20" stroke-width="2" d="M25.348 34.045H1m9.57 3.48h5.217m9.561-10.438v11.304A2.609 2.609 0 0122.739 41H3.61A2.609 2.609 0 011 38.391V3.61A2.609 2.609 0 013.609 1h19.13a2.609 2.609 0 012.609 2.609v6.087"/><path fill="#0e0f38" d="M24.039 18.394a1.304 1.304 0 11-2.608.002 1.304 1.304 0 012.608-.002m5.22 0a1.304 1.304 0 11-2.608.002 1.304 1.304 0 012.608-.002m5.22 0a1.304 1.304 0 11-2.608.002 1.304 1.304 0 012.608-.002"/><path fill="none" stroke="#0e0f38" stroke-miterlimit="20" stroke-width="2" d="M27.953 9.7c-7.203 0-13.043 3.893-13.043 8.696 0 2.537 1.64 4.814 4.242 6.404l-1.463 4.39a.868.868 0 001.286 1.013l5.496-3.435c1.11.205 2.274.323 3.482.323 7.204 0 13.044-3.893 13.044-8.695 0-4.803-5.84-8.696-13.044-8.696z"/></svg>