<svg xmlns="http://www.w3.org/2000/svg" width="32" height="32"><path fill="none" stroke="#0e0f38" stroke-miterlimit="20" stroke-width="2" d="M1 4.916h15m3.26 20.87H1m7.17 2.61h3.913"/><g fill="none" stroke="#0e0f38" stroke-miterlimit="20" stroke-width="2"><path d="M19.26 20.565v8.478A1.956 1.956 0 0117.304 31H2.957A1.956 1.956 0 011 29.043V2.957C1 1.876 1.876 1 2.957 1h14.347a1.953 1.953 0 011.957 1.957"/><path d="M21.87 2.96a9.13 9.13 0 00-9.13 9.13 9.096 9.096 0 002.774 6.547l-1.13 3.681a.652.652 0 00.965.76l3.464-2.393a9.08 9.08 0 003.057.536 9.13 9.13 0 100-18.261zm-5.22 5.866h10.435m-10.435 3.26h10.435m-10.435 3.26h7.174"/></g></svg>