<svg xmlns="http://www.w3.org/2000/svg" width="31" height="31"><path fill="none" stroke="#0e0f38" stroke-miterlimit="20" stroke-width="2" d="M15 7.5h10m-10 3h10m-10 4h7m-1.318 6.746a10.083 10.083 0 01-9.595 6.966c-1.135 0-2.22-.195-3.24-.542-1.395 1.262-2.996 1.925-4.964 2.32a.316.316 0 01-.345-.448l1.898-3.851A10.028 10.028 0 011 18.125 10.08 10.08 0 0110.318 8.07"/><path fill="none" stroke="#0e0f38" stroke-miterlimit="20" stroke-width="2" d="M26.568 18.762l1.898 3.85a.315.315 0 01-.345.45c-1.968-.396-3.57-1.057-4.964-2.32a10.07 10.07 0 01-3.24.542A10.084 10.084 0 019.83 11.197 10.083 10.083 0 0119.917 1.11a10.084 10.084 0 0110.087 10.087c0 3.02-1.33 5.718-3.436 7.565z"/></svg>