<svg xmlns="http://www.w3.org/2000/svg" width="43" height="27"><path fill="none" stroke="#0e0f38" stroke-miterlimit="20" stroke-width="2" d="M41.967 2.105a.919.919 0 00-.665-.642 15.763 15.763 0 00-10.405.991L9.828 12.202v0L4.61 8.753v0L2 9.615v0l4.349 8.624c3.437 0 6.832-.75 9.944-2.197l6.264-2.91v0L20.266 26v0h2.61v0l7.583-16.54v0l5.962-2.77a18.8 18.8 0 005.309-3.695.908.908 0 00.237-.89z"/><path fill="none" stroke="#0e0f38" stroke-miterlimit="20" stroke-width="2" d="M25 5.429v0L12.647 2v0L10 2.857v0L18.824 8v0"/><path fill="none" stroke="#0e0f38" stroke-dasharray="2 2" stroke-miterlimit="20" stroke-width="2" d="M33 5l-18 8"/><path fill="none" stroke="#0e0f38" stroke-miterlimit="20" stroke-width="2" d="M41 1l-5 2"/></svg>