<?xml version="1.0" encoding="utf-8"?>
<!-- Generator: Adobe Illustrator 24.2.1, SVG Export Plug-In . SVG Version: 6.00 Build 0)  -->
<svg version="1.1" id="Layer_1" xmlns="http://www.w3.org/2000/svg" xmlns:xlink="http://www.w3.org/1999/xlink" x="0px" y="0px"
	 viewBox="0 0 120 120" style="enable-background:new 0 0 120 120;" xml:space="preserve">
<style type="text/css">
	.st0{fill:#111239;}
</style>
<path class="st0" d="M97.6,67.1c0-0.3,0-0.7,0-1c0-0.8-0.1-1.7-0.2-2.6c0-0.4-0.1-0.7-0.1-1.1c-0.1-0.5-0.1-1.1-0.2-1.7
	c0-0.4-0.1-0.7-0.2-1.1c-0.1-0.6-0.2-1.2-0.3-1.8c-0.1-0.4-0.1-0.8-0.2-1.2c-0.1-0.4-0.1-0.9-0.2-1.3c0,0,0-0.1,0-0.1
	c-0.6-2.9-1.4-6-2.3-9.3c-0.2-0.8-1-1.4-1.8-1.4H70c-0.8,0-1.6,0.6-1.8,1.4c-1,3.3-1.7,6.4-2.3,9.3c0,0,0,0,0,0.1
	c-0.2,0.7-0.3,1.4-0.4,2.1c0,0.2-0.1,0.5-0.1,0.7c-0.1,0.7-0.2,1.5-0.3,2.2c0,0.2-0.1,0.5-0.1,0.7c-0.1,0.7-0.2,1.4-0.2,2.1
	c0,0.2,0,0.4-0.1,0.6c-0.1,0.7-0.1,1.4-0.1,2.1c0,0.1,0,0.2,0,0.3c-0.4,11.8,3.7,17.6,8.5,22c0.1,0.1,3.4,2.8,8,2.8h0
	c4.6,0,7.9-2.7,8-2.8C93.7,83.8,97.7,78.2,97.6,67.1C97.6,67.2,97.6,67.2,97.6,67.1z M90.6,48.4c0.5,1.9,1,3.7,1.4,5.4H70
	c0.4-1.7,0.9-3.5,1.4-5.4H90.6z M86.5,85.2c0,0-2.3,1.9-5.5,1.9h0c-3.1,0-5.5-1.8-5.5-1.8c-2.9-2.7-7.2-6.7-7.3-17.6
	c0-0.5,0-1,0-1.5c0-0.3,0-0.7,0.1-1c0-0.9,0.1-1.8,0.2-2.7c0-0.4,0.1-0.8,0.1-1.2c0.1-0.5,0.1-1,0.2-1.6c0.1-0.4,0.1-0.9,0.2-1.3
	c0.1-0.3,0.1-0.6,0.2-1h23.5c0,0.3,0.1,0.5,0.2,0.8c0,0.2,0.1,0.4,0.1,0.6c0.2,1.3,0.4,2.5,0.5,3.7c0,0.2,0.1,0.5,0.1,0.7
	c0.1,1.3,0.2,2.5,0.2,3.7C93.9,78.4,89.4,82.5,86.5,85.2z"/>
<path class="st0" d="M94.2,112.5H82.9V96.3c0-1-0.9-1.9-1.9-1.9c-1,0-1.9,0.9-1.9,1.9v16.2H67.8c-1,0-1.9,0.9-1.9,1.9
	c0,1,0.9,1.9,1.9,1.9h26.4c1,0,1.9-0.9,1.9-1.9C96.1,113.4,95.3,112.5,94.2,112.5z"/>
<path class="st0" d="M55.2,47.5c-0.2-0.6-0.3-1.1-0.4-1.8c-0.1-0.6-0.2-1.2-0.3-1.8c-0.1-0.4-0.2-0.9-0.2-1.3
	C54.1,42.1,54,41.5,54,41c-0.1-0.4-0.1-0.8-0.2-1.2c-0.1-0.6-0.1-1.3-0.2-1.9c0-0.3-0.1-0.7-0.1-1c-0.1-1-0.1-1.9-0.1-2.9V9.1
	c0-3.7-3-6.8-6.8-6.8h-5c-3.7,0-6.8,3-6.8,6.8v24.9c0,4-0.4,7.9-1.3,11.9c-0.1,0.6-0.3,1.1-0.4,1.7l-7.4,27.9
	C24.6,80.2,24,85.1,24,90V107c0,5.2,4.2,9.4,9.4,9.4h21.8c5.2,0,9.4-4.2,9.4-9.4V90c0-4.9-0.6-9.8-1.9-14.6L55.2,47.5z M38.8,9.1
	c0-1.7,1.3-3,3-3h5c1.7,0,3,1.3,3,3v24.9c0,1,0,2,0.1,2.9c0,0.3,0,0.6,0.1,0.9c0,0.7,0.1,1.4,0.2,2.2c0,0.3,0.1,0.6,0.1,0.9
	c0.1,0.8,0.2,1.5,0.3,2.3c0,0.2,0.1,0.5,0.1,0.7c0,0.2,0.1,0.4,0.1,0.5H37.8c0-0.2,0-0.3,0.1-0.5c0.1-0.3,0.1-0.7,0.2-1
	c0.1-0.6,0.2-1.3,0.3-1.9c0-0.4,0.1-0.7,0.1-1.1c0.1-0.7,0.1-1.3,0.2-2c0-0.3,0-0.6,0.1-0.9c0-1,0.1-1.9,0.1-2.9V9.1z M60.7,107
	c0,3.1-2.5,5.6-5.6,5.6H33.4c-3.1,0-5.6-2.5-5.6-5.6V90c0-4.6,0.6-9.2,1.8-13.6l7.4-27.9c0-0.2,0.1-0.3,0.1-0.5h14.4
	c0,0.2,0.1,0.3,0.1,0.5L59,76.4c1.2,4.4,1.8,9,1.8,13.6V107z"/>
</svg>
